
    <svg width="256" height="256" viewBox="0 0 256 256" fill="none" xmlns="http://www.w3.org/2000/svg">
        
<g id="Frame 44">
<rect width="256" height="256" fill="#FFED4D"/>
</g>

        
<style type="text/css">
	.st0{fill:none;stroke:#000000;stroke-width:4;stroke-miterlimit:10;}
</style>
<g id="head">
	<path d="M35,60.1c0.5,0,0.7,0.2,0.5,0.6c-0.2,0.3-0.1,0.6,0.4,0.6c0.4,0,0.5,0.6,0.4,1.5c-0.2,0.8-0.1,1.5,0.1,1.5
		c0.4,0,0.9,9.1,0.7,13c-0.4,8.8-0.4,9.5,0.5,10c0.7,0.4,0.7,0.5,0.1,0.6c-0.5,0-0.7,0.4-0.5,0.7c0.1,0.4-0.2,1.7-0.6,2.8l-0.9,2.1
		l1.6-1c1.5-1,1.6-1,1.6,0.2c0,0.8-0.3,1.1-0.8,0.9c-0.5-0.2-1-0.1-1.3,0.3c-0.2,0.4,0.1,0.7,0.7,0.7c0.8,0,0.9,0.1,0.3,0.5
		c-1.1,0.7-1,1.4,0.3,1.9c1,0.4,1,0.5-0.2,0.5c-1.3,0.1-1.5,0.7-1.4,4c0,1,0.1,2.8,0.1,4.1c0.1,1.4,0.4,2.2,0.8,2
		c0.4-0.2,0.9,0.1,1.1,0.6c0.2,0.7,0.1,0.8-0.8,0.5c-0.7-0.2-1.2-0.1-1.2,0.2s0.3,0.7,0.6,0.7c0.4,0,0.4,0.4,0,1.2
		c-0.8,1.5-0.2,1.6,1.4,0.1c1-0.8,1.1-0.8,0.5,0c-0.4,0.5-0.5,1.1-0.2,1.2c0.2,0.1,0.1,0.8-0.4,1.7c-0.8,1.4-0.8,1.4-0.5,0.1
		c0.2-0.7,0.1-1.3-0.2-1.3c-0.8,0-0.6,2.2,0.4,3c0.7,0.5,0.9,3.1,1,12.7c0.1,6.6,0,11.8-0.2,11.7c-0.6-0.4-0.5,4,0.1,5.7
		c0.4,0.8,0.6,3,0.6,4.7c0.1,1.8,0.4,3.6,0.8,4c0.1,0.1,0.1,0.2,0.2,0.3c1.1-0.1,2.1-0.1,3.2-0.2c-0.2-1.1-0.5-2.3-0.6-3.3
		c-0.2-1.8-0.7-4.9-1.1-6.8c-0.3-1.9-0.6-12.4-0.6-23.2c0-21.5-0.5-34.6-1.3-40.3c-0.6-3.7-0.3-27,0.3-28c0.2-0.3,0.1-0.7-0.2-0.9
		c-0.3-0.2-0.4-1.9-0.2-3.7c0.4-3.3,0.3-3.3-1.2-3.3c-0.8,0-1.7,0.2-1.9,0.6c-0.2,0.3,0.1,1.5,0.5,2.7c0.5,1.1,0.7,2.7,0.5,3.3
		c-0.2,0.7-0.1,2.1,0.3,3c0.8,2.3-0.2,3.3-3.6,3.6C33.6,58.3,34,60.1,35,60.1z M39.3,101.2c0.1,1-0.2,1.8-0.5,1.8
		c-0.4,0-0.5-0.3-0.3-0.6c0.2-0.4-0.1-0.6-0.5-0.6c-0.5,0-1-0.1-1-0.2c0-0.7,1.2-3.4,1.4-3.4c0.2,0,0.1,0.4-0.1,1
		c-0.2,0.5-0.1,0.8,0.2,0.6C39,99.6,39.3,100.2,39.3,101.2z"/>
	<path d="M207.2,67.6c0,1.5,0.2,2.8,0.5,2.8c0.5,0,0.8,4.6,1,22.3c0.3,20.3,1.5,34.1,3,33.6c0.7-0.2,0.6-1.9-0.7-10.3
		c-1.1-8.2-1.1-18.9,0-18.9c1,0,1.3,1.8,1.9,11.9c0.2,3.1,0.5,6.5,0.6,7.5c0.3,2.3,1,13,1,14.2c-0.2,4.3-0.1,6.1,0.8,7.5
		c0.6,0.8,0.8,1.6,0.4,1.6c-0.3,0-0.5,0.7-0.5,1.5c0,0.8,0.1,1.4,0.4,1.3c0.3-0.2,0.3,5.3,0.1,12.3c0,0.1,0,0.2,0,0.4
		c0.6-0.7,1.4-1.2,2.2-1.5c0.1-0.7,0.3-1,0.6-0.9c0.2,0.1,0.4,0.3,0.5,0.6c0.6-0.1,1.2,0,1.8,0.1c0-0.3,0.1-0.5,0.1-0.6
		c0.3-1.4,0.1-1.8-1.1-2.2c-1.4-0.5-1.4-0.8-1-2.8c0.3-1.3,0.4-2.5,0.3-2.7c-0.1-0.2-0.3-3-0.4-6.1c-0.1-3.1-0.3-6.2-0.6-6.7
		c-0.3-0.5-0.7-2.3-0.8-3.9c-0.4-4-2.1-19.3-2.8-25.5c-0.3-2.8-0.6-8.1-0.7-11.9c-0.1-5.4-0.3-7.2-1.2-8.9c-0.8-1.5-1.1-3.4-1.1-6
		c0-4.5-1-10.4-2.1-12.5c-1.5-2.9-2.2-6.7-1.8-10c0.4-3,0.3-3.3-0.8-3.3c-0.7,0-1.4,0.2-1.6,0.6c-0.2,0.3-0.2,1.6,0.1,2.7
		c0.2,1.4,0.1,2.5-0.4,3c-0.6,0.7-0.6,1.3-0.2,2.3C206.8,63.4,207.2,65.1,207.2,67.6z M210.3,90.6c0.4-0.5,1-0.9,1.3-0.9
		c0.4,0,0.3,0.4-0.1,0.9c-0.4,0.5-1,0.9-1.3,0.9C209.8,91.5,209.8,91.1,210.3,90.6z M211.7,92.1c0.7,0,0.9,0.2,0.5,0.4
		c-0.4,0.1-0.8,0.8-0.8,1.4c0,1.4-1,2.1-1.4,0.9C209.5,93.3,210.3,92.1,211.7,92.1z"/>
</g>
<path class="st0" d="M205.3,52.1c0.3-0.7,0.6-1.3,0.9-2c-1.7,8.6,1.4,17.3,3,25.9c0.9,4.8,1.2,9.6,1.5,14.5
	c1.2,17.8,2.1,35.7,2.9,53.6c0.2,4,3.9,4.5,2.9,8.3c-1.3,5.1-2.7,10.4-6.1,14.5c-2.4,3-5.7,5.1-8.6,7.6
	c-13.1,10.8-20.4,27.2-32.8,38.9c-11.5,10.9-26.3,16.3-42.1,16.5c-7.6,0.1-14.8-3.8-20.6-8.6c-5.8-4.9-10.6-10.9-16.1-16.1
	c-6.9-6.6-14.8-12.1-22.5-17.8c-9.2-6.8-18.4-14.2-24.5-24.1c-1.5-2.4-3.2-5.2-3.3-8.1c-0.1-1.7,0.1-3.4-0.1-5
	c-0.3-2.5-0.3-5-0.1-7.6c0.6-6.9,2.6-13.7,2.6-20.6c0-4.8-1.1-9.6-1.8-14.3c-3.1-21.2,0.1-43-2.7-64.3"/>

        
<g id="hair">
<path id="Vector" d="M144.668 18.5545C144.668 35.4742 137.327 37.0704 135.731 20.4699C133.816 0.67709 129.986 10.5735 131.262 31.9625C132.22 49.2014 131.581 54.6285 127.432 57.8209C124.56 60.3748 121.687 61.6518 121.049 61.0133C120.091 60.3748 119.134 48.563 118.495 35.1549C118.176 21.4276 116.58 10.2543 115.623 10.2543C114.027 10.2543 106.366 24.62 106.366 28.1317C106.366 29.0894 107.643 29.0894 109.239 27.8124C114.346 24.9393 116.261 31.6433 112.75 40.2628C110.835 45.6898 110.835 48.563 112.75 48.563C114.665 48.563 115.942 52.3938 115.942 57.1824C115.942 71.229 109.558 61.0133 108.281 45.3706C107.005 28.1317 103.175 26.2162 96.7911 39.6243C92.3226 49.8399 92.0034 49.8399 91.0459 42.4974C90.0884 37.3896 92.0034 32.9202 96.1527 29.7279C99.6637 26.8547 103.175 20.7892 103.813 15.6813C106.047 3.86948 100.94 4.50796 98.387 16.639C96.4719 25.5777 90.4075 30.3663 90.4075 22.7046C90.4075 21.1084 89.1308 20.4699 87.2158 21.4276C85.6199 22.3854 84.024 21.4276 84.024 19.193C84.024 16.3198 83.0665 16.3198 80.8322 19.8314C79.2363 22.3854 77.6404 25.897 77.6404 27.8124C77.6404 29.4086 79.2363 28.7701 80.8322 26.2162C84.3432 20.7892 84.6623 21.7469 85.6199 44.0936C85.6199 51.1169 89.1308 63.5672 92.961 71.8674C100.302 87.5102 105.409 92.2987 101.26 79.5292C99.9829 75.6983 99.0253 68.0366 99.3445 62.9287C99.9829 53.6708 99.6637 53.6708 95.1952 59.4171C91.0459 65.1634 90.4075 65.1634 90.4075 60.0556C90.4075 53.3516 101.898 40.2628 102.536 46.0091C102.855 48.2437 104.451 60.0556 106.047 71.8674C107.643 83.9985 110.516 95.4911 112.75 97.4066C115.942 100.599 116.261 99.9605 114.346 94.8527C113.069 91.341 111.473 85.5947 110.516 82.0831C109.239 76.9753 110.516 77.6137 115.942 84.637C119.772 89.4256 124.24 92.618 125.836 91.341C127.432 90.3833 128.709 92.618 128.709 96.1296C128.709 99.9605 129.986 102.834 131.262 102.834C132.858 102.834 133.816 99.6412 133.496 95.4911C133.177 91.6603 135.092 85.5947 137.965 82.4023C141.476 77.933 141.795 76.9753 138.603 78.8907C135.092 80.8061 134.454 80.1677 136.369 75.3791C137.646 72.1867 139.561 65.4826 140.518 60.6941C141.476 55.9055 143.391 52.7131 144.987 53.6708C146.583 54.6285 147.859 54.3093 147.54 52.7131C146.264 45.3706 148.179 35.4742 150.732 37.0704C155.52 40.2628 157.116 51.7554 153.285 55.9055C147.221 62.2903 140.518 75.0598 144.349 72.5059C146.583 71.229 147.859 73.4636 148.179 77.933C148.179 82.4023 150.094 79.5292 152.966 69.952C158.073 53.3516 165.095 48.563 160.307 65.1634C156.477 78.5715 156.796 83.6793 160.627 83.6793C162.542 83.6793 163.818 80.4869 163.818 76.656C163.818 72.8251 166.053 67.3981 168.925 64.2057C174.351 58.1401 172.755 46.6475 167.329 50.1592C162.222 53.0323 154.881 37.7088 153.285 20.7892C152.966 17.2775 151.37 14.7236 149.775 15.6813C148.498 16.639 148.179 14.4044 149.455 10.5735C150.732 6.74263 150.094 3.86948 148.179 3.86948C146.264 3.86948 144.668 10.2543 144.668 18.5545ZM141.795 37.0704C145.625 34.8357 145.306 40.2628 140.838 50.1592C136.05 60.3748 131.262 60.6941 135.092 50.1592C136.688 45.6898 137.646 40.582 137.007 38.3473C136.688 36.1126 136.688 35.1549 137.327 36.7511C138.284 38.0281 140.199 38.3473 141.795 37.0704ZM130.624 73.4636C130.943 79.8484 130.305 82.0831 129.666 77.933C128.07 69.3135 122.325 71.8674 122.325 81.4446C122.325 87.8294 121.687 87.5102 116.261 78.8907C110.516 69.3135 112.75 63.5672 121.368 66.7596C123.602 67.7173 125.517 66.7596 125.517 64.8442C125.517 62.9287 126.475 61.3325 128.07 61.3325C129.347 61.3325 130.624 66.7596 130.624 73.4636Z" fill="black"/>
<path id="Vector_2" d="M168.606 10.2541C169.564 11.8503 168.925 13.4465 167.329 13.4465C165.095 13.4465 163.818 20.789 164.138 31.6431C164.138 43.7742 165.095 47.9243 166.691 44.0934C170.84 33.5585 178.82 53.6706 176.266 68.3556C175.309 75.0596 175.628 80.4867 177.224 80.4867C178.501 80.4867 179.777 77.6135 179.777 74.1019C179.777 65.4824 183.927 66.1209 187.757 74.7404C189.672 78.8905 193.183 82.0829 195.736 82.4021C210.418 83.3598 210.737 83.6791 209.142 91.9793L207.546 100.599L203.396 92.937C201.162 88.7869 199.247 87.1907 198.928 89.7446C198.928 92.2985 201.481 97.0871 204.673 100.599C207.546 103.791 212.333 118.795 215.206 134.119C220.313 160.935 220.632 161.254 220.951 145.292C221.27 136.354 219.994 125.18 218.079 120.392C215.844 114.326 215.844 112.73 218.717 114.326C221.27 115.922 221.589 114.326 219.994 108.899C215.525 95.1717 214.568 74.1019 218.079 67.7171C220.313 63.2478 220.313 61.3323 218.079 61.3323C216.483 61.3323 214.887 62.9285 214.887 64.844C214.887 66.7594 212.652 70.271 210.099 72.8249C205.95 77.2943 205.311 76.9751 205.95 70.271C206.588 66.1209 209.461 60.0554 212.333 56.863C215.525 53.3514 217.44 49.8397 216.483 48.882C215.525 48.2435 212.652 50.159 209.78 53.6706C205.311 59.4169 204.992 59.0977 206.269 49.5205C207.226 41.2203 206.588 39.9433 203.077 42.4972C199.885 45.3704 198.928 43.4549 198.609 32.2816C198.609 19.8312 198.29 19.1928 195.417 25.8968C193.821 30.3661 193.183 38.3471 194.459 43.4549C198.29 59.7361 198.609 61.3323 195.417 61.3323C194.14 61.3323 193.502 63.567 194.459 66.1209C197.332 73.1442 191.587 71.8672 187.118 64.5247C184.246 60.0554 183.927 57.8207 186.799 56.2245C189.033 54.9476 189.353 55.2668 188.076 57.5015C186.799 59.7361 187.118 61.3323 188.714 61.3323C193.502 61.3323 196.055 52.3936 191.906 49.8397C189.991 48.5628 189.353 42.178 190.629 33.8778C191.587 26.216 190.948 19.1928 189.353 18.235C187.437 17.2773 187.118 18.5543 188.076 21.1082C189.033 23.9814 188.714 26.216 186.799 26.216C184.884 26.216 182.969 24.3006 182.011 22.0659C181.373 20.1505 179.458 19.1928 178.181 20.4697C176.585 22.0659 177.224 26.5353 179.139 30.6854C182.011 36.7509 181.692 38.6664 177.862 40.2625C174.67 41.5395 173.394 39.6241 173.394 33.2393C173.394 26.5353 172.755 25.5775 170.202 29.4084C167.648 33.2393 167.01 32.92 167.01 27.1737C167.01 23.3429 168.606 19.1928 170.202 18.235C174.351 15.6811 174.351 7.06167 169.883 7.06167C168.287 7.06167 167.648 8.33863 168.606 10.2541ZM183.927 46.6473C185.203 49.8397 184.246 50.7974 181.054 49.5205C178.82 48.5628 176.585 46.6473 176.585 45.0511C176.585 40.5818 182.011 41.8587 183.927 46.6473Z" fill="black"/>
<path id="Vector_3" d="M71.2568 19.512C71.2568 22.7044 69.0226 27.1737 66.4692 29.4084C63.9157 31.6431 61.6815 32.2815 61.6815 31.3238C61.6815 30.0469 59.4473 31.0046 56.8938 33.8777C54.0212 36.4317 49.8719 38.0279 47.3185 37.0701C43.8076 35.4739 42.5309 37.3894 42.85 42.4972C42.85 49.8397 43.1692 49.8397 45.7226 43.7742C47.6377 39.6241 48.5952 38.9856 48.5952 42.178C48.9144 46.3281 49.2336 46.3281 52.1062 42.178C54.6596 38.6663 55.2979 39.9433 54.6596 47.605C54.3404 53.3513 52.7445 58.1399 51.787 58.1399C50.5103 58.1399 48.9144 62.6093 48.276 68.3556C46.6802 83.3598 40.6158 82.7213 37.1048 67.0786C34.8706 56.863 34.5514 64.2055 35.509 96.4486C36.1473 120.072 38.0624 140.823 39.6583 142.738C41.2541 144.335 42.5309 149.123 42.5309 153.592C42.5309 157.743 43.4884 160.296 44.4459 159.339C46.361 157.423 46.361 120.711 44.4459 93.8947C43.8076 88.4676 44.7651 83.6791 46.361 83.6791C47.6377 83.6791 49.2336 91.9793 49.5528 101.876C50.1911 120.392 50.1911 120.072 52.1062 96.4486C53.3829 83.3598 54.3404 76.6558 54.6596 82.0829C54.9788 87.1907 56.8938 93.8947 58.4897 96.4486C60.724 99.9603 61.0431 97.0871 60.0856 86.8714C59.1281 77.9327 59.4473 74.1019 61.3623 76.975C63.2774 79.8482 64.8733 80.1674 66.15 77.6135C68.7034 73.7826 65.5116 66.7594 62.3199 68.9941C61.0431 69.6325 59.7664 66.7594 59.7664 62.6093C59.4473 58.4592 60.4048 54.9475 62.0007 54.9475C63.5966 54.9475 64.2349 51.7551 63.2774 47.605C62.0007 43.1357 63.5966 38.3471 67.4267 34.197C74.1294 26.8545 78.5979 13.4464 74.1294 13.4464C72.5335 13.4464 71.2568 16.0004 71.2568 19.512Z" fill="black"/>
<path id="Vector_4" d="M70.2994 41.5395C69.6611 46.3281 68.0652 53.0322 66.4693 56.5438C64.5542 61.6516 64.8734 61.9708 68.0652 58.14C70.9378 54.3091 71.2569 56.2245 70.6186 67.0787C69.6611 78.8905 70.2994 80.806 75.0871 79.529C78.2788 78.5713 80.8323 79.2098 80.8323 80.806C80.8323 82.4022 83.0665 83.6791 85.6199 83.6791C88.1733 83.6791 90.4076 81.1252 90.4076 77.9328C90.4076 73.4635 89.7692 73.1442 87.2158 77.2943C84.6624 81.4444 84.024 81.1252 84.024 76.3366C84.024 73.4635 82.7473 70.9095 81.1514 70.9095C77.6405 70.9095 77.3213 49.8398 80.8323 40.5818C82.7473 35.474 82.109 33.8778 77.6405 33.5586C73.8104 33.2393 71.5761 35.7932 70.2994 41.5395ZM76.683 42.8165C75.7254 45.3704 74.7679 44.4127 74.7679 40.9011C74.4487 37.3894 75.4062 35.474 76.3638 36.751C77.3213 37.7087 77.6405 40.5818 76.683 42.8165Z" fill="black"/>
<path id="Vector_5" d="M41.5734 57.1823C40.935 58.7785 41.5734 63.8863 42.8501 69.3134C45.0843 78.5713 45.0843 78.5713 45.4035 66.7595C45.7227 55.5861 44.446 52.0744 41.5734 57.1823Z" fill="black"/>
<path id="Vector_6" d="M168.606 71.2289C167.329 73.1443 167.01 75.0597 167.968 76.0175C168.606 76.9752 170.202 75.379 171.16 72.5058C173.394 67.0788 171.479 66.121 168.606 71.2289Z" fill="black"/>
</g>

        
<g id="Frame 8">
<path id="Vector" d="M147.165 114.282C139.203 115.135 137.781 116.272 137.781 122.244C137.781 140.442 167.07 150.395 179.865 136.746C183.278 133.049 186.121 128.784 186.121 127.078C186.121 118.832 166.217 112.576 147.165 114.282ZM175.031 120.538C177.875 122.244 180.434 125.087 180.434 126.793C180.434 132.765 171.05 140.442 163.942 140.442C154.843 140.442 140.625 129.921 140.625 123.097C140.625 118.547 142.615 117.694 155.127 117.694C163.089 117.694 171.904 119.116 175.031 120.538Z" fill="black"/>
<path id="Vector_2" d="M154.842 126.225C154.842 127.647 156.833 129.068 159.392 129.068C161.667 129.068 162.804 127.647 161.951 126.225C161.098 124.519 159.108 123.381 157.402 123.381C155.98 123.381 154.842 124.519 154.842 126.225Z" fill="black"/>
<path id="Vector_3" d="M83.7548 119.969C74.6556 123.382 70.6747 126.794 70.106 131.059C68.6842 140.158 81.7644 146.13 97.4036 143.286C110.768 141.011 116.739 136.746 119.299 128.784C123.848 115.135 107.072 111.154 83.7548 119.969ZM110.484 119.401C117.024 121.96 116.171 130.775 108.778 135.893C98.2567 143.286 72.3808 140.443 72.3808 131.628C72.3808 128.784 82.3331 124.235 96.5506 120.538C101.385 119.401 105.365 118.263 105.65 117.979C105.934 117.695 107.925 118.548 110.484 119.401Z" fill="black"/>
<path id="Vector_4" d="M92.2853 129.068C92.2853 130.49 93.7071 131.912 95.1288 131.912C96.8349 131.912 97.9724 130.49 97.9724 129.068C97.9724 127.362 96.8349 126.225 95.1288 126.225C93.7071 126.225 92.2853 127.362 92.2853 129.068Z" fill="black"/>
</g>

        
<g id="Frame 13">
<path id="Vector" d="M126.771 132.787C125.934 135.017 122.589 143.938 119.244 152.858C113.111 170.143 113.668 180.457 120.638 174.603C123.704 172.094 124.819 172.094 125.656 174.603C126.213 176.554 128.443 177.112 130.116 175.997C134.298 173.488 142.661 157.598 140.709 155.646C140.152 154.81 136.807 158.992 133.74 165.125C129.28 173.488 128.165 174.603 127.886 169.585C127.886 166.24 129.28 162.616 130.674 161.779C132.346 160.943 133.461 158.713 133.461 157.04C133.461 155.089 131.789 155.367 129.28 157.598C127.049 159.549 125.098 162.616 125.098 164.846C125.098 168.749 120.08 172.93 117.85 170.979C117.292 170.143 119.801 161.222 123.704 150.628C127.607 140.314 130.116 131.114 129.558 130.278C128.722 129.441 127.328 130.556 126.771 132.787Z" fill="black"/>
</g>

        
<g id="Frame 28">
<g id="Group 39">
<path id="Vector" d="M158.304 187.996C148.161 196.872 132.438 198.393 118.237 192.054C108.601 187.743 106.825 187.489 106.065 190.786C105.557 192.814 108.093 198.393 111.644 203.212C124.577 220.202 152.218 217.413 163.123 198.14C172.506 181.403 170.477 177.092 158.304 187.996ZM160.333 198.14C158.051 201.69 155.008 203.972 153.486 203.212C152.218 202.197 153.486 198.901 156.783 195.604C163.883 187.996 165.912 189.518 160.333 198.14ZM119.505 196.872C120.266 198.14 120.012 199.408 118.491 199.408C117.223 199.408 115.194 198.14 114.433 196.872C113.672 195.35 113.926 194.336 115.447 194.336C116.715 194.336 118.744 195.35 119.505 196.872ZM148.668 197.886C148.668 198.393 146.893 199.661 144.61 200.422C142.582 201.183 141.567 200.929 142.328 199.408C143.85 196.872 148.668 195.858 148.668 197.886ZM127.366 203.465C126.098 206.762 127.366 207.269 133.96 206.508C138.524 205.748 144.357 204.48 146.893 203.212C149.936 201.944 151.204 202.451 151.204 205.24C151.204 212.848 121.534 212.087 116.715 204.226C115.701 202.197 116.969 201.944 120.773 203.212C124.577 204.48 125.845 204.226 124.83 202.197C123.816 200.676 124.323 199.408 125.845 199.408C127.62 199.408 128.127 201.183 127.366 203.465ZM138.524 201.944C138.524 203.212 136.749 204.48 134.72 204.48C132.692 204.48 130.917 203.212 130.917 201.944C130.917 200.422 132.692 199.408 134.72 199.408C136.749 199.408 138.524 200.422 138.524 201.944Z" fill="black"/>
</g>
</g>

        
<g id="Frame 37">
<g id="Group 40">
<path id="Vector" d="M40.8998 116.821C40.2662 119.147 39.6326 125.945 39.6326 132.206C39.6326 138.467 38.7879 143.119 37.9432 142.582C36.8872 142.045 36.2537 149.917 36.2537 159.935C36.4648 169.953 35.8313 182.654 34.9865 188.021C33.5082 197.681 33.5082 197.681 36.2537 191.599L39.2103 185.337L40.6886 193.03C41.5333 197.144 43.2228 201.08 44.2788 201.617C45.3347 202.153 45.5459 200.543 44.7011 197.502L43.2228 192.493L48.9249 198.397C52.3039 201.617 56.7388 205.016 59.0619 206.089C61.5961 207.162 59.0619 204.121 53.571 199.47C48.2913 194.64 43.2228 189.273 42.5893 187.663C41.9557 185.874 40.4774 184.443 39.4215 184.443C38.3655 184.443 37.5208 183.191 37.5208 181.76C37.5208 180.328 38.5767 179.076 39.6326 179.076C40.8998 179.076 41.7445 179.613 41.7445 180.507C41.7445 183.012 59.0619 201.438 62.4408 202.511C67.9317 204.121 71.5219 200.186 67.7205 196.608C66.031 194.998 64.5527 192.672 64.1303 191.241C63.708 187.842 55.0493 176.393 50.8256 173.53C47.6578 171.205 47.6578 171.384 50.192 175.498C52.7262 179.613 52.7262 179.792 49.3473 177.466C47.4466 176.035 46.3906 173.709 47.0242 171.742C47.6578 170.131 47.2354 168.164 45.9683 167.448C44.7011 166.733 43.8564 168.343 43.8564 171.563C43.8564 175.498 46.1794 178.539 52.3039 183.37C56.95 186.947 60.7514 190.525 60.7514 191.42C60.7514 192.314 62.2297 193.924 63.9192 195.177C65.6087 196.429 67.087 198.218 67.087 199.112C67.087 200.364 66.031 200.186 64.3415 198.933C62.652 197.86 60.5402 197.681 59.6954 198.397C58.6395 199.112 58.6395 198.754 59.4842 197.502C60.1178 196.429 56.3164 191.062 50.4032 185.516C40.8998 176.214 37.3096 167.985 41.7445 165.659C42.5893 165.122 42.5893 161.366 41.7445 157.251C40.8998 152.958 40.8998 145.981 41.7445 141.509C43.2228 134.353 43.434 134.89 43.6452 147.591C43.8564 164.228 45.7571 164.586 47.4466 148.307C48.2913 139.183 47.8689 135.605 45.1235 132.027C42.3781 128.449 42.1669 127.376 44.2788 126.482C46.1794 125.766 46.1794 125.05 44.7011 124.514C43.434 123.977 43.0116 121.115 43.434 118.252C44.49 111.991 42.8005 111.097 40.8998 116.821Z" fill="black"/>
<path id="Vector_2" d="M205.837 115.39C203.936 119.505 206.259 139.362 208.793 140.793C209.849 141.33 210.483 144.371 210.483 147.412L210.06 153.136L208.582 146.875C207.104 141.151 207.104 141.33 206.681 150.095C206.47 156.535 205.626 159.219 204.147 158.324C202.669 157.609 202.247 158.324 203.091 160.829C204.57 164.586 200.346 173.709 194.221 179.434C192.532 181.223 192.11 182.654 193.166 182.654C194.433 182.654 198.023 179.255 201.191 174.961C204.147 170.847 206.048 169.058 205.203 171.026C204.358 172.994 203.514 176.393 203.514 178.539C203.303 180.507 202.458 181.938 201.402 181.223C200.346 180.686 199.924 181.58 200.768 183.012C201.402 184.622 200.557 187.305 199.079 189.273C197.389 191.062 195.911 191.598 195.911 190.525C195.911 189.631 196.967 187.842 198.445 186.589C200.346 184.979 200.346 184.443 198.445 184.443C197.178 184.443 195.489 186.411 194.644 188.915C194.01 191.42 192.532 192.851 191.476 192.493C190.631 191.956 191.054 193.745 192.743 196.429C194.855 199.828 195.066 201.617 193.588 202.511C191.898 203.227 191.898 204.121 193.377 204.837C194.644 205.373 196.122 204.3 196.967 202.332C197.812 200.364 199.079 199.112 200.135 199.649C200.979 200.185 202.88 199.291 204.358 197.86C206.47 195.713 206.47 194.64 204.57 192.672C203.091 191.062 202.88 189.631 204.147 189.094C205.203 188.557 206.681 189.094 207.104 190.167C207.737 191.42 208.371 190.346 208.371 187.842C208.582 185.158 210.06 180.686 211.75 178.003C215.34 172.099 215.763 174.961 213.017 184.443C209.427 196.25 208.582 202.511 210.694 201.438C211.961 200.901 212.806 197.681 212.806 194.282C212.806 185.695 217.03 184.443 217.241 192.851C217.452 196.607 217.241 201.617 217.03 203.942C216.818 206.447 217.452 207.699 218.93 206.983C221.887 205.373 221.676 196.965 218.297 183.548C216.818 177.645 216.185 172.457 217.03 171.92C221.253 169.416 218.93 117 214.707 119.326C213.651 119.862 213.439 118.968 214.073 117.537C214.918 115.927 214.284 114.674 212.806 114.674C210.905 114.674 210.694 116.642 211.539 120.936C212.384 124.692 212.172 127.197 210.905 127.197C209.849 127.197 208.582 123.798 208.16 119.505C207.737 113.959 207.104 112.886 205.837 115.39ZM215.974 145.623C216.818 152.958 217.03 160.292 216.607 162.26C216.185 164.049 214.918 158.145 213.862 149.022C212.595 140.077 212.384 132.564 213.228 132.564C213.862 132.564 215.129 138.467 215.974 145.623ZM215.129 167.448C216.185 166.732 216.396 167.627 215.763 169.058C213.017 174.961 208.371 170.31 208.793 162.439C208.793 159.04 209.216 159.219 211.116 163.512C212.172 166.196 214.073 167.985 215.129 167.448ZM209.216 176.393C208.582 178.003 207.526 178.897 207.104 178.36C206.47 177.824 206.681 176.75 207.526 175.677C209.427 172.815 210.694 173.351 209.216 176.393ZM204.358 195.892C204.358 196.429 203.514 197.323 202.247 197.86C201.191 198.396 200.135 198.039 200.135 197.144C200.135 196.071 201.191 195.176 202.247 195.176C203.514 195.176 204.358 195.534 204.358 195.892Z" fill="black"/>
<path id="Vector_3" d="M49.136 142.403C49.3472 156.714 50.192 168.879 51.0367 169.595C51.8815 170.489 52.3038 158.682 51.8815 143.655C51.6703 128.807 50.6143 116.463 49.9808 116.463C49.3472 116.463 48.9248 128.091 49.136 142.403Z" fill="black"/>
<path id="Vector_4" d="M219.564 127.197C219.564 130.596 219.986 132.027 220.62 130.238C221.042 128.628 221.042 125.766 220.62 123.977C219.986 122.367 219.564 123.798 219.564 127.197Z" fill="black"/>
<path id="Vector_5" d="M37.5207 197.86C37.5207 201.259 38.3655 204.121 39.2102 204.121C40.055 204.121 40.4773 201.259 40.055 197.86C39.6326 194.461 38.7878 191.598 38.3655 191.598C37.9431 191.598 37.5207 194.461 37.5207 197.86Z" fill="black"/>
<path id="Vector_6" d="M127.845 223.603C126.577 226.644 125.944 227.002 124.254 225.034C122.776 223.245 122.565 223.603 123.832 226.108C124.677 228.076 125.31 231.475 125.31 233.621C125.099 235.947 125.944 237.378 127 236.841C127.845 236.305 129.323 238.63 130.168 242.208C130.801 245.607 132.279 248.112 133.124 247.575C134.18 247.038 135.447 248.29 136.292 250.258C136.926 252.226 138.615 253.836 139.671 253.836C140.938 253.836 141.149 252.942 140.516 252.047C139.882 250.974 140.727 249.722 142.416 249.185C144.317 248.648 145.373 247.575 144.74 246.68C144.317 245.965 145.584 240.24 147.696 233.8L151.709 222.172L145.795 221.993C140.938 221.993 140.305 222.53 141.149 226.287C141.572 228.612 141.149 230.58 140.093 230.58C138.826 230.58 137.982 232.369 138.193 234.516C138.404 239.167 135.236 243.281 132.279 241.85C131.435 241.314 131.857 240.24 133.335 239.346C135.87 237.915 135.87 237.557 133.335 236.126C131.012 234.874 131.224 234.337 134.18 233.979C137.77 233.263 137.982 233.085 134.603 230.222C132.702 228.612 131.012 226.287 131.012 225.034C131.012 223.782 132.279 224.319 134.18 226.287C137.77 230.222 138.404 228.433 135.236 223.245C132.279 218.773 129.534 218.952 127.845 223.603ZM145.795 231.475C144.528 234.158 143.05 235.947 142.416 235.589C141.994 235.052 142.628 232.548 143.895 229.864C147.274 223.782 148.752 225.034 145.795 231.475ZM140.305 245.786C139.46 247.217 138.615 248.469 138.193 248.469C137.77 248.469 137.348 247.217 137.348 245.786C137.348 244.355 138.193 243.103 139.46 243.103C140.516 243.103 140.938 244.355 140.305 245.786Z" fill="black"/>
</g>
</g>

    </svg>
