
    <svg width="256" height="256" viewBox="0 0 256 256" fill="none" xmlns="http://www.w3.org/2000/svg">
        
<g id="Frame 44">
<rect width="256" height="256" fill="#FFED4D"/>
</g>

        
<style type="text/css">
	.st0{fill:none;stroke:#000000;stroke-width:4;stroke-miterlimit:10;}
</style>
<g id="head">
	<path d="M35,60.1c0.5,0,0.7,0.2,0.5,0.6c-0.2,0.3-0.1,0.6,0.4,0.6c0.4,0,0.5,0.6,0.4,1.5c-0.2,0.8-0.1,1.5,0.1,1.5
		c0.4,0,0.9,9.1,0.7,13c-0.4,8.8-0.4,9.5,0.5,10c0.7,0.4,0.7,0.5,0.1,0.6c-0.5,0-0.7,0.4-0.5,0.7c0.1,0.4-0.2,1.7-0.6,2.8l-0.9,2.1
		l1.6-1c1.5-1,1.6-1,1.6,0.2c0,0.8-0.3,1.1-0.8,0.9c-0.5-0.2-1-0.1-1.3,0.3c-0.2,0.4,0.1,0.7,0.7,0.7c0.8,0,0.9,0.1,0.3,0.5
		c-1.1,0.7-1,1.4,0.3,1.9c1,0.4,1,0.5-0.2,0.5c-1.3,0.1-1.5,0.7-1.4,4c0,1,0.1,2.8,0.1,4.1c0.1,1.4,0.4,2.2,0.8,2
		c0.4-0.2,0.9,0.1,1.1,0.6c0.2,0.7,0.1,0.8-0.8,0.5c-0.7-0.2-1.2-0.1-1.2,0.2s0.3,0.7,0.6,0.7c0.4,0,0.4,0.4,0,1.2
		c-0.8,1.5-0.2,1.6,1.4,0.1c1-0.8,1.1-0.8,0.5,0c-0.4,0.5-0.5,1.1-0.2,1.2c0.2,0.1,0.1,0.8-0.4,1.7c-0.8,1.4-0.8,1.4-0.5,0.1
		c0.2-0.7,0.1-1.3-0.2-1.3c-0.8,0-0.6,2.2,0.4,3c0.7,0.5,0.9,3.1,1,12.7c0.1,6.6,0,11.8-0.2,11.7c-0.6-0.4-0.5,4,0.1,5.7
		c0.4,0.8,0.6,3,0.6,4.7c0,0.1,0,0.2,0,0.4c1-0.7,2.1-1.2,3.2-1.7c-0.2-1.6-0.5-3.4-0.8-4.7c-0.3-1.9-0.6-12.4-0.6-23.2
		c0-21.5-0.5-34.6-1.3-40.3c-0.6-3.7-0.3-27,0.3-28c0.2-0.3,0.1-0.7-0.2-0.9c-0.3-0.2-0.4-1.9-0.2-3.7c0.4-3.3,0.3-3.3-1.2-3.3
		c-0.8,0-1.7,0.2-1.9,0.6c-0.2,0.3,0.1,1.5,0.5,2.7c0.5,1.1,0.7,2.7,0.5,3.3c-0.2,0.7-0.1,2.1,0.3,3c0.8,2.3-0.2,3.3-3.6,3.6
		C33.6,58.3,34,60.1,35,60.1z M39.3,101.2c0.1,1-0.2,1.8-0.5,1.8c-0.4,0-0.5-0.3-0.3-0.6c0.2-0.4-0.1-0.6-0.5-0.6
		c-0.5,0-1-0.1-1-0.2c0-0.7,1.2-3.4,1.4-3.4c0.2,0,0.1,0.4-0.1,1c-0.2,0.5-0.1,0.8,0.2,0.6C39,99.6,39.3,100.2,39.3,101.2z"/>
	<path d="M207.2,67.6c0,1.5,0.2,2.8,0.5,2.8c0.5,0,0.8,4.6,1,22.3c0.3,20.3,1.5,34.1,3,33.6c0.7-0.2,0.6-1.9-0.7-10.3
		c-1.1-8.2-1.1-18.9,0-18.9c1,0,1.3,1.8,1.9,11.9c0.2,3.1,0.5,6.5,0.6,7.5c0.3,2.3,1,13,1,14.2c-0.2,4.3-0.1,6.1,0.8,7.5
		c0.6,0.8,0.8,1.6,0.4,1.6c-0.3,0-0.5,0.7-0.5,1.5c0,0.8,0.1,1.4,0.4,1.3c0.3-0.2,0.3,5.3,0.1,12.3c0,0.1,0,0.2,0,0.4
		c0.6-0.7,1.4-1.2,2.2-1.5c0.1-0.7,0.3-1,0.6-0.9c0.2,0.1,0.4,0.3,0.5,0.6c0.6-0.1,1.2,0,1.8,0.1c0-0.3,0.1-0.5,0.1-0.6
		c0.3-1.4,0.1-1.8-1.1-2.2c-1.4-0.5-1.4-0.8-1-2.8c0.3-1.3,0.4-2.5,0.3-2.7c-0.1-0.2-0.3-3-0.4-6.1c-0.1-3.1-0.3-6.2-0.6-6.7
		c-0.3-0.5-0.7-2.3-0.8-3.9c-0.4-4-2.1-19.3-2.8-25.5c-0.3-2.8-0.6-8.1-0.7-11.9c-0.1-5.4-0.3-7.2-1.2-8.9c-0.8-1.5-1.1-3.4-1.1-6
		c0-4.5-1-10.4-2.1-12.5c-1.5-2.9-2.2-6.7-1.8-10c0.4-3,0.3-3.3-0.8-3.3c-0.7,0-1.4,0.2-1.6,0.6c-0.2,0.3-0.2,1.6,0.1,2.7
		c0.2,1.4,0.1,2.5-0.4,3c-0.6,0.7-0.6,1.3-0.2,2.3C206.8,63.4,207.2,65.1,207.2,67.6z M210.3,90.6c0.4-0.5,1-0.9,1.3-0.9
		c0.4,0,0.3,0.4-0.1,0.9c-0.4,0.5-1,0.9-1.3,0.9C209.8,91.5,209.8,91.1,210.3,90.6z M211.7,92.1c0.7,0,0.9,0.2,0.5,0.4
		c-0.4,0.1-0.8,0.8-0.8,1.4c0,1.4-1,2.1-1.4,0.9C209.5,93.3,210.3,92.1,211.7,92.1z"/>
</g>
<path class="st0" d="M39.8,149.4C40,146,40,144,40,141c2-9,3-18,1-27c-4-24,0-47-3-70.7"/>
<path class="st0" d="M205.3,52.1c0.3-0.7,0.6-1.3,0.9-2c-1.3,7,0.5,14.1,1.7,21C211,92,211,114,212,136c1,4,3,8,4,13
	c0,2,0,5,0.2,7.1"/>
<path class="st0" d="M38.7,146.7c-0.3,4.6,0.2,9.2,0.7,13.8c1.4,14.2,2.9,28.4,4.3,42.5c0.7,6.8,1.4,13.8,5,19.6
	c3.6,5.9,9.9,9.9,16.4,12.1c6.6,2.2,13.6,2.9,20.5,3.4c17.2,1.4,34.5,2.5,51.8,2.5c18,0,36.5-1.3,53.1-8.5c8-3.4,15.5-8.4,20.5-15.5
	c7.6-10.9,8.2-25.1,8.4-38.4c0.2-10.2,0.4-20.4,0.6-30.6"/>

        
<g id="hair">
<path id="Vector" d="M103.61 8.43327C92.2007 9.92611 80.791 14.1061 69.0811 21.2717C46.8622 34.7072 32.7502 48.7399 38.1548 52.0241C40.2566 53.2184 42.3584 52.9198 43.2591 50.8298C45.6612 43.0671 57.0709 32.0201 67.2795 27.5416C73.2846 24.5559 80.4908 20.6745 82.8928 18.5846C88.8979 13.8075 139.341 7.239 143.845 10.8218C148.649 14.7032 173.87 23.6602 176.572 22.7645C180.776 20.9731 199.692 42.4699 201.494 50.8298C203.595 60.384 209 62.1754 209 53.2184C209 49.9341 207.799 47.247 205.997 47.247C204.496 47.247 202.995 45.4556 202.995 43.0671C202.995 37.6929 180.476 17.3903 174.471 17.3903C171.768 17.3903 164.562 14.7032 157.957 11.4189C145.646 5.14903 133.636 4.5519 103.61 8.43327Z" fill="black"/>
<path id="Vector_2" d="M130.934 17.3903C130.934 18.8831 132.435 20.376 133.936 20.376C135.738 20.376 136.939 18.8831 136.939 17.3903C136.939 15.5989 135.738 14.4046 133.936 14.4046C132.435 14.4046 130.934 15.5989 130.934 17.3903Z" fill="black"/>
<path id="Vector_3" d="M145.946 23.3617C145.946 24.8545 147.448 26.3474 149.249 26.3474C150.751 26.3474 151.351 24.8545 150.45 23.3617C149.549 21.5703 148.048 20.376 147.147 20.376C146.547 20.376 145.946 21.5703 145.946 23.3617Z" fill="black"/>
<path id="Vector_4" d="M81.3915 26.3473C80.4907 27.8402 81.0912 29.333 82.5925 29.333C84.394 29.333 85.8953 27.8402 85.8953 26.3473C85.8953 24.5559 85.2948 23.3617 84.6943 23.3617C83.7935 23.3617 82.2923 24.5559 81.3915 26.3473Z" fill="black"/>
<path id="Vector_5" d="M124.929 26.6459C124.929 28.1387 126.43 28.7358 127.931 27.8401C129.733 26.9444 130.934 25.4516 130.934 24.5559C130.934 23.9588 129.733 23.3616 127.931 23.3616C126.43 23.3616 124.929 24.8545 124.929 26.6459Z" fill="black"/>
<path id="Vector_6" d="M97.9056 32.3187C97.9056 33.8116 99.4069 35.3044 100.908 35.3044C102.71 35.3044 103.911 33.8116 103.911 32.3187C103.911 30.5273 102.71 29.3331 100.908 29.3331C99.4069 29.3331 97.9056 30.5273 97.9056 32.3187Z" fill="black"/>
<path id="Vector_7" d="M169.967 35.6029C169.967 37.0957 171.468 37.6929 172.969 36.7972C174.771 35.9015 175.972 34.4086 175.972 33.5129C175.972 32.9158 174.771 32.3186 172.969 32.3186C171.468 32.3186 169.967 33.8115 169.967 35.6029Z" fill="black"/>
<path id="Vector_8" d="M132.435 38.29C131.534 39.7828 132.135 41.2757 133.636 41.2757C135.437 41.2757 136.939 39.7828 136.939 38.29C136.939 36.4986 136.338 35.3043 135.738 35.3043C134.837 35.3043 133.336 36.4986 132.435 38.29Z" fill="black"/>
<path id="Vector_9" d="M85.8954 41.2756C85.8954 42.7685 87.3967 44.2613 88.8979 44.2613C90.6995 44.2613 91.9005 42.7685 91.9005 41.2756C91.9005 39.4842 90.6995 38.29 88.8979 38.29C87.3967 38.29 85.8954 39.4842 85.8954 41.2756Z" fill="black"/>
<path id="Vector_10" d="M105.412 41.2756C104.511 42.7685 104.811 44.2613 106.613 44.2613C108.114 44.2613 110.516 42.7685 111.417 41.2756C112.318 39.4842 112.018 38.29 110.216 38.29C108.715 38.29 106.313 39.4842 105.412 41.2756Z" fill="black"/>
<path id="Vector_11" d="M181.977 41.2756C181.977 42.7685 183.478 44.2613 184.98 44.2613C186.781 44.2613 187.982 42.7685 187.982 41.2756C187.982 39.4842 186.781 38.29 184.98 38.29C183.478 38.29 181.977 39.4842 181.977 41.2756Z" fill="black"/>
<path id="Vector_12" d="M60.3736 47.247C59.4728 48.7399 60.0733 50.2327 61.5746 50.2327C63.3762 50.2327 64.8774 48.7399 64.8774 47.247C64.8774 45.4556 64.2769 44.2613 63.6764 44.2613C62.7756 44.2613 61.2744 45.4556 60.3736 47.247Z" fill="black"/>
<path id="Vector_13" d="M75.3864 50.2328C74.4856 51.7256 75.0861 53.2185 76.5874 53.2185C78.3889 53.2185 79.8902 51.7256 79.8902 50.2328C79.8902 48.4414 79.2897 47.2471 78.6892 47.2471C77.7884 47.2471 76.2871 48.4414 75.3864 50.2328Z" fill="black"/>
<path id="Vector_14" d="M168.466 53.2184C169.366 54.7113 170.868 56.2041 171.768 56.2041C172.369 56.2041 172.969 54.7113 172.969 53.2184C172.969 51.427 171.468 50.2328 169.667 50.2328C168.165 50.2328 167.565 51.427 168.466 53.2184Z" fill="black"/>
</g>

        
<g id="Frame 10">
<path id="Vector" d="M148.681 108.767C135.135 113.927 133.2 120.055 141.585 129.731C150.938 141.019 165.129 141.664 173.515 131.343C180.933 122.313 180.933 120.055 172.87 111.992C166.097 105.219 159.324 104.251 148.681 108.767ZM169.322 115.862L176.74 122.635L169.322 128.44C165.129 131.666 159.324 134.568 156.744 134.246C149.326 134.246 140.618 126.505 140.94 119.732C140.94 113.927 141.263 113.927 143.843 120.055C146.1 125.215 146.745 125.538 146.745 121.022C147.068 116.185 154.808 109.089 160.291 108.767C161.259 108.767 165.452 111.992 169.322 115.862Z" fill="black"/>
<path id="Vector_2" d="M153.841 118.12C148.681 121.345 151.906 128.118 158.679 128.118C161.259 128.118 163.194 125.215 163.194 121.668C163.194 114.572 160.936 113.605 153.841 118.12Z" fill="black"/>
<path id="Vector_3" d="M86.757 115.862C68.6959 124.57 77.4039 144.244 99.0127 144.244C108.043 144.244 112.236 142.632 114.816 138.116C125.137 118.765 108.043 105.542 86.757 115.862ZM105.141 118.443C105.141 120.055 107.076 121.345 109.011 120.7C111.268 120.378 113.526 123.28 114.171 127.151C115.461 135.536 104.173 142.632 96.1101 139.084C93.2074 137.794 89.3372 137.149 87.7246 137.471C83.2093 138.439 79.6616 131.021 81.9192 125.215C83.5318 121.345 84.4994 121.99 86.112 128.118L88.3696 136.181L88.6921 127.473C89.0146 122.958 90.9498 118.12 93.2074 117.475C99.9803 114.572 105.141 115.217 105.141 118.443Z" fill="black"/>
<path id="Vector_4" d="M94.4975 123.603C89.9822 128.118 92.2399 134.891 98.0452 133.923C100.948 133.278 103.528 130.698 103.528 128.44C103.528 123.28 97.7227 120.377 94.4975 123.603Z" fill="black"/>
<path id="Vector_5" d="M109.011 128.118C109.011 132.633 109.656 134.246 110.623 131.988C111.269 130.053 111.269 126.183 110.623 123.925C109.656 121.99 109.011 123.603 109.011 128.118Z" fill="black"/>
</g>

        
<g id="Frame 23">
<path id="Vector" d="M124.61 149.378C114.126 150.426 110.719 158.289 117.534 165.889C123.562 172.703 141.907 172.703 150.294 165.889C156.322 161.172 156.322 160.648 151.867 155.668C146.887 150.164 138.238 148.068 124.61 149.378ZM148.46 158.289C152.129 164.055 150.032 165.889 137.19 167.462C128.803 168.51 125.134 167.724 120.941 164.055C115.961 159.337 115.699 159.075 120.417 155.668C126.969 150.951 144.79 152.785 148.46 158.289Z" fill="black"/>
<path id="Vector_2" d="M126.445 158.813C126.445 160.91 127.755 163.531 129.065 164.317C130.638 165.103 131.686 164.055 131.686 161.958C131.686 159.862 130.638 157.241 129.065 156.454C127.755 155.668 126.445 156.717 126.445 158.813Z" fill="black"/>
<path id="Vector_3" d="M135.879 157.503C134.831 159.337 134.569 161.434 135.355 162.22C137.714 164.579 140.335 161.172 139.024 157.503C137.976 154.62 137.452 154.62 135.879 157.503Z" fill="black"/>
</g>

        
<g id="Frame 28">
<g id="Group 39">
<path id="Vector" d="M158.304 187.996C148.161 196.872 132.438 198.393 118.237 192.054C108.601 187.743 106.825 187.489 106.065 190.786C105.557 192.814 108.093 198.393 111.644 203.212C124.577 220.202 152.218 217.413 163.123 198.14C172.506 181.403 170.477 177.092 158.304 187.996ZM160.333 198.14C158.051 201.69 155.008 203.972 153.486 203.212C152.218 202.197 153.486 198.901 156.783 195.604C163.883 187.996 165.912 189.518 160.333 198.14ZM119.505 196.872C120.266 198.14 120.012 199.408 118.491 199.408C117.223 199.408 115.194 198.14 114.433 196.872C113.672 195.35 113.926 194.336 115.447 194.336C116.715 194.336 118.744 195.35 119.505 196.872ZM148.668 197.886C148.668 198.393 146.893 199.661 144.61 200.422C142.582 201.183 141.567 200.929 142.328 199.408C143.85 196.872 148.668 195.858 148.668 197.886ZM127.366 203.465C126.098 206.762 127.366 207.269 133.96 206.508C138.524 205.748 144.357 204.48 146.893 203.212C149.936 201.944 151.204 202.451 151.204 205.24C151.204 212.848 121.534 212.087 116.715 204.226C115.701 202.197 116.969 201.944 120.773 203.212C124.577 204.48 125.845 204.226 124.83 202.197C123.816 200.676 124.323 199.408 125.845 199.408C127.62 199.408 128.127 201.183 127.366 203.465ZM138.524 201.944C138.524 203.212 136.749 204.48 134.72 204.48C132.692 204.48 130.917 203.212 130.917 201.944C130.917 200.422 132.692 199.408 134.72 199.408C136.749 199.408 138.524 200.422 138.524 201.944Z" fill="black"/>
</g>
</g>

        
<g id="Frame 32">
<g id="Group">
<g id="Group 42">
<path id="Vector" d="M116.369 177.711C112.848 178.54 106.635 181.646 102.7 184.546C96.2806 189.517 95.4522 191.174 95.0381 201.529C94.831 209.814 95.4522 212.921 97.3161 212.921C98.9728 212.921 100.215 211.057 100.422 208.779C100.63 206.5 100.008 205.05 98.7657 205.672C97.7303 206.5 96.9019 206.086 96.9019 204.843C96.9019 203.808 97.5232 202.565 98.5586 202.151C99.387 201.737 101.458 198.837 103.115 195.316C104.979 192.002 108.085 188.688 110.363 188.274C112.641 187.86 115.54 185.996 116.99 183.925C123.617 174.604 167.313 188.274 167.313 199.665C167.313 201.529 168.142 202.358 168.97 201.737C170.006 201.115 170.213 203.601 169.799 207.122C168.97 211.885 169.591 213.128 171.662 212.507C173.319 211.885 175.183 207.95 175.804 203.601C177.047 195.73 176.633 194.695 166.692 186.617C158.823 180.404 129.001 175.019 116.369 177.711Z" fill="black"/>
</g>
</g>
</g>

    </svg>
