
    <svg width="256" height="256" viewBox="0 0 256 256" fill="none" xmlns="http://www.w3.org/2000/svg">
        
<g id="Frame 42">
<rect width="256" height="256" fill="#4DFF5E"/>
</g>

        
<style type="text/css">
	.st0{fill:none;stroke:#000000;stroke-width:4;stroke-miterlimit:10;}
</style>
<g id="head">
	<path d="M35,60.1c0.5,0,0.7,0.2,0.5,0.6c-0.2,0.3-0.1,0.6,0.4,0.6c0.4,0,0.5,0.6,0.4,1.5c-0.2,0.8-0.1,1.5,0.1,1.5
		c0.4,0,0.9,9.1,0.7,13c-0.4,8.8-0.4,9.5,0.5,10c0.7,0.4,0.7,0.5,0.1,0.6c-0.5,0-0.7,0.4-0.5,0.7c0.1,0.4-0.2,1.7-0.6,2.8l-0.9,2.1
		l1.6-1c1.5-1,1.6-1,1.6,0.2c0,0.8-0.3,1.1-0.8,0.9c-0.5-0.2-1-0.1-1.3,0.3c-0.2,0.4,0.1,0.7,0.7,0.7c0.8,0,0.9,0.1,0.3,0.5
		c-1.1,0.7-1,1.4,0.3,1.9c1,0.4,1,0.5-0.2,0.5c-1.3,0.1-1.5,0.7-1.4,4c0,1,0.1,2.8,0.1,4.1c0.1,1.4,0.4,2.2,0.8,2
		c0.4-0.2,0.9,0.1,1.1,0.6c0.2,0.7,0.1,0.8-0.8,0.5c-0.7-0.2-1.2-0.1-1.2,0.2s0.3,0.7,0.6,0.7c0.4,0,0.4,0.4,0,1.2
		c-0.8,1.5-0.2,1.6,1.4,0.1c1-0.8,1.1-0.8,0.5,0c-0.4,0.5-0.5,1.1-0.2,1.2c0.2,0.1,0.1,0.8-0.4,1.7c-0.8,1.4-0.8,1.4-0.5,0.1
		c0.2-0.7,0.1-1.3-0.2-1.3c-0.8,0-0.6,2.2,0.4,3c0.7,0.5,0.9,3.1,1,12.7c0.1,6.6,0,11.8-0.2,11.7c-0.6-0.4-0.5,4,0.1,5.7
		c0.4,0.8,0.6,3,0.6,4.7c0,0.1,0,0.2,0,0.4c1-0.7,2.1-1.2,3.2-1.7c-0.2-1.6-0.5-3.4-0.8-4.7c-0.3-1.9-0.6-12.4-0.6-23.2
		c0-21.5-0.5-34.6-1.3-40.3c-0.6-3.7-0.3-27,0.3-28c0.2-0.3,0.1-0.7-0.2-0.9c-0.3-0.2-0.4-1.9-0.2-3.7c0.4-3.3,0.3-3.3-1.2-3.3
		c-0.8,0-1.7,0.2-1.9,0.6c-0.2,0.3,0.1,1.5,0.5,2.7c0.5,1.1,0.7,2.7,0.5,3.3c-0.2,0.7-0.1,2.1,0.3,3c0.8,2.3-0.2,3.3-3.6,3.6
		C33.6,58.3,34,60.1,35,60.1z M39.3,101.2c0.1,1-0.2,1.8-0.5,1.8c-0.4,0-0.5-0.3-0.3-0.6c0.2-0.4-0.1-0.6-0.5-0.6
		c-0.5,0-1-0.1-1-0.2c0-0.7,1.2-3.4,1.4-3.4c0.2,0,0.1,0.4-0.1,1c-0.2,0.5-0.1,0.8,0.2,0.6C39,99.6,39.3,100.2,39.3,101.2z"/>
	<path d="M207.2,67.6c0,1.5,0.2,2.8,0.5,2.8c0.5,0,0.8,4.6,1,22.3c0.3,20.3,1.5,34.1,3,33.6c0.7-0.2,0.6-1.9-0.7-10.3
		c-1.1-8.2-1.1-18.9,0-18.9c1,0,1.3,1.8,1.9,11.9c0.2,3.1,0.5,6.5,0.6,7.5c0.3,2.3,1,13,1,14.2c-0.2,4.3-0.1,6.1,0.8,7.5
		c0.6,0.8,0.8,1.6,0.4,1.6c-0.3,0-0.5,0.7-0.5,1.5c0,0.8,0.1,1.4,0.4,1.3c0.3-0.2,0.3,5.3,0.1,12.3c0,0.1,0,0.2,0,0.4
		c0.6-0.7,1.4-1.2,2.2-1.5c0.1-0.7,0.3-1,0.6-0.9c0.2,0.1,0.4,0.3,0.5,0.6c0.6-0.1,1.2,0,1.8,0.1c0-0.3,0.1-0.5,0.1-0.6
		c0.3-1.4,0.1-1.8-1.1-2.2c-1.4-0.5-1.4-0.8-1-2.8c0.3-1.3,0.4-2.5,0.3-2.7c-0.1-0.2-0.3-3-0.4-6.1c-0.1-3.1-0.3-6.2-0.6-6.7
		c-0.3-0.5-0.7-2.3-0.8-3.9c-0.4-4-2.1-19.3-2.8-25.5c-0.3-2.8-0.6-8.1-0.7-11.9c-0.1-5.4-0.3-7.2-1.2-8.9c-0.8-1.5-1.1-3.4-1.1-6
		c0-4.5-1-10.4-2.1-12.5c-1.5-2.9-2.2-6.7-1.8-10c0.4-3,0.3-3.3-0.8-3.3c-0.7,0-1.4,0.2-1.6,0.6c-0.2,0.3-0.2,1.6,0.1,2.7
		c0.2,1.4,0.1,2.5-0.4,3c-0.6,0.7-0.6,1.3-0.2,2.3C206.8,63.4,207.2,65.1,207.2,67.6z M210.3,90.6c0.4-0.5,1-0.9,1.3-0.9
		c0.4,0,0.3,0.4-0.1,0.9c-0.4,0.5-1,0.9-1.3,0.9C209.8,91.5,209.8,91.1,210.3,90.6z M211.7,92.1c0.7,0,0.9,0.2,0.5,0.4
		c-0.4,0.1-0.8,0.8-0.8,1.4c0,1.4-1,2.1-1.4,0.9C209.5,93.3,210.3,92.1,211.7,92.1z"/>
</g>
<path class="st0" d="M39.8,149.4C40,146,40,144,40,141c2-9,3-18,1-27c-4-24,0-47-3-70.7"/>
<path class="st0" d="M205.3,52.1c0.3-0.7,0.6-1.3,0.9-2c-1.3,7,0.5,14.1,1.7,21C211,92,211,114,212,136c1,4,3,8,4,13
	c0,2,0,5,0.2,7.1"/>
<path class="st0" d="M38.7,146.7c-0.3,4.6,0.2,9.2,0.7,13.8c1.4,14.2,2.9,28.4,4.3,42.5c0.7,6.8,1.4,13.8,5,19.6
	c3.6,5.9,9.9,9.9,16.4,12.1c6.6,2.2,13.6,2.9,20.5,3.4c17.2,1.4,34.5,2.5,51.8,2.5c18,0,36.5-1.3,53.1-8.5c8-3.4,15.5-8.4,20.5-15.5
	c7.6-10.9,8.2-25.1,8.4-38.4c0.2-10.2,0.4-20.4,0.6-30.6"/>

        
<g id="hair">
<path id="Vector" d="M144.668 18.5545C144.668 35.4742 137.327 37.0704 135.731 20.4699C133.816 0.67709 129.986 10.5735 131.262 31.9625C132.22 49.2014 131.581 54.6285 127.432 57.8209C124.56 60.3748 121.687 61.6518 121.049 61.0133C120.091 60.3748 119.134 48.563 118.495 35.1549C118.176 21.4276 116.58 10.2543 115.623 10.2543C114.027 10.2543 106.366 24.62 106.366 28.1317C106.366 29.0894 107.643 29.0894 109.239 27.8124C114.346 24.9393 116.261 31.6433 112.75 40.2628C110.835 45.6898 110.835 48.563 112.75 48.563C114.665 48.563 115.942 52.3938 115.942 57.1824C115.942 71.229 109.558 61.0133 108.281 45.3706C107.005 28.1317 103.175 26.2162 96.7911 39.6243C92.3226 49.8399 92.0034 49.8399 91.0459 42.4974C90.0884 37.3896 92.0034 32.9202 96.1527 29.7279C99.6637 26.8547 103.175 20.7892 103.813 15.6813C106.047 3.86948 100.94 4.50796 98.387 16.639C96.4719 25.5777 90.4075 30.3663 90.4075 22.7046C90.4075 21.1084 89.1308 20.4699 87.2158 21.4276C85.6199 22.3854 84.024 21.4276 84.024 19.193C84.024 16.3198 83.0665 16.3198 80.8322 19.8314C79.2363 22.3854 77.6404 25.897 77.6404 27.8124C77.6404 29.4086 79.2363 28.7701 80.8322 26.2162C84.3432 20.7892 84.6623 21.7469 85.6199 44.0936C85.6199 51.1169 89.1308 63.5672 92.961 71.8674C100.302 87.5102 105.409 92.2987 101.26 79.5292C99.9829 75.6983 99.0253 68.0366 99.3445 62.9287C99.9829 53.6708 99.6637 53.6708 95.1952 59.4171C91.0459 65.1634 90.4075 65.1634 90.4075 60.0556C90.4075 53.3516 101.898 40.2628 102.536 46.0091C102.855 48.2437 104.451 60.0556 106.047 71.8674C107.643 83.9985 110.516 95.4911 112.75 97.4066C115.942 100.599 116.261 99.9605 114.346 94.8527C113.069 91.341 111.473 85.5947 110.516 82.0831C109.239 76.9753 110.516 77.6137 115.942 84.637C119.772 89.4256 124.24 92.618 125.836 91.341C127.432 90.3833 128.709 92.618 128.709 96.1296C128.709 99.9605 129.986 102.834 131.262 102.834C132.858 102.834 133.816 99.6412 133.496 95.4911C133.177 91.6603 135.092 85.5947 137.965 82.4023C141.476 77.933 141.795 76.9753 138.603 78.8907C135.092 80.8061 134.454 80.1677 136.369 75.3791C137.646 72.1867 139.561 65.4826 140.518 60.6941C141.476 55.9055 143.391 52.7131 144.987 53.6708C146.583 54.6285 147.859 54.3093 147.54 52.7131C146.264 45.3706 148.179 35.4742 150.732 37.0704C155.52 40.2628 157.116 51.7554 153.285 55.9055C147.221 62.2903 140.518 75.0598 144.349 72.5059C146.583 71.229 147.859 73.4636 148.179 77.933C148.179 82.4023 150.094 79.5292 152.966 69.952C158.073 53.3516 165.095 48.563 160.307 65.1634C156.477 78.5715 156.796 83.6793 160.627 83.6793C162.542 83.6793 163.818 80.4869 163.818 76.656C163.818 72.8251 166.053 67.3981 168.925 64.2057C174.351 58.1401 172.755 46.6475 167.329 50.1592C162.222 53.0323 154.881 37.7088 153.285 20.7892C152.966 17.2775 151.37 14.7236 149.775 15.6813C148.498 16.639 148.179 14.4044 149.455 10.5735C150.732 6.74263 150.094 3.86948 148.179 3.86948C146.264 3.86948 144.668 10.2543 144.668 18.5545ZM141.795 37.0704C145.625 34.8357 145.306 40.2628 140.838 50.1592C136.05 60.3748 131.262 60.6941 135.092 50.1592C136.688 45.6898 137.646 40.582 137.007 38.3473C136.688 36.1126 136.688 35.1549 137.327 36.7511C138.284 38.0281 140.199 38.3473 141.795 37.0704ZM130.624 73.4636C130.943 79.8484 130.305 82.0831 129.666 77.933C128.07 69.3135 122.325 71.8674 122.325 81.4446C122.325 87.8294 121.687 87.5102 116.261 78.8907C110.516 69.3135 112.75 63.5672 121.368 66.7596C123.602 67.7173 125.517 66.7596 125.517 64.8442C125.517 62.9287 126.475 61.3325 128.07 61.3325C129.347 61.3325 130.624 66.7596 130.624 73.4636Z" fill="black"/>
<path id="Vector_2" d="M168.606 10.2541C169.564 11.8503 168.925 13.4465 167.329 13.4465C165.095 13.4465 163.818 20.789 164.138 31.6431C164.138 43.7742 165.095 47.9243 166.691 44.0934C170.84 33.5585 178.82 53.6706 176.266 68.3556C175.309 75.0596 175.628 80.4867 177.224 80.4867C178.501 80.4867 179.777 77.6135 179.777 74.1019C179.777 65.4824 183.927 66.1209 187.757 74.7404C189.672 78.8905 193.183 82.0829 195.736 82.4021C210.418 83.3598 210.737 83.6791 209.142 91.9793L207.546 100.599L203.396 92.937C201.162 88.7869 199.247 87.1907 198.928 89.7446C198.928 92.2985 201.481 97.0871 204.673 100.599C207.546 103.791 212.333 118.795 215.206 134.119C220.313 160.935 220.632 161.254 220.951 145.292C221.27 136.354 219.994 125.18 218.079 120.392C215.844 114.326 215.844 112.73 218.717 114.326C221.27 115.922 221.589 114.326 219.994 108.899C215.525 95.1717 214.568 74.1019 218.079 67.7171C220.313 63.2478 220.313 61.3323 218.079 61.3323C216.483 61.3323 214.887 62.9285 214.887 64.844C214.887 66.7594 212.652 70.271 210.099 72.8249C205.95 77.2943 205.311 76.9751 205.95 70.271C206.588 66.1209 209.461 60.0554 212.333 56.863C215.525 53.3514 217.44 49.8397 216.483 48.882C215.525 48.2435 212.652 50.159 209.78 53.6706C205.311 59.4169 204.992 59.0977 206.269 49.5205C207.226 41.2203 206.588 39.9433 203.077 42.4972C199.885 45.3704 198.928 43.4549 198.609 32.2816C198.609 19.8312 198.29 19.1928 195.417 25.8968C193.821 30.3661 193.183 38.3471 194.459 43.4549C198.29 59.7361 198.609 61.3323 195.417 61.3323C194.14 61.3323 193.502 63.567 194.459 66.1209C197.332 73.1442 191.587 71.8672 187.118 64.5247C184.246 60.0554 183.927 57.8207 186.799 56.2245C189.033 54.9476 189.353 55.2668 188.076 57.5015C186.799 59.7361 187.118 61.3323 188.714 61.3323C193.502 61.3323 196.055 52.3936 191.906 49.8397C189.991 48.5628 189.353 42.178 190.629 33.8778C191.587 26.216 190.948 19.1928 189.353 18.235C187.437 17.2773 187.118 18.5543 188.076 21.1082C189.033 23.9814 188.714 26.216 186.799 26.216C184.884 26.216 182.969 24.3006 182.011 22.0659C181.373 20.1505 179.458 19.1928 178.181 20.4697C176.585 22.0659 177.224 26.5353 179.139 30.6854C182.011 36.7509 181.692 38.6664 177.862 40.2625C174.67 41.5395 173.394 39.6241 173.394 33.2393C173.394 26.5353 172.755 25.5775 170.202 29.4084C167.648 33.2393 167.01 32.92 167.01 27.1737C167.01 23.3429 168.606 19.1928 170.202 18.235C174.351 15.6811 174.351 7.06167 169.883 7.06167C168.287 7.06167 167.648 8.33863 168.606 10.2541ZM183.927 46.6473C185.203 49.8397 184.246 50.7974 181.054 49.5205C178.82 48.5628 176.585 46.6473 176.585 45.0511C176.585 40.5818 182.011 41.8587 183.927 46.6473Z" fill="black"/>
<path id="Vector_3" d="M71.2568 19.512C71.2568 22.7044 69.0226 27.1737 66.4692 29.4084C63.9157 31.6431 61.6815 32.2815 61.6815 31.3238C61.6815 30.0469 59.4473 31.0046 56.8938 33.8777C54.0212 36.4317 49.8719 38.0279 47.3185 37.0701C43.8076 35.4739 42.5309 37.3894 42.85 42.4972C42.85 49.8397 43.1692 49.8397 45.7226 43.7742C47.6377 39.6241 48.5952 38.9856 48.5952 42.178C48.9144 46.3281 49.2336 46.3281 52.1062 42.178C54.6596 38.6663 55.2979 39.9433 54.6596 47.605C54.3404 53.3513 52.7445 58.1399 51.787 58.1399C50.5103 58.1399 48.9144 62.6093 48.276 68.3556C46.6802 83.3598 40.6158 82.7213 37.1048 67.0786C34.8706 56.863 34.5514 64.2055 35.509 96.4486C36.1473 120.072 38.0624 140.823 39.6583 142.738C41.2541 144.335 42.5309 149.123 42.5309 153.592C42.5309 157.743 43.4884 160.296 44.4459 159.339C46.361 157.423 46.361 120.711 44.4459 93.8947C43.8076 88.4676 44.7651 83.6791 46.361 83.6791C47.6377 83.6791 49.2336 91.9793 49.5528 101.876C50.1911 120.392 50.1911 120.072 52.1062 96.4486C53.3829 83.3598 54.3404 76.6558 54.6596 82.0829C54.9788 87.1907 56.8938 93.8947 58.4897 96.4486C60.724 99.9603 61.0431 97.0871 60.0856 86.8714C59.1281 77.9327 59.4473 74.1019 61.3623 76.975C63.2774 79.8482 64.8733 80.1674 66.15 77.6135C68.7034 73.7826 65.5116 66.7594 62.3199 68.9941C61.0431 69.6325 59.7664 66.7594 59.7664 62.6093C59.4473 58.4592 60.4048 54.9475 62.0007 54.9475C63.5966 54.9475 64.2349 51.7551 63.2774 47.605C62.0007 43.1357 63.5966 38.3471 67.4267 34.197C74.1294 26.8545 78.5979 13.4464 74.1294 13.4464C72.5335 13.4464 71.2568 16.0004 71.2568 19.512Z" fill="black"/>
<path id="Vector_4" d="M70.2994 41.5395C69.6611 46.3281 68.0652 53.0322 66.4693 56.5438C64.5542 61.6516 64.8734 61.9708 68.0652 58.14C70.9378 54.3091 71.2569 56.2245 70.6186 67.0787C69.6611 78.8905 70.2994 80.806 75.0871 79.529C78.2788 78.5713 80.8323 79.2098 80.8323 80.806C80.8323 82.4022 83.0665 83.6791 85.6199 83.6791C88.1733 83.6791 90.4076 81.1252 90.4076 77.9328C90.4076 73.4635 89.7692 73.1442 87.2158 77.2943C84.6624 81.4444 84.024 81.1252 84.024 76.3366C84.024 73.4635 82.7473 70.9095 81.1514 70.9095C77.6405 70.9095 77.3213 49.8398 80.8323 40.5818C82.7473 35.474 82.109 33.8778 77.6405 33.5586C73.8104 33.2393 71.5761 35.7932 70.2994 41.5395ZM76.683 42.8165C75.7254 45.3704 74.7679 44.4127 74.7679 40.9011C74.4487 37.3894 75.4062 35.474 76.3638 36.751C77.3213 37.7087 77.6405 40.5818 76.683 42.8165Z" fill="black"/>
<path id="Vector_5" d="M41.5734 57.1823C40.935 58.7785 41.5734 63.8863 42.8501 69.3134C45.0843 78.5713 45.0843 78.5713 45.4035 66.7595C45.7227 55.5861 44.446 52.0744 41.5734 57.1823Z" fill="black"/>
<path id="Vector_6" d="M168.606 71.2289C167.329 73.1443 167.01 75.0597 167.968 76.0175C168.606 76.9752 170.202 75.379 171.16 72.5058C173.394 67.0788 171.479 66.121 168.606 71.2289Z" fill="black"/>
</g>

        
<g id="Frame 9">
<path id="Vector" d="M98.7396 112.067C91.6529 112.953 83.9757 114.724 81.9088 116.201C79.8418 117.972 71.2788 118.268 60.6488 117.087C47.9519 115.61 41.4558 116.201 38.2077 118.858C32.5974 123.583 32.5974 132.441 38.2077 134.803C40.5699 135.689 42.6369 135.099 42.6369 133.622C42.6369 131.851 41.4558 130.669 39.9794 130.669C38.503 130.669 37.9124 128.012 38.7983 124.469C40.2746 119.449 42.0463 118.563 49.7235 120.039C54.7432 120.925 64.4874 122.697 71.5741 123.583C81.0229 125.059 83.9757 126.831 83.9757 130.965C83.9757 133.917 86.6332 137.756 90.1766 139.528C99.9207 144.843 125.315 137.166 125.315 128.898C125.315 122.697 136.535 122.106 138.012 128.012C138.897 130.965 142.736 135.099 146.575 136.87C156.319 141.299 175.512 133.622 175.512 125.354C175.512 120.63 178.169 119.154 188.209 118.268C207.697 116.201 215.374 119.449 214.784 128.898C214.193 137.756 218.327 136.87 220.689 127.717C223.642 116.496 205.04 109.409 186.732 114.429C181.417 115.906 178.465 115.315 178.465 113.248C178.465 111.181 171.378 110 159.271 110C144.803 110 139.783 111.181 137.716 115.02C135.059 119.449 134.173 119.449 124.429 115.02C118.818 112.362 113.503 110.295 112.913 110.591C112.618 110.886 106.122 111.476 98.7396 112.067ZM171.083 115.906C174.626 121.811 169.606 124.469 161.929 121.221C155.138 117.972 154.842 117.382 159.862 115.61C167.539 112.362 169.016 112.657 171.083 115.906ZM98.7396 122.402L101.397 129.193V122.402C101.692 117.087 103.464 115.906 112.027 115.906C120.295 115.906 122.362 117.087 122.362 121.516C122.362 128.602 116.752 133.032 104.645 135.394C96.9679 137.166 94.0152 136.28 90.7671 132.146C85.1568 123.878 85.4521 115.906 91.6529 123.583C96.0821 128.898 96.0821 128.898 94.3104 122.402C93.1293 118.858 93.1293 115.906 94.3104 115.906C95.1963 115.906 97.2632 118.858 98.7396 122.402ZM148.937 117.087C148.937 117.972 147.756 119.449 145.984 120.335C144.508 121.221 143.031 120.63 143.031 119.154C143.031 117.382 144.508 115.906 145.984 115.906C147.756 115.906 148.937 116.496 148.937 117.087ZM157.795 128.898C157.795 130.965 158.976 130.669 160.453 128.012C161.929 125.65 163.701 125.354 164.882 127.126C167.244 130.965 159.862 133.622 152.185 131.555C145.984 130.079 144.508 127.421 147.756 123.878C150.413 121.221 157.795 124.764 157.795 128.898Z" fill="black"/>
<path id="Vector_2" d="M106.121 124.764C107.303 126.536 109.369 127.126 110.846 126.241C114.98 123.583 114.094 121.811 108.779 121.811C106.417 121.811 105.236 123.288 106.121 124.764Z" fill="black"/>
</g>

        
<g id="Frame 13">
<path id="Vector" d="M126.771 132.787C125.934 135.017 122.589 143.938 119.244 152.858C113.111 170.143 113.668 180.457 120.638 174.603C123.704 172.094 124.819 172.094 125.656 174.603C126.213 176.554 128.443 177.112 130.116 175.997C134.298 173.488 142.661 157.598 140.709 155.646C140.152 154.81 136.807 158.992 133.74 165.125C129.28 173.488 128.165 174.603 127.886 169.585C127.886 166.24 129.28 162.616 130.674 161.779C132.346 160.943 133.461 158.713 133.461 157.04C133.461 155.089 131.789 155.367 129.28 157.598C127.049 159.549 125.098 162.616 125.098 164.846C125.098 168.749 120.08 172.93 117.85 170.979C117.292 170.143 119.801 161.222 123.704 150.628C127.607 140.314 130.116 131.114 129.558 130.278C128.722 129.441 127.328 130.556 126.771 132.787Z" fill="black"/>
</g>

        
<g id="Frame 28">
<g id="Group 39">
<path id="Vector" d="M158.304 187.996C148.161 196.872 132.438 198.393 118.237 192.054C108.601 187.743 106.825 187.489 106.065 190.786C105.557 192.814 108.093 198.393 111.644 203.212C124.577 220.202 152.218 217.413 163.123 198.14C172.506 181.403 170.477 177.092 158.304 187.996ZM160.333 198.14C158.051 201.69 155.008 203.972 153.486 203.212C152.218 202.197 153.486 198.901 156.783 195.604C163.883 187.996 165.912 189.518 160.333 198.14ZM119.505 196.872C120.266 198.14 120.012 199.408 118.491 199.408C117.223 199.408 115.194 198.14 114.433 196.872C113.672 195.35 113.926 194.336 115.447 194.336C116.715 194.336 118.744 195.35 119.505 196.872ZM148.668 197.886C148.668 198.393 146.893 199.661 144.61 200.422C142.582 201.183 141.567 200.929 142.328 199.408C143.85 196.872 148.668 195.858 148.668 197.886ZM127.366 203.465C126.098 206.762 127.366 207.269 133.96 206.508C138.524 205.748 144.357 204.48 146.893 203.212C149.936 201.944 151.204 202.451 151.204 205.24C151.204 212.848 121.534 212.087 116.715 204.226C115.701 202.197 116.969 201.944 120.773 203.212C124.577 204.48 125.845 204.226 124.83 202.197C123.816 200.676 124.323 199.408 125.845 199.408C127.62 199.408 128.127 201.183 127.366 203.465ZM138.524 201.944C138.524 203.212 136.749 204.48 134.72 204.48C132.692 204.48 130.917 203.212 130.917 201.944C130.917 200.422 132.692 199.408 134.72 199.408C136.749 199.408 138.524 200.422 138.524 201.944Z" fill="black"/>
</g>
</g>

        
<g id="Frame 36">
<g id="Group 41">
<path id="Vector" d="M152.691 177.632C151.849 177.897 144.551 178.425 136.412 178.822C103.293 180.408 99.0835 182.787 93.7508 202.086C90.1022 215.304 92.0668 224.689 100.487 235.792L107.784 245.045L106.381 236.057C105.258 229.844 105.819 227.201 107.784 227.861C109.468 228.258 110.871 227.729 110.871 226.54C110.871 225.35 109.749 224.689 108.345 225.086C106.942 225.482 105.258 224.557 104.135 222.839C100.487 216.097 103.855 185.695 108.345 187.017C109.749 187.414 110.871 187.149 110.871 186.489C110.871 185.035 142.867 181.994 148.2 182.92C150.165 183.316 156.058 183.713 161.391 183.977C169.811 184.241 172.056 185.035 176.547 189.529C182.722 195.741 185.809 218.609 180.757 221.385C179.073 222.442 178.231 225.218 178.792 227.729C179.354 230.241 179.073 232.091 177.95 231.695C176.828 231.43 175.144 232.356 174.021 233.81C173.179 235.264 170.934 236.453 169.53 236.453C167.846 236.453 167.566 237.775 168.688 239.361C169.53 241.08 169.53 242.005 168.408 241.476C167.004 240.947 164.478 241.476 162.233 242.798C158.304 244.913 158.304 244.913 159.426 242.401C160.268 240.947 161.672 238.833 162.514 237.643C163.636 236.321 163.075 235.528 160.549 235.528C158.304 235.528 156.9 237.379 156.62 240.683C156.058 244.252 157.181 245.706 160.268 245.706C162.233 245.706 164.198 245.045 164.198 244.384C164.198 242.005 169.811 242.93 170.092 245.309C170.092 246.631 172.056 245.045 174.021 241.741C175.986 238.436 180.757 233.149 184.967 229.844C188.896 226.54 192.264 222.971 191.984 221.913C191.984 220.856 190.3 221.649 188.054 223.896L183.844 227.861L185.528 223.896C186.37 221.649 188.616 216.494 190.3 212.264C192.545 206.58 192.545 203.672 190.019 200.368C188.054 197.856 186.651 194.816 186.651 193.362C186.651 189.529 176.266 182.259 170.653 182.259C167.846 182.259 163.917 181.069 161.952 179.615C158.584 177.104 155.216 176.311 152.691 177.632ZM158.023 180.54C155.216 180.805 150.726 180.805 148.2 180.54C145.393 180.144 147.639 179.879 152.971 179.879C158.304 179.879 160.549 180.144 158.023 180.54ZM122.098 182.259C119.853 182.92 115.923 183.448 113.678 183.448C110.871 183.448 111.433 183.052 115.081 182.259C122.659 180.673 127.15 180.673 122.098 182.259ZM98.8028 206.316C98.2415 208.034 97.6801 206.977 97.6801 204.069C97.3995 201.161 97.9608 199.839 98.8028 201.029C99.3641 202.35 99.3641 204.73 98.8028 206.316ZM101.048 223.896C102.732 227.729 102.171 228.787 99.9255 227.729C98.2415 227.068 96.2768 223.764 95.7155 220.591C94.3121 213.586 98.2415 215.965 101.048 223.896Z" fill="black"/>
<path id="Vector_2" d="M111.152 220.856C112.555 223.235 113.117 226.804 112.275 228.787C111.152 230.637 111.713 232.62 113.397 233.017C115.081 233.545 118.449 235.925 120.975 238.436C123.501 240.948 126.589 243.062 127.992 243.062C129.395 243.062 129.676 243.988 128.553 245.177C127.15 247.028 126.308 246.764 123.221 244.252C120.975 242.269 119.572 241.873 119.572 243.062C119.291 248.746 133.044 249.539 133.605 243.856C133.605 242.402 134.167 239.626 134.447 237.775C135.009 235.925 133.886 232.356 132.483 229.844C130.799 227.333 129.676 224.293 129.957 223.235C130.518 221.649 130.237 221.649 127.992 223.367C126.027 224.821 126.027 227.068 127.711 229.976C131.36 236.057 131.36 243.062 127.711 240.419C126.308 239.361 124.905 236.453 124.905 234.074C124.905 231.43 123.782 229.976 122.098 230.505C119.853 231.166 119.011 229.712 119.291 225.218C119.572 224.16 110.871 216.626 109.468 216.626C108.907 216.626 109.749 218.609 111.152 220.856Z" fill="black"/>
<path id="Vector_3" d="M149.322 220.195C148.2 220.591 147.358 222.045 147.358 223.235C147.358 224.425 145.393 226.54 142.867 227.994C138.657 230.505 138.657 230.373 139.78 227.465C140.622 225.879 140.341 224.821 139.218 225.218C136.692 225.879 137.254 248.085 140.06 249.275C140.902 249.671 141.744 247.953 141.744 245.442C141.744 239.361 146.796 226.936 149.884 225.482C151.006 224.953 151.568 227.597 150.726 231.43C149.884 235.264 148.48 238.568 147.358 238.833C144.551 239.361 148.2 247.424 151.568 247.953C153.252 248.217 154.374 244.384 154.094 238.568C154.094 233.149 154.655 228.919 155.497 229.183C156.62 229.448 157.181 227.994 157.181 225.879C157.181 223.499 156.058 222.442 153.532 222.838C151.287 223.367 150.726 222.838 151.848 221.384C153.532 219.137 152.41 218.609 149.322 220.195Z" fill="black"/>
<path id="Vector_4" d="M169.811 221.12C169.811 222.31 168.688 223.235 167.004 223.235C162.514 223.235 158.023 232.884 162.233 234.074C166.724 235.396 169.25 235.396 171.214 233.81C174.021 231.695 174.582 220.592 172.056 219.798C170.934 219.402 169.811 220.063 169.811 221.12ZM167.285 232.884C163.636 234.603 163.356 232.224 166.443 227.201L168.408 223.896L169.25 227.729C169.811 229.844 168.969 232.091 167.285 232.884Z" fill="black"/>
<path id="Vector_5" d="M108.065 234.999C108.065 235.792 109.468 236.718 111.152 237.246C112.836 237.643 113.678 239.229 112.836 240.551C111.152 243.723 115.362 245.177 117.607 242.269C118.73 241.08 117.327 238.7 115.081 236.982C110.591 233.678 108.065 233.017 108.065 234.999Z" fill="black"/>
</g>
</g>

    </svg>
