
    <svg width="256" height="256" viewBox="0 0 256 256" fill="none" xmlns="http://www.w3.org/2000/svg">
        
<g id="Frame 41">
<rect width="256" height="256" fill="#FF4D4D"/>
</g>

        
<g id="head">
<path id="Vector" d="M36.7332 45.6036C36.5521 45.9054 36.7936 47.1125 37.2764 48.2593C37.7593 49.4061 38.0007 50.915 37.8196 51.5789C37.6386 52.2428 37.7593 53.631 38.1214 54.5967C38.9061 56.8903 37.9403 57.856 34.5 58.2182C33.5946 58.3389 34.0171 60.0892 34.9829 60.0892C35.4657 60.0892 35.7071 60.3306 35.5261 60.6928C35.345 60.9946 35.4657 61.2964 35.8882 61.2964C36.3107 61.2964 36.4314 61.8999 36.3107 62.8053C36.1296 63.6503 36.19 64.3142 36.3711 64.3142C36.7936 64.3142 37.2764 73.4281 37.0953 77.2909C36.6728 86.0427 36.7332 86.767 37.6386 87.2498C38.3025 87.6723 38.3025 87.793 37.7593 87.8534C37.2764 87.8534 37.035 88.2155 37.2161 88.5777C37.3368 89.0002 37.035 90.2677 36.6125 91.4145L35.7071 93.4666L37.2764 92.4405C38.7853 91.4748 38.8457 91.4748 38.8457 92.6216C38.8457 93.4062 38.5439 93.708 38.0007 93.5269C37.5178 93.3459 36.9746 93.4666 36.7332 93.8287C36.5521 94.1909 36.8539 94.4927 37.4575 94.4927C38.3025 94.4927 38.3628 94.6134 37.7593 95.0359C36.6125 95.6998 36.7332 96.4844 38.0611 96.9673C39.0268 97.3898 39.0268 97.4501 37.88 97.4501C36.6125 97.5105 36.3711 98.1744 36.4918 101.434C36.4918 102.399 36.6125 104.27 36.6125 105.538C36.6728 106.987 36.9746 107.711 37.3971 107.53C37.8196 107.349 38.3025 107.65 38.4836 108.133C38.725 108.858 38.5439 108.978 37.6386 108.677C36.9746 108.435 36.4314 108.556 36.4314 108.918C36.4314 109.28 36.7332 109.582 37.035 109.582C37.4575 109.582 37.4575 109.944 37.035 110.789C36.2503 112.298 36.8539 112.358 38.4836 110.91C39.5096 110.065 39.6303 110.065 38.9664 110.91C38.5439 111.453 38.4232 111.996 38.725 112.117C38.9664 112.177 38.8457 112.962 38.3628 113.807C37.5782 115.195 37.5782 115.195 37.8196 113.928C38.0007 113.203 37.88 112.6 37.5782 112.6C36.7332 112.6 36.9746 114.773 37.9403 115.618C38.6043 116.161 38.8457 118.696 38.9664 128.293C39.0871 134.871 38.9664 140.122 38.7853 140.002C38.1818 139.64 38.3025 144.046 38.9061 145.736C39.2682 146.52 39.5096 148.693 39.5096 150.444C39.57 152.254 39.8718 154.005 40.2943 154.427C40.6564 154.85 40.8978 156.721 40.8375 159.014C40.7168 162.273 40.8375 162.756 41.6221 162.455C42.1653 162.273 42.7085 162.092 42.8292 162.092C43.0103 162.092 42.95 161.791 42.7689 161.489C42.5878 161.127 42.6482 160.885 42.95 160.885C43.8553 160.885 46.3299 165.955 46.2092 167.525C45.9678 169.456 46.9939 171.448 49.7099 174.345C50.8567 175.612 52.4864 177.785 53.3313 179.234C54.8403 181.829 55.9871 183.157 60.2724 187.503C61.7813 189.012 62.6263 190.339 62.5056 191.124C62.3849 191.909 63.1092 193.116 64.7388 194.564C66.127 195.832 67.2134 196.979 67.2134 197.16C67.2134 197.401 68.8431 199.212 70.8348 201.204C72.8266 203.256 74.4563 205.308 74.4563 205.73C74.4563 206.877 77.7759 209.895 78.3795 209.352C78.6209 209.05 78.6812 209.171 78.5002 209.593C78.0777 210.197 83.2684 215.75 84.898 216.414C85.3205 216.595 87.2519 217.802 89.2437 219.13C91.2355 220.458 93.2876 221.785 93.8308 222.147C100.168 226.01 102.402 227.278 104.393 227.881C105.661 228.304 107.592 229.028 108.679 229.511C109.705 229.934 110.972 230.296 111.515 230.296C112.059 230.296 113.085 230.96 113.809 231.805C114.533 232.65 116.042 233.434 117.249 233.676C120.207 234.159 122.078 235.124 121.776 236.03C121.535 236.573 122.561 236.875 124.975 237.176C132.278 237.961 136.081 238.685 137.046 239.47C137.469 239.832 138.193 239.832 138.917 239.41C139.521 239.047 142.599 238.746 145.677 238.685C151.713 238.565 152.437 238.323 162.517 232.951C164.629 231.805 167.164 230.899 168.07 230.899C170.001 230.899 170.967 229.813 169.76 229.028C168.734 228.425 166.561 228.907 163.784 230.356C156.481 234.159 151.834 235.849 147.428 236.331C142.539 236.875 136.926 236.633 134.149 235.728C133.304 235.486 130.83 235.366 128.657 235.547C126.061 235.788 124.552 235.667 124.311 235.185C123.828 234.46 124.311 234.34 128.053 234.521C129.502 234.581 130.588 234.34 130.588 233.977C130.588 233.615 130.588 233.132 130.588 232.831C130.588 232.589 129.441 232.408 127.993 232.348C119.664 232.287 117.491 232.046 116.344 231.141C115.74 230.658 115.499 230.356 115.861 230.537C116.766 230.96 119.12 229.209 119.12 228.123C119.12 227.157 117.853 226.976 116.948 227.881C116.042 228.787 109.463 227.942 109.463 226.976C109.463 225.648 107.713 224.562 106.928 225.346C105.842 226.433 105.178 226.252 101.677 223.958C99.9269 222.811 97.8747 221.665 97.0901 221.484C95.219 221.001 90.7526 217.138 90.7526 215.991C90.7526 215.388 90.4508 215.206 89.7266 215.508C87.7951 216.233 87.4934 216.112 87.2519 214.844C87.1312 214.12 85.3809 211.947 83.3287 210.016C81.2766 208.084 78.5002 205.127 77.2327 203.437C75.9652 201.807 73.3095 198.789 71.3781 196.798C66.7306 191.969 64.7388 189.494 65.2217 189.012C65.4631 188.83 64.1956 187.261 62.5056 185.632C60.7552 183.942 59.367 182.433 59.367 182.131C59.367 181.769 54.4178 176.216 50.5549 172.232C50.0117 171.689 49.7703 170.965 49.9514 170.663C50.2531 170.12 47.1146 163.3 45.6057 161.247C44.9417 160.342 43.6742 155.332 43.0103 151.228C42.7689 149.417 42.286 146.339 41.9239 144.408C41.6221 142.537 41.3203 132.035 41.3203 121.17C41.3203 99.623 40.8375 86.5255 39.9925 80.9124C39.3889 77.1702 39.6907 53.9328 40.2943 52.9068C40.5357 52.605 40.415 52.1825 40.1132 52.0014C39.8114 51.76 39.6907 50.1303 39.8718 48.3196C40.2339 45.0604 40.1735 45 38.6646 45C37.8196 45 36.9746 45.2414 36.7332 45.6036ZM38.4232 99.1401C38.1818 99.6833 38.3025 99.9851 38.6043 99.7437C38.9664 99.5626 39.2682 100.227 39.3285 101.192C39.3889 102.158 39.1475 102.943 38.8457 102.943C38.4836 102.943 38.3628 102.641 38.5439 102.339C38.725 101.977 38.4836 101.735 38.0007 101.735C37.4575 101.735 37.035 101.615 37.035 101.494C37.035 100.83 38.2421 98.1141 38.4836 98.1141C38.6646 98.1141 38.6043 98.5366 38.4232 99.1401Z" fill="black"/>
<path id="Vector_2" d="M205.129 51.0357C204.948 51.3374 204.948 52.6049 205.189 53.7517C205.431 55.1399 205.31 56.2263 204.827 56.7696C204.224 57.4938 204.224 58.0974 204.646 59.0631C206.759 63.4088 207.241 65.0988 207.241 67.5734C207.241 69.0824 207.422 70.3499 207.724 70.3499C208.267 70.3499 208.509 74.937 208.75 92.6819C209.052 112.962 210.259 126.784 211.768 126.301C212.432 126.059 212.372 124.43 211.104 115.98C209.957 107.771 209.957 97.088 211.104 97.088C212.07 97.088 212.372 98.8383 212.975 108.978C213.156 112.117 213.458 115.497 213.579 116.523C213.881 118.816 214.605 129.5 214.545 130.707C214.303 135.052 214.484 136.803 215.39 138.191C215.993 139.036 216.174 139.76 215.812 139.76C215.51 139.76 215.269 140.424 215.269 141.269C215.269 142.054 215.39 142.657 215.631 142.537C215.933 142.356 215.933 147.848 215.691 154.85C215.631 155.695 215.872 158.048 216.114 160.04C216.536 162.696 216.416 164.386 215.872 166.016C215.39 167.343 215.329 168.611 215.631 169.214C215.933 169.758 215.752 170.904 215.027 172.293C214.424 173.5 213.519 176.035 212.915 177.966C212.251 180.32 211.104 182.252 209.595 183.821C208.267 185.149 207.241 186.537 207.241 186.899C207.241 187.261 206.578 188.408 205.733 189.494C204.888 190.581 204.224 191.667 204.224 191.969C204.224 192.21 203.56 192.935 202.715 193.599C200.844 195.047 200.663 196.737 202.413 196.194C203.922 195.711 203.922 196.496 202.413 199.453C201.809 200.721 201.447 201.928 201.628 202.169C201.87 202.35 201.689 202.531 201.326 202.531C200.964 202.531 200.481 203.135 200.24 203.859C199.878 205.006 197.162 209.05 195.291 211.283C194.566 212.128 189.617 216.293 184.608 220.397C182.314 222.268 179.779 224.441 179.055 225.226C177.244 227.157 169.217 232.287 167.708 232.469C164.69 232.831 158.835 236.392 159.801 237.357C159.982 237.599 161.008 237.176 161.974 236.392C163 235.667 164.267 235.124 164.871 235.185C165.414 235.305 166.863 235.124 168.009 234.822C169.156 234.581 170.544 234.279 171.027 234.219C171.51 234.159 174.528 232.891 177.667 231.322C182.193 229.149 184.064 227.881 186.418 225.226C188.108 223.355 191.79 219.492 194.627 216.534C198.49 212.551 199.938 210.68 200.24 209.05C200.421 207.903 201.145 206.455 201.809 205.851C202.473 205.248 203.016 204.282 203.016 203.739C203.016 203.195 203.62 201.988 204.405 201.083C205.189 200.238 206.578 197.944 207.543 196.073C208.569 194.142 209.957 191.728 210.742 190.702C211.466 189.675 212.07 188.649 212.07 188.468C212.07 188.227 213.156 185.692 214.545 182.795C216.174 179.294 217.08 176.457 217.2 174.466C217.321 172.836 217.804 170.18 218.347 168.551C218.83 166.981 219.132 165.714 218.951 165.714C218.77 165.714 218.951 165.231 219.252 164.627C219.615 163.963 220.037 161.489 220.218 159.014C220.399 156.54 220.701 153.823 220.882 152.918C221.184 151.53 220.942 151.107 219.735 150.685C218.347 150.142 218.287 149.9 218.709 147.848C219.011 146.581 219.132 145.373 219.011 145.192C218.89 145.011 218.709 142.235 218.649 139.096C218.589 136.018 218.347 132.94 218.045 132.397C217.744 131.854 217.381 130.103 217.261 128.474C216.838 124.49 215.209 109.159 214.484 102.943C214.182 100.106 213.881 94.7944 213.82 91.0523C213.76 85.6805 213.519 83.8698 212.613 82.1798C211.829 80.6709 211.466 78.7998 211.466 76.2045C211.466 71.7381 210.501 65.8231 209.354 63.7106C207.845 60.8135 207.181 57.011 207.604 53.6914C207.966 50.6735 207.905 50.4321 206.759 50.4321C206.034 50.4321 205.31 50.6735 205.129 51.0357ZM211.466 90.5694C211.044 91.0523 210.44 91.4748 210.139 91.4748C209.776 91.4748 209.837 91.0523 210.259 90.5694C210.682 90.0866 211.285 89.6641 211.587 89.6641C211.949 89.6641 211.889 90.0866 211.466 90.5694ZM212.251 92.5008C211.829 92.6216 211.466 93.2855 211.466 93.8891C211.466 95.3376 210.501 95.9412 210.018 94.7944C209.475 93.3458 210.259 92.0784 211.708 92.1387C212.372 92.1387 212.613 92.3198 212.251 92.5008ZM219.313 154.85C219.313 156.781 218.77 158.471 218.166 158.471C217.985 158.471 217.804 157.143 217.804 155.513C217.804 153.401 217.985 152.677 218.528 152.858C218.951 153.039 219.313 153.944 219.313 154.85ZM218.709 160.704C218.709 161.549 217.562 162.998 217.2 162.636C216.717 162.153 217.502 160.282 218.166 160.282C218.468 160.282 218.709 160.463 218.709 160.704ZM210.561 187.08C209.535 189.253 208.449 189.977 208.449 188.408C208.449 187.442 210.863 184.243 211.285 184.666C211.466 184.787 211.104 185.873 210.561 187.08ZM208.026 192.15C207.905 192.754 207.181 194.021 206.396 194.927C205.189 196.496 205.069 196.496 205.008 195.349C204.948 194.625 205.129 194.082 205.491 194.082C205.793 194.082 206.034 193.538 206.034 192.935C206.034 191.909 206.698 191.245 207.966 191.124C208.147 191.064 208.207 191.547 208.026 192.15ZM188.531 219.431C188.531 220.216 183.702 225.467 183.038 225.467C182.737 225.467 181.529 226.433 180.443 227.58C178.33 229.752 177.425 230.115 176.761 229.089C176.52 228.726 176.822 228.666 177.425 228.907C178.089 229.149 178.33 229.028 178.089 228.666C177.908 228.364 178.391 227.7 179.175 227.278C180.02 226.855 180.684 226.131 180.684 225.709C180.684 225.346 181.288 224.562 182.073 224.079C182.797 223.536 184.487 222.147 185.754 221.001C188.35 218.647 188.531 218.526 188.531 219.431Z" fill="black"/>
</g>

        
<g id="hair">
<path id="Vector" d="M103.61 8.43327C92.2007 9.92611 80.791 14.1061 69.0811 21.2717C46.8622 34.7072 32.7502 48.7399 38.1548 52.0241C40.2566 53.2184 42.3584 52.9198 43.2591 50.8298C45.6612 43.0671 57.0709 32.0201 67.2795 27.5416C73.2846 24.5559 80.4908 20.6745 82.8928 18.5846C88.8979 13.8075 139.341 7.239 143.845 10.8218C148.649 14.7032 173.87 23.6602 176.572 22.7645C180.776 20.9731 199.692 42.4699 201.494 50.8298C203.595 60.384 209 62.1754 209 53.2184C209 49.9341 207.799 47.247 205.997 47.247C204.496 47.247 202.995 45.4556 202.995 43.0671C202.995 37.6929 180.476 17.3903 174.471 17.3903C171.768 17.3903 164.562 14.7032 157.957 11.4189C145.646 5.14903 133.636 4.5519 103.61 8.43327Z" fill="black"/>
<path id="Vector_2" d="M130.934 17.3903C130.934 18.8831 132.435 20.376 133.936 20.376C135.738 20.376 136.939 18.8831 136.939 17.3903C136.939 15.5989 135.738 14.4046 133.936 14.4046C132.435 14.4046 130.934 15.5989 130.934 17.3903Z" fill="black"/>
<path id="Vector_3" d="M145.946 23.3617C145.946 24.8545 147.448 26.3474 149.249 26.3474C150.751 26.3474 151.351 24.8545 150.45 23.3617C149.549 21.5703 148.048 20.376 147.147 20.376C146.547 20.376 145.946 21.5703 145.946 23.3617Z" fill="black"/>
<path id="Vector_4" d="M81.3915 26.3473C80.4907 27.8402 81.0912 29.333 82.5925 29.333C84.394 29.333 85.8953 27.8402 85.8953 26.3473C85.8953 24.5559 85.2948 23.3617 84.6943 23.3617C83.7935 23.3617 82.2923 24.5559 81.3915 26.3473Z" fill="black"/>
<path id="Vector_5" d="M124.929 26.6459C124.929 28.1387 126.43 28.7358 127.931 27.8401C129.733 26.9444 130.934 25.4516 130.934 24.5559C130.934 23.9588 129.733 23.3616 127.931 23.3616C126.43 23.3616 124.929 24.8545 124.929 26.6459Z" fill="black"/>
<path id="Vector_6" d="M97.9056 32.3187C97.9056 33.8116 99.4069 35.3044 100.908 35.3044C102.71 35.3044 103.911 33.8116 103.911 32.3187C103.911 30.5273 102.71 29.3331 100.908 29.3331C99.4069 29.3331 97.9056 30.5273 97.9056 32.3187Z" fill="black"/>
<path id="Vector_7" d="M169.967 35.6029C169.967 37.0957 171.468 37.6929 172.969 36.7972C174.771 35.9015 175.972 34.4086 175.972 33.5129C175.972 32.9158 174.771 32.3186 172.969 32.3186C171.468 32.3186 169.967 33.8115 169.967 35.6029Z" fill="black"/>
<path id="Vector_8" d="M132.435 38.29C131.534 39.7828 132.135 41.2757 133.636 41.2757C135.437 41.2757 136.939 39.7828 136.939 38.29C136.939 36.4986 136.338 35.3043 135.738 35.3043C134.837 35.3043 133.336 36.4986 132.435 38.29Z" fill="black"/>
<path id="Vector_9" d="M85.8954 41.2756C85.8954 42.7685 87.3967 44.2613 88.8979 44.2613C90.6995 44.2613 91.9005 42.7685 91.9005 41.2756C91.9005 39.4842 90.6995 38.29 88.8979 38.29C87.3967 38.29 85.8954 39.4842 85.8954 41.2756Z" fill="black"/>
<path id="Vector_10" d="M105.412 41.2756C104.511 42.7685 104.811 44.2613 106.613 44.2613C108.114 44.2613 110.516 42.7685 111.417 41.2756C112.318 39.4842 112.018 38.29 110.216 38.29C108.715 38.29 106.313 39.4842 105.412 41.2756Z" fill="black"/>
<path id="Vector_11" d="M181.977 41.2756C181.977 42.7685 183.478 44.2613 184.98 44.2613C186.781 44.2613 187.982 42.7685 187.982 41.2756C187.982 39.4842 186.781 38.29 184.98 38.29C183.478 38.29 181.977 39.4842 181.977 41.2756Z" fill="black"/>
<path id="Vector_12" d="M60.3736 47.247C59.4728 48.7399 60.0733 50.2327 61.5746 50.2327C63.3762 50.2327 64.8774 48.7399 64.8774 47.247C64.8774 45.4556 64.2769 44.2613 63.6764 44.2613C62.7756 44.2613 61.2744 45.4556 60.3736 47.247Z" fill="black"/>
<path id="Vector_13" d="M75.3864 50.2328C74.4856 51.7256 75.0861 53.2185 76.5874 53.2185C78.3889 53.2185 79.8902 51.7256 79.8902 50.2328C79.8902 48.4414 79.2897 47.2471 78.6892 47.2471C77.7884 47.2471 76.2871 48.4414 75.3864 50.2328Z" fill="black"/>
<path id="Vector_14" d="M168.466 53.2184C169.366 54.7113 170.868 56.2041 171.768 56.2041C172.369 56.2041 172.969 54.7113 172.969 53.2184C172.969 51.427 171.468 50.2328 169.667 50.2328C168.165 50.2328 167.565 51.427 168.466 53.2184Z" fill="black"/>
</g>

        
<g id="Frame 21">
<path id="Vector" d="M75.8591 97.6206C72.5407 100.939 76.7641 104.861 83.0991 104.861C86.1157 104.861 91.2441 106.067 94.2607 107.576C109.947 116.324 119.299 119.341 118.092 116.022C115.981 109.386 79.7807 93.6989 75.8591 97.6206Z" fill="black"/>
<path id="Vector_2" d="M144.639 106.973C138.002 109.084 131.365 112.403 129.857 113.911C124.125 119.643 130.159 119.643 145.544 113.911C154.292 110.593 164.549 107.878 168.772 107.878C172.995 107.878 176.314 106.671 176.314 104.861C176.314 100.939 159.119 101.844 144.639 106.973Z" fill="black"/>
<path id="Vector_3" d="M71.0319 124.469C71.0319 130.201 71.3336 130.502 73.4452 124.469C75.5569 119.039 75.8586 119.341 77.6686 126.279C78.8752 130.502 82.7969 135.631 86.4169 137.441L93.3552 141.061L86.1152 140.156C82.1936 139.854 78.2719 141.061 77.6686 142.871C76.1602 147.094 109.947 148.301 115.98 144.077C119.299 141.664 117.187 141.362 108.439 142.569C98.1819 143.776 97.5785 143.776 104.819 141.362C132.873 132.011 124.728 120.246 90.0369 118.737C72.2386 118.134 70.7302 118.737 71.0319 124.469ZM95.7685 129.296C94.8635 132.614 95.4669 135.027 97.2769 135.027C98.7852 135.027 100.897 132.312 101.802 128.994C103.31 122.659 111.154 120.849 114.472 125.977C117.79 131.106 110.249 137.742 102.104 137.139C97.8802 136.837 93.3552 134.424 91.8469 132.011C89.4335 128.391 88.8302 128.391 88.8302 131.709C88.8302 135.027 87.9252 135.027 84.3052 132.011C77.3669 126.279 78.8752 123.262 88.5286 123.564C95.1652 123.866 96.6735 125.072 95.7685 129.296Z" fill="black"/>
<path id="Vector_4" d="M104.215 130.804C104.215 134.122 105.12 135.027 106.025 132.614C106.93 130.502 106.629 127.787 105.724 126.882C104.819 125.676 103.914 127.486 104.215 130.804Z" fill="black"/>
<path id="Vector_5" d="M136.192 125.374C132.874 128.994 132.27 132.011 134.382 135.932C136.494 139.552 136.192 141.061 133.477 141.061C130.762 141.061 131.064 142.267 134.08 145.586C137.7 148.904 142.527 149.206 156.102 147.396C165.755 146.189 175.107 143.172 177.219 141.061C180.235 138.044 179.632 137.742 174.805 139.552C171.487 141.061 163.644 142.267 157.309 142.871C151.275 143.474 144.94 144.379 143.432 145.586C141.924 146.491 139.812 145.887 138.605 144.077C137.7 142.267 139.812 141.061 143.734 140.759H150.672L144.035 138.044C140.114 136.536 137.097 133.217 137.097 130.502C137.097 124.469 140.114 124.771 144.94 131.106C148.56 135.932 148.56 135.932 147.052 129.597C145.544 123.866 146.449 122.961 155.197 122.961C164.247 122.961 164.85 123.564 163.644 132.011C162.739 136.837 162.739 141.061 163.04 141.061C163.644 141.061 167.565 139.552 171.789 137.441C187.475 130.502 178.425 119.944 156.705 119.944C145.544 119.944 139.51 121.452 136.192 125.374ZM175.409 129.899C173.599 135.631 168.47 135.329 168.47 129.296C168.47 125.977 169.979 124.167 172.694 125.072C174.805 125.977 176.012 128.089 175.409 129.899Z" fill="black"/>
<path id="Vector_6" d="M152.18 130.201C152.18 132.614 153.689 135.631 155.197 136.536C157.007 137.441 158.214 135.631 158.214 132.312C158.214 128.692 157.007 125.977 155.197 125.977C153.689 125.977 152.18 127.787 152.18 130.201Z" fill="black"/>
<path id="Vector_7" d="M182.95 132.011C182.95 136.234 183.554 137.742 184.459 135.631C185.062 133.821 185.062 130.201 184.459 128.089C183.554 126.279 182.95 127.788 182.95 132.011Z" fill="black"/>
</g>

        
<g id="Frame 13">
<path id="Vector" d="M126.771 132.787C125.934 135.017 122.589 143.938 119.244 152.858C113.111 170.143 113.668 180.457 120.638 174.603C123.704 172.094 124.819 172.094 125.656 174.603C126.213 176.554 128.443 177.112 130.116 175.997C134.298 173.488 142.661 157.598 140.709 155.646C140.152 154.81 136.807 158.992 133.74 165.125C129.28 173.488 128.165 174.603 127.886 169.585C127.886 166.24 129.28 162.616 130.674 161.779C132.346 160.943 133.461 158.713 133.461 157.04C133.461 155.089 131.789 155.367 129.28 157.598C127.049 159.549 125.098 162.616 125.098 164.846C125.098 168.749 120.08 172.93 117.85 170.979C117.292 170.143 119.801 161.222 123.704 150.628C127.607 140.314 130.116 131.114 129.558 130.278C128.722 129.441 127.328 130.556 126.771 132.787Z" fill="black"/>
</g>

        
<g id="Frame 28">
<g id="Group 39">
<path id="Vector" d="M158.304 187.996C148.161 196.872 132.438 198.393 118.237 192.054C108.601 187.743 106.825 187.489 106.065 190.786C105.557 192.814 108.093 198.393 111.644 203.212C124.577 220.202 152.218 217.413 163.123 198.14C172.506 181.403 170.477 177.092 158.304 187.996ZM160.333 198.14C158.051 201.69 155.008 203.972 153.486 203.212C152.218 202.197 153.486 198.901 156.783 195.604C163.883 187.996 165.912 189.518 160.333 198.14ZM119.505 196.872C120.266 198.14 120.012 199.408 118.491 199.408C117.223 199.408 115.194 198.14 114.433 196.872C113.672 195.35 113.926 194.336 115.447 194.336C116.715 194.336 118.744 195.35 119.505 196.872ZM148.668 197.886C148.668 198.393 146.893 199.661 144.61 200.422C142.582 201.183 141.567 200.929 142.328 199.408C143.85 196.872 148.668 195.858 148.668 197.886ZM127.366 203.465C126.098 206.762 127.366 207.269 133.96 206.508C138.524 205.748 144.357 204.48 146.893 203.212C149.936 201.944 151.204 202.451 151.204 205.24C151.204 212.848 121.534 212.087 116.715 204.226C115.701 202.197 116.969 201.944 120.773 203.212C124.577 204.48 125.845 204.226 124.83 202.197C123.816 200.676 124.323 199.408 125.845 199.408C127.62 199.408 128.127 201.183 127.366 203.465ZM138.524 201.944C138.524 203.212 136.749 204.48 134.72 204.48C132.692 204.48 130.917 203.212 130.917 201.944C130.917 200.422 132.692 199.408 134.72 199.408C136.749 199.408 138.524 200.422 138.524 201.944Z" fill="black"/>
</g>
</g>

        
    </svg>
