
    <svg width="256" height="256" viewBox="0 0 256 256" fill="none" xmlns="http://www.w3.org/2000/svg">
        
<g id="Frame 45">
<rect width="256" height="256" fill="#4DDFFF"/>
<rect width="256" height="256" fill="#4DDFFF"/>
<rect width="256" height="256" fill="#4DDFFF"/>
</g>

        
<g id="head">
<path id="Vector" d="M36.7332 45.6036C36.5521 45.9054 36.7936 47.1125 37.2764 48.2593C37.7593 49.4061 38.0007 50.915 37.8196 51.5789C37.6386 52.2428 37.7593 53.631 38.1214 54.5967C38.9061 56.8903 37.9403 57.856 34.5 58.2182C33.5946 58.3389 34.0171 60.0892 34.9829 60.0892C35.4657 60.0892 35.7071 60.3306 35.5261 60.6928C35.345 60.9946 35.4657 61.2964 35.8882 61.2964C36.3107 61.2964 36.4314 61.8999 36.3107 62.8053C36.1296 63.6503 36.19 64.3142 36.3711 64.3142C36.7936 64.3142 37.2764 73.4281 37.0953 77.2909C36.6728 86.0427 36.7332 86.767 37.6386 87.2498C38.3025 87.6723 38.3025 87.793 37.7593 87.8534C37.2764 87.8534 37.035 88.2155 37.2161 88.5777C37.3368 89.0002 37.035 90.2677 36.6125 91.4145L35.7071 93.4666L37.2764 92.4405C38.7853 91.4748 38.8457 91.4748 38.8457 92.6216C38.8457 93.4062 38.5439 93.708 38.0007 93.5269C37.5178 93.3459 36.9746 93.4666 36.7332 93.8287C36.5521 94.1909 36.8539 94.4927 37.4575 94.4927C38.3025 94.4927 38.3628 94.6134 37.7593 95.0359C36.6125 95.6998 36.7332 96.4844 38.0611 96.9673C39.0268 97.3898 39.0268 97.4501 37.88 97.4501C36.6125 97.5105 36.3711 98.1744 36.4918 101.434C36.4918 102.399 36.6125 104.27 36.6125 105.538C36.6728 106.987 36.9746 107.711 37.3971 107.53C37.8196 107.349 38.3025 107.65 38.4836 108.133C38.725 108.858 38.5439 108.978 37.6386 108.677C36.9746 108.435 36.4314 108.556 36.4314 108.918C36.4314 109.28 36.7332 109.582 37.035 109.582C37.4575 109.582 37.4575 109.944 37.035 110.789C36.2503 112.298 36.8539 112.358 38.4836 110.91C39.5096 110.065 39.6303 110.065 38.9664 110.91C38.5439 111.453 38.4232 111.996 38.725 112.117C38.9664 112.177 38.8457 112.962 38.3628 113.807C37.5782 115.195 37.5782 115.195 37.8196 113.928C38.0007 113.203 37.88 112.6 37.5782 112.6C36.7332 112.6 36.9746 114.773 37.9403 115.618C38.6043 116.161 38.8457 118.696 38.9664 128.293C39.0871 134.871 38.9664 140.122 38.7853 140.002C38.1818 139.64 38.3025 144.046 38.9061 145.736C39.2682 146.52 39.5096 148.693 39.5096 150.444C39.57 152.254 39.8718 154.005 40.2943 154.427C40.6564 154.85 40.8978 156.721 40.8375 159.014C40.7168 162.273 40.8375 162.756 41.6221 162.455C42.1653 162.273 42.7085 162.092 42.8292 162.092C43.0103 162.092 42.95 161.791 42.7689 161.489C42.5878 161.127 42.6482 160.885 42.95 160.885C43.8553 160.885 46.3299 165.955 46.2092 167.525C45.9678 169.456 46.9939 171.448 49.7099 174.345C50.8567 175.612 52.4864 177.785 53.3313 179.234C54.8403 181.829 55.9871 183.157 60.2724 187.503C61.7813 189.012 62.6263 190.339 62.5056 191.124C62.3849 191.909 63.1092 193.116 64.7388 194.564C66.127 195.832 67.2134 196.979 67.2134 197.16C67.2134 197.401 68.8431 199.212 70.8348 201.204C72.8266 203.256 74.4563 205.308 74.4563 205.73C74.4563 206.877 77.7759 209.895 78.3795 209.352C78.6209 209.05 78.6812 209.171 78.5002 209.593C78.0777 210.197 83.2684 215.75 84.898 216.414C85.3205 216.595 87.2519 217.802 89.2437 219.13C91.2355 220.458 93.2876 221.785 93.8308 222.147C100.168 226.01 102.402 227.278 104.393 227.881C105.661 228.304 107.592 229.028 108.679 229.511C109.705 229.934 110.972 230.296 111.515 230.296C112.059 230.296 113.085 230.96 113.809 231.805C114.533 232.65 116.042 233.434 117.249 233.676C120.207 234.159 122.078 235.124 121.776 236.03C121.535 236.573 122.561 236.875 124.975 237.176C132.278 237.961 136.081 238.685 137.046 239.47C137.469 239.832 138.193 239.832 138.917 239.41C139.521 239.047 142.599 238.746 145.677 238.685C151.713 238.565 152.437 238.323 162.517 232.951C164.629 231.805 167.164 230.899 168.07 230.899C170.001 230.899 170.967 229.813 169.76 229.028C168.734 228.425 166.561 228.907 163.784 230.356C156.481 234.159 151.834 235.849 147.428 236.331C142.539 236.875 136.926 236.633 134.149 235.728C133.304 235.486 130.83 235.366 128.657 235.547C126.061 235.788 124.552 235.667 124.311 235.185C123.828 234.46 124.311 234.34 128.053 234.521C129.502 234.581 130.588 234.34 130.588 233.977C130.588 233.615 130.588 233.132 130.588 232.831C130.588 232.589 129.441 232.408 127.993 232.348C119.664 232.287 117.491 232.046 116.344 231.141C115.74 230.658 115.499 230.356 115.861 230.537C116.766 230.96 119.12 229.209 119.12 228.123C119.12 227.157 117.853 226.976 116.948 227.881C116.042 228.787 109.463 227.942 109.463 226.976C109.463 225.648 107.713 224.562 106.928 225.346C105.842 226.433 105.178 226.252 101.677 223.958C99.9269 222.811 97.8747 221.665 97.0901 221.484C95.219 221.001 90.7526 217.138 90.7526 215.991C90.7526 215.388 90.4508 215.206 89.7266 215.508C87.7951 216.233 87.4934 216.112 87.2519 214.844C87.1312 214.12 85.3809 211.947 83.3287 210.016C81.2766 208.084 78.5002 205.127 77.2327 203.437C75.9652 201.807 73.3095 198.789 71.3781 196.798C66.7306 191.969 64.7388 189.494 65.2217 189.012C65.4631 188.83 64.1956 187.261 62.5056 185.632C60.7552 183.942 59.367 182.433 59.367 182.131C59.367 181.769 54.4178 176.216 50.5549 172.232C50.0117 171.689 49.7703 170.965 49.9514 170.663C50.2531 170.12 47.1146 163.3 45.6057 161.247C44.9417 160.342 43.6742 155.332 43.0103 151.228C42.7689 149.417 42.286 146.339 41.9239 144.408C41.6221 142.537 41.3203 132.035 41.3203 121.17C41.3203 99.623 40.8375 86.5255 39.9925 80.9124C39.3889 77.1702 39.6907 53.9328 40.2943 52.9068C40.5357 52.605 40.415 52.1825 40.1132 52.0014C39.8114 51.76 39.6907 50.1303 39.8718 48.3196C40.2339 45.0604 40.1735 45 38.6646 45C37.8196 45 36.9746 45.2414 36.7332 45.6036ZM38.4232 99.1401C38.1818 99.6833 38.3025 99.9851 38.6043 99.7437C38.9664 99.5626 39.2682 100.227 39.3285 101.192C39.3889 102.158 39.1475 102.943 38.8457 102.943C38.4836 102.943 38.3628 102.641 38.5439 102.339C38.725 101.977 38.4836 101.735 38.0007 101.735C37.4575 101.735 37.035 101.615 37.035 101.494C37.035 100.83 38.2421 98.1141 38.4836 98.1141C38.6646 98.1141 38.6043 98.5366 38.4232 99.1401Z" fill="black"/>
<path id="Vector_2" d="M205.129 51.0357C204.948 51.3374 204.948 52.6049 205.189 53.7517C205.431 55.1399 205.31 56.2263 204.827 56.7696C204.224 57.4938 204.224 58.0974 204.646 59.0631C206.759 63.4088 207.241 65.0988 207.241 67.5734C207.241 69.0824 207.422 70.3499 207.724 70.3499C208.267 70.3499 208.509 74.937 208.75 92.6819C209.052 112.962 210.259 126.784 211.768 126.301C212.432 126.059 212.372 124.43 211.104 115.98C209.957 107.771 209.957 97.088 211.104 97.088C212.07 97.088 212.372 98.8383 212.975 108.978C213.156 112.117 213.458 115.497 213.579 116.523C213.881 118.816 214.605 129.5 214.545 130.707C214.303 135.052 214.484 136.803 215.39 138.191C215.993 139.036 216.174 139.76 215.812 139.76C215.51 139.76 215.269 140.424 215.269 141.269C215.269 142.054 215.39 142.657 215.631 142.537C215.933 142.356 215.933 147.848 215.691 154.85C215.631 155.695 215.872 158.048 216.114 160.04C216.536 162.696 216.416 164.386 215.872 166.016C215.39 167.343 215.329 168.611 215.631 169.214C215.933 169.758 215.752 170.904 215.027 172.293C214.424 173.5 213.519 176.035 212.915 177.966C212.251 180.32 211.104 182.252 209.595 183.821C208.267 185.149 207.241 186.537 207.241 186.899C207.241 187.261 206.578 188.408 205.733 189.494C204.888 190.581 204.224 191.667 204.224 191.969C204.224 192.21 203.56 192.935 202.715 193.599C200.844 195.047 200.663 196.737 202.413 196.194C203.922 195.711 203.922 196.496 202.413 199.453C201.809 200.721 201.447 201.928 201.628 202.169C201.87 202.35 201.689 202.531 201.326 202.531C200.964 202.531 200.481 203.135 200.24 203.859C199.878 205.006 197.162 209.05 195.291 211.283C194.566 212.128 189.617 216.293 184.608 220.397C182.314 222.268 179.779 224.441 179.055 225.226C177.244 227.157 169.217 232.287 167.708 232.469C164.69 232.831 158.835 236.392 159.801 237.357C159.982 237.599 161.008 237.176 161.974 236.392C163 235.667 164.267 235.124 164.871 235.185C165.414 235.305 166.863 235.124 168.009 234.822C169.156 234.581 170.544 234.279 171.027 234.219C171.51 234.159 174.528 232.891 177.667 231.322C182.193 229.149 184.064 227.881 186.418 225.226C188.108 223.355 191.79 219.492 194.627 216.534C198.49 212.551 199.938 210.68 200.24 209.05C200.421 207.903 201.145 206.455 201.809 205.851C202.473 205.248 203.016 204.282 203.016 203.739C203.016 203.195 203.62 201.988 204.405 201.083C205.189 200.238 206.578 197.944 207.543 196.073C208.569 194.142 209.957 191.728 210.742 190.702C211.466 189.675 212.07 188.649 212.07 188.468C212.07 188.227 213.156 185.692 214.545 182.795C216.174 179.294 217.08 176.457 217.2 174.466C217.321 172.836 217.804 170.18 218.347 168.551C218.83 166.981 219.132 165.714 218.951 165.714C218.77 165.714 218.951 165.231 219.252 164.627C219.615 163.963 220.037 161.489 220.218 159.014C220.399 156.54 220.701 153.823 220.882 152.918C221.184 151.53 220.942 151.107 219.735 150.685C218.347 150.142 218.287 149.9 218.709 147.848C219.011 146.581 219.132 145.373 219.011 145.192C218.89 145.011 218.709 142.235 218.649 139.096C218.589 136.018 218.347 132.94 218.045 132.397C217.744 131.854 217.381 130.103 217.261 128.474C216.838 124.49 215.209 109.159 214.484 102.943C214.182 100.106 213.881 94.7944 213.82 91.0523C213.76 85.6805 213.519 83.8698 212.613 82.1798C211.829 80.6709 211.466 78.7998 211.466 76.2045C211.466 71.7381 210.501 65.8231 209.354 63.7106C207.845 60.8135 207.181 57.011 207.604 53.6914C207.966 50.6735 207.905 50.4321 206.759 50.4321C206.034 50.4321 205.31 50.6735 205.129 51.0357ZM211.466 90.5694C211.044 91.0523 210.44 91.4748 210.139 91.4748C209.776 91.4748 209.837 91.0523 210.259 90.5694C210.682 90.0866 211.285 89.6641 211.587 89.6641C211.949 89.6641 211.889 90.0866 211.466 90.5694ZM212.251 92.5008C211.829 92.6216 211.466 93.2855 211.466 93.8891C211.466 95.3376 210.501 95.9412 210.018 94.7944C209.475 93.3458 210.259 92.0784 211.708 92.1387C212.372 92.1387 212.613 92.3198 212.251 92.5008ZM219.313 154.85C219.313 156.781 218.77 158.471 218.166 158.471C217.985 158.471 217.804 157.143 217.804 155.513C217.804 153.401 217.985 152.677 218.528 152.858C218.951 153.039 219.313 153.944 219.313 154.85ZM218.709 160.704C218.709 161.549 217.562 162.998 217.2 162.636C216.717 162.153 217.502 160.282 218.166 160.282C218.468 160.282 218.709 160.463 218.709 160.704ZM210.561 187.08C209.535 189.253 208.449 189.977 208.449 188.408C208.449 187.442 210.863 184.243 211.285 184.666C211.466 184.787 211.104 185.873 210.561 187.08ZM208.026 192.15C207.905 192.754 207.181 194.021 206.396 194.927C205.189 196.496 205.069 196.496 205.008 195.349C204.948 194.625 205.129 194.082 205.491 194.082C205.793 194.082 206.034 193.538 206.034 192.935C206.034 191.909 206.698 191.245 207.966 191.124C208.147 191.064 208.207 191.547 208.026 192.15ZM188.531 219.431C188.531 220.216 183.702 225.467 183.038 225.467C182.737 225.467 181.529 226.433 180.443 227.58C178.33 229.752 177.425 230.115 176.761 229.089C176.52 228.726 176.822 228.666 177.425 228.907C178.089 229.149 178.33 229.028 178.089 228.666C177.908 228.364 178.391 227.7 179.175 227.278C180.02 226.855 180.684 226.131 180.684 225.709C180.684 225.346 181.288 224.562 182.073 224.079C182.797 223.536 184.487 222.147 185.754 221.001C188.35 218.647 188.531 218.526 188.531 219.431Z" fill="black"/>
</g>

        
<g id="hair">
<path id="Vector" d="M132.009 9.92403C136.468 17.9256 134.557 20.3876 125.959 18.2333C122.137 17.0023 120.863 15.4636 122.774 14.5403C124.685 13.3093 121.182 12.386 115.131 12.386C102.074 12.386 100.482 15.7713 111.946 18.5411C116.723 19.7721 119.908 22.5418 119.908 25.9271C119.589 30.5434 119.271 30.5434 114.812 25.0039C110.672 19.7721 109.717 19.4643 107.169 23.4651C104.94 26.5426 105.577 28.3891 108.443 29.0046C112.902 29.9279 111.946 41.9302 107.488 41.9302C106.214 41.9302 105.259 44.7 104.94 48.393C104.303 56.0868 97.9339 64.0883 94.1124 61.6263C92.5201 60.7031 91.2462 62.2418 91.2462 64.7038C91.2462 67.7814 93.157 68.7046 96.0231 67.7814C98.5708 66.5503 100.8 64.7038 100.8 62.8573C100.8 61.3186 102.392 61.0108 103.985 61.9341C105.895 63.1651 106.214 65.6271 105.259 67.4736C103.985 69.6279 104.303 70.2434 105.577 68.7046C107.169 67.4736 112.902 70.8589 118.634 76.0907L128.825 85.631L140.289 77.3217C151.435 69.0124 152.072 69.0124 158.123 74.2441C164.174 79.4759 164.811 79.4759 170.543 74.5519C175.32 70.5511 176.912 70.2434 178.186 73.3209C179.142 76.3984 181.052 76.7062 186.148 73.6286C191.243 70.5511 192.835 70.8589 194.428 74.2441C196.338 79.4759 207.803 80.3992 210.669 75.7829C211.625 73.9364 214.491 72.7054 216.402 72.7054C218.949 72.7054 218.631 73.6286 215.765 75.4751C212.262 77.6294 212.58 78.8604 217.357 81.6302C222.771 84.7077 222.771 85.0155 215.765 84.0922C209.714 83.7844 207.485 85.3232 205.574 91.1705C203.663 97.6333 203.345 97.941 202.708 92.7092C202.389 89.0162 201.434 88.093 200.478 90.555C199.523 92.7092 200.797 97.0178 203.345 99.7875C210.988 108.097 214.491 121.638 208.758 119.791C207.485 119.484 205.892 121.638 204.937 125.023C203.982 129.024 205.255 131.486 209.714 133.025C214.809 134.563 215.446 135.487 211.943 137.641C208.44 139.795 208.44 140.411 212.898 140.411C219.905 140.411 223.726 134.256 218.631 131.178C215.765 129.332 215.765 127.485 218.631 121.946C225.318 110.251 225.318 97.6333 218.949 94.248C215.765 92.7092 212.262 92.4015 210.988 93.3247C210.032 94.248 209.077 93.6325 209.077 91.4782C209.077 89.0162 211.306 88.4007 215.446 89.6317C224.682 92.4015 225.318 77.3217 216.402 70.5511C212.58 67.4736 212.262 65.6271 215.128 62.5496C217.038 60.0876 217.675 54.2403 216.72 48.393C215.128 41.007 215.765 38.8527 219.905 38.8527C222.771 38.8527 225 37.9294 225 36.3907C225 35.1597 218.949 34.5442 211.306 35.1597C201.752 36.0829 196.338 34.8519 193.472 31.4666C189.969 27.4659 189.969 26.5426 194.109 26.5426C196.657 26.5426 199.842 28.3891 200.478 30.2356C201.752 33.3132 202.389 33.3132 202.389 30.5434C202.708 24.6961 180.734 15.7713 176.275 20.0798C174.365 21.9263 170.543 23.4651 167.995 23.4651C164.174 23.4651 164.174 22.5418 167.04 19.7721C172.454 14.5403 171.817 5 166.403 5C163.855 5 159.397 7.15426 156.849 9.92403C151.435 14.8481 141.563 13.617 132.965 6.84651C129.143 4.07674 129.143 4.3845 132.009 9.92403ZM166.722 15.1558C164.811 20.0798 148.569 24.0806 148.569 20.0798C148.569 18.5411 150.162 17.3101 152.072 17.3101C153.983 17.3101 157.486 15.1558 160.352 12.6938C165.766 7.15426 169.269 8.69302 166.722 15.1558ZM149.525 27.4659C159.715 33.9287 168.314 34.5442 159.397 28.0814C153.346 23.4651 156.849 21.9263 165.766 25.3116C173.409 28.0814 171.817 35.1597 163.855 36.3907C159.078 37.0062 156.531 39.4682 156.531 43.469C156.531 50.855 146.977 53.317 139.971 47.4697C135.512 43.7767 135.831 43.1612 143.792 41.9302C148.888 41.007 153.346 38.5449 154.302 36.0829C155.257 33.6209 154.302 32.6977 152.391 33.9287C150.48 35.1597 147.295 33.0054 145.385 29.6201C142.518 24.6961 140.608 24.0806 135.831 26.5426C127.551 30.8511 123.092 30.5434 123.092 25.3116C123.092 19.4643 138.697 20.6953 149.525 27.4659ZM186.785 23.1574C186.785 25.0039 183.918 25.9271 180.734 25.6194C177.231 25.6194 175.32 24.0806 175.957 22.8496C178.186 19.4643 186.785 19.7721 186.785 23.1574ZM145.385 34.2364C148.569 37.9294 148.569 38.8527 144.429 38.8527C141.882 38.8527 138.06 36.6984 135.831 34.2364C132.646 30.5434 132.646 29.6201 136.786 29.6201C139.334 29.6201 143.155 31.7744 145.385 34.2364ZM180.415 34.2364C180.415 36.6984 178.823 38.8527 176.912 38.8527C175.32 38.8527 174.683 40.3914 175.638 41.9302C176.912 43.7767 179.142 44.3922 180.734 43.1612C184.874 40.6992 192.835 51.1628 190.925 56.3945C189.651 59.1643 187.74 59.4721 183.6 57.3178C179.46 55.1635 177.231 55.4713 175.957 59.1643C175.002 61.6263 172.772 62.8573 170.862 61.9341C166.085 59.1643 176.275 50.2395 182.008 52.3938C184.874 53.317 185.829 52.3938 184.874 49.9318C183.918 47.4697 179.46 46.2387 174.046 46.8542C168.951 47.4697 163.855 46.2387 162.582 44.3922C160.989 41.9302 161.945 41.6225 165.448 42.8535C169.269 44.3922 171.498 42.5457 172.772 37.3139C175.002 29.0046 180.415 26.8504 180.415 34.2364ZM191.88 37.9294C189.651 40.0837 183.6 35.7752 183.6 32.0822C183.6 30.2356 185.511 30.2356 188.377 32.6977C191.243 34.8519 192.517 37.3139 191.88 37.9294ZM129.78 41.3147C127.551 41.9302 124.366 40.6992 122.774 38.5449C120.545 35.1597 119.908 35.4674 119.908 39.4682C119.908 42.5457 118.634 45.0077 116.723 45.0077C112.902 45.0077 113.857 38.2372 117.997 35.1597C119.908 33.9287 124.048 34.5442 127.551 36.3907C132.328 38.8527 132.965 40.3914 129.78 41.3147ZM207.166 45.6232C204.3 55.1635 204.3 55.1635 196.657 50.5473C187.422 45.0077 188.377 40.6992 197.931 43.1612C202.389 44.3922 205.892 43.7767 205.892 41.9302C205.892 40.3914 206.848 38.8527 207.803 38.8527C208.758 38.8527 208.44 41.9302 207.166 45.6232ZM143.792 53.317C150.798 57.6255 155.575 60.3953 154.302 58.8566C150.798 55.1635 159.078 49.0085 165.129 50.5473C169.906 51.4705 170.225 52.7015 167.358 56.3945C164.492 59.4721 162.9 59.7798 160.989 57.01C159.715 54.548 158.123 55.779 156.531 60.0876C154.302 67.7814 150.798 68.3969 145.385 62.2418C139.652 55.4713 131.691 59.7798 133.92 68.3969C135.194 72.3976 135.194 75.7829 134.557 75.7829C133.92 75.7829 130.417 76.7062 127.232 77.6294C122.137 79.4759 122.137 79.1682 127.869 74.8596C131.372 72.0899 132.646 69.6279 130.735 69.6279C128.506 69.6279 126.277 67.1659 125.322 64.0883C124.048 58.2411 110.354 52.3938 110.354 57.6255C110.354 59.1643 113.22 60.3953 116.723 60.3953C120.863 60.3953 123.092 62.5496 123.092 66.5503C123.092 70.5511 121.5 72.0899 118.315 70.5511C115.449 69.6279 114.175 68.0891 114.812 67.1659C115.768 66.2426 114.494 64.0883 111.628 62.2418C108.762 60.0876 107.806 56.7023 108.762 53.6248C110.672 49.0085 111.628 48.7007 117.997 52.7015C125.322 57.3178 139.015 57.6255 139.015 53.317C139.015 51.7783 136.786 51.1628 134.239 52.3938C131.691 53.317 129.462 52.7015 129.462 51.4705C129.462 49.9318 126.277 49.3163 122.455 50.5473C117.997 51.4705 116.405 51.1628 117.997 48.7007C121.5 42.8535 130.099 44.3922 143.792 53.317ZM214.172 58.8566C211.625 65.9348 206.211 61.6263 208.122 53.9325C209.395 49.9318 210.988 48.7007 213.217 50.855C214.809 52.3938 215.446 56.0868 214.172 58.8566ZM202.708 60.3953C202.708 61.9341 200.478 62.5496 197.612 61.3186C193.154 59.7798 192.835 60.3953 196.02 65.9348C197.931 69.3201 201.115 73.0131 203.345 73.6286C205.892 74.8596 205.574 75.4751 202.389 75.4751C199.523 75.7829 196.02 73.6286 195.065 71.1666C193.791 67.4736 191.88 67.1659 187.103 69.3201C182.645 71.7821 180.097 71.4744 177.549 68.3969C172.454 62.5496 178.823 58.5488 184.874 63.1651C188.058 65.9348 189.651 65.6271 191.243 61.9341C193.154 57.01 202.708 55.4713 202.708 60.3953ZM145.385 68.3969C145.385 72.7054 144.429 72.7054 140.608 69.6279C138.06 67.4736 135.831 65.3193 135.831 64.7038C135.831 64.0883 138.06 63.4728 140.608 63.4728C143.155 63.4728 145.385 65.6271 145.385 68.3969ZM170.862 65.6271C170.862 67.1659 169.269 70.2434 167.677 72.7054C164.811 76.7062 164.174 76.7062 161.626 72.7054C159.397 69.6279 159.715 67.4736 162.263 65.9348C167.04 62.8573 170.862 62.8573 170.862 65.6271ZM219.586 102.25C218.631 106.866 213.217 106.866 211.306 102.25C210.032 99.4798 211.306 98.2488 214.809 98.5565C217.675 99.172 219.905 100.711 219.586 102.25Z" fill="black"/>
<path id="Vector_2" d="M81.3739 14.8481C81.3739 15.4636 80.4185 19.1566 79.7816 23.4651C79.1447 27.4659 76.9154 31.7744 75.3231 32.6977C73.7308 33.6209 71.1831 37.9294 69.5908 41.9302L66.4062 49.624L64.177 41.007C62.9031 36.3907 60.6739 32.6977 58.7631 32.6977C57.1708 32.6977 56.8524 34.2364 58.1262 36.0829C59.4 38.5449 58.4447 38.5449 54.3047 36.3907C50.8016 34.8519 46.3431 34.2364 44.4324 34.8519C42.2031 35.7752 40.2923 34.8519 40.2923 33.3132C40.2923 31.4666 43.477 29.3124 47.617 28.6969C52.3939 27.4659 51.4385 27.1581 45.0693 27.4659C39.337 27.7736 35.8339 29.6201 36.4708 31.7744C36.7893 33.9287 35.5154 35.7752 33.6047 35.7752C31.6939 35.7752 30.7385 41.6225 31.3754 50.2395C32.3308 63.7806 32.9677 65.0116 40.2923 65.0116C45.7062 65.0116 48.5724 63.1651 49.5277 58.8566C50.1647 55.4713 52.0754 51.7783 54.3047 50.5473C56.8524 48.7007 56.5339 48.0852 53.6677 48.0852C51.4385 48.0852 50.1647 46.8542 51.4385 45.0077C52.3939 43.469 55.26 42.8535 57.4893 43.7767C62.2662 45.6232 60.6739 57.3178 55.5785 60.7031C53.6677 61.6263 55.5785 63.4728 59.0816 64.3961C64.8139 65.6271 65.4508 65.0116 63.8585 58.5488C61.6293 50.2395 67.9985 48.0852 70.8647 55.779C74.0493 63.1651 66.4062 69.0124 54.3047 69.0124C47.9354 69.0124 41.2477 70.5511 39.337 72.3976C36.7893 74.8597 38.7 74.8596 46.0247 73.0131C54.3047 70.5511 56.2154 70.8589 56.2154 74.5519C56.2154 77.6294 54.3047 78.5527 50.1647 77.3217C43.1585 75.1674 33.2862 78.5527 35.8339 82.2457C36.7893 83.7844 39.0185 84.4 40.6108 83.4767C42.2031 82.2457 43.477 83.7844 43.477 86.2465C43.477 91.786 38.3816 93.017 36.4708 87.7852C34.8785 83.4767 25.3247 87.4775 23.0954 93.3248C21.8216 96.0945 23.7323 100.711 27.2354 104.096C33.9231 109.943 38.7 111.482 35.5154 106.866C33.6047 103.788 39.6554 98.8643 42.2031 101.326C44.7508 103.788 35.8339 115.791 31.6939 115.791C29.4647 115.791 27.5539 117.022 27.5539 118.868C27.5539 120.407 29.7831 121.022 32.3308 120.099C34.8785 118.868 37.1077 119.791 37.1077 121.638C37.1077 123.792 35.197 125.946 32.6493 126.87C29.1462 128.101 28.8277 130.255 31.6939 137.641C33.6047 142.565 36.4708 146.566 37.7447 146.566C42.5216 146.566 43.7954 139.795 39.9739 135.179C36.4708 131.178 36.7893 129.947 41.5662 126.562C44.4323 124.408 46.6616 119.791 46.3431 116.714C45.7062 113.636 46.3431 109.636 47.617 107.481C48.8908 105.635 47.617 101.634 44.7508 99.172C40.2923 94.5558 40.2923 94.248 46.3431 94.248C53.3493 94.248 57.8077 89.6317 53.3493 86.862C51.757 85.631 49.5277 86.862 48.8908 88.7085C47.617 91.1705 46.98 90.8627 46.98 87.7852C46.6616 82.2457 58.4447 77.6294 60.037 82.2457C60.6739 84.0922 67.0431 83.1689 74.6862 80.7069C87.1062 76.3984 88.0616 76.3984 88.0616 81.6302C88.0616 89.324 84.5585 91.786 79.4631 87.7852C76.597 85.0155 75.3231 85.3232 75.3231 87.7852C75.3231 89.6317 78.5077 92.7092 82.6478 94.248L89.6539 97.0178H82.3293C78.1893 97.3255 75.6416 98.5565 76.597 100.095C80.1001 105.327 90.9278 100.095 90.2908 93.3248C89.9724 88.7085 91.8831 86.5542 97.6154 85.0155C102.074 84.0922 105.895 80.7069 106.532 77.3217C107.806 71.1666 107.488 71.1666 103.029 77.3217C100.163 80.7069 96.9785 82.2457 95.7047 81.0147C94.1124 79.7837 95.0678 77.3217 97.6154 75.7829C102.711 72.7054 99.8447 71.4744 89.9724 72.7054C86.7877 73.0131 84.877 71.7821 85.8324 70.2434C87.1062 68.7046 88.0616 62.2418 88.3801 55.4713C89.3354 41.6225 96.0231 32.3899 103.029 34.8519C107.169 36.3907 107.169 35.4674 102.392 28.6969C99.5262 24.0806 93.7939 20.3876 89.9724 20.0798C83.6031 20.0798 83.6031 19.7721 89.6539 17.3101C95.7047 14.848 95.7047 14.5403 89.017 14.5403C84.877 14.2325 81.6924 14.5403 81.3739 14.8481ZM97.6154 26.8504C97.6154 28.0814 94.1124 28.6969 89.9724 28.3891C85.8324 28.3891 82.9662 27.1581 83.6031 25.9271C85.5139 23.1574 97.6154 24.0806 97.6154 26.8504ZM91.2462 35.7752C91.2462 37.3139 89.9724 38.8527 88.0616 38.8527C86.4693 38.8527 84.877 37.3139 84.877 35.7752C84.877 33.9287 86.4693 32.6977 88.0616 32.6977C89.9724 32.6977 91.2462 33.9287 91.2462 35.7752ZM82.3293 51.1628C80.1001 53.0093 79.1447 53.317 80.1001 52.3938C81.0554 51.1628 80.1001 48.393 78.1893 46.2387C76.2785 44.0845 75.9601 40.3914 77.2339 38.5449C78.8262 35.7752 80.4185 36.6984 82.6478 41.3147C84.877 46.2387 84.877 49.3162 82.3293 51.1628ZM41.8847 41.9302C40.9293 43.469 38.7 45.0077 36.7893 45.0077C35.197 45.0077 33.9231 43.469 33.9231 41.9302C33.9231 40.0837 36.1523 38.8527 39.0185 38.8527C41.5662 38.8527 42.84 40.0837 41.8847 41.9302ZM42.84 52.3938C38.0631 55.779 33.2231 55.779 38 58.8566C43.0954 62.2418 47.9354 63.1651 43.1585 63.1651C35.197 63.4728 36.7893 54.2403 43.1585 49.624C46.3431 47.4697 45.3877 45.931 46.3431 46.8542C47.2985 47.7775 45.7062 50.2395 42.84 52.3938ZM84.877 63.1651C84.877 70.2434 75.9601 79.7837 71.8201 77.3217C66.4062 73.9364 68.9539 69.6279 76.2785 69.3201C80.1001 69.3201 81.3739 68.3969 79.4631 67.4736C73.7308 65.3193 74.3677 57.3178 80.1001 57.3178C82.6478 57.3178 84.877 60.0876 84.877 63.1651ZM65.7693 77.6294C65.7693 80.0914 64.4954 81.3224 62.5847 80.3992C60.9924 79.4759 59.4 77.3217 59.4 75.4752C59.4 73.9364 60.9924 72.7054 62.5847 72.7054C64.4954 72.7054 65.7693 74.8596 65.7693 77.6294ZM37.1077 93.9403C37.1077 95.479 34.8785 97.3255 32.3308 98.5565C29.4647 99.4798 27.5539 98.5565 27.5539 95.7868C27.5539 93.3248 29.7831 91.1705 32.3308 91.1705C34.8785 91.1705 37.1077 92.4015 37.1077 93.9403Z" fill="black"/>
<path id="Vector_3" d="M62.5847 24.081C62.5847 26.2353 64.177 30.236 66.0878 32.698C68.6355 36.0833 68.9539 35.4678 67.0432 29.6205C65.1324 22.5422 65.1324 22.2345 70.8647 26.543C76.597 30.8515 76.597 30.8515 72.457 25.6198C67.3616 19.4647 62.5847 18.8492 62.5847 24.081Z" fill="black"/>
<path id="Vector_4" d="M18 71.1669C18 73.6289 19.5923 75.7832 21.5031 75.7832C23.0954 75.7832 23.7323 74.2444 22.7769 72.7057C21.8216 70.8592 23.0954 69.6282 26.28 69.6282C31.057 69.6282 31.057 70.2437 26.28 77.322C22.14 83.1692 22.14 84.4003 25.6431 83.1692C31.057 81.015 34.5601 73.3212 32.0124 69.3204C29.1462 64.7041 18 66.2429 18 71.1669Z" fill="black"/>
<path id="Vector_5" d="M96.9785 43.4692C95.0677 52.7018 96.3416 53.3173 100.8 45.3157C102.711 41.9305 102.711 38.5452 101.118 37.622C99.5262 36.6987 97.6154 39.1607 96.9785 43.4692Z" fill="black"/>
</g>

        
<g id="Frame 20">
<path id="Vector" d="M155.805 105.424C155.513 113.015 150.258 114.475 147.922 107.759C146.754 105.424 144.71 103.38 143.25 103.38C141.498 103.38 141.498 105.132 143.542 107.467C146.17 110.679 146.17 112.139 143.542 113.891C141.79 115.059 138.87 113.891 137.41 110.971C135.951 108.343 133.323 106.3 131.571 106.3C128.943 106.3 128.943 107.175 131.279 109.511C133.323 111.555 133.907 116.811 133.031 121.482C131.863 127.322 132.739 131.118 135.367 132.87C138.578 134.914 138.578 135.497 135.659 135.497C133.615 135.497 132.447 136.665 133.323 137.833C135.075 140.753 153.761 140.169 164.857 137.249C173.324 134.914 174.784 127.614 169.236 115.935C167.192 111.263 167.192 108.343 170.112 104.84C172.74 101.628 173.032 100.46 170.112 100.46C168.36 100.46 166.024 103.088 165.148 106.3C163.105 114.183 159.017 113.599 157.557 105.424L156.389 99L155.805 105.424ZM166.024 118.563C168.944 123.234 169.82 132.578 167.192 131.118C166.024 130.534 161.353 130.826 156.681 132.286C147.046 134.914 135.075 130.826 135.075 124.694C135.075 116.811 161.645 111.555 166.024 118.563Z" fill="black"/>
<path id="Vector_2" d="M148.798 119.731C144.711 124.11 147.047 129.658 152.886 129.658C156.974 129.658 158.434 128.198 157.85 124.694C156.974 119.439 152.01 116.811 148.798 119.731Z" fill="black"/>
<path id="Vector_3" d="M80.475 115.643C80.475 120.899 79.8911 127.03 79.3071 129.366C77.8472 134.914 93.6141 143.673 105.293 143.965C112.885 144.257 115.221 142.797 117.848 136.666C119.308 132.286 119.892 126.446 119.016 123.818C118.14 120.899 118.724 117.687 120.476 116.519C121.936 115.643 123.396 113.307 123.396 111.555C123.396 109.803 120.768 110.679 117.556 113.599C112.009 118.855 111.717 118.563 111.425 111.847C111.133 106.884 110.549 106.3 109.673 109.803C109.089 112.723 105.585 115.059 102.373 115.059C97.9938 115.059 97.1179 113.891 98.5778 109.803C99.7457 106.3 98.5778 106.884 93.9061 111.847L87.4825 118.563L83.9788 112.139C80.767 106.008 80.475 106.3 80.475 115.643ZM114.345 123.526C116.68 127.322 116.389 129.95 113.761 131.994C109.089 135.79 90.9863 138.125 93.3221 134.622C94.1981 133.162 92.4462 132.87 88.9424 133.746C85.7307 134.914 82.2269 134.33 81.059 132.87C79.8911 130.826 81.351 130.534 84.5628 131.702C88.9424 133.454 89.2344 133.162 86.0227 129.074C82.8109 124.986 83.1029 123.818 87.4825 121.191C96.2419 115.935 111.133 117.395 114.345 123.526ZM109.673 140.461C107.629 141.045 103.541 141.045 100.914 140.461C97.9938 139.585 99.7457 139.001 104.417 139.001C109.381 139.001 111.425 139.585 109.673 140.461Z" fill="black"/>
<path id="Vector_4" d="M97.1178 126.738C97.1178 130.534 98.5777 132.578 100.914 131.702C102.665 131.118 104.417 128.782 104.417 126.738C104.417 124.694 102.665 122.359 100.914 121.483C98.5777 120.899 97.1178 122.942 97.1178 126.738Z" fill="black"/>
<path id="Vector_5" d="M184.712 117.979C184.712 123.526 185.588 124.11 188.215 121.482C190.843 118.855 190.843 117.103 188.215 114.475C185.588 111.847 184.712 112.431 184.712 117.979Z" fill="black"/>
<path id="Vector_6" d="M176.244 119.731C176.244 122.942 177.12 123.818 177.996 121.483C178.872 119.439 178.58 116.811 177.704 115.935C176.828 114.767 175.952 116.519 176.244 119.731Z" fill="black"/>
<path id="Vector_7" d="M65 122.943C65 127.322 65.584 127.322 67.6278 124.11C69.6717 120.899 70.5476 121.191 71.4235 125.57C72.2995 130.534 72.5915 130.534 74.3433 124.402C75.8032 119.439 74.9273 117.979 70.5476 117.979C67.3358 117.979 65 120.023 65 122.943Z" fill="black"/>
</g>

        
<g id="Frame 22">
<path id="Vector" d="M128.675 141.043C120.022 149.078 114.254 159.79 115.078 167.001C115.902 175.035 121.259 179.156 126.615 175.859C130.529 173.387 132.795 160.615 129.087 160.615C127.645 160.615 127.233 162.263 128.057 164.735C129.499 169.061 126.203 175.035 122.701 175.035C121.671 175.035 119.816 172.769 118.374 170.091C116.52 165.971 116.932 163.293 120.847 156.082C123.319 151.138 127.851 145.164 130.735 142.691C133.825 140.425 135.885 137.747 135.267 137.129C134.649 136.511 131.559 138.159 128.675 141.043Z" fill="black"/>
</g>

        
<g id="Frame 29">
<g id="Group 39">
<path id="Vector" d="M126.324 190.161C112.403 194.168 109.661 208.511 121.262 217.581C125.691 220.956 128.433 221.588 135.183 220.534C139.823 219.901 145.729 217.792 148.471 216.104C165.556 204.925 147.417 183.833 126.324 190.161ZM129.488 201.972C129.066 209.777 129.488 212.097 132.019 212.097C134.55 212.097 134.972 209.777 134.55 201.972C133.917 193.114 134.339 192.059 138.347 192.059C144.675 192.059 153.323 201.34 151.635 206.191C149.315 212.941 146.573 215.261 138.136 217.37C130.965 219.479 129.066 219.057 123.582 215.261C115.778 209.566 114.934 200.285 121.895 195.434C129.066 190.372 130.121 191.215 129.488 201.972Z" fill="black"/>
</g>
</g>

        
<g id="Frame 37">
<g id="Group 40">
<path id="Vector" d="M40.8998 116.821C40.2662 119.147 39.6326 125.945 39.6326 132.206C39.6326 138.467 38.7879 143.119 37.9432 142.582C36.8872 142.045 36.2537 149.917 36.2537 159.935C36.4648 169.953 35.8313 182.654 34.9865 188.021C33.5082 197.681 33.5082 197.681 36.2537 191.599L39.2103 185.337L40.6886 193.03C41.5333 197.144 43.2228 201.08 44.2788 201.617C45.3347 202.153 45.5459 200.543 44.7011 197.502L43.2228 192.493L48.9249 198.397C52.3039 201.617 56.7388 205.016 59.0619 206.089C61.5961 207.162 59.0619 204.121 53.571 199.47C48.2913 194.64 43.2228 189.273 42.5893 187.663C41.9557 185.874 40.4774 184.443 39.4215 184.443C38.3655 184.443 37.5208 183.191 37.5208 181.76C37.5208 180.328 38.5767 179.076 39.6326 179.076C40.8998 179.076 41.7445 179.613 41.7445 180.507C41.7445 183.012 59.0619 201.438 62.4408 202.511C67.9317 204.121 71.5219 200.186 67.7205 196.608C66.031 194.998 64.5527 192.672 64.1303 191.241C63.708 187.842 55.0493 176.393 50.8256 173.53C47.6578 171.205 47.6578 171.384 50.192 175.498C52.7262 179.613 52.7262 179.792 49.3473 177.466C47.4466 176.035 46.3906 173.709 47.0242 171.742C47.6578 170.131 47.2354 168.164 45.9683 167.448C44.7011 166.733 43.8564 168.343 43.8564 171.563C43.8564 175.498 46.1794 178.539 52.3039 183.37C56.95 186.947 60.7514 190.525 60.7514 191.42C60.7514 192.314 62.2297 193.924 63.9192 195.177C65.6087 196.429 67.087 198.218 67.087 199.112C67.087 200.364 66.031 200.186 64.3415 198.933C62.652 197.86 60.5402 197.681 59.6954 198.397C58.6395 199.112 58.6395 198.754 59.4842 197.502C60.1178 196.429 56.3164 191.062 50.4032 185.516C40.8998 176.214 37.3096 167.985 41.7445 165.659C42.5893 165.122 42.5893 161.366 41.7445 157.251C40.8998 152.958 40.8998 145.981 41.7445 141.509C43.2228 134.353 43.434 134.89 43.6452 147.591C43.8564 164.228 45.7571 164.586 47.4466 148.307C48.2913 139.183 47.8689 135.605 45.1235 132.027C42.3781 128.449 42.1669 127.376 44.2788 126.482C46.1794 125.766 46.1794 125.05 44.7011 124.514C43.434 123.977 43.0116 121.115 43.434 118.252C44.49 111.991 42.8005 111.097 40.8998 116.821Z" fill="black"/>
<path id="Vector_2" d="M205.837 115.39C203.936 119.505 206.259 139.362 208.793 140.793C209.849 141.33 210.483 144.371 210.483 147.412L210.06 153.136L208.582 146.875C207.104 141.151 207.104 141.33 206.681 150.095C206.47 156.535 205.626 159.219 204.147 158.324C202.669 157.609 202.247 158.324 203.091 160.829C204.57 164.586 200.346 173.709 194.221 179.434C192.532 181.223 192.11 182.654 193.166 182.654C194.433 182.654 198.023 179.255 201.191 174.961C204.147 170.847 206.048 169.058 205.203 171.026C204.358 172.994 203.514 176.393 203.514 178.539C203.303 180.507 202.458 181.938 201.402 181.223C200.346 180.686 199.924 181.58 200.768 183.012C201.402 184.622 200.557 187.305 199.079 189.273C197.389 191.062 195.911 191.598 195.911 190.525C195.911 189.631 196.967 187.842 198.445 186.589C200.346 184.979 200.346 184.443 198.445 184.443C197.178 184.443 195.489 186.411 194.644 188.915C194.01 191.42 192.532 192.851 191.476 192.493C190.631 191.956 191.054 193.745 192.743 196.429C194.855 199.828 195.066 201.617 193.588 202.511C191.898 203.227 191.898 204.121 193.377 204.837C194.644 205.373 196.122 204.3 196.967 202.332C197.812 200.364 199.079 199.112 200.135 199.649C200.979 200.185 202.88 199.291 204.358 197.86C206.47 195.713 206.47 194.64 204.57 192.672C203.091 191.062 202.88 189.631 204.147 189.094C205.203 188.557 206.681 189.094 207.104 190.167C207.737 191.42 208.371 190.346 208.371 187.842C208.582 185.158 210.06 180.686 211.75 178.003C215.34 172.099 215.763 174.961 213.017 184.443C209.427 196.25 208.582 202.511 210.694 201.438C211.961 200.901 212.806 197.681 212.806 194.282C212.806 185.695 217.03 184.443 217.241 192.851C217.452 196.607 217.241 201.617 217.03 203.942C216.818 206.447 217.452 207.699 218.93 206.983C221.887 205.373 221.676 196.965 218.297 183.548C216.818 177.645 216.185 172.457 217.03 171.92C221.253 169.416 218.93 117 214.707 119.326C213.651 119.862 213.439 118.968 214.073 117.537C214.918 115.927 214.284 114.674 212.806 114.674C210.905 114.674 210.694 116.642 211.539 120.936C212.384 124.692 212.172 127.197 210.905 127.197C209.849 127.197 208.582 123.798 208.16 119.505C207.737 113.959 207.104 112.886 205.837 115.39ZM215.974 145.623C216.818 152.958 217.03 160.292 216.607 162.26C216.185 164.049 214.918 158.145 213.862 149.022C212.595 140.077 212.384 132.564 213.228 132.564C213.862 132.564 215.129 138.467 215.974 145.623ZM215.129 167.448C216.185 166.732 216.396 167.627 215.763 169.058C213.017 174.961 208.371 170.31 208.793 162.439C208.793 159.04 209.216 159.219 211.116 163.512C212.172 166.196 214.073 167.985 215.129 167.448ZM209.216 176.393C208.582 178.003 207.526 178.897 207.104 178.36C206.47 177.824 206.681 176.75 207.526 175.677C209.427 172.815 210.694 173.351 209.216 176.393ZM204.358 195.892C204.358 196.429 203.514 197.323 202.247 197.86C201.191 198.396 200.135 198.039 200.135 197.144C200.135 196.071 201.191 195.176 202.247 195.176C203.514 195.176 204.358 195.534 204.358 195.892Z" fill="black"/>
<path id="Vector_3" d="M49.136 142.403C49.3472 156.714 50.192 168.879 51.0367 169.595C51.8815 170.489 52.3038 158.682 51.8815 143.655C51.6703 128.807 50.6143 116.463 49.9808 116.463C49.3472 116.463 48.9248 128.091 49.136 142.403Z" fill="black"/>
<path id="Vector_4" d="M219.564 127.197C219.564 130.596 219.986 132.027 220.62 130.238C221.042 128.628 221.042 125.766 220.62 123.977C219.986 122.367 219.564 123.798 219.564 127.197Z" fill="black"/>
<path id="Vector_5" d="M37.5207 197.86C37.5207 201.259 38.3655 204.121 39.2102 204.121C40.055 204.121 40.4773 201.259 40.055 197.86C39.6326 194.461 38.7878 191.598 38.3655 191.598C37.9431 191.598 37.5207 194.461 37.5207 197.86Z" fill="black"/>
<path id="Vector_6" d="M127.845 223.603C126.577 226.644 125.944 227.002 124.254 225.034C122.776 223.245 122.565 223.603 123.832 226.108C124.677 228.076 125.31 231.475 125.31 233.621C125.099 235.947 125.944 237.378 127 236.841C127.845 236.305 129.323 238.63 130.168 242.208C130.801 245.607 132.279 248.112 133.124 247.575C134.18 247.038 135.447 248.29 136.292 250.258C136.926 252.226 138.615 253.836 139.671 253.836C140.938 253.836 141.149 252.942 140.516 252.047C139.882 250.974 140.727 249.722 142.416 249.185C144.317 248.648 145.373 247.575 144.74 246.68C144.317 245.965 145.584 240.24 147.696 233.8L151.709 222.172L145.795 221.993C140.938 221.993 140.305 222.53 141.149 226.287C141.572 228.612 141.149 230.58 140.093 230.58C138.826 230.58 137.982 232.369 138.193 234.516C138.404 239.167 135.236 243.281 132.279 241.85C131.435 241.314 131.857 240.24 133.335 239.346C135.87 237.915 135.87 237.557 133.335 236.126C131.012 234.874 131.224 234.337 134.18 233.979C137.77 233.263 137.982 233.085 134.603 230.222C132.702 228.612 131.012 226.287 131.012 225.034C131.012 223.782 132.279 224.319 134.18 226.287C137.77 230.222 138.404 228.433 135.236 223.245C132.279 218.773 129.534 218.952 127.845 223.603ZM145.795 231.475C144.528 234.158 143.05 235.947 142.416 235.589C141.994 235.052 142.628 232.548 143.895 229.864C147.274 223.782 148.752 225.034 145.795 231.475ZM140.305 245.786C139.46 247.217 138.615 248.469 138.193 248.469C137.77 248.469 137.348 247.217 137.348 245.786C137.348 244.355 138.193 243.103 139.46 243.103C140.516 243.103 140.938 244.355 140.305 245.786Z" fill="black"/>
</g>
</g>

    </svg>
