
    <svg width="256" height="256" viewBox="0 0 256 256" fill="none" xmlns="http://www.w3.org/2000/svg">
        
<g id="Frame 44">
<rect width="256" height="256" fill="#FFED4D"/>
</g>

        
<style type="text/css">
	.st0{fill:none;stroke:#000000;stroke-width:4;stroke-miterlimit:10;}
</style>
<g id="head">
	<path d="M35,60.1c0.5,0,0.7,0.2,0.5,0.6c-0.2,0.3-0.1,0.6,0.4,0.6c0.4,0,0.5,0.6,0.4,1.5c-0.2,0.8-0.1,1.5,0.1,1.5
		c0.4,0,0.9,9.1,0.7,13c-0.4,8.8-0.4,9.5,0.5,10c0.7,0.4,0.7,0.5,0.1,0.6c-0.5,0-0.7,0.4-0.5,0.7c0.1,0.4-0.2,1.7-0.6,2.8l-0.9,2.1
		l1.6-1c1.5-1,1.6-1,1.6,0.2c0,0.8-0.3,1.1-0.8,0.9c-0.5-0.2-1-0.1-1.3,0.3c-0.2,0.4,0.1,0.7,0.7,0.7c0.8,0,0.9,0.1,0.3,0.5
		c-1.1,0.7-1,1.4,0.3,1.9c1,0.4,1,0.5-0.2,0.5c-1.3,0.1-1.5,0.7-1.4,4c0,1,0.1,2.8,0.1,4.1c0.1,1.4,0.4,2.2,0.8,2
		c0.4-0.2,0.9,0.1,1.1,0.6c0.2,0.7,0.1,0.8-0.8,0.5c-0.7-0.2-1.2-0.1-1.2,0.2s0.3,0.7,0.6,0.7c0.4,0,0.4,0.4,0,1.2
		c-0.8,1.5-0.2,1.6,1.4,0.1c1-0.8,1.1-0.8,0.5,0c-0.4,0.5-0.5,1.1-0.2,1.2c0.2,0.1,0.1,0.8-0.4,1.7c-0.8,1.4-0.8,1.4-0.5,0.1
		c0.2-0.7,0.1-1.3-0.2-1.3c-0.8,0-0.6,2.2,0.4,3c0.7,0.5,0.9,3.1,1,12.7c0.1,6.6,0,11.8-0.2,11.7c-0.6-0.4-0.5,4,0.1,5.7
		c0.4,0.8,0.6,3,0.6,4.7c0.1,1.8,0.4,3.6,0.8,4c0.1,0.1,0.1,0.2,0.2,0.3c1.1-0.1,2.1-0.1,3.2-0.2c-0.2-1.1-0.5-2.3-0.6-3.3
		c-0.2-1.8-0.7-4.9-1.1-6.8c-0.3-1.9-0.6-12.4-0.6-23.2c0-21.5-0.5-34.6-1.3-40.3c-0.6-3.7-0.3-27,0.3-28c0.2-0.3,0.1-0.7-0.2-0.9
		c-0.3-0.2-0.4-1.9-0.2-3.7c0.4-3.3,0.3-3.3-1.2-3.3c-0.8,0-1.7,0.2-1.9,0.6c-0.2,0.3,0.1,1.5,0.5,2.7c0.5,1.1,0.7,2.7,0.5,3.3
		c-0.2,0.7-0.1,2.1,0.3,3c0.8,2.3-0.2,3.3-3.6,3.6C33.6,58.3,34,60.1,35,60.1z M39.3,101.2c0.1,1-0.2,1.8-0.5,1.8
		c-0.4,0-0.5-0.3-0.3-0.6c0.2-0.4-0.1-0.6-0.5-0.6c-0.5,0-1-0.1-1-0.2c0-0.7,1.2-3.4,1.4-3.4c0.2,0,0.1,0.4-0.1,1
		c-0.2,0.5-0.1,0.8,0.2,0.6C39,99.6,39.3,100.2,39.3,101.2z"/>
	<path d="M207.2,67.6c0,1.5,0.2,2.8,0.5,2.8c0.5,0,0.8,4.6,1,22.3c0.3,20.3,1.5,34.1,3,33.6c0.7-0.2,0.6-1.9-0.7-10.3
		c-1.1-8.2-1.1-18.9,0-18.9c1,0,1.3,1.8,1.9,11.9c0.2,3.1,0.5,6.5,0.6,7.5c0.3,2.3,1,13,1,14.2c-0.2,4.3-0.1,6.1,0.8,7.5
		c0.6,0.8,0.8,1.6,0.4,1.6c-0.3,0-0.5,0.7-0.5,1.5c0,0.8,0.1,1.4,0.4,1.3c0.3-0.2,0.3,5.3,0.1,12.3c0,0.1,0,0.2,0,0.4
		c0.6-0.7,1.4-1.2,2.2-1.5c0.1-0.7,0.3-1,0.6-0.9c0.2,0.1,0.4,0.3,0.5,0.6c0.6-0.1,1.2,0,1.8,0.1c0-0.3,0.1-0.5,0.1-0.6
		c0.3-1.4,0.1-1.8-1.1-2.2c-1.4-0.5-1.4-0.8-1-2.8c0.3-1.3,0.4-2.5,0.3-2.7c-0.1-0.2-0.3-3-0.4-6.1c-0.1-3.1-0.3-6.2-0.6-6.7
		c-0.3-0.5-0.7-2.3-0.8-3.9c-0.4-4-2.1-19.3-2.8-25.5c-0.3-2.8-0.6-8.1-0.7-11.9c-0.1-5.4-0.3-7.2-1.2-8.9c-0.8-1.5-1.1-3.4-1.1-6
		c0-4.5-1-10.4-2.1-12.5c-1.5-2.9-2.2-6.7-1.8-10c0.4-3,0.3-3.3-0.8-3.3c-0.7,0-1.4,0.2-1.6,0.6c-0.2,0.3-0.2,1.6,0.1,2.7
		c0.2,1.4,0.1,2.5-0.4,3c-0.6,0.7-0.6,1.3-0.2,2.3C206.8,63.4,207.2,65.1,207.2,67.6z M210.3,90.6c0.4-0.5,1-0.9,1.3-0.9
		c0.4,0,0.3,0.4-0.1,0.9c-0.4,0.5-1,0.9-1.3,0.9C209.8,91.5,209.8,91.1,210.3,90.6z M211.7,92.1c0.7,0,0.9,0.2,0.5,0.4
		c-0.4,0.1-0.8,0.8-0.8,1.4c0,1.4-1,2.1-1.4,0.9C209.5,93.3,210.3,92.1,211.7,92.1z"/>
</g>
<path class="st0" d="M205.3,52.1c0.3-0.7,0.6-1.3,0.9-2c-1.7,8.6,1.4,17.3,3,25.9c0.9,4.8,1.2,9.6,1.5,14.5
	c1.2,17.8,2.1,35.7,2.9,53.6c0.2,4,3.9,4.5,2.9,8.3c-1.3,5.1-2.7,10.4-6.1,14.5c-2.4,3-5.7,5.1-8.6,7.6
	c-13.1,10.8-20.4,27.2-32.8,38.9c-11.5,10.9-26.3,16.3-42.1,16.5c-7.6,0.1-14.8-3.8-20.6-8.6c-5.8-4.9-10.6-10.9-16.1-16.1
	c-6.9-6.6-14.8-12.1-22.5-17.8c-9.2-6.8-18.4-14.2-24.5-24.1c-1.5-2.4-3.2-5.2-3.3-8.1c-0.1-1.7,0.1-3.4-0.1-5
	c-0.3-2.5-0.3-5-0.1-7.6c0.6-6.9,2.6-13.7,2.6-20.6c0-4.8-1.1-9.6-1.8-14.3c-3.1-21.2,0.1-43-2.7-64.3"/>

        
<path d="M135.122 4.5C135.122 5.37338 139.405 6.47159 143.688 8C143.688 8 164.032 21.0289 151.183 30.8544C142.349 37.6231 140.475 35.4397 145.829 25.3958C147.971 20.8106 149.309 16.662 148.774 16.2253C146.097 14.0419 125.753 26.9242 124.146 31.9462C122.54 37.6231 119.328 38.9332 116.383 35.2213C115.58 34.1296 111.297 31.0728 106.747 28.4526L98.7159 23.8674L100.322 29.1077C102.464 35.658 97.6452 46.1386 92.5591 46.1386C90.4176 46.1386 86.6699 44.3918 84.2607 42.4267C78.6392 38.0598 80.2454 25.8325 87.2053 19.7188C93.0945 14.4785 88.0084 14.2602 78.1039 19.2821C65.7902 25.3958 56.1534 33.6929 56.1534 37.8415C56.1534 41.5533 55.618 41.5533 48.3904 37.1864C42.2335 33.4746 38.7536 33.0379 28.3137 34.1296C21.6215 35.003 16 36.7497 16 37.8415C16 39.1515 21.3538 39.3699 29.6521 38.4965C42.2335 36.9681 43.8397 37.4048 51.0673 43.0817L58.8303 49.1954V43.3001C58.8303 40.0249 62.3102 34.3479 67.1286 29.7627C75.9624 21.6839 82.1192 19.5005 78.9069 25.8325C74.3562 34.7846 74.8916 36.9681 81.5838 43.5184C86.6699 48.5404 88.0084 51.3789 86.1345 53.999C84.7961 55.9641 82.9223 57.2742 82.1192 57.2742C75.1593 56.4008 71.947 57.9292 67.664 63.6062C63.381 69.5015 62.5779 69.9382 59.6333 66.663C58.0272 64.6979 57.2241 61.8594 58.0272 60.1127C58.8303 58.3659 58.2949 57.0558 56.9564 57.0558C53.7442 57.0558 48.1227 66.8814 48.1227 72.34C48.1227 75.1785 46.7842 76.2702 43.8397 75.1785C41.6982 74.5234 40.3597 72.7767 40.8951 71.2482C41.6982 69.9382 39.8243 67.5364 37.1474 66.2263C32.8644 63.8245 32.0613 64.2612 32.0613 68.1914C32.0613 70.5932 33.3998 71.9033 34.7382 71.2482C36.3444 70.5932 37.4151 71.4666 37.4151 73.2134C37.4151 79.7637 32.329 78.8903 29.9198 71.9033C28.3137 67.9731 26.4399 63.1695 25.6368 61.2044C24.0307 58.3659 25.1014 57.9292 30.7229 58.5842C34.4705 59.2393 38.2182 60.5493 39.0213 61.6411C42.7689 66.663 44.6427 62.7328 42.2335 54.4357C39.5566 44.6102 35.809 39.5882 31.2583 39.5882C29.9198 39.5882 30.7229 41.5533 33.3998 43.9551C36.0767 46.3569 37.1474 48.322 36.0767 48.322C34.7382 48.322 35.0059 49.4138 36.8797 50.9422C41.9658 55.0907 40.6274 57.2742 33.6675 55.7458C29.9198 55.0907 24.5661 55.0907 21.6215 55.9641L16 57.2742L21.6215 63.6062C25.9045 68.1914 26.9753 72.1216 26.4399 79.7637C25.3691 90.0259 27.7783 93.0828 30.7229 85.4407C31.526 83.0389 34.7382 79.9821 37.4151 78.8903C41.6982 76.9252 43.3043 77.7986 46.5166 82.6022C50.5319 88.7158 50.5319 88.7158 50.7996 77.1436C50.7996 64.4796 53.7442 62.5145 58.8303 72.34C62.8456 80.2004 66.8609 80.8554 66.8609 73.65C66.8609 70.8116 69.2701 66.2263 72.2147 63.3878L77.8362 58.1475L75.9624 65.7896C75.1593 69.9382 70.8763 78.2353 66.3255 84.1306C62.0425 89.8076 59.0979 95.0479 59.901 95.7029C60.4364 96.3579 64.184 92.6461 68.1994 87.8425C74.8916 78.8903 85.5992 69.0648 86.6699 70.5932C86.9376 71.0299 88.8114 75.3968 90.9529 80.4187C92.8268 85.659 95.5037 89.8076 97.1098 89.8076C98.4482 89.8076 98.7159 88.2792 97.9129 86.3141C96.039 82.1655 100.857 65.7896 104.07 65.7896C105.14 65.7896 108.888 70.5932 112.368 76.7069C115.848 82.6022 119.596 87.6241 120.399 87.6241C121.469 87.6241 122.005 83.0389 121.469 77.1436L120.399 66.8814L124.949 77.1436C129.232 86.9691 133.516 90.8993 133.783 84.7856C134.051 83.4756 135.657 79.1087 138.066 75.6152L141.814 69.0648L140.475 79.327C139.94 85.2223 139.672 89.8076 140.208 89.8076C141.011 89.8076 145.026 86.7507 149.309 83.2572C157.875 76.4885 166.977 73.65 160.552 79.982C156.269 84.1306 152.521 100.506 155.198 101.817C156.269 102.472 158.678 100.07 160.552 96.5763C162.158 93.0828 165.906 88.4975 168.583 86.5324C173.401 83.0389 173.669 83.0389 175.275 88.9342C176.346 92.4277 177.417 96.1396 177.952 97.4496C178.22 98.5414 180.629 95.7029 183.306 91.1176L187.589 82.6022L192.942 89.5892C196.69 94.6112 199.635 96.3579 202.579 95.2662C205.524 94.3928 208.736 95.7029 211.948 98.9781L216.767 104V98.323C216.767 95.2662 213.822 88.0608 210.342 82.6022C206.862 76.9252 204.721 72.34 205.792 72.34C208.736 72.34 213.287 75.6151 216.499 79.982C219.176 83.6939 219.444 83.0389 218.105 75.6152C216.231 64.6979 211.413 54.8724 208.468 54.8724C207.13 54.8724 206.059 53.7806 206.059 52.6889C206.059 48.322 216.767 50.7238 221.05 55.9641C227.207 63.6062 228.813 61.4227 224.797 51.1605C220.782 41.1166 212.216 33.0379 205.524 33.0379C202.847 33.0379 200.705 32.3828 200.705 31.7278C200.705 29.5444 211.948 16.8803 216.231 14.0419C224.262 8.80158 217.302 9.01992 201.776 14.6969C193.21 17.7537 184.109 21.6839 181.7 23.4307C177.952 26.2692 176.881 25.6141 172.598 17.7537C166.977 7.27316 135.122 1.5 135.122 4.5ZM173.937 29.5444C173.937 33.4746 174.472 33.2562 181.432 28.2343C189.195 22.339 205.792 14.6969 207.665 16.2253C208.201 16.662 206.595 19.5005 203.65 22.339C195.619 30.6361 195.619 35.8764 203.115 36.313C206.595 36.5314 212.484 39.3699 215.964 42.8634C222.924 49.4137 222.656 52.0339 214.893 48.7587C211.413 47.2303 208.468 47.4486 204.721 49.8504C200.973 52.2522 200.438 53.5623 202.847 54.2173C206.327 55.3091 214.09 66.2263 214.09 69.9382C214.09 71.4666 211.681 71.4666 206.862 69.9382C198.832 67.5364 192.407 71.9033 199.367 75.1785C202.847 76.7069 211.413 87.8425 211.413 90.681C211.413 91.1176 208.201 91.336 204.453 91.1176C199.367 90.681 196.422 88.4975 194.281 84.3489L191.069 78.2353L185.447 83.9123L179.826 89.8076L178.22 84.3489C176.078 77.1436 173.133 77.3619 164.835 85.659C156.537 93.7378 155.734 91.991 163.497 81.9472L169.118 74.5234H162.694C159.214 74.5234 153.592 76.2702 150.112 78.2353L143.688 81.7288L145.294 73.65C146.632 66.8814 146.097 65.5713 142.617 66.2263C140.208 66.663 136.728 70.3749 135.122 74.5234L131.642 82.1655L128.697 76.0518C127.091 72.5583 125.753 67.318 125.753 64.4796C125.753 56.6191 120.934 60.1127 118.793 69.5015L116.919 77.3619L111.833 69.2831C106.211 60.1127 107.55 56.1824 115.848 58.3659C120.934 59.676 121.202 59.4576 117.99 56.1824C116.116 54.2173 113.439 52.6889 112.636 52.6889C109.156 52.6889 96.3067 70.3749 96.3067 75.1785C96.3067 79.1087 95.7713 79.327 93.6298 76.7069C92.2914 74.9601 90.9529 70.8116 90.9529 67.318C90.9529 64.0429 89.8822 61.4227 88.2761 61.4227C86.9376 61.4227 85.5992 62.7328 85.5992 64.4796C85.5992 66.008 83.7253 68.8465 81.3161 70.3749C77.3008 72.995 77.0331 72.7767 78.9069 67.9731C82.6546 58.1476 93.6298 48.5404 93.6298 54.8724C93.6298 55.9641 94.9683 57.0558 96.5744 57.0558C98.7159 57.0558 98.4482 55.9641 96.3067 53.7807C93.3621 50.9422 93.8975 49.6321 98.4482 45.4835C101.393 42.8634 104.337 38.4965 104.873 35.658C105.676 30.8544 105.676 30.8544 115.045 37.4048L124.414 43.9551L126.288 36.9681C127.894 30.6361 140.743 18.4088 143.42 20.5922C143.955 21.0289 142.885 24.5224 141.278 28.2343C138.869 33.4746 138.869 35.8764 141.011 37.6231C146.365 41.99 159.034 29.7627 159.034 20.5922L149.904 8L168.583 17.7537C171.527 21.9023 173.669 27.3609 173.937 29.5444Z" fill="black"/>
<path d="M179.825 35.221C169.386 43.0814 163.229 43.7364 163.229 36.9677C163.229 32.6008 162.426 32.8192 155.733 39.5879L147.97 47.0116L139.672 41.9897L131.106 37.1861L132.712 43.7364C134.051 49.1951 133.515 50.5051 129.768 50.5051C125.217 50.5051 125.217 50.7235 129.232 54.4353C131.909 56.6188 133.783 59.6756 133.783 61.204C133.783 62.7325 134.854 63.3875 136.46 62.5141C137.798 61.8591 138.334 59.894 137.263 58.1472C135.389 53.562 141.01 53.9987 144.223 58.5839C146.632 62.0774 147.167 62.0774 152.789 58.1472C158.678 53.7803 158.678 53.7803 156.804 58.1472C151.718 68.6278 156.001 71.4663 169.118 67.0994C172.598 65.7893 173.133 66.4443 172.062 69.9378C170.456 75.3965 172.865 75.8332 178.755 70.8112C183.038 67.3177 183.305 67.536 184.108 71.9029C184.644 74.5231 186.785 76.7065 189.194 76.7065C192.674 76.7065 192.674 76.0515 189.998 73.4314C188.124 71.6846 187.321 68.6278 188.391 66.881C189.998 62.9508 188.927 62.7325 181.967 65.7893C177.684 67.7544 177.148 67.536 178.487 64.4792C179.825 61.6407 179.022 61.204 173.669 62.5141C170.189 63.3875 166.173 64.9159 164.567 66.0076C160.552 69.0645 157.875 68.1911 157.875 63.8242C157.875 61.6407 159.749 58.5839 161.89 57.0555C168.582 52.6886 162.158 49.1951 155.198 53.3436C147.703 57.7105 136.46 54.217 136.46 47.6667C136.46 43.5181 136.727 43.5181 141.546 47.0116C146.097 50.2868 146.9 50.2868 152.789 46.3566C156.804 43.7364 160.552 42.8631 163.229 43.9548C168.315 46.1382 179.022 42.8631 180.896 38.4962C183.038 34.3476 187.321 34.1293 187.321 38.4962C187.321 40.2429 188.391 41.7713 189.462 41.7713C190.801 41.7713 191.336 38.7145 190.533 35.221C189.998 31.5091 189.194 28.6706 188.927 28.6706C188.927 28.6706 184.644 31.7275 179.825 35.221Z" fill="black"/>
<path d="M199.635 43.0813C196.423 49.85 200.438 50.505 205.524 43.9547C208.201 40.4612 208.201 39.5878 204.989 39.5878C202.847 39.5878 200.438 41.1162 199.635 43.0813Z" fill="black"/>
<path d="M105.943 47.4482C104.873 49.4133 104.873 51.5967 105.676 52.2518C106.479 52.9068 107.014 52.2518 107.014 50.7233C107.014 49.1949 109.423 48.7582 114.509 49.6316C121.469 50.9417 121.469 50.9417 116.383 47.6665C109.423 43.0813 108.085 43.0813 105.943 47.4482Z" fill="black"/>
<path d="M173.133 50.0685C167.512 55.0904 166.977 58.5839 172.598 54.872C175.81 52.6886 176.881 52.9069 178.22 55.7454C180.093 59.4573 187.321 60.549 187.321 57.0555C187.321 55.7454 188.659 54.872 189.998 54.872C191.604 54.872 192.675 56.8372 192.675 59.4573C192.675 61.8591 193.746 63.3875 195.084 62.5141C196.422 61.8591 199.367 62.9508 201.509 64.6976C206.327 68.6278 208.736 68.8461 208.736 65.7893C208.736 64.4792 205.792 62.5141 202.312 61.4224C198.296 60.3307 195.084 57.0555 194.013 52.9069C192.139 45.4832 187.321 43.7365 187.321 50.2868C187.321 57.0555 182.77 57.7105 180.093 51.3785C177.952 45.9199 177.684 45.9199 173.133 50.0685Z" fill="black"/>
<path d="M65.7902 45.2647C64.7194 48.5399 64.4517 51.5967 65.5225 52.2518C66.3255 52.9068 66.8609 52.2518 66.8609 50.7233C66.8609 48.7582 68.1994 48.7582 72.4824 50.505C75.427 52.0334 78.6392 52.4701 79.4423 51.8151C80.2454 51.16 78.9069 50.0683 76.4977 49.1949C74.0885 48.5399 72.2147 45.9198 72.2147 43.7363C72.2147 37.6226 67.664 38.7144 65.7902 45.2647Z" fill="black"/>
<path d="M46.5166 51.5969C46.2489 54.6537 47.052 57.0555 48.3904 57.0555C49.7289 57.0555 50.7996 55.5271 50.7996 53.562C50.7996 51.5969 52.1381 50.9418 54.2796 51.8152C56.4211 52.9069 56.4211 52.2519 53.7442 49.8501C48.6581 44.8282 46.7843 45.2649 46.5166 51.5969Z" fill="black"/>

        
<g id="Frame 12">
<path id="Vector" d="M92.6383 107.674C91.6446 110.904 98.104 111.152 103.073 107.922C104.564 106.929 106.054 107.177 106.054 108.171C106.054 109.413 108.29 110.407 110.775 110.655C113.756 110.904 115.246 109.91 114.501 107.922C113.011 104.196 94.129 103.947 92.6383 107.674Z" fill="black"/>
<path id="Vector_2" d="M137.855 108.419C136.364 110.158 135.867 112.394 136.861 113.139C137.855 114.133 139.345 113.885 140.339 112.394C141.333 110.903 145.805 109.661 150.277 109.661C162.947 109.164 164.189 108.916 162.202 107.177C159.221 103.947 140.588 104.941 137.855 108.419Z" fill="black"/>
<path id="Vector_3" d="M86.9242 120.593C86.4273 122.083 86.1789 126.555 86.9242 130.53C87.918 137.238 87.918 137.238 88.4148 129.288C88.6633 121.338 88.6633 121.338 101.334 121.338H113.756L113.011 130.53L112.265 139.971H97.8556C90.1539 139.971 83.6945 140.717 83.6945 141.71C83.6945 142.953 90.8993 143.698 99.8431 143.698H115.992V130.53V117.115L102.079 117.363C93.8805 117.612 87.6695 118.854 86.9242 120.593Z" fill="black"/>
<path id="Vector_4" d="M136.364 129.288C136.612 141.213 136.861 141.462 137.606 132.518C138.848 120.841 141.333 118.854 154.003 118.854H163.196V129.785V140.717L146.55 142.953L129.656 145.437L144.066 145.934C164.686 146.431 167.171 144.443 166.177 129.04L165.183 116.369H150.525H135.867L136.364 129.288Z" fill="black"/>
<path id="Vector_5" d="M145.556 124.319C142.824 133.76 143.817 136.245 149.531 136.245C154.5 136.245 155.742 135.002 155.742 130.034C155.742 125.562 154.5 123.823 150.774 123.823C148.041 123.823 145.805 124.071 145.556 124.319Z" fill="black"/>
<path id="Vector_6" d="M97.8556 131.276C98.601 134.009 101.334 136.245 103.818 136.245C106.8 136.245 108.539 134.506 108.539 131.276C108.539 127.798 106.8 126.307 102.576 126.307C97.8556 126.307 96.8619 127.301 97.8556 131.276Z" fill="black"/>
</g>

        
<style type="text/css">
	.st0{fill:none;stroke:#000000;stroke-width:3;stroke-miterlimit:10;}
</style>
<g id="Frame_25">
	<path d="M115.2,165.7c0.3-0.2,0.7-0.4,1.1-0.6l8-14.8c4.9-8.9,7.9-16.3,6.7-16.3c-1.2,0-6.2,7.7-11.1,17.3
		c-4.8,9.2-7.2,14.9-6.7,16.7C113.4,167.1,114.1,166.3,115.2,165.7z"/>
</g>
<path class="st0" d="M117.4,162.3c-2.4,1.7-3.9,4.6-3.7,7.6c4.1,2.5,7.9,5.5,11.3,8.9c2.2,2.2,4.7,4.7,7.7,4.3
	c1.9-0.3,3.4-1.7,4.9-2.8c2.5-1.9,5.3-3.2,8.3-4c1.6-0.4,3.2-0.6,4.6-1.5s2.5-2.4,2.2-4"/>
<path class="st0" d="M117.2,170.4c1.2-0.4,2.4,0.6,3.2,1.6c1.4,1.4,2.7,2.9,3.4,4.8"/>
<path class="st0" d="M140.7,177.2c1.2-1.1,2.6-2.1,4.2-2.7c1.5-0.6,3.4-0.9,4.6,0.3c0.1,0.1,0.3,0.3,0.5,0.2s-0.2-0.4-0.1-0.2"/>
<path class="st0" d="M129.7,135.7c-6.2,10.3-12.6,20.9-15.3,32.6"/>

        
<g id="Frame 27">
<g id="Group 39">
<path id="Vector" d="M116.685 190.826C114.433 191.951 110.774 194.203 108.804 196.174C105.989 199.27 106.271 200.958 111.056 205.743C124.003 218.691 163.69 206.025 154.683 191.67C152.713 188.574 124.003 188.011 116.685 190.826ZM127.944 194.485C127.944 195.892 126.818 197.299 125.129 197.299C123.722 197.299 122.314 195.892 122.314 194.485C122.314 192.796 123.722 191.67 125.129 191.67C126.818 191.67 127.944 192.796 127.944 194.485ZM136.388 194.485C136.388 195.892 135.825 197.299 135.262 197.299C134.418 197.299 133.01 195.892 132.166 194.485C131.321 192.796 131.884 191.67 133.292 191.67C134.981 191.67 136.388 192.796 136.388 194.485ZM152.15 195.048C155.528 200.114 144.55 205.743 131.04 205.743C115.559 205.743 107.397 201.521 113.87 197.581C116.122 195.892 119.218 195.892 120.907 197.018C122.314 198.425 127.099 200.114 131.603 201.24C138.077 202.647 139.203 202.084 139.203 197.299C139.203 191.107 148.772 189.418 152.15 195.048Z" fill="black"/>
</g>
</g>

        
<g id="Frame 36">
<g id="Group 41">
<path id="Vector" d="M152.691 177.632C151.849 177.897 144.551 178.425 136.412 178.822C103.293 180.408 99.0835 182.787 93.7508 202.086C90.1022 215.304 92.0668 224.689 100.487 235.792L107.784 245.045L106.381 236.057C105.258 229.844 105.819 227.201 107.784 227.861C109.468 228.258 110.871 227.729 110.871 226.54C110.871 225.35 109.749 224.689 108.345 225.086C106.942 225.482 105.258 224.557 104.135 222.839C100.487 216.097 103.855 185.695 108.345 187.017C109.749 187.414 110.871 187.149 110.871 186.489C110.871 185.035 142.867 181.994 148.2 182.92C150.165 183.316 156.058 183.713 161.391 183.977C169.811 184.241 172.056 185.035 176.547 189.529C182.722 195.741 185.809 218.609 180.757 221.385C179.073 222.442 178.231 225.218 178.792 227.729C179.354 230.241 179.073 232.091 177.95 231.695C176.828 231.43 175.144 232.356 174.021 233.81C173.179 235.264 170.934 236.453 169.53 236.453C167.846 236.453 167.566 237.775 168.688 239.361C169.53 241.08 169.53 242.005 168.408 241.476C167.004 240.947 164.478 241.476 162.233 242.798C158.304 244.913 158.304 244.913 159.426 242.401C160.268 240.947 161.672 238.833 162.514 237.643C163.636 236.321 163.075 235.528 160.549 235.528C158.304 235.528 156.9 237.379 156.62 240.683C156.058 244.252 157.181 245.706 160.268 245.706C162.233 245.706 164.198 245.045 164.198 244.384C164.198 242.005 169.811 242.93 170.092 245.309C170.092 246.631 172.056 245.045 174.021 241.741C175.986 238.436 180.757 233.149 184.967 229.844C188.896 226.54 192.264 222.971 191.984 221.913C191.984 220.856 190.3 221.649 188.054 223.896L183.844 227.861L185.528 223.896C186.37 221.649 188.616 216.494 190.3 212.264C192.545 206.58 192.545 203.672 190.019 200.368C188.054 197.856 186.651 194.816 186.651 193.362C186.651 189.529 176.266 182.259 170.653 182.259C167.846 182.259 163.917 181.069 161.952 179.615C158.584 177.104 155.216 176.311 152.691 177.632ZM158.023 180.54C155.216 180.805 150.726 180.805 148.2 180.54C145.393 180.144 147.639 179.879 152.971 179.879C158.304 179.879 160.549 180.144 158.023 180.54ZM122.098 182.259C119.853 182.92 115.923 183.448 113.678 183.448C110.871 183.448 111.433 183.052 115.081 182.259C122.659 180.673 127.15 180.673 122.098 182.259ZM98.8028 206.316C98.2415 208.034 97.6801 206.977 97.6801 204.069C97.3995 201.161 97.9608 199.839 98.8028 201.029C99.3641 202.35 99.3641 204.73 98.8028 206.316ZM101.048 223.896C102.732 227.729 102.171 228.787 99.9255 227.729C98.2415 227.068 96.2768 223.764 95.7155 220.591C94.3121 213.586 98.2415 215.965 101.048 223.896Z" fill="black"/>
<path id="Vector_2" d="M111.152 220.856C112.555 223.235 113.117 226.804 112.275 228.787C111.152 230.637 111.713 232.62 113.397 233.017C115.081 233.545 118.449 235.925 120.975 238.436C123.501 240.948 126.589 243.062 127.992 243.062C129.395 243.062 129.676 243.988 128.553 245.177C127.15 247.028 126.308 246.764 123.221 244.252C120.975 242.269 119.572 241.873 119.572 243.062C119.291 248.746 133.044 249.539 133.605 243.856C133.605 242.402 134.167 239.626 134.447 237.775C135.009 235.925 133.886 232.356 132.483 229.844C130.799 227.333 129.676 224.293 129.957 223.235C130.518 221.649 130.237 221.649 127.992 223.367C126.027 224.821 126.027 227.068 127.711 229.976C131.36 236.057 131.36 243.062 127.711 240.419C126.308 239.361 124.905 236.453 124.905 234.074C124.905 231.43 123.782 229.976 122.098 230.505C119.853 231.166 119.011 229.712 119.291 225.218C119.572 224.16 110.871 216.626 109.468 216.626C108.907 216.626 109.749 218.609 111.152 220.856Z" fill="black"/>
<path id="Vector_3" d="M149.322 220.195C148.2 220.591 147.358 222.045 147.358 223.235C147.358 224.425 145.393 226.54 142.867 227.994C138.657 230.505 138.657 230.373 139.78 227.465C140.622 225.879 140.341 224.821 139.218 225.218C136.692 225.879 137.254 248.085 140.06 249.275C140.902 249.671 141.744 247.953 141.744 245.442C141.744 239.361 146.796 226.936 149.884 225.482C151.006 224.953 151.568 227.597 150.726 231.43C149.884 235.264 148.48 238.568 147.358 238.833C144.551 239.361 148.2 247.424 151.568 247.953C153.252 248.217 154.374 244.384 154.094 238.568C154.094 233.149 154.655 228.919 155.497 229.183C156.62 229.448 157.181 227.994 157.181 225.879C157.181 223.499 156.058 222.442 153.532 222.838C151.287 223.367 150.726 222.838 151.848 221.384C153.532 219.137 152.41 218.609 149.322 220.195Z" fill="black"/>
<path id="Vector_4" d="M169.811 221.12C169.811 222.31 168.688 223.235 167.004 223.235C162.514 223.235 158.023 232.884 162.233 234.074C166.724 235.396 169.25 235.396 171.214 233.81C174.021 231.695 174.582 220.592 172.056 219.798C170.934 219.402 169.811 220.063 169.811 221.12ZM167.285 232.884C163.636 234.603 163.356 232.224 166.443 227.201L168.408 223.896L169.25 227.729C169.811 229.844 168.969 232.091 167.285 232.884Z" fill="black"/>
<path id="Vector_5" d="M108.065 234.999C108.065 235.792 109.468 236.718 111.152 237.246C112.836 237.643 113.678 239.229 112.836 240.551C111.152 243.723 115.362 245.177 117.607 242.269C118.73 241.08 117.327 238.7 115.081 236.982C110.591 233.678 108.065 233.017 108.065 234.999Z" fill="black"/>
</g>
</g>

    </svg>
