
    <svg width="256" height="256" viewBox="0 0 256 256" fill="none" xmlns="http://www.w3.org/2000/svg">
        
<g id="Frame 45">
<rect width="256" height="256" fill="#4DDFFF"/>
<rect width="256" height="256" fill="#4DDFFF"/>
<rect width="256" height="256" fill="#4DDFFF"/>
</g>

        
<style type="text/css">
	.st0{fill:none;stroke:#000000;stroke-width:4;stroke-miterlimit:10;}
</style>
<g id="head">
	<path d="M35,60.1c0.5,0,0.7,0.2,0.5,0.6c-0.2,0.3-0.1,0.6,0.4,0.6c0.4,0,0.5,0.6,0.4,1.5c-0.2,0.8-0.1,1.5,0.1,1.5
		c0.4,0,0.9,9.1,0.7,13c-0.4,8.8-0.4,9.5,0.5,10c0.7,0.4,0.7,0.5,0.1,0.6c-0.5,0-0.7,0.4-0.5,0.7c0.1,0.4-0.2,1.7-0.6,2.8l-0.9,2.1
		l1.6-1c1.5-1,1.6-1,1.6,0.2c0,0.8-0.3,1.1-0.8,0.9c-0.5-0.2-1-0.1-1.3,0.3c-0.2,0.4,0.1,0.7,0.7,0.7c0.8,0,0.9,0.1,0.3,0.5
		c-1.1,0.7-1,1.4,0.3,1.9c1,0.4,1,0.5-0.2,0.5c-1.3,0.1-1.5,0.7-1.4,4c0,1,0.1,2.8,0.1,4.1c0.1,1.4,0.4,2.2,0.8,2
		c0.4-0.2,0.9,0.1,1.1,0.6c0.2,0.7,0.1,0.8-0.8,0.5c-0.7-0.2-1.2-0.1-1.2,0.2s0.3,0.7,0.6,0.7c0.4,0,0.4,0.4,0,1.2
		c-0.8,1.5-0.2,1.6,1.4,0.1c1-0.8,1.1-0.8,0.5,0c-0.4,0.5-0.5,1.1-0.2,1.2c0.2,0.1,0.1,0.8-0.4,1.7c-0.8,1.4-0.8,1.4-0.5,0.1
		c0.2-0.7,0.1-1.3-0.2-1.3c-0.8,0-0.6,2.2,0.4,3c0.7,0.5,0.9,3.1,1,12.7c0.1,6.6,0,11.8-0.2,11.7c-0.6-0.4-0.5,4,0.1,5.7
		c0.4,0.8,0.6,3,0.6,4.7c0.1,1.8,0.4,3.6,0.8,4c0.1,0.1,0.1,0.2,0.2,0.3c1.1-0.1,2.1-0.1,3.2-0.2c-0.2-1.1-0.5-2.3-0.6-3.3
		c-0.2-1.8-0.7-4.9-1.1-6.8c-0.3-1.9-0.6-12.4-0.6-23.2c0-21.5-0.5-34.6-1.3-40.3c-0.6-3.7-0.3-27,0.3-28c0.2-0.3,0.1-0.7-0.2-0.9
		c-0.3-0.2-0.4-1.9-0.2-3.7c0.4-3.3,0.3-3.3-1.2-3.3c-0.8,0-1.7,0.2-1.9,0.6c-0.2,0.3,0.1,1.5,0.5,2.7c0.5,1.1,0.7,2.7,0.5,3.3
		c-0.2,0.7-0.1,2.1,0.3,3c0.8,2.3-0.2,3.3-3.6,3.6C33.6,58.3,34,60.1,35,60.1z M39.3,101.2c0.1,1-0.2,1.8-0.5,1.8
		c-0.4,0-0.5-0.3-0.3-0.6c0.2-0.4-0.1-0.6-0.5-0.6c-0.5,0-1-0.1-1-0.2c0-0.7,1.2-3.4,1.4-3.4c0.2,0,0.1,0.4-0.1,1
		c-0.2,0.5-0.1,0.8,0.2,0.6C39,99.6,39.3,100.2,39.3,101.2z"/>
	<path d="M207.2,67.6c0,1.5,0.2,2.8,0.5,2.8c0.5,0,0.8,4.6,1,22.3c0.3,20.3,1.5,34.1,3,33.6c0.7-0.2,0.6-1.9-0.7-10.3
		c-1.1-8.2-1.1-18.9,0-18.9c1,0,1.3,1.8,1.9,11.9c0.2,3.1,0.5,6.5,0.6,7.5c0.3,2.3,1,13,1,14.2c-0.2,4.3-0.1,6.1,0.8,7.5
		c0.6,0.8,0.8,1.6,0.4,1.6c-0.3,0-0.5,0.7-0.5,1.5c0,0.8,0.1,1.4,0.4,1.3c0.3-0.2,0.3,5.3,0.1,12.3c0,0.1,0,0.2,0,0.4
		c0.6-0.7,1.4-1.2,2.2-1.5c0.1-0.7,0.3-1,0.6-0.9c0.2,0.1,0.4,0.3,0.5,0.6c0.6-0.1,1.2,0,1.8,0.1c0-0.3,0.1-0.5,0.1-0.6
		c0.3-1.4,0.1-1.8-1.1-2.2c-1.4-0.5-1.4-0.8-1-2.8c0.3-1.3,0.4-2.5,0.3-2.7c-0.1-0.2-0.3-3-0.4-6.1c-0.1-3.1-0.3-6.2-0.6-6.7
		c-0.3-0.5-0.7-2.3-0.8-3.9c-0.4-4-2.1-19.3-2.8-25.5c-0.3-2.8-0.6-8.1-0.7-11.9c-0.1-5.4-0.3-7.2-1.2-8.9c-0.8-1.5-1.1-3.4-1.1-6
		c0-4.5-1-10.4-2.1-12.5c-1.5-2.9-2.2-6.7-1.8-10c0.4-3,0.3-3.3-0.8-3.3c-0.7,0-1.4,0.2-1.6,0.6c-0.2,0.3-0.2,1.6,0.1,2.7
		c0.2,1.4,0.1,2.5-0.4,3c-0.6,0.7-0.6,1.3-0.2,2.3C206.8,63.4,207.2,65.1,207.2,67.6z M210.3,90.6c0.4-0.5,1-0.9,1.3-0.9
		c0.4,0,0.3,0.4-0.1,0.9c-0.4,0.5-1,0.9-1.3,0.9C209.8,91.5,209.8,91.1,210.3,90.6z M211.7,92.1c0.7,0,0.9,0.2,0.5,0.4
		c-0.4,0.1-0.8,0.8-0.8,1.4c0,1.4-1,2.1-1.4,0.9C209.5,93.3,210.3,92.1,211.7,92.1z"/>
</g>
<path class="st0" d="M205.3,52.1c0.3-0.7,0.6-1.3,0.9-2c-1.7,8.6,1.4,17.3,3,25.9c0.9,4.8,1.2,9.6,1.5,14.5
	c1.2,17.8,2.1,35.7,2.9,53.6c0.2,4,3.9,4.5,2.9,8.3c-1.3,5.1-2.7,10.4-6.1,14.5c-2.4,3-5.7,5.1-8.6,7.6
	c-13.1,10.8-20.4,27.2-32.8,38.9c-11.5,10.9-26.3,16.3-42.1,16.5c-7.6,0.1-14.8-3.8-20.6-8.6c-5.8-4.9-10.6-10.9-16.1-16.1
	c-6.9-6.6-14.8-12.1-22.5-17.8c-9.2-6.8-18.4-14.2-24.5-24.1c-1.5-2.4-3.2-5.2-3.3-8.1c-0.1-1.7,0.1-3.4-0.1-5
	c-0.3-2.5-0.3-5-0.1-7.6c0.6-6.9,2.6-13.7,2.6-20.6c0-4.8-1.1-9.6-1.8-14.3c-3.1-21.2,0.1-43-2.7-64.3"/>

        
<g id="hair">
<path id="Vector" d="M103.61 8.43327C92.2007 9.92611 80.791 14.1061 69.0811 21.2717C46.8622 34.7072 32.7502 48.7399 38.1548 52.0241C40.2566 53.2184 42.3584 52.9198 43.2591 50.8298C45.6612 43.0671 57.0709 32.0201 67.2795 27.5416C73.2846 24.5559 80.4908 20.6745 82.8928 18.5846C88.8979 13.8075 139.341 7.239 143.845 10.8218C148.649 14.7032 173.87 23.6602 176.572 22.7645C180.776 20.9731 199.692 42.4699 201.494 50.8298C203.595 60.384 209 62.1754 209 53.2184C209 49.9341 207.799 47.247 205.997 47.247C204.496 47.247 202.995 45.4556 202.995 43.0671C202.995 37.6929 180.476 17.3903 174.471 17.3903C171.768 17.3903 164.562 14.7032 157.957 11.4189C145.646 5.14903 133.636 4.5519 103.61 8.43327Z" fill="black"/>
<path id="Vector_2" d="M130.934 17.3903C130.934 18.8831 132.435 20.376 133.936 20.376C135.738 20.376 136.939 18.8831 136.939 17.3903C136.939 15.5989 135.738 14.4046 133.936 14.4046C132.435 14.4046 130.934 15.5989 130.934 17.3903Z" fill="black"/>
<path id="Vector_3" d="M145.946 23.3617C145.946 24.8545 147.448 26.3474 149.249 26.3474C150.751 26.3474 151.351 24.8545 150.45 23.3617C149.549 21.5703 148.048 20.376 147.147 20.376C146.547 20.376 145.946 21.5703 145.946 23.3617Z" fill="black"/>
<path id="Vector_4" d="M81.3915 26.3473C80.4907 27.8402 81.0912 29.333 82.5925 29.333C84.394 29.333 85.8953 27.8402 85.8953 26.3473C85.8953 24.5559 85.2948 23.3617 84.6943 23.3617C83.7935 23.3617 82.2923 24.5559 81.3915 26.3473Z" fill="black"/>
<path id="Vector_5" d="M124.929 26.6459C124.929 28.1387 126.43 28.7358 127.931 27.8401C129.733 26.9444 130.934 25.4516 130.934 24.5559C130.934 23.9588 129.733 23.3616 127.931 23.3616C126.43 23.3616 124.929 24.8545 124.929 26.6459Z" fill="black"/>
<path id="Vector_6" d="M97.9056 32.3187C97.9056 33.8116 99.4069 35.3044 100.908 35.3044C102.71 35.3044 103.911 33.8116 103.911 32.3187C103.911 30.5273 102.71 29.3331 100.908 29.3331C99.4069 29.3331 97.9056 30.5273 97.9056 32.3187Z" fill="black"/>
<path id="Vector_7" d="M169.967 35.6029C169.967 37.0957 171.468 37.6929 172.969 36.7972C174.771 35.9015 175.972 34.4086 175.972 33.5129C175.972 32.9158 174.771 32.3186 172.969 32.3186C171.468 32.3186 169.967 33.8115 169.967 35.6029Z" fill="black"/>
<path id="Vector_8" d="M132.435 38.29C131.534 39.7828 132.135 41.2757 133.636 41.2757C135.437 41.2757 136.939 39.7828 136.939 38.29C136.939 36.4986 136.338 35.3043 135.738 35.3043C134.837 35.3043 133.336 36.4986 132.435 38.29Z" fill="black"/>
<path id="Vector_9" d="M85.8954 41.2756C85.8954 42.7685 87.3967 44.2613 88.8979 44.2613C90.6995 44.2613 91.9005 42.7685 91.9005 41.2756C91.9005 39.4842 90.6995 38.29 88.8979 38.29C87.3967 38.29 85.8954 39.4842 85.8954 41.2756Z" fill="black"/>
<path id="Vector_10" d="M105.412 41.2756C104.511 42.7685 104.811 44.2613 106.613 44.2613C108.114 44.2613 110.516 42.7685 111.417 41.2756C112.318 39.4842 112.018 38.29 110.216 38.29C108.715 38.29 106.313 39.4842 105.412 41.2756Z" fill="black"/>
<path id="Vector_11" d="M181.977 41.2756C181.977 42.7685 183.478 44.2613 184.98 44.2613C186.781 44.2613 187.982 42.7685 187.982 41.2756C187.982 39.4842 186.781 38.29 184.98 38.29C183.478 38.29 181.977 39.4842 181.977 41.2756Z" fill="black"/>
<path id="Vector_12" d="M60.3736 47.247C59.4728 48.7399 60.0733 50.2327 61.5746 50.2327C63.3762 50.2327 64.8774 48.7399 64.8774 47.247C64.8774 45.4556 64.2769 44.2613 63.6764 44.2613C62.7756 44.2613 61.2744 45.4556 60.3736 47.247Z" fill="black"/>
<path id="Vector_13" d="M75.3864 50.2328C74.4856 51.7256 75.0861 53.2185 76.5874 53.2185C78.3889 53.2185 79.8902 51.7256 79.8902 50.2328C79.8902 48.4414 79.2897 47.2471 78.6892 47.2471C77.7884 47.2471 76.2871 48.4414 75.3864 50.2328Z" fill="black"/>
<path id="Vector_14" d="M168.466 53.2184C169.366 54.7113 170.868 56.2041 171.768 56.2041C172.369 56.2041 172.969 54.7113 172.969 53.2184C172.969 51.427 171.468 50.2328 169.667 50.2328C168.165 50.2328 167.565 51.427 168.466 53.2184Z" fill="black"/>
</g>

        
<g id="head">
<g id="Group 54">
<path id="Vector" d="M147.763 96.5219C141.907 98.5714 137.223 102.377 136.637 105.598C135.466 110.868 136.051 110.868 143.371 105.013C153.326 97.1075 172.649 96.5219 180.554 103.549C183.482 106.184 185.824 106.769 185.824 105.013C185.824 100.035 173.527 92.7157 165.33 93.0085C161.231 93.0085 153.326 94.4724 147.763 96.5219Z" fill="black"/>
<path id="Vector_2" d="M70.4691 108.526C71.6402 111.746 78.0814 112.625 96.5265 112.039C109.702 112.039 120.242 110.575 119.363 109.404C118.485 107.94 108.823 107.355 97.6977 107.648C86.572 107.94 76.6175 107.355 75.4463 106.476C72.2258 102.963 68.7124 104.427 70.4691 108.526Z" fill="black"/>
<path id="Vector_3" d="M148.934 111.454C136.93 116.724 134.295 121.408 139.858 126.971C146.006 133.119 170.307 137.218 177.334 133.705C185.824 129.02 190.216 119.066 185.239 114.381C179.383 108.526 159.181 106.769 148.934 111.454ZM168.843 113.796C169.429 115.845 169.136 121.408 167.965 126.385C166.794 132.241 165.915 133.119 165.622 129.313C165.33 126.093 164.451 120.53 163.573 116.724C161.523 109.99 166.794 107.355 168.843 113.796ZM157.132 122.579C158.596 130.777 158.303 131.07 154.497 126.385C150.105 120.237 149.519 113.21 153.326 113.21C154.79 113.21 156.546 117.309 157.132 122.579ZM182.018 117.895C183.482 122.287 175.87 133.412 172.942 130.484C170.892 128.435 174.699 113.21 177.334 113.21C179.09 113.21 180.847 115.26 182.018 117.895ZM150.691 127.849C150.691 131.363 149.812 131.363 146.006 127.264C143.371 124.629 142.2 121.115 143.371 119.066C146.006 114.967 150.691 120.53 150.691 127.849Z" fill="black"/>
<path id="Vector_4" d="M84.2296 121.115C67.5412 124.336 83.9369 130.777 108.53 130.777C122.877 130.777 125.512 126.385 113.8 121.994C106.481 119.066 96.2336 118.773 84.2296 121.115Z" fill="black"/>
</g>
</g>

        
<g id="Frame 23">
<path id="Vector" d="M124.61 149.378C114.126 150.426 110.719 158.289 117.534 165.889C123.562 172.703 141.907 172.703 150.294 165.889C156.322 161.172 156.322 160.648 151.867 155.668C146.887 150.164 138.238 148.068 124.61 149.378ZM148.46 158.289C152.129 164.055 150.032 165.889 137.19 167.462C128.803 168.51 125.134 167.724 120.941 164.055C115.961 159.337 115.699 159.075 120.417 155.668C126.969 150.951 144.79 152.785 148.46 158.289Z" fill="black"/>
<path id="Vector_2" d="M126.445 158.813C126.445 160.91 127.755 163.531 129.065 164.317C130.638 165.103 131.686 164.055 131.686 161.958C131.686 159.862 130.638 157.241 129.065 156.454C127.755 155.668 126.445 156.717 126.445 158.813Z" fill="black"/>
<path id="Vector_3" d="M135.879 157.503C134.831 159.337 134.569 161.434 135.355 162.22C137.714 164.579 140.335 161.172 139.024 157.503C137.976 154.62 137.452 154.62 135.879 157.503Z" fill="black"/>
</g>

        
<g id="Frame 29">
<g id="Group 39">
<path id="Vector" d="M126.324 190.161C112.403 194.168 109.661 208.511 121.262 217.581C125.691 220.956 128.433 221.588 135.183 220.534C139.823 219.901 145.729 217.792 148.471 216.104C165.556 204.925 147.417 183.833 126.324 190.161ZM129.488 201.972C129.066 209.777 129.488 212.097 132.019 212.097C134.55 212.097 134.972 209.777 134.55 201.972C133.917 193.114 134.339 192.059 138.347 192.059C144.675 192.059 153.323 201.34 151.635 206.191C149.315 212.941 146.573 215.261 138.136 217.37C130.965 219.479 129.066 219.057 123.582 215.261C115.778 209.566 114.934 200.285 121.895 195.434C129.066 190.372 130.121 191.215 129.488 201.972Z" fill="black"/>
</g>
</g>

        
    </svg>
