
    <svg width="256" height="256" viewBox="0 0 256 256" fill="none" xmlns="http://www.w3.org/2000/svg">
        
<g id="Frame 42">
<rect width="256" height="256" fill="#4DFF5E"/>
</g>

        
<style type="text/css">
	.st0{fill:none;stroke:#000000;stroke-width:4;stroke-miterlimit:10;}
</style>
<g id="head">
	<path d="M38,51.8c0.5,0,0.7,0.2,0.5,0.6c-0.2,0.3-0.1,0.6,0.4,0.6c0.4,0,0.5,0.6,0.4,1.5c-0.2,0.8-0.1,1.5,0.1,1.5
		c0.4,0,0.9,9.1,0.7,13c-0.4,8.8-0.4,9.5,0.5,10c0.7,0.4,0.7,0.5,0.1,0.6c-0.5,0-0.7,0.4-0.5,0.7c0.1,0.4-0.2,1.7-0.6,2.8l-0.9,2.1
		l1.6-1c1.5-1,1.6-1,1.6,0.2c0,0.8-0.3,1.1-0.8,0.9c-0.5-0.2-1-0.1-1.3,0.3c-0.2,0.4,0.1,0.7,0.7,0.7c0.8,0,0.9,0.1,0.3,0.5
		c-1.1,0.7-1,1.4,0.3,1.9c1,0.4,1,0.5-0.2,0.5c-1.3,0.1-1.5,0.7-1.4,4c0,1,0.1,2.8,0.1,4.1c0.1,1.4,0.4,2.2,0.8,2
		c0.4-0.2,0.9,0.1,1.1,0.6c0.2,0.7,0.1,0.8-0.8,0.5c-0.7-0.2-1.2-0.1-1.2,0.2s0.3,0.7,0.6,0.7c0.4,0,0.4,0.4,0,1.2
		c-0.8,1.5-0.2,1.6,1.4,0.1c1-0.8,1.1-0.8,0.5,0c-0.4,0.5-0.5,1.1-0.2,1.2c0.2,0.1,0.1,0.8-0.4,1.7c-0.8,1.4-0.8,1.4-0.5,0.1
		c0.2-0.7,0.1-1.3-0.2-1.3c-0.8,0-0.6,2.2,0.4,3c0.7,0.5,0.9,3.1,1,12.7c0.1,6.6,0,11.8-0.2,11.7c-0.6-0.4-0.5,4,0.1,5.7
		c0.4,0.8,0.6,3,0.6,4.7c0,0.1,0,0.2,0,0.4c1-0.7,2.1-1.2,3.2-1.7c-0.2-1.6-0.5-3.4-0.8-4.7c-0.3-1.9-0.6-12.4-0.6-23.2
		c0-21.5-0.5-34.6-1.3-40.3c-0.6-3.7-0.3-27,0.3-28c0.2-0.3,0.1-0.7-0.2-0.9c-0.3-0.2-0.4-1.9-0.2-3.7c0.4-3.3,0.3-3.3-1.2-3.3
		c-0.8,0-1.7,0.2-1.9,0.6c-0.2,0.3,0.1,1.5,0.5,2.7c0.5,1.1,0.7,2.7,0.5,3.3c-0.2,0.7-0.1,2.1,0.3,3c0.8,2.3-0.2,3.3-3.6,3.6
		C36.6,50,37.1,51.8,38,51.8z M42.4,92.9c0.1,1-0.2,1.8-0.5,1.8c-0.4,0-0.5-0.3-0.3-0.6c0.2-0.4-0.1-0.6-0.5-0.6c-0.5,0-1-0.1-1-0.2
		c0-0.7,1.2-3.4,1.4-3.4c0.2,0,0.1,0.4-0.1,1c-0.2,0.5-0.1,0.8,0.2,0.6C42,91.3,42.3,91.9,42.4,92.9z"/>
	<path d="M210.3,59.3c0,1.5,0.2,2.8,0.5,2.8c0.5,0,0.8,4.6,1,22.3c0.3,20.3,1.5,34.1,3,33.6c0.7-0.2,0.6-1.9-0.7-10.3
		c-1.1-8.2-1.1-18.9,0-18.9c1,0,1.3,1.8,1.9,11.9c0.2,3.1,0.5,6.5,0.6,7.5c0.3,2.3,1,13,1,14.2c-0.2,4.3-0.1,6.1,0.8,7.5
		c0.6,0.8,0.8,1.6,0.4,1.6c-0.3,0-0.5,0.7-0.5,1.5c0,0.8,0.1,1.4,0.4,1.3c0.3-0.2,0.3,5.3,0.1,12.3c0,0.1,0,0.2,0,0.4
		c0.6-0.7,1.4-1.2,2.2-1.5c0.1-0.7,0.3-1,0.6-0.9c0.2,0.1,0.4,0.3,0.5,0.6c0.6-0.1,1.2,0,1.8,0.1c0-0.3,0.1-0.5,0.1-0.6
		c0.3-1.4,0.1-1.8-1.1-2.2c-1.4-0.5-1.4-0.8-1-2.8c0.3-1.3,0.4-2.5,0.3-2.7c-0.1-0.2-0.3-3-0.4-6.1c-0.1-3.1-0.3-6.2-0.6-6.7
		c-0.3-0.5-0.7-2.3-0.8-3.9c-0.4-4-2.1-19.3-2.8-25.5c-0.3-2.8-0.6-8.1-0.7-11.9c-0.1-5.4-0.3-7.2-1.2-8.9c-0.8-1.5-1.1-3.4-1.1-6
		c0-4.5-1-10.4-2.1-12.5c-1.5-2.9-2.2-6.7-1.8-10c0.4-3,0.3-3.3-0.8-3.3c-0.7,0-1.4,0.2-1.6,0.6c-0.2,0.3-0.2,1.6,0.1,2.7
		c0.2,1.4,0.1,2.5-0.4,3c-0.6,0.7-0.6,1.3-0.2,2.3C209.8,55.1,210.3,56.8,210.3,59.3z M213.3,82.3c0.4-0.5,1-0.9,1.3-0.9
		c0.4,0,0.3,0.4-0.1,0.9c-0.4,0.5-1,0.9-1.3,0.9C212.8,83.2,212.9,82.8,213.3,82.3z M214.7,83.8c0.7,0,0.9,0.2,0.5,0.4
		c-0.4,0.1-0.8,0.8-0.8,1.4c0,1.4-1,2.1-1.4,0.9C212.5,85,213.3,83.8,214.7,83.8z"/>
</g>
<path class="st0" d="M42.9,141.1c0.2-3.4,0.2-5.4,0.2-8.4c2-9,3-18,1-27c-4-24,0-47-3-70.7"/>
<path class="st0" d="M208.3,43.8c0.3-0.7,0.6-1.3,0.9-2c-1.3,7,0.5,14.1,1.7,21c3.1,20.9,3.1,42.9,4.1,64.9c1,4,3,8,4,13
	c0,2,0,5,0.2,7.1"/>
<path class="st0" d="M219.5,142.2c-0.6,3.6-1.2,7.3-0.7,11c0.2,1.7,0.7,3.5,1,5.2c0.9,5.4-0.2,11,0.5,16.4c0,0.3,1.8-2.8,1.9-3.1
	c-14.3,12.2-28.3,24.8-42.2,37.5c-15,13.7-30.1,27.4-45.1,41c-2.5-2.8-5.8-4.7-8.9-6.7c-20.2-12.6-38.6-28.1-54.5-45.8
	c-4-4.5-7.9-9.1-11.6-13.8c-1.8-2.3-3.5-4.6-5.2-7c-0.4-0.6-0.9-1.2-1.5-1.7c-1.2-1-2.8-1.3-3.8-2.7c-0.9-1.4-1.1-3.2-1.6-4.7
	c-0.5-1.6-1.2-3.2-2.1-4.7c-1.1-1.9-2.6-3.6-3.1-5.8c-0.3-1.2-0.2-2.4-0.2-3.5c0.3-6.5,0.5-13,0.8-19.6"/>

        
<path d="M135.122 4.5C135.122 5.37338 139.405 6.47159 143.688 8C143.688 8 164.032 21.0289 151.183 30.8544C142.349 37.6231 140.475 35.4397 145.829 25.3958C147.971 20.8106 149.309 16.662 148.774 16.2253C146.097 14.0419 125.753 26.9242 124.146 31.9462C122.54 37.6231 119.328 38.9332 116.383 35.2213C115.58 34.1296 111.297 31.0728 106.747 28.4526L98.7159 23.8674L100.322 29.1077C102.464 35.658 97.6452 46.1386 92.5591 46.1386C90.4176 46.1386 86.6699 44.3918 84.2607 42.4267C78.6392 38.0598 80.2454 25.8325 87.2053 19.7188C93.0945 14.4785 88.0084 14.2602 78.1039 19.2821C65.7902 25.3958 56.1534 33.6929 56.1534 37.8415C56.1534 41.5533 55.618 41.5533 48.3904 37.1864C42.2335 33.4746 38.7536 33.0379 28.3137 34.1296C21.6215 35.003 16 36.7497 16 37.8415C16 39.1515 21.3538 39.3699 29.6521 38.4965C42.2335 36.9681 43.8397 37.4048 51.0673 43.0817L58.8303 49.1954V43.3001C58.8303 40.0249 62.3102 34.3479 67.1286 29.7627C75.9624 21.6839 82.1192 19.5005 78.9069 25.8325C74.3562 34.7846 74.8916 36.9681 81.5838 43.5184C86.6699 48.5404 88.0084 51.3789 86.1345 53.999C84.7961 55.9641 82.9223 57.2742 82.1192 57.2742C75.1593 56.4008 71.947 57.9292 67.664 63.6062C63.381 69.5015 62.5779 69.9382 59.6333 66.663C58.0272 64.6979 57.2241 61.8594 58.0272 60.1127C58.8303 58.3659 58.2949 57.0558 56.9564 57.0558C53.7442 57.0558 48.1227 66.8814 48.1227 72.34C48.1227 75.1785 46.7842 76.2702 43.8397 75.1785C41.6982 74.5234 40.3597 72.7767 40.8951 71.2482C41.6982 69.9382 39.8243 67.5364 37.1474 66.2263C32.8644 63.8245 32.0613 64.2612 32.0613 68.1914C32.0613 70.5932 33.3998 71.9033 34.7382 71.2482C36.3444 70.5932 37.4151 71.4666 37.4151 73.2134C37.4151 79.7637 32.329 78.8903 29.9198 71.9033C28.3137 67.9731 26.4399 63.1695 25.6368 61.2044C24.0307 58.3659 25.1014 57.9292 30.7229 58.5842C34.4705 59.2393 38.2182 60.5493 39.0213 61.6411C42.7689 66.663 44.6427 62.7328 42.2335 54.4357C39.5566 44.6102 35.809 39.5882 31.2583 39.5882C29.9198 39.5882 30.7229 41.5533 33.3998 43.9551C36.0767 46.3569 37.1474 48.322 36.0767 48.322C34.7382 48.322 35.0059 49.4138 36.8797 50.9422C41.9658 55.0907 40.6274 57.2742 33.6675 55.7458C29.9198 55.0907 24.5661 55.0907 21.6215 55.9641L16 57.2742L21.6215 63.6062C25.9045 68.1914 26.9753 72.1216 26.4399 79.7637C25.3691 90.0259 27.7783 93.0828 30.7229 85.4407C31.526 83.0389 34.7382 79.9821 37.4151 78.8903C41.6982 76.9252 43.3043 77.7986 46.5166 82.6022C50.5319 88.7158 50.5319 88.7158 50.7996 77.1436C50.7996 64.4796 53.7442 62.5145 58.8303 72.34C62.8456 80.2004 66.8609 80.8554 66.8609 73.65C66.8609 70.8116 69.2701 66.2263 72.2147 63.3878L77.8362 58.1475L75.9624 65.7896C75.1593 69.9382 70.8763 78.2353 66.3255 84.1306C62.0425 89.8076 59.0979 95.0479 59.901 95.7029C60.4364 96.3579 64.184 92.6461 68.1994 87.8425C74.8916 78.8903 85.5992 69.0648 86.6699 70.5932C86.9376 71.0299 88.8114 75.3968 90.9529 80.4187C92.8268 85.659 95.5037 89.8076 97.1098 89.8076C98.4482 89.8076 98.7159 88.2792 97.9129 86.3141C96.039 82.1655 100.857 65.7896 104.07 65.7896C105.14 65.7896 108.888 70.5932 112.368 76.7069C115.848 82.6022 119.596 87.6241 120.399 87.6241C121.469 87.6241 122.005 83.0389 121.469 77.1436L120.399 66.8814L124.949 77.1436C129.232 86.9691 133.516 90.8993 133.783 84.7856C134.051 83.4756 135.657 79.1087 138.066 75.6152L141.814 69.0648L140.475 79.327C139.94 85.2223 139.672 89.8076 140.208 89.8076C141.011 89.8076 145.026 86.7507 149.309 83.2572C157.875 76.4885 166.977 73.65 160.552 79.982C156.269 84.1306 152.521 100.506 155.198 101.817C156.269 102.472 158.678 100.07 160.552 96.5763C162.158 93.0828 165.906 88.4975 168.583 86.5324C173.401 83.0389 173.669 83.0389 175.275 88.9342C176.346 92.4277 177.417 96.1396 177.952 97.4496C178.22 98.5414 180.629 95.7029 183.306 91.1176L187.589 82.6022L192.942 89.5892C196.69 94.6112 199.635 96.3579 202.579 95.2662C205.524 94.3928 208.736 95.7029 211.948 98.9781L216.767 104V98.323C216.767 95.2662 213.822 88.0608 210.342 82.6022C206.862 76.9252 204.721 72.34 205.792 72.34C208.736 72.34 213.287 75.6151 216.499 79.982C219.176 83.6939 219.444 83.0389 218.105 75.6152C216.231 64.6979 211.413 54.8724 208.468 54.8724C207.13 54.8724 206.059 53.7806 206.059 52.6889C206.059 48.322 216.767 50.7238 221.05 55.9641C227.207 63.6062 228.813 61.4227 224.797 51.1605C220.782 41.1166 212.216 33.0379 205.524 33.0379C202.847 33.0379 200.705 32.3828 200.705 31.7278C200.705 29.5444 211.948 16.8803 216.231 14.0419C224.262 8.80158 217.302 9.01992 201.776 14.6969C193.21 17.7537 184.109 21.6839 181.7 23.4307C177.952 26.2692 176.881 25.6141 172.598 17.7537C166.977 7.27316 135.122 1.5 135.122 4.5ZM173.937 29.5444C173.937 33.4746 174.472 33.2562 181.432 28.2343C189.195 22.339 205.792 14.6969 207.665 16.2253C208.201 16.662 206.595 19.5005 203.65 22.339C195.619 30.6361 195.619 35.8764 203.115 36.313C206.595 36.5314 212.484 39.3699 215.964 42.8634C222.924 49.4137 222.656 52.0339 214.893 48.7587C211.413 47.2303 208.468 47.4486 204.721 49.8504C200.973 52.2522 200.438 53.5623 202.847 54.2173C206.327 55.3091 214.09 66.2263 214.09 69.9382C214.09 71.4666 211.681 71.4666 206.862 69.9382C198.832 67.5364 192.407 71.9033 199.367 75.1785C202.847 76.7069 211.413 87.8425 211.413 90.681C211.413 91.1176 208.201 91.336 204.453 91.1176C199.367 90.681 196.422 88.4975 194.281 84.3489L191.069 78.2353L185.447 83.9123L179.826 89.8076L178.22 84.3489C176.078 77.1436 173.133 77.3619 164.835 85.659C156.537 93.7378 155.734 91.991 163.497 81.9472L169.118 74.5234H162.694C159.214 74.5234 153.592 76.2702 150.112 78.2353L143.688 81.7288L145.294 73.65C146.632 66.8814 146.097 65.5713 142.617 66.2263C140.208 66.663 136.728 70.3749 135.122 74.5234L131.642 82.1655L128.697 76.0518C127.091 72.5583 125.753 67.318 125.753 64.4796C125.753 56.6191 120.934 60.1127 118.793 69.5015L116.919 77.3619L111.833 69.2831C106.211 60.1127 107.55 56.1824 115.848 58.3659C120.934 59.676 121.202 59.4576 117.99 56.1824C116.116 54.2173 113.439 52.6889 112.636 52.6889C109.156 52.6889 96.3067 70.3749 96.3067 75.1785C96.3067 79.1087 95.7713 79.327 93.6298 76.7069C92.2914 74.9601 90.9529 70.8116 90.9529 67.318C90.9529 64.0429 89.8822 61.4227 88.2761 61.4227C86.9376 61.4227 85.5992 62.7328 85.5992 64.4796C85.5992 66.008 83.7253 68.8465 81.3161 70.3749C77.3008 72.995 77.0331 72.7767 78.9069 67.9731C82.6546 58.1476 93.6298 48.5404 93.6298 54.8724C93.6298 55.9641 94.9683 57.0558 96.5744 57.0558C98.7159 57.0558 98.4482 55.9641 96.3067 53.7807C93.3621 50.9422 93.8975 49.6321 98.4482 45.4835C101.393 42.8634 104.337 38.4965 104.873 35.658C105.676 30.8544 105.676 30.8544 115.045 37.4048L124.414 43.9551L126.288 36.9681C127.894 30.6361 140.743 18.4088 143.42 20.5922C143.955 21.0289 142.885 24.5224 141.278 28.2343C138.869 33.4746 138.869 35.8764 141.011 37.6231C146.365 41.99 159.034 29.7627 159.034 20.5922L149.904 8L168.583 17.7537C171.527 21.9023 173.669 27.3609 173.937 29.5444Z" fill="black"/>
<path d="M179.825 35.221C169.386 43.0814 163.229 43.7364 163.229 36.9677C163.229 32.6008 162.426 32.8192 155.733 39.5879L147.97 47.0116L139.672 41.9897L131.106 37.1861L132.712 43.7364C134.051 49.1951 133.515 50.5051 129.768 50.5051C125.217 50.5051 125.217 50.7235 129.232 54.4353C131.909 56.6188 133.783 59.6756 133.783 61.204C133.783 62.7325 134.854 63.3875 136.46 62.5141C137.798 61.8591 138.334 59.894 137.263 58.1472C135.389 53.562 141.01 53.9987 144.223 58.5839C146.632 62.0774 147.167 62.0774 152.789 58.1472C158.678 53.7803 158.678 53.7803 156.804 58.1472C151.718 68.6278 156.001 71.4663 169.118 67.0994C172.598 65.7893 173.133 66.4443 172.062 69.9378C170.456 75.3965 172.865 75.8332 178.755 70.8112C183.038 67.3177 183.305 67.536 184.108 71.9029C184.644 74.5231 186.785 76.7065 189.194 76.7065C192.674 76.7065 192.674 76.0515 189.998 73.4314C188.124 71.6846 187.321 68.6278 188.391 66.881C189.998 62.9508 188.927 62.7325 181.967 65.7893C177.684 67.7544 177.148 67.536 178.487 64.4792C179.825 61.6407 179.022 61.204 173.669 62.5141C170.189 63.3875 166.173 64.9159 164.567 66.0076C160.552 69.0645 157.875 68.1911 157.875 63.8242C157.875 61.6407 159.749 58.5839 161.89 57.0555C168.582 52.6886 162.158 49.1951 155.198 53.3436C147.703 57.7105 136.46 54.217 136.46 47.6667C136.46 43.5181 136.727 43.5181 141.546 47.0116C146.097 50.2868 146.9 50.2868 152.789 46.3566C156.804 43.7364 160.552 42.8631 163.229 43.9548C168.315 46.1382 179.022 42.8631 180.896 38.4962C183.038 34.3476 187.321 34.1293 187.321 38.4962C187.321 40.2429 188.391 41.7713 189.462 41.7713C190.801 41.7713 191.336 38.7145 190.533 35.221C189.998 31.5091 189.194 28.6706 188.927 28.6706C188.927 28.6706 184.644 31.7275 179.825 35.221Z" fill="black"/>
<path d="M199.635 43.0813C196.423 49.85 200.438 50.505 205.524 43.9547C208.201 40.4612 208.201 39.5878 204.989 39.5878C202.847 39.5878 200.438 41.1162 199.635 43.0813Z" fill="black"/>
<path d="M105.943 47.4482C104.873 49.4133 104.873 51.5967 105.676 52.2518C106.479 52.9068 107.014 52.2518 107.014 50.7233C107.014 49.1949 109.423 48.7582 114.509 49.6316C121.469 50.9417 121.469 50.9417 116.383 47.6665C109.423 43.0813 108.085 43.0813 105.943 47.4482Z" fill="black"/>
<path d="M173.133 50.0685C167.512 55.0904 166.977 58.5839 172.598 54.872C175.81 52.6886 176.881 52.9069 178.22 55.7454C180.093 59.4573 187.321 60.549 187.321 57.0555C187.321 55.7454 188.659 54.872 189.998 54.872C191.604 54.872 192.675 56.8372 192.675 59.4573C192.675 61.8591 193.746 63.3875 195.084 62.5141C196.422 61.8591 199.367 62.9508 201.509 64.6976C206.327 68.6278 208.736 68.8461 208.736 65.7893C208.736 64.4792 205.792 62.5141 202.312 61.4224C198.296 60.3307 195.084 57.0555 194.013 52.9069C192.139 45.4832 187.321 43.7365 187.321 50.2868C187.321 57.0555 182.77 57.7105 180.093 51.3785C177.952 45.9199 177.684 45.9199 173.133 50.0685Z" fill="black"/>
<path d="M65.7902 45.2647C64.7194 48.5399 64.4517 51.5967 65.5225 52.2518C66.3255 52.9068 66.8609 52.2518 66.8609 50.7233C66.8609 48.7582 68.1994 48.7582 72.4824 50.505C75.427 52.0334 78.6392 52.4701 79.4423 51.8151C80.2454 51.16 78.9069 50.0683 76.4977 49.1949C74.0885 48.5399 72.2147 45.9198 72.2147 43.7363C72.2147 37.6226 67.664 38.7144 65.7902 45.2647Z" fill="black"/>
<path d="M46.5166 51.5969C46.2489 54.6537 47.052 57.0555 48.3904 57.0555C49.7289 57.0555 50.7996 55.5271 50.7996 53.562C50.7996 51.5969 52.1381 50.9418 54.2796 51.8152C56.4211 52.9069 56.4211 52.2519 53.7442 49.8501C48.6581 44.8282 46.7843 45.2649 46.5166 51.5969Z" fill="black"/>

        
<g id="Frame 12">
<path id="Vector" d="M92.6383 107.674C91.6446 110.904 98.104 111.152 103.073 107.922C104.564 106.929 106.054 107.177 106.054 108.171C106.054 109.413 108.29 110.407 110.775 110.655C113.756 110.904 115.246 109.91 114.501 107.922C113.011 104.196 94.129 103.947 92.6383 107.674Z" fill="black"/>
<path id="Vector_2" d="M137.855 108.419C136.364 110.158 135.867 112.394 136.861 113.139C137.855 114.133 139.345 113.885 140.339 112.394C141.333 110.903 145.805 109.661 150.277 109.661C162.947 109.164 164.189 108.916 162.202 107.177C159.221 103.947 140.588 104.941 137.855 108.419Z" fill="black"/>
<path id="Vector_3" d="M86.9242 120.593C86.4273 122.083 86.1789 126.555 86.9242 130.53C87.918 137.238 87.918 137.238 88.4148 129.288C88.6633 121.338 88.6633 121.338 101.334 121.338H113.756L113.011 130.53L112.265 139.971H97.8556C90.1539 139.971 83.6945 140.717 83.6945 141.71C83.6945 142.953 90.8993 143.698 99.8431 143.698H115.992V130.53V117.115L102.079 117.363C93.8805 117.612 87.6695 118.854 86.9242 120.593Z" fill="black"/>
<path id="Vector_4" d="M136.364 129.288C136.612 141.213 136.861 141.462 137.606 132.518C138.848 120.841 141.333 118.854 154.003 118.854H163.196V129.785V140.717L146.55 142.953L129.656 145.437L144.066 145.934C164.686 146.431 167.171 144.443 166.177 129.04L165.183 116.369H150.525H135.867L136.364 129.288Z" fill="black"/>
<path id="Vector_5" d="M145.556 124.319C142.824 133.76 143.817 136.245 149.531 136.245C154.5 136.245 155.742 135.002 155.742 130.034C155.742 125.562 154.5 123.823 150.774 123.823C148.041 123.823 145.805 124.071 145.556 124.319Z" fill="black"/>
<path id="Vector_6" d="M97.8556 131.276C98.601 134.009 101.334 136.245 103.818 136.245C106.8 136.245 108.539 134.506 108.539 131.276C108.539 127.798 106.8 126.307 102.576 126.307C97.8556 126.307 96.8619 127.301 97.8556 131.276Z" fill="black"/>
</g>

        
<g id="Frame 22">
<path id="Vector" d="M128.675 141.043C120.022 149.078 114.254 159.79 115.078 167.001C115.902 175.035 121.259 179.156 126.615 175.859C130.529 173.387 132.795 160.615 129.087 160.615C127.645 160.615 127.233 162.263 128.057 164.735C129.499 169.061 126.203 175.035 122.701 175.035C121.671 175.035 119.816 172.769 118.374 170.091C116.52 165.971 116.932 163.293 120.847 156.082C123.319 151.138 127.851 145.164 130.735 142.691C133.825 140.425 135.885 137.747 135.267 137.129C134.649 136.511 131.559 138.159 128.675 141.043Z" fill="black"/>
</g>

        
<g id="Frame 29">
<g id="Group 39">
<path id="Vector" d="M126.324 190.161C112.403 194.168 109.661 208.511 121.262 217.581C125.691 220.956 128.433 221.588 135.183 220.534C139.823 219.901 145.729 217.792 148.471 216.104C165.556 204.925 147.417 183.833 126.324 190.161ZM129.488 201.972C129.066 209.777 129.488 212.097 132.019 212.097C134.55 212.097 134.972 209.777 134.55 201.972C133.917 193.114 134.339 192.059 138.347 192.059C144.675 192.059 153.323 201.34 151.635 206.191C149.315 212.941 146.573 215.261 138.136 217.37C130.965 219.479 129.066 219.057 123.582 215.261C115.778 209.566 114.934 200.285 121.895 195.434C129.066 190.372 130.121 191.215 129.488 201.972Z" fill="black"/>
</g>
</g>

        
<g id="Frame 37">
<g id="Group 40">
<path id="Vector" d="M40.8998 116.821C40.2662 119.147 39.6326 125.945 39.6326 132.206C39.6326 138.467 38.7879 143.119 37.9432 142.582C36.8872 142.045 36.2537 149.917 36.2537 159.935C36.4648 169.953 35.8313 182.654 34.9865 188.021C33.5082 197.681 33.5082 197.681 36.2537 191.599L39.2103 185.337L40.6886 193.03C41.5333 197.144 43.2228 201.08 44.2788 201.617C45.3347 202.153 45.5459 200.543 44.7011 197.502L43.2228 192.493L48.9249 198.397C52.3039 201.617 56.7388 205.016 59.0619 206.089C61.5961 207.162 59.0619 204.121 53.571 199.47C48.2913 194.64 43.2228 189.273 42.5893 187.663C41.9557 185.874 40.4774 184.443 39.4215 184.443C38.3655 184.443 37.5208 183.191 37.5208 181.76C37.5208 180.328 38.5767 179.076 39.6326 179.076C40.8998 179.076 41.7445 179.613 41.7445 180.507C41.7445 183.012 59.0619 201.438 62.4408 202.511C67.9317 204.121 71.5219 200.186 67.7205 196.608C66.031 194.998 64.5527 192.672 64.1303 191.241C63.708 187.842 55.0493 176.393 50.8256 173.53C47.6578 171.205 47.6578 171.384 50.192 175.498C52.7262 179.613 52.7262 179.792 49.3473 177.466C47.4466 176.035 46.3906 173.709 47.0242 171.742C47.6578 170.131 47.2354 168.164 45.9683 167.448C44.7011 166.733 43.8564 168.343 43.8564 171.563C43.8564 175.498 46.1794 178.539 52.3039 183.37C56.95 186.947 60.7514 190.525 60.7514 191.42C60.7514 192.314 62.2297 193.924 63.9192 195.177C65.6087 196.429 67.087 198.218 67.087 199.112C67.087 200.364 66.031 200.186 64.3415 198.933C62.652 197.86 60.5402 197.681 59.6954 198.397C58.6395 199.112 58.6395 198.754 59.4842 197.502C60.1178 196.429 56.3164 191.062 50.4032 185.516C40.8998 176.214 37.3096 167.985 41.7445 165.659C42.5893 165.122 42.5893 161.366 41.7445 157.251C40.8998 152.958 40.8998 145.981 41.7445 141.509C43.2228 134.353 43.434 134.89 43.6452 147.591C43.8564 164.228 45.7571 164.586 47.4466 148.307C48.2913 139.183 47.8689 135.605 45.1235 132.027C42.3781 128.449 42.1669 127.376 44.2788 126.482C46.1794 125.766 46.1794 125.05 44.7011 124.514C43.434 123.977 43.0116 121.115 43.434 118.252C44.49 111.991 42.8005 111.097 40.8998 116.821Z" fill="black"/>
<path id="Vector_2" d="M205.837 115.39C203.936 119.505 206.259 139.362 208.793 140.793C209.849 141.33 210.483 144.371 210.483 147.412L210.06 153.136L208.582 146.875C207.104 141.151 207.104 141.33 206.681 150.095C206.47 156.535 205.626 159.219 204.147 158.324C202.669 157.609 202.247 158.324 203.091 160.829C204.57 164.586 200.346 173.709 194.221 179.434C192.532 181.223 192.11 182.654 193.166 182.654C194.433 182.654 198.023 179.255 201.191 174.961C204.147 170.847 206.048 169.058 205.203 171.026C204.358 172.994 203.514 176.393 203.514 178.539C203.303 180.507 202.458 181.938 201.402 181.223C200.346 180.686 199.924 181.58 200.768 183.012C201.402 184.622 200.557 187.305 199.079 189.273C197.389 191.062 195.911 191.598 195.911 190.525C195.911 189.631 196.967 187.842 198.445 186.589C200.346 184.979 200.346 184.443 198.445 184.443C197.178 184.443 195.489 186.411 194.644 188.915C194.01 191.42 192.532 192.851 191.476 192.493C190.631 191.956 191.054 193.745 192.743 196.429C194.855 199.828 195.066 201.617 193.588 202.511C191.898 203.227 191.898 204.121 193.377 204.837C194.644 205.373 196.122 204.3 196.967 202.332C197.812 200.364 199.079 199.112 200.135 199.649C200.979 200.185 202.88 199.291 204.358 197.86C206.47 195.713 206.47 194.64 204.57 192.672C203.091 191.062 202.88 189.631 204.147 189.094C205.203 188.557 206.681 189.094 207.104 190.167C207.737 191.42 208.371 190.346 208.371 187.842C208.582 185.158 210.06 180.686 211.75 178.003C215.34 172.099 215.763 174.961 213.017 184.443C209.427 196.25 208.582 202.511 210.694 201.438C211.961 200.901 212.806 197.681 212.806 194.282C212.806 185.695 217.03 184.443 217.241 192.851C217.452 196.607 217.241 201.617 217.03 203.942C216.818 206.447 217.452 207.699 218.93 206.983C221.887 205.373 221.676 196.965 218.297 183.548C216.818 177.645 216.185 172.457 217.03 171.92C221.253 169.416 218.93 117 214.707 119.326C213.651 119.862 213.439 118.968 214.073 117.537C214.918 115.927 214.284 114.674 212.806 114.674C210.905 114.674 210.694 116.642 211.539 120.936C212.384 124.692 212.172 127.197 210.905 127.197C209.849 127.197 208.582 123.798 208.16 119.505C207.737 113.959 207.104 112.886 205.837 115.39ZM215.974 145.623C216.818 152.958 217.03 160.292 216.607 162.26C216.185 164.049 214.918 158.145 213.862 149.022C212.595 140.077 212.384 132.564 213.228 132.564C213.862 132.564 215.129 138.467 215.974 145.623ZM215.129 167.448C216.185 166.732 216.396 167.627 215.763 169.058C213.017 174.961 208.371 170.31 208.793 162.439C208.793 159.04 209.216 159.219 211.116 163.512C212.172 166.196 214.073 167.985 215.129 167.448ZM209.216 176.393C208.582 178.003 207.526 178.897 207.104 178.36C206.47 177.824 206.681 176.75 207.526 175.677C209.427 172.815 210.694 173.351 209.216 176.393ZM204.358 195.892C204.358 196.429 203.514 197.323 202.247 197.86C201.191 198.396 200.135 198.039 200.135 197.144C200.135 196.071 201.191 195.176 202.247 195.176C203.514 195.176 204.358 195.534 204.358 195.892Z" fill="black"/>
<path id="Vector_3" d="M49.136 142.403C49.3472 156.714 50.192 168.879 51.0367 169.595C51.8815 170.489 52.3038 158.682 51.8815 143.655C51.6703 128.807 50.6143 116.463 49.9808 116.463C49.3472 116.463 48.9248 128.091 49.136 142.403Z" fill="black"/>
<path id="Vector_4" d="M219.564 127.197C219.564 130.596 219.986 132.027 220.62 130.238C221.042 128.628 221.042 125.766 220.62 123.977C219.986 122.367 219.564 123.798 219.564 127.197Z" fill="black"/>
<path id="Vector_5" d="M37.5207 197.86C37.5207 201.259 38.3655 204.121 39.2102 204.121C40.055 204.121 40.4773 201.259 40.055 197.86C39.6326 194.461 38.7878 191.598 38.3655 191.598C37.9431 191.598 37.5207 194.461 37.5207 197.86Z" fill="black"/>
<path id="Vector_6" d="M127.845 223.603C126.577 226.644 125.944 227.002 124.254 225.034C122.776 223.245 122.565 223.603 123.832 226.108C124.677 228.076 125.31 231.475 125.31 233.621C125.099 235.947 125.944 237.378 127 236.841C127.845 236.305 129.323 238.63 130.168 242.208C130.801 245.607 132.279 248.112 133.124 247.575C134.18 247.038 135.447 248.29 136.292 250.258C136.926 252.226 138.615 253.836 139.671 253.836C140.938 253.836 141.149 252.942 140.516 252.047C139.882 250.974 140.727 249.722 142.416 249.185C144.317 248.648 145.373 247.575 144.74 246.68C144.317 245.965 145.584 240.24 147.696 233.8L151.709 222.172L145.795 221.993C140.938 221.993 140.305 222.53 141.149 226.287C141.572 228.612 141.149 230.58 140.093 230.58C138.826 230.58 137.982 232.369 138.193 234.516C138.404 239.167 135.236 243.281 132.279 241.85C131.435 241.314 131.857 240.24 133.335 239.346C135.87 237.915 135.87 237.557 133.335 236.126C131.012 234.874 131.224 234.337 134.18 233.979C137.77 233.263 137.982 233.085 134.603 230.222C132.702 228.612 131.012 226.287 131.012 225.034C131.012 223.782 132.279 224.319 134.18 226.287C137.77 230.222 138.404 228.433 135.236 223.245C132.279 218.773 129.534 218.952 127.845 223.603ZM145.795 231.475C144.528 234.158 143.05 235.947 142.416 235.589C141.994 235.052 142.628 232.548 143.895 229.864C147.274 223.782 148.752 225.034 145.795 231.475ZM140.305 245.786C139.46 247.217 138.615 248.469 138.193 248.469C137.77 248.469 137.348 247.217 137.348 245.786C137.348 244.355 138.193 243.103 139.46 243.103C140.516 243.103 140.938 244.355 140.305 245.786Z" fill="black"/>
</g>
</g>

    </svg>
