
    <svg width="256" height="256" viewBox="0 0 256 256" fill="none" xmlns="http://www.w3.org/2000/svg">
        
<g id="Frame 43">
<rect width="256" height="256" fill="#BB4DFF"/>
</g>

        
<style type="text/css">
	.st0{fill:none;stroke:#000000;stroke-width:4;stroke-miterlimit:10;}
</style>
<g id="head">
	<path d="M38,51.8c0.5,0,0.7,0.2,0.5,0.6c-0.2,0.3-0.1,0.6,0.4,0.6c0.4,0,0.5,0.6,0.4,1.5c-0.2,0.8-0.1,1.5,0.1,1.5
		c0.4,0,0.9,9.1,0.7,13c-0.4,8.8-0.4,9.5,0.5,10c0.7,0.4,0.7,0.5,0.1,0.6c-0.5,0-0.7,0.4-0.5,0.7c0.1,0.4-0.2,1.7-0.6,2.8l-0.9,2.1
		l1.6-1c1.5-1,1.6-1,1.6,0.2c0,0.8-0.3,1.1-0.8,0.9c-0.5-0.2-1-0.1-1.3,0.3c-0.2,0.4,0.1,0.7,0.7,0.7c0.8,0,0.9,0.1,0.3,0.5
		c-1.1,0.7-1,1.4,0.3,1.9c1,0.4,1,0.5-0.2,0.5c-1.3,0.1-1.5,0.7-1.4,4c0,1,0.1,2.8,0.1,4.1c0.1,1.4,0.4,2.2,0.8,2
		c0.4-0.2,0.9,0.1,1.1,0.6c0.2,0.7,0.1,0.8-0.8,0.5c-0.7-0.2-1.2-0.1-1.2,0.2s0.3,0.7,0.6,0.7c0.4,0,0.4,0.4,0,1.2
		c-0.8,1.5-0.2,1.6,1.4,0.1c1-0.8,1.1-0.8,0.5,0c-0.4,0.5-0.5,1.1-0.2,1.2c0.2,0.1,0.1,0.8-0.4,1.7c-0.8,1.4-0.8,1.4-0.5,0.1
		c0.2-0.7,0.1-1.3-0.2-1.3c-0.8,0-0.6,2.2,0.4,3c0.7,0.5,0.9,3.1,1,12.7c0.1,6.6,0,11.8-0.2,11.7c-0.6-0.4-0.5,4,0.1,5.7
		c0.4,0.8,0.6,3,0.6,4.7c0,0.1,0,0.2,0,0.4c1-0.7,2.1-1.2,3.2-1.7c-0.2-1.6-0.5-3.4-0.8-4.7c-0.3-1.9-0.6-12.4-0.6-23.2
		c0-21.5-0.5-34.6-1.3-40.3c-0.6-3.7-0.3-27,0.3-28c0.2-0.3,0.1-0.7-0.2-0.9c-0.3-0.2-0.4-1.9-0.2-3.7c0.4-3.3,0.3-3.3-1.2-3.3
		c-0.8,0-1.7,0.2-1.9,0.6c-0.2,0.3,0.1,1.5,0.5,2.7c0.5,1.1,0.7,2.7,0.5,3.3c-0.2,0.7-0.1,2.1,0.3,3c0.8,2.3-0.2,3.3-3.6,3.6
		C36.6,50,37.1,51.8,38,51.8z M42.4,92.9c0.1,1-0.2,1.8-0.5,1.8c-0.4,0-0.5-0.3-0.3-0.6c0.2-0.4-0.1-0.6-0.5-0.6c-0.5,0-1-0.1-1-0.2
		c0-0.7,1.2-3.4,1.4-3.4c0.2,0,0.1,0.4-0.1,1c-0.2,0.5-0.1,0.8,0.2,0.6C42,91.3,42.3,91.9,42.4,92.9z"/>
	<path d="M210.3,59.3c0,1.5,0.2,2.8,0.5,2.8c0.5,0,0.8,4.6,1,22.3c0.3,20.3,1.5,34.1,3,33.6c0.7-0.2,0.6-1.9-0.7-10.3
		c-1.1-8.2-1.1-18.9,0-18.9c1,0,1.3,1.8,1.9,11.9c0.2,3.1,0.5,6.5,0.6,7.5c0.3,2.3,1,13,1,14.2c-0.2,4.3-0.1,6.1,0.8,7.5
		c0.6,0.8,0.8,1.6,0.4,1.6c-0.3,0-0.5,0.7-0.5,1.5c0,0.8,0.1,1.4,0.4,1.3c0.3-0.2,0.3,5.3,0.1,12.3c0,0.1,0,0.2,0,0.4
		c0.6-0.7,1.4-1.2,2.2-1.5c0.1-0.7,0.3-1,0.6-0.9c0.2,0.1,0.4,0.3,0.5,0.6c0.6-0.1,1.2,0,1.8,0.1c0-0.3,0.1-0.5,0.1-0.6
		c0.3-1.4,0.1-1.8-1.1-2.2c-1.4-0.5-1.4-0.8-1-2.8c0.3-1.3,0.4-2.5,0.3-2.7c-0.1-0.2-0.3-3-0.4-6.1c-0.1-3.1-0.3-6.2-0.6-6.7
		c-0.3-0.5-0.7-2.3-0.8-3.9c-0.4-4-2.1-19.3-2.8-25.5c-0.3-2.8-0.6-8.1-0.7-11.9c-0.1-5.4-0.3-7.2-1.2-8.9c-0.8-1.5-1.1-3.4-1.1-6
		c0-4.5-1-10.4-2.1-12.5c-1.5-2.9-2.2-6.7-1.8-10c0.4-3,0.3-3.3-0.8-3.3c-0.7,0-1.4,0.2-1.6,0.6c-0.2,0.3-0.2,1.6,0.1,2.7
		c0.2,1.4,0.1,2.5-0.4,3c-0.6,0.7-0.6,1.3-0.2,2.3C209.8,55.1,210.3,56.8,210.3,59.3z M213.3,82.3c0.4-0.5,1-0.9,1.3-0.9
		c0.4,0,0.3,0.4-0.1,0.9c-0.4,0.5-1,0.9-1.3,0.9C212.8,83.2,212.9,82.8,213.3,82.3z M214.7,83.8c0.7,0,0.9,0.2,0.5,0.4
		c-0.4,0.1-0.8,0.8-0.8,1.4c0,1.4-1,2.1-1.4,0.9C212.5,85,213.3,83.8,214.7,83.8z"/>
</g>
<path class="st0" d="M42.9,141.1c0.2-3.4,0.2-5.4,0.2-8.4c2-9,3-18,1-27c-4-24,0-47-3-70.7"/>
<path class="st0" d="M208.3,43.8c0.3-0.7,0.6-1.3,0.9-2c-1.3,7,0.5,14.1,1.7,21c3.1,20.9,3.1,42.9,4.1,64.9c1,4,3,8,4,13
	c0,2,0,5,0.2,7.1"/>
<path class="st0" d="M219.5,142.2c-0.6,3.6-1.2,7.3-0.7,11c0.2,1.7,0.7,3.5,1,5.2c0.9,5.4-0.2,11,0.5,16.4c0,0.3,1.8-2.8,1.9-3.1
	c-14.3,12.2-28.3,24.8-42.2,37.5c-15,13.7-30.1,27.4-45.1,41c-2.5-2.8-5.8-4.7-8.9-6.7c-20.2-12.6-38.6-28.1-54.5-45.8
	c-4-4.5-7.9-9.1-11.6-13.8c-1.8-2.3-3.5-4.6-5.2-7c-0.4-0.6-0.9-1.2-1.5-1.7c-1.2-1-2.8-1.3-3.8-2.7c-0.9-1.4-1.1-3.2-1.6-4.7
	c-0.5-1.6-1.2-3.2-2.1-4.7c-1.1-1.9-2.6-3.6-3.1-5.8c-0.3-1.2-0.2-2.4-0.2-3.5c0.3-6.5,0.5-13,0.8-19.6"/>

        
<path d="M96.8511 3.60848C96.8511 4.48292 98.6681 6.66903 100.745 8.41792C105.936 12.7901 105.677 15.4135 100.226 16.5065C96.5915 17.381 96.8511 17.5996 101.264 17.8182C104.379 17.8182 107.753 19.1299 108.791 20.4415C109.83 22.1904 108.532 22.409 104.638 21.316C100.226 20.2229 99.1872 20.4415 100.745 22.409C102.043 24.3765 101.783 24.8138 99.7064 23.7207C98.1489 22.8463 94.7745 18.6926 91.9192 14.3204C87.766 7.32487 87.2468 6.88765 85.6894 11.2599C84.9106 13.6646 85.4298 15.4135 86.4681 14.7576C87.766 14.1018 89.3234 14.539 90.1021 15.6321C92.1787 18.474 78.1617 20.2229 72.7106 17.5996C70.1149 16.5065 66.7404 16.0693 64.9234 16.7251C63.1064 17.1624 64.4043 18.474 67.7787 19.1299C70.8936 20.0043 73.4894 21.7532 73.4894 22.8463C73.4894 23.9393 74.5277 24.3765 75.8255 23.7207C77.1234 22.8463 81.017 23.2835 84.1319 24.3765C89.3234 25.9068 88.2851 26.344 77.383 27.6557C63.366 29.6232 47.7915 35.3071 42.6 40.7724C40.5234 42.7399 36.8894 44.2701 34.034 44.2701C31.4383 44.2701 29.6213 45.1446 30.4 46.2376C31.9574 48.2051 11.7106 63.9451 8.0766 63.9451C6.77872 63.9451 6 65.0382 6 66.3499C6 67.8801 8.85532 67.2243 13.0085 65.0382C17.9404 62.1963 20.2766 61.9776 21.0553 63.7265C21.5745 65.0382 23.1319 65.694 24.1702 65.0382C25.4681 64.3824 25.9872 62.4149 25.2085 60.8846C24.4298 58.9171 25.9872 57.1682 29.1021 56.2938C34.034 54.9821 35.8511 52.5774 34.8128 47.9865C34.5532 46.8935 35.5915 46.6749 37.1489 47.5493C38.7064 48.2051 38.966 49.954 38.1872 51.2657C37.1489 52.5774 37.9277 54.3263 39.7447 55.2007C42.0809 56.2938 42.0809 57.1682 40.0043 58.2613C38.4468 59.1357 37.1489 58.6985 37.1489 57.3868C37.1489 56.0751 35.8511 55.6379 34.5532 56.2938C32.4766 57.3868 32.7362 58.6985 34.8128 60.8846C36.3702 62.6335 36.8894 65.4754 35.8511 67.6615C34.5532 69.8476 34.034 72.2524 34.034 73.1268C34.2936 74.2199 29.6213 77.7176 23.6511 81.434C17.9404 84.9318 13.7872 87.9924 14.566 87.9924C18.2 87.9924 29.3617 82.7457 29.3617 81.2154C29.3617 80.341 31.9574 79.6851 35.3319 79.9038C38.4468 80.1224 41.5617 79.2479 42.0809 78.1549C42.6 76.8432 44.6766 74.0013 46.4936 71.5965C51.6851 65.4754 51.4255 60.2288 46.234 63.9451C44.1574 65.4754 42.8596 67.2243 43.3787 68.0988C45.1957 70.5035 40.2638 75.9688 37.9277 74.0013C36.8894 72.9082 37.1489 71.5965 38.966 71.1593C40.783 70.7221 41.3021 68.7546 40.5234 67.0057C39.7447 65.2568 40.5234 62.4149 42.3404 60.666C44.1574 58.6985 44.9362 56.731 43.8979 55.8565C43.1191 54.9821 44.9362 52.1401 48.0511 49.2982C51.166 46.4563 52.2043 44.2701 50.6468 44.2701C44.9362 44.2701 47.5319 40.1165 55.3191 36.6188C59.4723 34.8699 70.1149 31.8093 79.2 30.0604C93.7362 27.2185 95.8128 27.2185 99.966 30.4976C105.936 34.8699 104.119 36.6188 97.1106 33.3396C93.9957 32.0279 91.6596 31.5907 91.6596 32.0279C91.6596 32.6838 95.034 34.6513 99.1872 36.6188C107.494 40.1165 113.204 37.4932 107.494 32.6838C103.34 29.186 103.86 26.7813 109.311 26.7813C112.685 26.7813 112.945 27.2185 110.349 28.7488C107.494 30.0604 107.494 30.9349 110.349 32.6838C117.098 37.056 120.991 38.5863 119.174 35.9629C118.136 34.4326 118.915 33.3396 120.732 33.3396C122.809 33.121 122.289 32.0279 119.174 30.0604C114.243 26.9999 114.243 26.7813 120.472 26.7813C125.145 26.7813 126.962 28.0929 127.221 31.1535C127.481 33.5582 126.702 35.5257 125.145 35.5257C123.847 35.5257 122.809 37.056 122.809 38.8049C122.809 43.6143 127.221 42.7399 128.779 37.4932C129.817 34.6513 131.374 33.5582 133.191 34.4326C135.528 35.5257 135.787 34.6513 134.489 31.1535C132.672 26.5626 133.191 26.5626 145.391 27.4371C156.294 28.5301 165.379 29.8418 169.532 31.1535C170.311 31.3721 171.868 31.5907 172.906 31.3721C176.281 30.9349 191.077 38.3676 197.566 43.8329C200.681 46.6749 203.277 51.2657 203.277 53.889C203.277 57.6054 205.613 59.7915 211.064 61.759C215.477 63.2893 218.851 65.4754 218.851 66.7871C218.851 68.3174 217.813 68.3174 215.736 66.5685C210.545 62.1963 208.468 63.5079 208.468 71.5965C208.468 75.7501 209.506 79.2479 210.545 79.2479C213.4 79.2479 212.881 96.9554 210.285 100.672C208.728 102.421 209.506 105.044 211.843 107.23C219.63 114.882 222.226 121.221 218.591 123.407C215.736 125.156 215.736 125.375 218.851 124.5C220.928 124.063 223.004 121.877 223.004 119.472C223.264 117.286 223.783 114.226 224.043 113.133C224.302 111.821 224.562 110.072 224.302 109.198C224.043 108.105 226.638 109.198 230.272 111.384C233.647 113.57 235.983 115.756 235.464 116.193C234.945 116.63 232.868 115.756 230.791 114.444C228.715 112.914 226.379 112.695 225.6 113.788C224.821 114.882 227.157 116.849 230.791 118.379C239.617 121.658 240.136 121.44 239.098 115.756C238.579 113.133 236.762 111.165 234.945 111.384C233.387 111.821 228.455 106.793 224.043 100.453C215.996 88.6482 214.438 84.4946 218.851 86.8993C222.485 88.8668 222.226 85.1504 218.332 81.8712C215.996 79.9038 215.996 79.2479 218.332 79.2479C220.149 79.2479 221.447 80.1224 221.447 80.9968C221.447 82.0899 225.081 84.9318 229.234 87.5551C235.204 91.2715 237.021 91.7087 237.021 89.304C237.021 87.5551 234.685 85.5876 232.089 84.7132C229.234 84.0574 225.34 81.2154 223.264 78.3735C219.37 73.3454 219.37 73.3454 228.715 74.2199C239.357 75.0943 243.511 77.0618 234.945 77.0618C227.417 77.0618 225.6 80.7782 232.609 82.3085C240.915 84.0574 244.03 83.8387 239.877 81.6526C236.762 79.9038 237.281 79.0293 242.991 76.8432C246.885 75.3129 250 73.1268 250 72.0338C250 70.9407 248.183 71.1593 246.106 72.6896C241.434 75.9688 237.54 74.0013 234.426 67.0057C233.128 64.1638 231.051 61.759 230.013 61.9776C225.081 62.6335 221.447 61.5404 221.447 59.5729C221.447 58.4799 223.523 58.0426 226.119 58.6985C229.753 59.7915 230.013 59.5729 226.638 57.6054C224.562 56.2938 220.668 55.8565 218.072 56.5124C215.477 57.1682 213.919 56.9496 214.179 55.8565C216.774 49.5168 179.915 26.7813 166.936 26.7813C163.821 26.7813 162.004 25.9068 162.783 25.0324C163.302 24.1579 157.072 23.2835 148.766 23.2835C140.2 23.2835 132.672 22.6276 131.894 21.9718C129.557 20.0043 135.268 11.4785 138.902 11.4785C141.238 11.4785 141.238 12.1343 138.902 14.1018C133.711 18.474 135.528 21.0974 140.719 17.1624C143.834 14.7576 147.209 13.8832 149.285 14.9763C152.14 16.2879 152.14 16.0693 149.285 13.2274C146.689 10.3854 146.689 9.51098 149.285 8.41792C151.102 7.76209 147.987 7.76209 142.277 8.19931L131.894 9.29237L139.681 6.0132C146.689 2.95265 146.949 2.73403 141.238 3.17126C135.009 3.82709 132.413 6.23181 129.298 14.539C128 18.474 127.221 18.2554 120.213 12.5715C109.83 4.26431 108.013 6.45042 117.617 15.1949C126.962 23.7207 127.221 24.5951 118.915 24.5951C114.762 24.5951 112.426 23.2835 112.426 21.316C112.426 19.5671 111.387 18.0368 109.83 18.0368C108.532 18.0368 108.013 16.7251 108.791 15.1949C109.311 13.6646 106.974 9.9482 103.34 7.10626C99.7064 4.26431 96.8511 2.73403 96.8511 3.60848ZM47.5319 46.4563C47.5319 47.5493 46.234 48.6424 44.6766 48.6424C43.3787 48.6424 42.8596 47.5493 43.6383 46.4563C44.417 45.1446 45.7149 44.2701 46.4936 44.2701C47.0128 44.2701 47.5319 45.1446 47.5319 46.4563ZM230.791 69.4104C233.387 71.1593 234.426 72.6896 232.868 72.6896C231.57 72.6896 227.936 71.1593 225.081 69.4104C222.485 67.6615 221.447 66.1313 223.004 66.1313C224.302 66.1313 227.936 67.6615 230.791 69.4104ZM216.255 75.0943C216.255 76.406 215.217 76.6246 213.66 75.9688C212.362 75.3129 211.064 73.564 211.064 72.471C211.064 71.1593 212.362 70.9407 213.66 71.5965C215.217 72.2524 216.255 74.0013 216.255 75.0943ZM217.553 99.1415C216.515 100.235 217.034 101.109 218.332 101.109C219.63 101.109 220.668 102.639 220.668 104.388C220.668 107.667 216.515 109.198 215.996 105.918C214.438 98.7043 214.698 94.7693 216.774 95.8624C217.813 96.5182 218.332 98.0485 217.553 99.1415Z" fill="black"/>
<path d="M28.1081 61.8997C31.9019 63.7993 29.6256 65.9101 16.4738 71.398C11.6683 73.5088 8.63329 75.6195 9.39205 76.4638C10.4037 77.097 12.4271 76.4638 13.9446 75.1974C18.2442 71.6091 22.2909 72.0312 18.4971 75.8306C16.7267 77.5192 13.6917 78.9967 11.9212 78.9967C9.89789 78.9967 8.38037 79.841 8.38037 81.1074C8.38037 84.0625 9.89789 83.8514 19.7617 78.3635C24.5672 75.8306 28.6139 72.6645 28.6139 71.1869C28.6139 69.9205 29.8785 68.443 31.6489 68.0208C35.4427 66.9655 32.4077 60 28.1081 60C25.5789 60 25.5789 60.4221 28.1081 61.8997Z" fill="black"/>
<path d="M27.1965 85.7496C25.1143 87.4906 23.5526 90.1022 23.5526 91.4079C23.5526 92.7137 21.7307 94.89 19.6485 96.4134C17.5663 97.9368 15.7444 100.331 15.7444 101.637C16.0046 102.942 18.3471 101.637 20.9499 98.8073C23.8129 95.9782 26.1554 94.89 26.1554 96.1958C26.1554 97.7192 27.4568 98.1544 29.539 97.2839C31.1006 96.4134 28.2376 99.025 23.0321 103.378C17.5663 107.512 13.1416 111.647 13.1416 112.736C13.1416 113.824 16.7855 111.865 20.9499 108.383C29.2787 101.637 31.3609 103.16 24.5937 111.212C22.5115 113.824 21.7307 116 23.2924 116C26.4157 116 39.1692 103.378 39.1692 100.113C39.1692 98.8073 37.3472 99.6778 35.265 102.072C33.1828 104.248 31.3609 105.119 31.3609 103.595C31.3609 102.289 33.4431 99.6778 36.0459 98.1544C38.6486 96.631 42.0322 92.2785 43.5939 88.5788C46.4569 82.0499 46.1966 81.8323 38.6486 82.0499C34.4842 82.2675 29.2787 83.7909 27.1965 85.7496ZM36.8267 88.7964C38.1281 87.9259 38.3883 89.2317 37.3472 91.1903C36.3061 93.8019 35.265 94.2371 34.4842 92.4961C33.7034 90.3198 32.6623 90.3198 29.7992 92.2785C25.3746 95.3253 24.854 91.8432 29.2787 88.1435C31.3609 86.4025 32.9225 86.1849 33.4431 87.7083C33.9637 88.7964 35.5253 89.4493 36.8267 88.7964Z" fill="black"/>
<path d="M222.624 89.6896C222.624 94.1079 229.623 99.8517 238.371 102.503C243.37 104.049 247.62 104.491 247.62 103.386C247.62 102.282 244.12 100.735 239.621 99.8517C232.872 98.7472 232.372 98.3053 236.372 96.7589C241.121 95.2125 241.121 94.9916 236.622 94.9916C233.872 94.7707 229.623 93.2243 227.124 91.0151C224.624 89.0268 222.624 88.3641 222.624 89.6896Z" fill="black"/>

        
<g id="Frame 11">
<path id="Vector" d="M115.074 90.7387C114.767 98.7026 102.515 100.847 102.515 93.1891C102.515 90.7387 101.29 88.5946 99.7585 88.5946C98.227 88.5946 97.6144 91.3513 98.5333 94.7207C100.371 101.153 93.9387 103.297 88.4253 97.7837C86.5874 95.9459 85.3622 99.9278 85.0559 108.198C84.7496 120.45 85.3622 121.675 95.7766 126.576C101.903 129.639 116.605 132.702 128.551 133.621C146.623 134.847 151.524 133.928 160.101 128.72C170.515 121.982 172.659 113.099 165.614 107.279C163.164 105.135 161.938 100.847 162.857 96.8648C164.389 90.4324 164.389 90.4324 160.101 95.9459C155.506 101.459 146.623 100.234 149.993 94.4144C151.218 92.8828 150.299 91.6576 148.767 91.6576C146.929 91.6576 145.398 92.8828 145.398 94.7207C145.398 99.9278 136.821 98.09 135.29 92.2702C134.065 87.3693 133.758 87.3693 133.452 92.2702C132.839 100.847 118.443 99.6215 116.912 90.7387L115.686 84L115.074 90.7387ZM108.948 108.198C105.885 111.567 105.885 114.324 108.641 119.225C113.542 128.414 111.092 129.639 98.227 123.513C82.6055 115.856 84.4433 106.054 102.515 103.297C112.317 101.766 113.542 102.685 108.948 108.198ZM138.353 114.63C137.74 122.594 135.903 129.639 134.984 130.558C131.002 134.847 116.299 126.576 113.542 118.612C109.56 107.585 115.686 100.847 129.47 100.847H140.191L138.353 114.63ZM157.038 106.973C162.245 110.342 166.839 114.324 166.839 116.162C166.839 119.531 155.812 126.883 146.011 129.946C139.884 131.784 139.578 131.171 142.029 124.739C143.254 120.757 143.866 114.018 143.254 109.117C142.029 99.3152 143.866 99.0089 157.038 106.973Z" fill="black"/>
<path id="Vector_2" d="M122.119 111.261C120.281 119.225 122.425 125.351 127.326 125.351C131.002 125.351 131.002 107.892 127.02 105.441C125.488 104.522 123.344 106.973 122.119 111.261Z" fill="black"/>
</g>

        
<style type="text/css">
	.st0{fill:none;stroke:#000000;stroke-width:3;stroke-miterlimit:10;}
</style>
<g id="Frame_25">
	<path d="M115.2,165.7c0.3-0.2,0.7-0.4,1.1-0.6l8-14.8c4.9-8.9,7.9-16.3,6.7-16.3c-1.2,0-6.2,7.7-11.1,17.3
		c-4.8,9.2-7.2,14.9-6.7,16.7C113.4,167.1,114.1,166.3,115.2,165.7z"/>
</g>
<path class="st0" d="M117.4,162.3c-2.4,1.7-3.9,4.6-3.7,7.6c4.1,2.5,7.9,5.5,11.3,8.9c2.2,2.2,4.7,4.7,7.7,4.3
	c1.9-0.3,3.4-1.7,4.9-2.8c2.5-1.9,5.3-3.2,8.3-4c1.6-0.4,3.2-0.6,4.6-1.5s2.5-2.4,2.2-4"/>
<path class="st0" d="M117.2,170.4c1.2-0.4,2.4,0.6,3.2,1.6c1.4,1.4,2.7,2.9,3.4,4.8"/>
<path class="st0" d="M140.7,177.2c1.2-1.1,2.6-2.1,4.2-2.7c1.5-0.6,3.4-0.9,4.6,0.3c0.1,0.1,0.3,0.3,0.5,0.2s-0.2-0.4-0.1-0.2"/>
<path class="st0" d="M129.7,135.7c-6.2,10.3-12.6,20.9-15.3,32.6"/>

        
<g id="Frame 26">
<g id="Group 39">
<path id="Vector" d="M170.785 182.425C170.785 183.515 172.311 185.26 174.274 185.914C176.455 186.786 177.327 186.132 176.891 184.605C175.801 181.334 170.785 179.59 170.785 182.425Z" fill="black"/>
<path id="Vector_2" d="M90.0972 187.004C88.7887 189.621 88.5706 191.584 89.8791 191.584C92.0598 191.584 95.1129 185.042 93.5864 183.515C93.1502 182.861 91.6237 184.605 90.0972 187.004Z" fill="black"/>
<path id="Vector_3" d="M163.589 189.621C164.461 192.456 165.551 193.328 166.86 192.02C169.259 189.621 167.514 185.042 164.243 185.042C163.371 185.042 162.934 187.004 163.589 189.621Z" fill="black"/>
<path id="Vector_4" d="M97.2936 190.493C95.3309 195.727 97.5117 196.382 100.565 191.584C102.309 188.749 102.309 187.222 101.001 187.222C99.6924 187.222 98.1659 188.749 97.2936 190.493Z" fill="black"/>
<path id="Vector_5" d="M105.362 191.148C101.219 192.674 107.325 199.871 114.958 202.488C126.952 206.413 152.903 201.179 159.227 193.328C161.19 190.93 156.61 190.493 134.584 190.493C119.755 190.493 106.671 190.711 105.362 191.148ZM142.435 194.637C156.61 192.238 157.264 195.073 143.307 198.344C131.749 200.961 116.92 200.743 111.687 198.126C104.054 193.983 107.325 192.238 118.447 194.637C125.643 196.163 133.494 196.163 142.435 194.637Z" fill="black"/>
</g>
</g>

        
<g id="Frame 33">
<g id="Group 43">
<path id="Vector" d="M42.6958 145.951C40.7973 149.587 43.1177 179.282 45.6491 181.1C46.7038 181.858 47.5476 184.282 47.5476 186.554C47.5476 188.827 48.3914 191.099 49.4461 191.554C50.2899 192.008 52.3994 195.493 53.876 199.28C57.0402 207.613 60.2044 209.431 60.2044 203.068C60.2044 200.493 59.3607 198.674 58.3059 199.129C54.2979 200.947 49.0242 180.191 52.3994 176.252C53.2432 175.343 52.6103 170.04 50.9228 164.283C49.4461 158.526 48.3914 152.617 48.8133 151.102C49.0242 149.739 48.3914 148.527 47.5476 148.527C46.4929 148.527 45.4381 147.315 45.0163 145.8C44.3834 143.376 44.1725 143.376 42.6958 145.951ZM46.9148 165.495C46.4929 167.465 46.071 166.253 46.071 162.92C45.86 159.586 46.2819 158.071 46.9148 159.435C47.3367 160.95 47.3367 163.677 46.9148 165.495Z" fill="black"/>
<path id="Vector_2" d="M206.391 147.769C210.188 154.738 212.508 164.131 211.243 168.222C210.399 171.404 210.821 172.616 212.719 172.313C214.196 172.161 215.04 173.373 214.618 175.797C214.196 177.918 213.774 183.675 213.985 188.675C213.985 198.826 210.61 196.402 209.766 185.645L209.344 179.585L208.079 184.584C207.446 187.311 205.969 189.281 204.703 189.13C203.649 188.827 202.383 190.19 201.961 192.16C201.539 193.978 200.274 195.19 199.219 194.735C198.164 194.129 197.32 198.068 197.531 204.128C197.742 215.037 200.695 233.672 201.328 227.309C201.328 225.187 203.438 222.309 205.758 220.794C208.5 219.127 209.977 216.249 210.188 212.613C210.399 209.431 211.243 204.734 212.297 202.31C213.774 198.674 213.774 199.28 213.141 205.34C212.087 214.431 215.04 210.34 217.36 199.28C218.204 195.038 219.47 192.614 219.892 193.675C220.524 194.584 221.579 195.19 222.423 194.887C224.321 193.978 221.157 173.222 218.415 168.525C217.149 166.555 216.305 162.768 216.305 159.889C216.305 152.92 214.196 149.133 211.876 151.86C210.61 153.223 209.977 152.92 209.977 150.496C209.977 148.678 208.922 146.708 207.446 146.102C205.758 145.345 205.547 145.799 206.391 147.769ZM218.204 185.19C217.993 190.493 217.782 190.948 216.516 187.918C215.04 184.433 215.673 178.827 217.571 178.827C217.993 178.827 218.415 181.706 218.204 185.19ZM209.344 197.917C208.5 202.159 208.5 202.159 208.079 197.311C207.868 193.978 207.024 192.614 205.336 193.372C203.86 194.129 203.649 193.826 204.703 192.614C207.235 189.584 210.399 193.069 209.344 197.917ZM205.125 200.341C204.492 201.401 204.071 200.644 204.071 198.523C204.071 196.402 204.492 195.644 205.125 196.553C205.547 197.614 205.547 199.432 205.125 200.341ZM205.125 205.795C208.289 208.219 208.711 211.552 205.758 212.916C204.703 213.37 203.649 215.34 203.649 217.158C203.649 219.733 203.227 220.036 201.75 218.37C200.695 217.309 200.695 214.431 201.539 212.158C202.383 209.886 202.383 207.007 201.328 205.946C200.274 204.734 199.641 202.765 199.641 201.553C199.852 199.583 199.852 199.583 200.906 201.553C201.75 202.765 203.438 204.734 205.125 205.795Z" fill="black"/>
<path id="Vector_3" d="M55.5637 175.343C54.9309 185.645 56.1966 191.251 60.4155 196.705C62.525 199.735 64.4235 203.977 64.6345 206.098C64.6345 208.219 65.4783 211.249 66.533 212.916C68.0097 215.491 68.4315 215.34 68.4315 211.401C68.8534 205.189 72.2286 209.28 74.1271 217.764C74.76 221.4 76.2366 224.279 77.2914 224.279C79.6118 224.279 79.6118 224.582 77.2914 218.521C76.0257 215.491 76.0257 213.976 77.2914 214.431C78.3461 215.037 79.1899 213.825 79.1899 212.158C79.1899 209.886 78.1351 209.128 76.0257 209.583C73.9162 210.34 72.6505 208.977 71.8067 204.886C71.1739 201.856 70.1191 197.765 69.4863 195.796C69.0644 193.978 69.4863 192.463 70.752 192.463C71.8067 192.463 72.8614 190.039 72.8614 187.009C72.8614 184.13 72.0177 182.009 70.9629 182.615C69.6972 183.069 67.7987 182.16 66.533 180.797C64.6345 178.676 64.4235 179.888 65.2673 186.403C65.6892 190.948 66.9549 196.099 67.7987 197.614C68.8534 199.432 68.6425 200.189 67.1659 199.583C65.9002 198.977 64.4235 196.553 63.5797 193.978C62.9469 191.251 61.4703 189.584 60.2046 190.19C59.1498 190.645 58.0951 189.736 58.0951 187.918C58.0951 185.797 58.9389 185.039 60.8374 185.797C62.525 186.706 62.525 186.251 60.4155 184.433C58.7279 182.918 57.8842 179.433 58.517 175.797C58.9389 172.464 58.517 169.737 57.6732 169.737C56.6185 169.737 55.7747 172.313 55.5637 175.343ZM70.1191 189.736C69.4863 190.796 69.0644 190.039 69.0644 187.918C69.0644 185.797 69.4863 185.039 70.1191 185.948C70.541 187.009 70.541 188.827 70.1191 189.736Z" fill="black"/>
<path id="Vector_4" d="M60.4154 179.736C60.4154 181.403 61.0482 181.857 61.6811 180.645C62.3139 179.585 62.103 178.221 61.4701 177.767C60.8373 177.161 60.2045 178.07 60.4154 179.736Z" fill="black"/>
<path id="Vector_5" d="M73.9161 196.25C73.2832 200.19 73.0723 203.674 73.4942 203.977C74.127 204.432 75.1817 201.553 76.0255 197.765C76.6584 193.826 76.8693 190.342 76.4474 190.039C75.8146 189.584 74.7598 192.463 73.9161 196.25Z" fill="black"/>
<path id="Vector_6" d="M79.8225 197.614C80.6662 202.159 80.4553 204.432 79.1896 203.826C77.9239 203.371 77.0801 203.826 77.0801 205.189C77.0801 206.401 77.9239 207.613 78.9787 207.916C80.0334 208.068 81.51 210.795 82.1429 213.673C83.4086 217.764 83.1976 218.37 81.2991 216.703C79.6115 214.885 79.4006 215.491 80.4553 218.976C81.2991 221.4 82.7757 224.885 83.8304 226.551C85.518 229.278 85.518 229.278 84.6742 226.097C84.0414 223.976 84.8852 222.764 86.5728 222.764C88.8932 222.764 88.8932 223.824 87.4166 227.612C84.6742 234.732 85.3071 238.065 88.4713 232.005L91.0027 226.854L95.6435 232.46C98.1749 235.49 100.284 238.671 100.284 239.58C100.284 240.338 101.339 240.944 102.394 240.944C103.659 240.944 104.503 240.338 104.503 239.58C104.503 238.671 103.659 237.611 102.394 237.156C101.339 236.702 100.284 235.49 100.284 234.732C100.284 233.823 101.339 233.672 102.605 234.278C104.081 234.884 104.503 234.278 103.659 232.157C101.55 227.46 99.6515 217.915 99.6515 212.31C99.6515 207.916 99.2296 207.613 96.9092 209.886C94.5888 212.158 94.1669 211.704 93.3231 206.704L92.4793 200.795L92.2683 206.553C92.0574 209.734 93.1121 213.825 94.7997 215.643C98.5968 220.036 101.339 230.945 98.3858 229.581C97.1201 229.127 96.0654 226.4 95.8544 223.824C95.8544 220.036 95.4325 219.582 94.1669 221.854C92.9012 224.127 92.2683 224.279 91.4245 222.612C90.7917 221.4 90.1589 219.885 90.1589 219.279C89.9479 218.673 88.2603 217.006 86.3618 215.643C83.8304 213.673 83.1976 211.249 83.8304 205.038C84.4633 199.886 84.0414 197.614 82.9867 198.826C81.51 200.189 81.2991 199.432 81.9319 196.553C82.3538 194.281 81.9319 192.008 80.6662 191.402C79.1896 190.796 78.9787 192.917 79.8225 197.614Z" fill="black"/>
<path id="Vector_7" d="M190.57 197.008C188.039 201.402 186.562 215.491 188.882 214.431C190.148 213.825 190.992 215.037 190.992 217.309C190.992 219.43 190.148 221.249 188.882 221.249C187.828 221.249 186.773 223.067 186.984 225.339L187.195 229.581L188.882 225.794C190.359 222.764 190.57 223.37 190.781 229.127C190.992 233.217 190.148 236.399 188.882 236.399C187.828 236.399 186.773 237.156 186.773 238.065C186.773 238.823 187.828 239.126 189.093 238.52C190.992 237.762 191.203 238.671 190.148 241.55C189.304 243.823 189.726 245.489 190.992 245.489C192.047 245.489 193.101 242.762 193.101 239.58C193.101 236.247 194.156 233.066 195.211 232.611C196.476 232.157 197.109 228.521 197.109 224.582C196.898 219.43 196.476 218.521 195.422 221.249C194.789 223.37 193.734 218.37 193.101 209.886C192.469 201.553 191.414 195.796 190.57 197.008Z" fill="black"/>
<path id="Vector_8" d="M87.8385 200.795C87.8385 202.462 86.9947 205.492 86.3619 207.613C85.3072 210.492 85.5181 210.946 87.4166 209.734C88.8933 208.825 89.7371 205.795 89.1042 202.916C88.6823 200.038 88.0495 199.129 87.8385 200.795Z" fill="black"/>
<path id="Vector_9" d="M178.546 211.552C178.335 217.158 177.702 222.309 177.069 223.066C176.437 223.672 177.069 224.278 178.124 224.278C179.601 224.278 180.445 228.066 180.445 233.52C180.445 240.792 179.812 242.61 177.491 242.004C175.593 241.398 174.327 242.61 173.694 245.489C173.061 248.671 173.694 250.034 176.437 250.489C181.288 251.398 182.554 250.337 182.554 245.186C182.554 242.762 183.609 239.429 184.664 237.914C186.984 234.884 183.398 204.886 180.445 202.613C179.601 202.007 178.757 205.946 178.546 211.552ZM177.702 247.307C177.069 248.519 176.437 248.065 176.437 246.398C176.226 244.731 176.859 243.822 177.491 244.428C178.124 244.883 178.335 246.247 177.702 247.307Z" fill="black"/>
<path id="Vector_10" d="M167.999 212.31C166.311 215.188 165.889 217.461 167.155 218.067C170.53 219.582 167.788 239.429 164.412 239.429C162.725 239.429 161.459 240.186 161.459 241.095C161.459 241.853 162.514 242.156 163.78 241.55C165.467 240.944 165.678 241.55 164.623 243.823C163.991 245.489 164.202 248.065 165.256 249.428C166.733 251.398 167.999 250.186 170.53 244.277C174.327 236.399 174.749 227.309 172.429 214.734L170.952 207.462L167.999 212.31Z" fill="black"/>
<path id="Vector_11" d="M145.638 215.946C146.06 219.279 147.115 225.945 147.959 230.642C149.013 236.853 148.592 239.429 146.904 239.429C145.638 239.429 144.373 237.156 144.373 234.429C143.951 225.49 142.685 220.794 140.576 219.279C138.888 218.067 138.466 221.4 139.099 229.733L139.943 241.701L146.482 241.55C151.545 241.55 152.811 242.004 152.178 243.822C151.545 245.186 152.811 248.519 154.92 251.398C158.717 256.397 158.928 256.549 161.248 253.519C162.936 251.246 162.936 249.125 161.459 246.701C159.35 243.519 159.35 243.671 160.405 247.761L161.459 252.307L157.662 247.155C155.553 244.125 154.92 241.701 156.186 241.398C157.451 241.095 158.084 235.793 157.662 228.066C157.24 219.127 157.662 215.188 159.35 215.188C160.616 215.188 161.248 215.643 160.616 216.4C160.194 217.006 160.405 219.885 161.459 222.763C163.147 227.763 163.147 227.611 163.358 220.188C163.569 212.613 163.358 212.31 158.928 213.522C154.287 214.734 154.076 215.643 154.709 227.157C155.131 233.823 154.498 239.429 153.443 239.429C152.389 239.429 151.545 236.247 151.334 232.157C151.123 228.217 149.646 221.551 147.748 217.461C144.794 210.189 144.794 210.037 145.638 215.946Z" fill="black"/>
<path id="Vector_12" d="M106.613 215.34C106.613 216.097 105.769 216.552 104.714 216.097C102.605 215.188 103.027 223.824 105.347 225.339C105.98 225.794 106.613 227.612 106.613 229.127C106.613 230.642 107.878 231.854 109.355 231.854C110.832 231.854 113.152 233.672 114.629 235.944C119.691 244.58 124.754 249.883 128.129 250.489C133.614 251.549 134.247 247.61 129.606 240.035C126.02 233.823 126.02 233.217 128.973 235.035C132.348 237.005 132.559 236.702 131.083 231.854C130.239 228.975 128.973 224.279 128.34 221.552C126.442 214.128 123.91 215.794 124.754 223.824C125.598 231.248 124.754 231.248 122.645 223.824C120.957 218.824 117.16 218.37 117.16 223.067C117.16 225.339 117.793 225.945 118.848 224.582C119.902 223.521 120.746 225.945 120.746 230.339C120.746 234.429 120.113 237.914 119.059 237.914C116.316 237.914 114.418 227.763 115.894 220.794C117.793 212.764 113.996 214.885 111.043 223.521C109.566 228.218 109.144 228.672 108.722 225.794C108.511 223.673 108.511 220.188 108.722 217.764C108.933 215.491 108.511 213.673 107.878 213.673C107.246 213.673 106.613 214.431 106.613 215.34ZM129.184 247.459C128.973 248.216 126.864 247.156 124.965 244.883C122.856 242.611 121.801 240.187 122.645 239.278C124.121 237.459 130.239 245.186 129.184 247.459Z" fill="black"/>
<path id="Vector_13" d="M131.294 214.885C130.239 215.946 130.661 220.491 131.926 225.188C133.192 229.733 133.825 234.581 133.192 235.793C132.559 237.156 133.403 240.035 135.091 242.459C138.677 247.459 139.31 250.64 136.145 249.277C133.403 248.065 133.403 250.034 136.145 253.064C138.044 255.034 138.255 255.034 138.255 253.064C138.255 251.095 138.466 251.095 140.364 253.064C142.052 254.731 142.263 254.125 141.208 250.943C140.153 247.762 140.364 246.853 142.263 247.61C143.529 248.216 144.583 250.489 144.794 252.761C144.794 256.397 145.005 256.549 146.693 253.822C148.591 250.792 148.591 250.792 148.802 253.822C149.013 256.7 149.013 256.7 151.123 253.973C152.599 252.307 152.81 250.792 151.545 250.186C150.49 249.731 147.958 247.61 146.06 245.489C143.95 243.368 142.474 242.762 142.474 243.974C142.474 248.519 137.622 242.61 136.778 236.853C134.247 218.37 132.77 213.067 131.294 214.885Z" fill="black"/>
<path id="Vector_14" d="M176.647 233.369C176.647 236.247 177.069 237.459 177.702 235.944C178.124 234.581 178.124 232.157 177.702 230.642C177.069 229.278 176.647 230.49 176.647 233.369Z" fill="black"/>
<path id="Vector_15" d="M163.991 234.126C163.991 236.55 164.413 237.459 165.045 235.944C165.467 234.581 165.467 232.46 165.045 231.399C164.413 230.49 163.991 231.551 163.991 234.126Z" fill="black"/>
<path id="Vector_16" d="M104.504 236.247C104.504 237.005 105.98 238.368 107.668 239.429C109.355 240.489 110.832 242.307 110.832 243.519C110.832 244.731 111.676 245.337 112.731 244.731C113.996 244.277 115.684 245.186 116.949 246.549C118.215 248.064 119.27 248.519 119.27 247.761C119.27 245.489 108.933 234.884 106.613 234.884C105.347 234.884 104.504 235.49 104.504 236.247Z" fill="black"/>
</g>
</g>

    </svg>
