
    <svg width="256" height="256" viewBox="0 0 256 256" fill="none" xmlns="http://www.w3.org/2000/svg">
        
<g id="Frame 42">
<rect width="256" height="256" fill="#4DFF5E"/>
</g>

        
<style type="text/css">
	.st0{fill:none;stroke:#000000;stroke-width:4;stroke-miterlimit:10;}
</style>
<g id="head">
	<path d="M35,60.1c0.5,0,0.7,0.2,0.5,0.6c-0.2,0.3-0.1,0.6,0.4,0.6c0.4,0,0.5,0.6,0.4,1.5c-0.2,0.8-0.1,1.5,0.1,1.5
		c0.4,0,0.9,9.1,0.7,13c-0.4,8.8-0.4,9.5,0.5,10c0.7,0.4,0.7,0.5,0.1,0.6c-0.5,0-0.7,0.4-0.5,0.7c0.1,0.4-0.2,1.7-0.6,2.8l-0.9,2.1
		l1.6-1c1.5-1,1.6-1,1.6,0.2c0,0.8-0.3,1.1-0.8,0.9c-0.5-0.2-1-0.1-1.3,0.3c-0.2,0.4,0.1,0.7,0.7,0.7c0.8,0,0.9,0.1,0.3,0.5
		c-1.1,0.7-1,1.4,0.3,1.9c1,0.4,1,0.5-0.2,0.5c-1.3,0.1-1.5,0.7-1.4,4c0,1,0.1,2.8,0.1,4.1c0.1,1.4,0.4,2.2,0.8,2
		c0.4-0.2,0.9,0.1,1.1,0.6c0.2,0.7,0.1,0.8-0.8,0.5c-0.7-0.2-1.2-0.1-1.2,0.2s0.3,0.7,0.6,0.7c0.4,0,0.4,0.4,0,1.2
		c-0.8,1.5-0.2,1.6,1.4,0.1c1-0.8,1.1-0.8,0.5,0c-0.4,0.5-0.5,1.1-0.2,1.2c0.2,0.1,0.1,0.8-0.4,1.7c-0.8,1.4-0.8,1.4-0.5,0.1
		c0.2-0.7,0.1-1.3-0.2-1.3c-0.8,0-0.6,2.2,0.4,3c0.7,0.5,0.9,3.1,1,12.7c0.1,6.6,0,11.8-0.2,11.7c-0.6-0.4-0.5,4,0.1,5.7
		c0.4,0.8,0.6,3,0.6,4.7c0,0.1,0,0.2,0,0.4c1-0.7,2.1-1.2,3.2-1.7c-0.2-1.6-0.5-3.4-0.8-4.7c-0.3-1.9-0.6-12.4-0.6-23.2
		c0-21.5-0.5-34.6-1.3-40.3c-0.6-3.7-0.3-27,0.3-28c0.2-0.3,0.1-0.7-0.2-0.9c-0.3-0.2-0.4-1.9-0.2-3.7c0.4-3.3,0.3-3.3-1.2-3.3
		c-0.8,0-1.7,0.2-1.9,0.6c-0.2,0.3,0.1,1.5,0.5,2.7c0.5,1.1,0.7,2.7,0.5,3.3c-0.2,0.7-0.1,2.1,0.3,3c0.8,2.3-0.2,3.3-3.6,3.6
		C33.6,58.3,34,60.1,35,60.1z M39.3,101.2c0.1,1-0.2,1.8-0.5,1.8c-0.4,0-0.5-0.3-0.3-0.6c0.2-0.4-0.1-0.6-0.5-0.6
		c-0.5,0-1-0.1-1-0.2c0-0.7,1.2-3.4,1.4-3.4c0.2,0,0.1,0.4-0.1,1c-0.2,0.5-0.1,0.8,0.2,0.6C39,99.6,39.3,100.2,39.3,101.2z"/>
	<path d="M207.2,67.6c0,1.5,0.2,2.8,0.5,2.8c0.5,0,0.8,4.6,1,22.3c0.3,20.3,1.5,34.1,3,33.6c0.7-0.2,0.6-1.9-0.7-10.3
		c-1.1-8.2-1.1-18.9,0-18.9c1,0,1.3,1.8,1.9,11.9c0.2,3.1,0.5,6.5,0.6,7.5c0.3,2.3,1,13,1,14.2c-0.2,4.3-0.1,6.1,0.8,7.5
		c0.6,0.8,0.8,1.6,0.4,1.6c-0.3,0-0.5,0.7-0.5,1.5c0,0.8,0.1,1.4,0.4,1.3c0.3-0.2,0.3,5.3,0.1,12.3c0,0.1,0,0.2,0,0.4
		c0.6-0.7,1.4-1.2,2.2-1.5c0.1-0.7,0.3-1,0.6-0.9c0.2,0.1,0.4,0.3,0.5,0.6c0.6-0.1,1.2,0,1.8,0.1c0-0.3,0.1-0.5,0.1-0.6
		c0.3-1.4,0.1-1.8-1.1-2.2c-1.4-0.5-1.4-0.8-1-2.8c0.3-1.3,0.4-2.5,0.3-2.7c-0.1-0.2-0.3-3-0.4-6.1c-0.1-3.1-0.3-6.2-0.6-6.7
		c-0.3-0.5-0.7-2.3-0.8-3.9c-0.4-4-2.1-19.3-2.8-25.5c-0.3-2.8-0.6-8.1-0.7-11.9c-0.1-5.4-0.3-7.2-1.2-8.9c-0.8-1.5-1.1-3.4-1.1-6
		c0-4.5-1-10.4-2.1-12.5c-1.5-2.9-2.2-6.7-1.8-10c0.4-3,0.3-3.3-0.8-3.3c-0.7,0-1.4,0.2-1.6,0.6c-0.2,0.3-0.2,1.6,0.1,2.7
		c0.2,1.4,0.1,2.5-0.4,3c-0.6,0.7-0.6,1.3-0.2,2.3C206.8,63.4,207.2,65.1,207.2,67.6z M210.3,90.6c0.4-0.5,1-0.9,1.3-0.9
		c0.4,0,0.3,0.4-0.1,0.9c-0.4,0.5-1,0.9-1.3,0.9C209.8,91.5,209.8,91.1,210.3,90.6z M211.7,92.1c0.7,0,0.9,0.2,0.5,0.4
		c-0.4,0.1-0.8,0.8-0.8,1.4c0,1.4-1,2.1-1.4,0.9C209.5,93.3,210.3,92.1,211.7,92.1z"/>
</g>
<path class="st0" d="M39.8,149.4C40,146,40,144,40,141c2-9,3-18,1-27c-4-24,0-47-3-70.7"/>
<path class="st0" d="M205.3,52.1c0.3-0.7,0.6-1.3,0.9-2c-1.3,7,0.5,14.1,1.7,21C211,92,211,114,212,136c1,4,3,8,4,13
	c0,2,0,5,0.2,7.1"/>
<path class="st0" d="M38.7,146.7c-0.3,4.6,0.2,9.2,0.7,13.8c1.4,14.2,2.9,28.4,4.3,42.5c0.7,6.8,1.4,13.8,5,19.6
	c3.6,5.9,9.9,9.9,16.4,12.1c6.6,2.2,13.6,2.9,20.5,3.4c17.2,1.4,34.5,2.5,51.8,2.5c18,0,36.5-1.3,53.1-8.5c8-3.4,15.5-8.4,20.5-15.5
	c7.6-10.9,8.2-25.1,8.4-38.4c0.2-10.2,0.4-20.4,0.6-30.6"/>

        
<path d="M135.122 4.5C135.122 5.37338 139.405 6.47159 143.688 8C143.688 8 164.032 21.0289 151.183 30.8544C142.349 37.6231 140.475 35.4397 145.829 25.3958C147.971 20.8106 149.309 16.662 148.774 16.2253C146.097 14.0419 125.753 26.9242 124.146 31.9462C122.54 37.6231 119.328 38.9332 116.383 35.2213C115.58 34.1296 111.297 31.0728 106.747 28.4526L98.7159 23.8674L100.322 29.1077C102.464 35.658 97.6452 46.1386 92.5591 46.1386C90.4176 46.1386 86.6699 44.3918 84.2607 42.4267C78.6392 38.0598 80.2454 25.8325 87.2053 19.7188C93.0945 14.4785 88.0084 14.2602 78.1039 19.2821C65.7902 25.3958 56.1534 33.6929 56.1534 37.8415C56.1534 41.5533 55.618 41.5533 48.3904 37.1864C42.2335 33.4746 38.7536 33.0379 28.3137 34.1296C21.6215 35.003 16 36.7497 16 37.8415C16 39.1515 21.3538 39.3699 29.6521 38.4965C42.2335 36.9681 43.8397 37.4048 51.0673 43.0817L58.8303 49.1954V43.3001C58.8303 40.0249 62.3102 34.3479 67.1286 29.7627C75.9624 21.6839 82.1192 19.5005 78.9069 25.8325C74.3562 34.7846 74.8916 36.9681 81.5838 43.5184C86.6699 48.5404 88.0084 51.3789 86.1345 53.999C84.7961 55.9641 82.9223 57.2742 82.1192 57.2742C75.1593 56.4008 71.947 57.9292 67.664 63.6062C63.381 69.5015 62.5779 69.9382 59.6333 66.663C58.0272 64.6979 57.2241 61.8594 58.0272 60.1127C58.8303 58.3659 58.2949 57.0558 56.9564 57.0558C53.7442 57.0558 48.1227 66.8814 48.1227 72.34C48.1227 75.1785 46.7842 76.2702 43.8397 75.1785C41.6982 74.5234 40.3597 72.7767 40.8951 71.2482C41.6982 69.9382 39.8243 67.5364 37.1474 66.2263C32.8644 63.8245 32.0613 64.2612 32.0613 68.1914C32.0613 70.5932 33.3998 71.9033 34.7382 71.2482C36.3444 70.5932 37.4151 71.4666 37.4151 73.2134C37.4151 79.7637 32.329 78.8903 29.9198 71.9033C28.3137 67.9731 26.4399 63.1695 25.6368 61.2044C24.0307 58.3659 25.1014 57.9292 30.7229 58.5842C34.4705 59.2393 38.2182 60.5493 39.0213 61.6411C42.7689 66.663 44.6427 62.7328 42.2335 54.4357C39.5566 44.6102 35.809 39.5882 31.2583 39.5882C29.9198 39.5882 30.7229 41.5533 33.3998 43.9551C36.0767 46.3569 37.1474 48.322 36.0767 48.322C34.7382 48.322 35.0059 49.4138 36.8797 50.9422C41.9658 55.0907 40.6274 57.2742 33.6675 55.7458C29.9198 55.0907 24.5661 55.0907 21.6215 55.9641L16 57.2742L21.6215 63.6062C25.9045 68.1914 26.9753 72.1216 26.4399 79.7637C25.3691 90.0259 27.7783 93.0828 30.7229 85.4407C31.526 83.0389 34.7382 79.9821 37.4151 78.8903C41.6982 76.9252 43.3043 77.7986 46.5166 82.6022C50.5319 88.7158 50.5319 88.7158 50.7996 77.1436C50.7996 64.4796 53.7442 62.5145 58.8303 72.34C62.8456 80.2004 66.8609 80.8554 66.8609 73.65C66.8609 70.8116 69.2701 66.2263 72.2147 63.3878L77.8362 58.1475L75.9624 65.7896C75.1593 69.9382 70.8763 78.2353 66.3255 84.1306C62.0425 89.8076 59.0979 95.0479 59.901 95.7029C60.4364 96.3579 64.184 92.6461 68.1994 87.8425C74.8916 78.8903 85.5992 69.0648 86.6699 70.5932C86.9376 71.0299 88.8114 75.3968 90.9529 80.4187C92.8268 85.659 95.5037 89.8076 97.1098 89.8076C98.4482 89.8076 98.7159 88.2792 97.9129 86.3141C96.039 82.1655 100.857 65.7896 104.07 65.7896C105.14 65.7896 108.888 70.5932 112.368 76.7069C115.848 82.6022 119.596 87.6241 120.399 87.6241C121.469 87.6241 122.005 83.0389 121.469 77.1436L120.399 66.8814L124.949 77.1436C129.232 86.9691 133.516 90.8993 133.783 84.7856C134.051 83.4756 135.657 79.1087 138.066 75.6152L141.814 69.0648L140.475 79.327C139.94 85.2223 139.672 89.8076 140.208 89.8076C141.011 89.8076 145.026 86.7507 149.309 83.2572C157.875 76.4885 166.977 73.65 160.552 79.982C156.269 84.1306 152.521 100.506 155.198 101.817C156.269 102.472 158.678 100.07 160.552 96.5763C162.158 93.0828 165.906 88.4975 168.583 86.5324C173.401 83.0389 173.669 83.0389 175.275 88.9342C176.346 92.4277 177.417 96.1396 177.952 97.4496C178.22 98.5414 180.629 95.7029 183.306 91.1176L187.589 82.6022L192.942 89.5892C196.69 94.6112 199.635 96.3579 202.579 95.2662C205.524 94.3928 208.736 95.7029 211.948 98.9781L216.767 104V98.323C216.767 95.2662 213.822 88.0608 210.342 82.6022C206.862 76.9252 204.721 72.34 205.792 72.34C208.736 72.34 213.287 75.6151 216.499 79.982C219.176 83.6939 219.444 83.0389 218.105 75.6152C216.231 64.6979 211.413 54.8724 208.468 54.8724C207.13 54.8724 206.059 53.7806 206.059 52.6889C206.059 48.322 216.767 50.7238 221.05 55.9641C227.207 63.6062 228.813 61.4227 224.797 51.1605C220.782 41.1166 212.216 33.0379 205.524 33.0379C202.847 33.0379 200.705 32.3828 200.705 31.7278C200.705 29.5444 211.948 16.8803 216.231 14.0419C224.262 8.80158 217.302 9.01992 201.776 14.6969C193.21 17.7537 184.109 21.6839 181.7 23.4307C177.952 26.2692 176.881 25.6141 172.598 17.7537C166.977 7.27316 135.122 1.5 135.122 4.5ZM173.937 29.5444C173.937 33.4746 174.472 33.2562 181.432 28.2343C189.195 22.339 205.792 14.6969 207.665 16.2253C208.201 16.662 206.595 19.5005 203.65 22.339C195.619 30.6361 195.619 35.8764 203.115 36.313C206.595 36.5314 212.484 39.3699 215.964 42.8634C222.924 49.4137 222.656 52.0339 214.893 48.7587C211.413 47.2303 208.468 47.4486 204.721 49.8504C200.973 52.2522 200.438 53.5623 202.847 54.2173C206.327 55.3091 214.09 66.2263 214.09 69.9382C214.09 71.4666 211.681 71.4666 206.862 69.9382C198.832 67.5364 192.407 71.9033 199.367 75.1785C202.847 76.7069 211.413 87.8425 211.413 90.681C211.413 91.1176 208.201 91.336 204.453 91.1176C199.367 90.681 196.422 88.4975 194.281 84.3489L191.069 78.2353L185.447 83.9123L179.826 89.8076L178.22 84.3489C176.078 77.1436 173.133 77.3619 164.835 85.659C156.537 93.7378 155.734 91.991 163.497 81.9472L169.118 74.5234H162.694C159.214 74.5234 153.592 76.2702 150.112 78.2353L143.688 81.7288L145.294 73.65C146.632 66.8814 146.097 65.5713 142.617 66.2263C140.208 66.663 136.728 70.3749 135.122 74.5234L131.642 82.1655L128.697 76.0518C127.091 72.5583 125.753 67.318 125.753 64.4796C125.753 56.6191 120.934 60.1127 118.793 69.5015L116.919 77.3619L111.833 69.2831C106.211 60.1127 107.55 56.1824 115.848 58.3659C120.934 59.676 121.202 59.4576 117.99 56.1824C116.116 54.2173 113.439 52.6889 112.636 52.6889C109.156 52.6889 96.3067 70.3749 96.3067 75.1785C96.3067 79.1087 95.7713 79.327 93.6298 76.7069C92.2914 74.9601 90.9529 70.8116 90.9529 67.318C90.9529 64.0429 89.8822 61.4227 88.2761 61.4227C86.9376 61.4227 85.5992 62.7328 85.5992 64.4796C85.5992 66.008 83.7253 68.8465 81.3161 70.3749C77.3008 72.995 77.0331 72.7767 78.9069 67.9731C82.6546 58.1476 93.6298 48.5404 93.6298 54.8724C93.6298 55.9641 94.9683 57.0558 96.5744 57.0558C98.7159 57.0558 98.4482 55.9641 96.3067 53.7807C93.3621 50.9422 93.8975 49.6321 98.4482 45.4835C101.393 42.8634 104.337 38.4965 104.873 35.658C105.676 30.8544 105.676 30.8544 115.045 37.4048L124.414 43.9551L126.288 36.9681C127.894 30.6361 140.743 18.4088 143.42 20.5922C143.955 21.0289 142.885 24.5224 141.278 28.2343C138.869 33.4746 138.869 35.8764 141.011 37.6231C146.365 41.99 159.034 29.7627 159.034 20.5922L149.904 8L168.583 17.7537C171.527 21.9023 173.669 27.3609 173.937 29.5444Z" fill="black"/>
<path d="M179.825 35.221C169.386 43.0814 163.229 43.7364 163.229 36.9677C163.229 32.6008 162.426 32.8192 155.733 39.5879L147.97 47.0116L139.672 41.9897L131.106 37.1861L132.712 43.7364C134.051 49.1951 133.515 50.5051 129.768 50.5051C125.217 50.5051 125.217 50.7235 129.232 54.4353C131.909 56.6188 133.783 59.6756 133.783 61.204C133.783 62.7325 134.854 63.3875 136.46 62.5141C137.798 61.8591 138.334 59.894 137.263 58.1472C135.389 53.562 141.01 53.9987 144.223 58.5839C146.632 62.0774 147.167 62.0774 152.789 58.1472C158.678 53.7803 158.678 53.7803 156.804 58.1472C151.718 68.6278 156.001 71.4663 169.118 67.0994C172.598 65.7893 173.133 66.4443 172.062 69.9378C170.456 75.3965 172.865 75.8332 178.755 70.8112C183.038 67.3177 183.305 67.536 184.108 71.9029C184.644 74.5231 186.785 76.7065 189.194 76.7065C192.674 76.7065 192.674 76.0515 189.998 73.4314C188.124 71.6846 187.321 68.6278 188.391 66.881C189.998 62.9508 188.927 62.7325 181.967 65.7893C177.684 67.7544 177.148 67.536 178.487 64.4792C179.825 61.6407 179.022 61.204 173.669 62.5141C170.189 63.3875 166.173 64.9159 164.567 66.0076C160.552 69.0645 157.875 68.1911 157.875 63.8242C157.875 61.6407 159.749 58.5839 161.89 57.0555C168.582 52.6886 162.158 49.1951 155.198 53.3436C147.703 57.7105 136.46 54.217 136.46 47.6667C136.46 43.5181 136.727 43.5181 141.546 47.0116C146.097 50.2868 146.9 50.2868 152.789 46.3566C156.804 43.7364 160.552 42.8631 163.229 43.9548C168.315 46.1382 179.022 42.8631 180.896 38.4962C183.038 34.3476 187.321 34.1293 187.321 38.4962C187.321 40.2429 188.391 41.7713 189.462 41.7713C190.801 41.7713 191.336 38.7145 190.533 35.221C189.998 31.5091 189.194 28.6706 188.927 28.6706C188.927 28.6706 184.644 31.7275 179.825 35.221Z" fill="black"/>
<path d="M199.635 43.0813C196.423 49.85 200.438 50.505 205.524 43.9547C208.201 40.4612 208.201 39.5878 204.989 39.5878C202.847 39.5878 200.438 41.1162 199.635 43.0813Z" fill="black"/>
<path d="M105.943 47.4482C104.873 49.4133 104.873 51.5967 105.676 52.2518C106.479 52.9068 107.014 52.2518 107.014 50.7233C107.014 49.1949 109.423 48.7582 114.509 49.6316C121.469 50.9417 121.469 50.9417 116.383 47.6665C109.423 43.0813 108.085 43.0813 105.943 47.4482Z" fill="black"/>
<path d="M173.133 50.0685C167.512 55.0904 166.977 58.5839 172.598 54.872C175.81 52.6886 176.881 52.9069 178.22 55.7454C180.093 59.4573 187.321 60.549 187.321 57.0555C187.321 55.7454 188.659 54.872 189.998 54.872C191.604 54.872 192.675 56.8372 192.675 59.4573C192.675 61.8591 193.746 63.3875 195.084 62.5141C196.422 61.8591 199.367 62.9508 201.509 64.6976C206.327 68.6278 208.736 68.8461 208.736 65.7893C208.736 64.4792 205.792 62.5141 202.312 61.4224C198.296 60.3307 195.084 57.0555 194.013 52.9069C192.139 45.4832 187.321 43.7365 187.321 50.2868C187.321 57.0555 182.77 57.7105 180.093 51.3785C177.952 45.9199 177.684 45.9199 173.133 50.0685Z" fill="black"/>
<path d="M65.7902 45.2647C64.7194 48.5399 64.4517 51.5967 65.5225 52.2518C66.3255 52.9068 66.8609 52.2518 66.8609 50.7233C66.8609 48.7582 68.1994 48.7582 72.4824 50.505C75.427 52.0334 78.6392 52.4701 79.4423 51.8151C80.2454 51.16 78.9069 50.0683 76.4977 49.1949C74.0885 48.5399 72.2147 45.9198 72.2147 43.7363C72.2147 37.6226 67.664 38.7144 65.7902 45.2647Z" fill="black"/>
<path d="M46.5166 51.5969C46.2489 54.6537 47.052 57.0555 48.3904 57.0555C49.7289 57.0555 50.7996 55.5271 50.7996 53.562C50.7996 51.5969 52.1381 50.9418 54.2796 51.8152C56.4211 52.9069 56.4211 52.2519 53.7442 49.8501C48.6581 44.8282 46.7843 45.2649 46.5166 51.5969Z" fill="black"/>

        
<g id="Frame 21">
<path id="Vector" d="M75.8591 97.6206C72.5407 100.939 76.7641 104.861 83.0991 104.861C86.1157 104.861 91.2441 106.067 94.2607 107.576C109.947 116.324 119.299 119.341 118.092 116.022C115.981 109.386 79.7807 93.6989 75.8591 97.6206Z" fill="black"/>
<path id="Vector_2" d="M144.639 106.973C138.002 109.084 131.365 112.403 129.857 113.911C124.125 119.643 130.159 119.643 145.544 113.911C154.292 110.593 164.549 107.878 168.772 107.878C172.995 107.878 176.314 106.671 176.314 104.861C176.314 100.939 159.119 101.844 144.639 106.973Z" fill="black"/>
<path id="Vector_3" d="M71.0319 124.469C71.0319 130.201 71.3336 130.502 73.4452 124.469C75.5569 119.039 75.8586 119.341 77.6686 126.279C78.8752 130.502 82.7969 135.631 86.4169 137.441L93.3552 141.061L86.1152 140.156C82.1936 139.854 78.2719 141.061 77.6686 142.871C76.1602 147.094 109.947 148.301 115.98 144.077C119.299 141.664 117.187 141.362 108.439 142.569C98.1819 143.776 97.5785 143.776 104.819 141.362C132.873 132.011 124.728 120.246 90.0369 118.737C72.2386 118.134 70.7302 118.737 71.0319 124.469ZM95.7685 129.296C94.8635 132.614 95.4669 135.027 97.2769 135.027C98.7852 135.027 100.897 132.312 101.802 128.994C103.31 122.659 111.154 120.849 114.472 125.977C117.79 131.106 110.249 137.742 102.104 137.139C97.8802 136.837 93.3552 134.424 91.8469 132.011C89.4335 128.391 88.8302 128.391 88.8302 131.709C88.8302 135.027 87.9252 135.027 84.3052 132.011C77.3669 126.279 78.8752 123.262 88.5286 123.564C95.1652 123.866 96.6735 125.072 95.7685 129.296Z" fill="black"/>
<path id="Vector_4" d="M104.215 130.804C104.215 134.122 105.12 135.027 106.025 132.614C106.93 130.502 106.629 127.787 105.724 126.882C104.819 125.676 103.914 127.486 104.215 130.804Z" fill="black"/>
<path id="Vector_5" d="M136.192 125.374C132.874 128.994 132.27 132.011 134.382 135.932C136.494 139.552 136.192 141.061 133.477 141.061C130.762 141.061 131.064 142.267 134.08 145.586C137.7 148.904 142.527 149.206 156.102 147.396C165.755 146.189 175.107 143.172 177.219 141.061C180.235 138.044 179.632 137.742 174.805 139.552C171.487 141.061 163.644 142.267 157.309 142.871C151.275 143.474 144.94 144.379 143.432 145.586C141.924 146.491 139.812 145.887 138.605 144.077C137.7 142.267 139.812 141.061 143.734 140.759H150.672L144.035 138.044C140.114 136.536 137.097 133.217 137.097 130.502C137.097 124.469 140.114 124.771 144.94 131.106C148.56 135.932 148.56 135.932 147.052 129.597C145.544 123.866 146.449 122.961 155.197 122.961C164.247 122.961 164.85 123.564 163.644 132.011C162.739 136.837 162.739 141.061 163.04 141.061C163.644 141.061 167.565 139.552 171.789 137.441C187.475 130.502 178.425 119.944 156.705 119.944C145.544 119.944 139.51 121.452 136.192 125.374ZM175.409 129.899C173.599 135.631 168.47 135.329 168.47 129.296C168.47 125.977 169.979 124.167 172.694 125.072C174.805 125.977 176.012 128.089 175.409 129.899Z" fill="black"/>
<path id="Vector_6" d="M152.18 130.201C152.18 132.614 153.689 135.631 155.197 136.536C157.007 137.441 158.214 135.631 158.214 132.312C158.214 128.692 157.007 125.977 155.197 125.977C153.689 125.977 152.18 127.787 152.18 130.201Z" fill="black"/>
<path id="Vector_7" d="M182.95 132.011C182.95 136.234 183.554 137.742 184.459 135.631C185.062 133.821 185.062 130.201 184.459 128.089C183.554 126.279 182.95 127.788 182.95 132.011Z" fill="black"/>
</g>

        
<g id="Frame 23">
<path id="Vector" d="M124.61 149.378C114.126 150.426 110.719 158.289 117.534 165.889C123.562 172.703 141.907 172.703 150.294 165.889C156.322 161.172 156.322 160.648 151.867 155.668C146.887 150.164 138.238 148.068 124.61 149.378ZM148.46 158.289C152.129 164.055 150.032 165.889 137.19 167.462C128.803 168.51 125.134 167.724 120.941 164.055C115.961 159.337 115.699 159.075 120.417 155.668C126.969 150.951 144.79 152.785 148.46 158.289Z" fill="black"/>
<path id="Vector_2" d="M126.445 158.813C126.445 160.91 127.755 163.531 129.065 164.317C130.638 165.103 131.686 164.055 131.686 161.958C131.686 159.862 130.638 157.241 129.065 156.454C127.755 155.668 126.445 156.717 126.445 158.813Z" fill="black"/>
<path id="Vector_3" d="M135.879 157.503C134.831 159.337 134.569 161.434 135.355 162.22C137.714 164.579 140.335 161.172 139.024 157.503C137.976 154.62 137.452 154.62 135.879 157.503Z" fill="black"/>
</g>

        
<g id="Frame 28">
<g id="Group 39">
<path id="Vector" d="M158.304 187.996C148.161 196.872 132.438 198.393 118.237 192.054C108.601 187.743 106.825 187.489 106.065 190.786C105.557 192.814 108.093 198.393 111.644 203.212C124.577 220.202 152.218 217.413 163.123 198.14C172.506 181.403 170.477 177.092 158.304 187.996ZM160.333 198.14C158.051 201.69 155.008 203.972 153.486 203.212C152.218 202.197 153.486 198.901 156.783 195.604C163.883 187.996 165.912 189.518 160.333 198.14ZM119.505 196.872C120.266 198.14 120.012 199.408 118.491 199.408C117.223 199.408 115.194 198.14 114.433 196.872C113.672 195.35 113.926 194.336 115.447 194.336C116.715 194.336 118.744 195.35 119.505 196.872ZM148.668 197.886C148.668 198.393 146.893 199.661 144.61 200.422C142.582 201.183 141.567 200.929 142.328 199.408C143.85 196.872 148.668 195.858 148.668 197.886ZM127.366 203.465C126.098 206.762 127.366 207.269 133.96 206.508C138.524 205.748 144.357 204.48 146.893 203.212C149.936 201.944 151.204 202.451 151.204 205.24C151.204 212.848 121.534 212.087 116.715 204.226C115.701 202.197 116.969 201.944 120.773 203.212C124.577 204.48 125.845 204.226 124.83 202.197C123.816 200.676 124.323 199.408 125.845 199.408C127.62 199.408 128.127 201.183 127.366 203.465ZM138.524 201.944C138.524 203.212 136.749 204.48 134.72 204.48C132.692 204.48 130.917 203.212 130.917 201.944C130.917 200.422 132.692 199.408 134.72 199.408C136.749 199.408 138.524 200.422 138.524 201.944Z" fill="black"/>
</g>
</g>

        
    </svg>
