
    <svg width="256" height="256" viewBox="0 0 256 256" fill="none" xmlns="http://www.w3.org/2000/svg">
        
<g id="Frame 43">
<rect width="256" height="256" fill="#BB4DFF"/>
</g>

        
<style type="text/css">
	.st0{fill:none;stroke:#000000;stroke-width:4;stroke-miterlimit:10;}
</style>
<g id="head">
	<path d="M35,60.1c0.5,0,0.7,0.2,0.5,0.6c-0.2,0.3-0.1,0.6,0.4,0.6c0.4,0,0.5,0.6,0.4,1.5c-0.2,0.8-0.1,1.5,0.1,1.5
		c0.4,0,0.9,9.1,0.7,13c-0.4,8.8-0.4,9.5,0.5,10c0.7,0.4,0.7,0.5,0.1,0.6c-0.5,0-0.7,0.4-0.5,0.7c0.1,0.4-0.2,1.7-0.6,2.8l-0.9,2.1
		l1.6-1c1.5-1,1.6-1,1.6,0.2c0,0.8-0.3,1.1-0.8,0.9c-0.5-0.2-1-0.1-1.3,0.3c-0.2,0.4,0.1,0.7,0.7,0.7c0.8,0,0.9,0.1,0.3,0.5
		c-1.1,0.7-1,1.4,0.3,1.9c1,0.4,1,0.5-0.2,0.5c-1.3,0.1-1.5,0.7-1.4,4c0,1,0.1,2.8,0.1,4.1c0.1,1.4,0.4,2.2,0.8,2
		c0.4-0.2,0.9,0.1,1.1,0.6c0.2,0.7,0.1,0.8-0.8,0.5c-0.7-0.2-1.2-0.1-1.2,0.2s0.3,0.7,0.6,0.7c0.4,0,0.4,0.4,0,1.2
		c-0.8,1.5-0.2,1.6,1.4,0.1c1-0.8,1.1-0.8,0.5,0c-0.4,0.5-0.5,1.1-0.2,1.2c0.2,0.1,0.1,0.8-0.4,1.7c-0.8,1.4-0.8,1.4-0.5,0.1
		c0.2-0.7,0.1-1.3-0.2-1.3c-0.8,0-0.6,2.2,0.4,3c0.7,0.5,0.9,3.1,1,12.7c0.1,6.6,0,11.8-0.2,11.7c-0.6-0.4-0.5,4,0.1,5.7
		c0.4,0.8,0.6,3,0.6,4.7c0.1,1.8,0.4,3.6,0.8,4c0.1,0.1,0.1,0.2,0.2,0.3c1.1-0.1,2.1-0.1,3.2-0.2c-0.2-1.1-0.5-2.3-0.6-3.3
		c-0.2-1.8-0.7-4.9-1.1-6.8c-0.3-1.9-0.6-12.4-0.6-23.2c0-21.5-0.5-34.6-1.3-40.3c-0.6-3.7-0.3-27,0.3-28c0.2-0.3,0.1-0.7-0.2-0.9
		c-0.3-0.2-0.4-1.9-0.2-3.7c0.4-3.3,0.3-3.3-1.2-3.3c-0.8,0-1.7,0.2-1.9,0.6c-0.2,0.3,0.1,1.5,0.5,2.7c0.5,1.1,0.7,2.7,0.5,3.3
		c-0.2,0.7-0.1,2.1,0.3,3c0.8,2.3-0.2,3.3-3.6,3.6C33.6,58.3,34,60.1,35,60.1z M39.3,101.2c0.1,1-0.2,1.8-0.5,1.8
		c-0.4,0-0.5-0.3-0.3-0.6c0.2-0.4-0.1-0.6-0.5-0.6c-0.5,0-1-0.1-1-0.2c0-0.7,1.2-3.4,1.4-3.4c0.2,0,0.1,0.4-0.1,1
		c-0.2,0.5-0.1,0.8,0.2,0.6C39,99.6,39.3,100.2,39.3,101.2z"/>
	<path d="M207.2,67.6c0,1.5,0.2,2.8,0.5,2.8c0.5,0,0.8,4.6,1,22.3c0.3,20.3,1.5,34.1,3,33.6c0.7-0.2,0.6-1.9-0.7-10.3
		c-1.1-8.2-1.1-18.9,0-18.9c1,0,1.3,1.8,1.9,11.9c0.2,3.1,0.5,6.5,0.6,7.5c0.3,2.3,1,13,1,14.2c-0.2,4.3-0.1,6.1,0.8,7.5
		c0.6,0.8,0.8,1.6,0.4,1.6c-0.3,0-0.5,0.7-0.5,1.5c0,0.8,0.1,1.4,0.4,1.3c0.3-0.2,0.3,5.3,0.1,12.3c0,0.1,0,0.2,0,0.4
		c0.6-0.7,1.4-1.2,2.2-1.5c0.1-0.7,0.3-1,0.6-0.9c0.2,0.1,0.4,0.3,0.5,0.6c0.6-0.1,1.2,0,1.8,0.1c0-0.3,0.1-0.5,0.1-0.6
		c0.3-1.4,0.1-1.8-1.1-2.2c-1.4-0.5-1.4-0.8-1-2.8c0.3-1.3,0.4-2.5,0.3-2.7c-0.1-0.2-0.3-3-0.4-6.1c-0.1-3.1-0.3-6.2-0.6-6.7
		c-0.3-0.5-0.7-2.3-0.8-3.9c-0.4-4-2.1-19.3-2.8-25.5c-0.3-2.8-0.6-8.1-0.7-11.9c-0.1-5.4-0.3-7.2-1.2-8.9c-0.8-1.5-1.1-3.4-1.1-6
		c0-4.5-1-10.4-2.1-12.5c-1.5-2.9-2.2-6.7-1.8-10c0.4-3,0.3-3.3-0.8-3.3c-0.7,0-1.4,0.2-1.6,0.6c-0.2,0.3-0.2,1.6,0.1,2.7
		c0.2,1.4,0.1,2.5-0.4,3c-0.6,0.7-0.6,1.3-0.2,2.3C206.8,63.4,207.2,65.1,207.2,67.6z M210.3,90.6c0.4-0.5,1-0.9,1.3-0.9
		c0.4,0,0.3,0.4-0.1,0.9c-0.4,0.5-1,0.9-1.3,0.9C209.8,91.5,209.8,91.1,210.3,90.6z M211.7,92.1c0.7,0,0.9,0.2,0.5,0.4
		c-0.4,0.1-0.8,0.8-0.8,1.4c0,1.4-1,2.1-1.4,0.9C209.5,93.3,210.3,92.1,211.7,92.1z"/>
</g>
<path class="st0" d="M205.3,52.1c0.3-0.7,0.6-1.3,0.9-2c-1.7,8.6,1.4,17.3,3,25.9c0.9,4.8,1.2,9.6,1.5,14.5
	c1.2,17.8,2.1,35.7,2.9,53.6c0.2,4,3.9,4.5,2.9,8.3c-1.3,5.1-2.7,10.4-6.1,14.5c-2.4,3-5.7,5.1-8.6,7.6
	c-13.1,10.8-20.4,27.2-32.8,38.9c-11.5,10.9-26.3,16.3-42.1,16.5c-7.6,0.1-14.8-3.8-20.6-8.6c-5.8-4.9-10.6-10.9-16.1-16.1
	c-6.9-6.6-14.8-12.1-22.5-17.8c-9.2-6.8-18.4-14.2-24.5-24.1c-1.5-2.4-3.2-5.2-3.3-8.1c-0.1-1.7,0.1-3.4-0.1-5
	c-0.3-2.5-0.3-5-0.1-7.6c0.6-6.9,2.6-13.7,2.6-20.6c0-4.8-1.1-9.6-1.8-14.3c-3.1-21.2,0.1-43-2.7-64.3"/>

        
<g id="hair">
<path id="Vector" d="M132.009 9.92403C136.468 17.9256 134.557 20.3876 125.959 18.2333C122.137 17.0023 120.863 15.4636 122.774 14.5403C124.685 13.3093 121.182 12.386 115.131 12.386C102.074 12.386 100.482 15.7713 111.946 18.5411C116.723 19.7721 119.908 22.5418 119.908 25.9271C119.589 30.5434 119.271 30.5434 114.812 25.0039C110.672 19.7721 109.717 19.4643 107.169 23.4651C104.94 26.5426 105.577 28.3891 108.443 29.0046C112.902 29.9279 111.946 41.9302 107.488 41.9302C106.214 41.9302 105.259 44.7 104.94 48.393C104.303 56.0868 97.9339 64.0883 94.1124 61.6263C92.5201 60.7031 91.2462 62.2418 91.2462 64.7038C91.2462 67.7814 93.157 68.7046 96.0231 67.7814C98.5708 66.5503 100.8 64.7038 100.8 62.8573C100.8 61.3186 102.392 61.0108 103.985 61.9341C105.895 63.1651 106.214 65.6271 105.259 67.4736C103.985 69.6279 104.303 70.2434 105.577 68.7046C107.169 67.4736 112.902 70.8589 118.634 76.0907L128.825 85.631L140.289 77.3217C151.435 69.0124 152.072 69.0124 158.123 74.2441C164.174 79.4759 164.811 79.4759 170.543 74.5519C175.32 70.5511 176.912 70.2434 178.186 73.3209C179.142 76.3984 181.052 76.7062 186.148 73.6286C191.243 70.5511 192.835 70.8589 194.428 74.2441C196.338 79.4759 207.803 80.3992 210.669 75.7829C211.625 73.9364 214.491 72.7054 216.402 72.7054C218.949 72.7054 218.631 73.6286 215.765 75.4751C212.262 77.6294 212.58 78.8604 217.357 81.6302C222.771 84.7077 222.771 85.0155 215.765 84.0922C209.714 83.7844 207.485 85.3232 205.574 91.1705C203.663 97.6333 203.345 97.941 202.708 92.7092C202.389 89.0162 201.434 88.093 200.478 90.555C199.523 92.7092 200.797 97.0178 203.345 99.7875C210.988 108.097 214.491 121.638 208.758 119.791C207.485 119.484 205.892 121.638 204.937 125.023C203.982 129.024 205.255 131.486 209.714 133.025C214.809 134.563 215.446 135.487 211.943 137.641C208.44 139.795 208.44 140.411 212.898 140.411C219.905 140.411 223.726 134.256 218.631 131.178C215.765 129.332 215.765 127.485 218.631 121.946C225.318 110.251 225.318 97.6333 218.949 94.248C215.765 92.7092 212.262 92.4015 210.988 93.3247C210.032 94.248 209.077 93.6325 209.077 91.4782C209.077 89.0162 211.306 88.4007 215.446 89.6317C224.682 92.4015 225.318 77.3217 216.402 70.5511C212.58 67.4736 212.262 65.6271 215.128 62.5496C217.038 60.0876 217.675 54.2403 216.72 48.393C215.128 41.007 215.765 38.8527 219.905 38.8527C222.771 38.8527 225 37.9294 225 36.3907C225 35.1597 218.949 34.5442 211.306 35.1597C201.752 36.0829 196.338 34.8519 193.472 31.4666C189.969 27.4659 189.969 26.5426 194.109 26.5426C196.657 26.5426 199.842 28.3891 200.478 30.2356C201.752 33.3132 202.389 33.3132 202.389 30.5434C202.708 24.6961 180.734 15.7713 176.275 20.0798C174.365 21.9263 170.543 23.4651 167.995 23.4651C164.174 23.4651 164.174 22.5418 167.04 19.7721C172.454 14.5403 171.817 5 166.403 5C163.855 5 159.397 7.15426 156.849 9.92403C151.435 14.8481 141.563 13.617 132.965 6.84651C129.143 4.07674 129.143 4.3845 132.009 9.92403ZM166.722 15.1558C164.811 20.0798 148.569 24.0806 148.569 20.0798C148.569 18.5411 150.162 17.3101 152.072 17.3101C153.983 17.3101 157.486 15.1558 160.352 12.6938C165.766 7.15426 169.269 8.69302 166.722 15.1558ZM149.525 27.4659C159.715 33.9287 168.314 34.5442 159.397 28.0814C153.346 23.4651 156.849 21.9263 165.766 25.3116C173.409 28.0814 171.817 35.1597 163.855 36.3907C159.078 37.0062 156.531 39.4682 156.531 43.469C156.531 50.855 146.977 53.317 139.971 47.4697C135.512 43.7767 135.831 43.1612 143.792 41.9302C148.888 41.007 153.346 38.5449 154.302 36.0829C155.257 33.6209 154.302 32.6977 152.391 33.9287C150.48 35.1597 147.295 33.0054 145.385 29.6201C142.518 24.6961 140.608 24.0806 135.831 26.5426C127.551 30.8511 123.092 30.5434 123.092 25.3116C123.092 19.4643 138.697 20.6953 149.525 27.4659ZM186.785 23.1574C186.785 25.0039 183.918 25.9271 180.734 25.6194C177.231 25.6194 175.32 24.0806 175.957 22.8496C178.186 19.4643 186.785 19.7721 186.785 23.1574ZM145.385 34.2364C148.569 37.9294 148.569 38.8527 144.429 38.8527C141.882 38.8527 138.06 36.6984 135.831 34.2364C132.646 30.5434 132.646 29.6201 136.786 29.6201C139.334 29.6201 143.155 31.7744 145.385 34.2364ZM180.415 34.2364C180.415 36.6984 178.823 38.8527 176.912 38.8527C175.32 38.8527 174.683 40.3914 175.638 41.9302C176.912 43.7767 179.142 44.3922 180.734 43.1612C184.874 40.6992 192.835 51.1628 190.925 56.3945C189.651 59.1643 187.74 59.4721 183.6 57.3178C179.46 55.1635 177.231 55.4713 175.957 59.1643C175.002 61.6263 172.772 62.8573 170.862 61.9341C166.085 59.1643 176.275 50.2395 182.008 52.3938C184.874 53.317 185.829 52.3938 184.874 49.9318C183.918 47.4697 179.46 46.2387 174.046 46.8542C168.951 47.4697 163.855 46.2387 162.582 44.3922C160.989 41.9302 161.945 41.6225 165.448 42.8535C169.269 44.3922 171.498 42.5457 172.772 37.3139C175.002 29.0046 180.415 26.8504 180.415 34.2364ZM191.88 37.9294C189.651 40.0837 183.6 35.7752 183.6 32.0822C183.6 30.2356 185.511 30.2356 188.377 32.6977C191.243 34.8519 192.517 37.3139 191.88 37.9294ZM129.78 41.3147C127.551 41.9302 124.366 40.6992 122.774 38.5449C120.545 35.1597 119.908 35.4674 119.908 39.4682C119.908 42.5457 118.634 45.0077 116.723 45.0077C112.902 45.0077 113.857 38.2372 117.997 35.1597C119.908 33.9287 124.048 34.5442 127.551 36.3907C132.328 38.8527 132.965 40.3914 129.78 41.3147ZM207.166 45.6232C204.3 55.1635 204.3 55.1635 196.657 50.5473C187.422 45.0077 188.377 40.6992 197.931 43.1612C202.389 44.3922 205.892 43.7767 205.892 41.9302C205.892 40.3914 206.848 38.8527 207.803 38.8527C208.758 38.8527 208.44 41.9302 207.166 45.6232ZM143.792 53.317C150.798 57.6255 155.575 60.3953 154.302 58.8566C150.798 55.1635 159.078 49.0085 165.129 50.5473C169.906 51.4705 170.225 52.7015 167.358 56.3945C164.492 59.4721 162.9 59.7798 160.989 57.01C159.715 54.548 158.123 55.779 156.531 60.0876C154.302 67.7814 150.798 68.3969 145.385 62.2418C139.652 55.4713 131.691 59.7798 133.92 68.3969C135.194 72.3976 135.194 75.7829 134.557 75.7829C133.92 75.7829 130.417 76.7062 127.232 77.6294C122.137 79.4759 122.137 79.1682 127.869 74.8596C131.372 72.0899 132.646 69.6279 130.735 69.6279C128.506 69.6279 126.277 67.1659 125.322 64.0883C124.048 58.2411 110.354 52.3938 110.354 57.6255C110.354 59.1643 113.22 60.3953 116.723 60.3953C120.863 60.3953 123.092 62.5496 123.092 66.5503C123.092 70.5511 121.5 72.0899 118.315 70.5511C115.449 69.6279 114.175 68.0891 114.812 67.1659C115.768 66.2426 114.494 64.0883 111.628 62.2418C108.762 60.0876 107.806 56.7023 108.762 53.6248C110.672 49.0085 111.628 48.7007 117.997 52.7015C125.322 57.3178 139.015 57.6255 139.015 53.317C139.015 51.7783 136.786 51.1628 134.239 52.3938C131.691 53.317 129.462 52.7015 129.462 51.4705C129.462 49.9318 126.277 49.3163 122.455 50.5473C117.997 51.4705 116.405 51.1628 117.997 48.7007C121.5 42.8535 130.099 44.3922 143.792 53.317ZM214.172 58.8566C211.625 65.9348 206.211 61.6263 208.122 53.9325C209.395 49.9318 210.988 48.7007 213.217 50.855C214.809 52.3938 215.446 56.0868 214.172 58.8566ZM202.708 60.3953C202.708 61.9341 200.478 62.5496 197.612 61.3186C193.154 59.7798 192.835 60.3953 196.02 65.9348C197.931 69.3201 201.115 73.0131 203.345 73.6286C205.892 74.8596 205.574 75.4751 202.389 75.4751C199.523 75.7829 196.02 73.6286 195.065 71.1666C193.791 67.4736 191.88 67.1659 187.103 69.3201C182.645 71.7821 180.097 71.4744 177.549 68.3969C172.454 62.5496 178.823 58.5488 184.874 63.1651C188.058 65.9348 189.651 65.6271 191.243 61.9341C193.154 57.01 202.708 55.4713 202.708 60.3953ZM145.385 68.3969C145.385 72.7054 144.429 72.7054 140.608 69.6279C138.06 67.4736 135.831 65.3193 135.831 64.7038C135.831 64.0883 138.06 63.4728 140.608 63.4728C143.155 63.4728 145.385 65.6271 145.385 68.3969ZM170.862 65.6271C170.862 67.1659 169.269 70.2434 167.677 72.7054C164.811 76.7062 164.174 76.7062 161.626 72.7054C159.397 69.6279 159.715 67.4736 162.263 65.9348C167.04 62.8573 170.862 62.8573 170.862 65.6271ZM219.586 102.25C218.631 106.866 213.217 106.866 211.306 102.25C210.032 99.4798 211.306 98.2488 214.809 98.5565C217.675 99.172 219.905 100.711 219.586 102.25Z" fill="black"/>
<path id="Vector_2" d="M81.3739 14.8481C81.3739 15.4636 80.4185 19.1566 79.7816 23.4651C79.1447 27.4659 76.9154 31.7744 75.3231 32.6977C73.7308 33.6209 71.1831 37.9294 69.5908 41.9302L66.4062 49.624L64.177 41.007C62.9031 36.3907 60.6739 32.6977 58.7631 32.6977C57.1708 32.6977 56.8524 34.2364 58.1262 36.0829C59.4 38.5449 58.4447 38.5449 54.3047 36.3907C50.8016 34.8519 46.3431 34.2364 44.4324 34.8519C42.2031 35.7752 40.2923 34.8519 40.2923 33.3132C40.2923 31.4666 43.477 29.3124 47.617 28.6969C52.3939 27.4659 51.4385 27.1581 45.0693 27.4659C39.337 27.7736 35.8339 29.6201 36.4708 31.7744C36.7893 33.9287 35.5154 35.7752 33.6047 35.7752C31.6939 35.7752 30.7385 41.6225 31.3754 50.2395C32.3308 63.7806 32.9677 65.0116 40.2923 65.0116C45.7062 65.0116 48.5724 63.1651 49.5277 58.8566C50.1647 55.4713 52.0754 51.7783 54.3047 50.5473C56.8524 48.7007 56.5339 48.0852 53.6677 48.0852C51.4385 48.0852 50.1647 46.8542 51.4385 45.0077C52.3939 43.469 55.26 42.8535 57.4893 43.7767C62.2662 45.6232 60.6739 57.3178 55.5785 60.7031C53.6677 61.6263 55.5785 63.4728 59.0816 64.3961C64.8139 65.6271 65.4508 65.0116 63.8585 58.5488C61.6293 50.2395 67.9985 48.0852 70.8647 55.779C74.0493 63.1651 66.4062 69.0124 54.3047 69.0124C47.9354 69.0124 41.2477 70.5511 39.337 72.3976C36.7893 74.8597 38.7 74.8596 46.0247 73.0131C54.3047 70.5511 56.2154 70.8589 56.2154 74.5519C56.2154 77.6294 54.3047 78.5527 50.1647 77.3217C43.1585 75.1674 33.2862 78.5527 35.8339 82.2457C36.7893 83.7844 39.0185 84.4 40.6108 83.4767C42.2031 82.2457 43.477 83.7844 43.477 86.2465C43.477 91.786 38.3816 93.017 36.4708 87.7852C34.8785 83.4767 25.3247 87.4775 23.0954 93.3248C21.8216 96.0945 23.7323 100.711 27.2354 104.096C33.9231 109.943 38.7 111.482 35.5154 106.866C33.6047 103.788 39.6554 98.8643 42.2031 101.326C44.7508 103.788 35.8339 115.791 31.6939 115.791C29.4647 115.791 27.5539 117.022 27.5539 118.868C27.5539 120.407 29.7831 121.022 32.3308 120.099C34.8785 118.868 37.1077 119.791 37.1077 121.638C37.1077 123.792 35.197 125.946 32.6493 126.87C29.1462 128.101 28.8277 130.255 31.6939 137.641C33.6047 142.565 36.4708 146.566 37.7447 146.566C42.5216 146.566 43.7954 139.795 39.9739 135.179C36.4708 131.178 36.7893 129.947 41.5662 126.562C44.4323 124.408 46.6616 119.791 46.3431 116.714C45.7062 113.636 46.3431 109.636 47.617 107.481C48.8908 105.635 47.617 101.634 44.7508 99.172C40.2923 94.5558 40.2923 94.248 46.3431 94.248C53.3493 94.248 57.8077 89.6317 53.3493 86.862C51.757 85.631 49.5277 86.862 48.8908 88.7085C47.617 91.1705 46.98 90.8627 46.98 87.7852C46.6616 82.2457 58.4447 77.6294 60.037 82.2457C60.6739 84.0922 67.0431 83.1689 74.6862 80.7069C87.1062 76.3984 88.0616 76.3984 88.0616 81.6302C88.0616 89.324 84.5585 91.786 79.4631 87.7852C76.597 85.0155 75.3231 85.3232 75.3231 87.7852C75.3231 89.6317 78.5077 92.7092 82.6478 94.248L89.6539 97.0178H82.3293C78.1893 97.3255 75.6416 98.5565 76.597 100.095C80.1001 105.327 90.9278 100.095 90.2908 93.3248C89.9724 88.7085 91.8831 86.5542 97.6154 85.0155C102.074 84.0922 105.895 80.7069 106.532 77.3217C107.806 71.1666 107.488 71.1666 103.029 77.3217C100.163 80.7069 96.9785 82.2457 95.7047 81.0147C94.1124 79.7837 95.0678 77.3217 97.6154 75.7829C102.711 72.7054 99.8447 71.4744 89.9724 72.7054C86.7877 73.0131 84.877 71.7821 85.8324 70.2434C87.1062 68.7046 88.0616 62.2418 88.3801 55.4713C89.3354 41.6225 96.0231 32.3899 103.029 34.8519C107.169 36.3907 107.169 35.4674 102.392 28.6969C99.5262 24.0806 93.7939 20.3876 89.9724 20.0798C83.6031 20.0798 83.6031 19.7721 89.6539 17.3101C95.7047 14.848 95.7047 14.5403 89.017 14.5403C84.877 14.2325 81.6924 14.5403 81.3739 14.8481ZM97.6154 26.8504C97.6154 28.0814 94.1124 28.6969 89.9724 28.3891C85.8324 28.3891 82.9662 27.1581 83.6031 25.9271C85.5139 23.1574 97.6154 24.0806 97.6154 26.8504ZM91.2462 35.7752C91.2462 37.3139 89.9724 38.8527 88.0616 38.8527C86.4693 38.8527 84.877 37.3139 84.877 35.7752C84.877 33.9287 86.4693 32.6977 88.0616 32.6977C89.9724 32.6977 91.2462 33.9287 91.2462 35.7752ZM82.3293 51.1628C80.1001 53.0093 79.1447 53.317 80.1001 52.3938C81.0554 51.1628 80.1001 48.393 78.1893 46.2387C76.2785 44.0845 75.9601 40.3914 77.2339 38.5449C78.8262 35.7752 80.4185 36.6984 82.6478 41.3147C84.877 46.2387 84.877 49.3162 82.3293 51.1628ZM41.8847 41.9302C40.9293 43.469 38.7 45.0077 36.7893 45.0077C35.197 45.0077 33.9231 43.469 33.9231 41.9302C33.9231 40.0837 36.1523 38.8527 39.0185 38.8527C41.5662 38.8527 42.84 40.0837 41.8847 41.9302ZM42.84 52.3938C38.0631 55.779 33.2231 55.779 38 58.8566C43.0954 62.2418 47.9354 63.1651 43.1585 63.1651C35.197 63.4728 36.7893 54.2403 43.1585 49.624C46.3431 47.4697 45.3877 45.931 46.3431 46.8542C47.2985 47.7775 45.7062 50.2395 42.84 52.3938ZM84.877 63.1651C84.877 70.2434 75.9601 79.7837 71.8201 77.3217C66.4062 73.9364 68.9539 69.6279 76.2785 69.3201C80.1001 69.3201 81.3739 68.3969 79.4631 67.4736C73.7308 65.3193 74.3677 57.3178 80.1001 57.3178C82.6478 57.3178 84.877 60.0876 84.877 63.1651ZM65.7693 77.6294C65.7693 80.0914 64.4954 81.3224 62.5847 80.3992C60.9924 79.4759 59.4 77.3217 59.4 75.4752C59.4 73.9364 60.9924 72.7054 62.5847 72.7054C64.4954 72.7054 65.7693 74.8596 65.7693 77.6294ZM37.1077 93.9403C37.1077 95.479 34.8785 97.3255 32.3308 98.5565C29.4647 99.4798 27.5539 98.5565 27.5539 95.7868C27.5539 93.3248 29.7831 91.1705 32.3308 91.1705C34.8785 91.1705 37.1077 92.4015 37.1077 93.9403Z" fill="black"/>
<path id="Vector_3" d="M62.5847 24.081C62.5847 26.2353 64.177 30.236 66.0878 32.698C68.6355 36.0833 68.9539 35.4678 67.0432 29.6205C65.1324 22.5422 65.1324 22.2345 70.8647 26.543C76.597 30.8515 76.597 30.8515 72.457 25.6198C67.3616 19.4647 62.5847 18.8492 62.5847 24.081Z" fill="black"/>
<path id="Vector_4" d="M18 71.1669C18 73.6289 19.5923 75.7832 21.5031 75.7832C23.0954 75.7832 23.7323 74.2444 22.7769 72.7057C21.8216 70.8592 23.0954 69.6282 26.28 69.6282C31.057 69.6282 31.057 70.2437 26.28 77.322C22.14 83.1692 22.14 84.4003 25.6431 83.1692C31.057 81.015 34.5601 73.3212 32.0124 69.3204C29.1462 64.7041 18 66.2429 18 71.1669Z" fill="black"/>
<path id="Vector_5" d="M96.9785 43.4692C95.0677 52.7018 96.3416 53.3173 100.8 45.3157C102.711 41.9305 102.711 38.5452 101.118 37.622C99.5262 36.6987 97.6154 39.1607 96.9785 43.4692Z" fill="black"/>
</g>

        
<g id="Frame 12">
<path id="Vector" d="M92.6383 107.674C91.6446 110.904 98.104 111.152 103.073 107.922C104.564 106.929 106.054 107.177 106.054 108.171C106.054 109.413 108.29 110.407 110.775 110.655C113.756 110.904 115.246 109.91 114.501 107.922C113.011 104.196 94.129 103.947 92.6383 107.674Z" fill="black"/>
<path id="Vector_2" d="M137.855 108.419C136.364 110.158 135.867 112.394 136.861 113.139C137.855 114.133 139.345 113.885 140.339 112.394C141.333 110.903 145.805 109.661 150.277 109.661C162.947 109.164 164.189 108.916 162.202 107.177C159.221 103.947 140.588 104.941 137.855 108.419Z" fill="black"/>
<path id="Vector_3" d="M86.9242 120.593C86.4273 122.083 86.1789 126.555 86.9242 130.53C87.918 137.238 87.918 137.238 88.4148 129.288C88.6633 121.338 88.6633 121.338 101.334 121.338H113.756L113.011 130.53L112.265 139.971H97.8556C90.1539 139.971 83.6945 140.717 83.6945 141.71C83.6945 142.953 90.8993 143.698 99.8431 143.698H115.992V130.53V117.115L102.079 117.363C93.8805 117.612 87.6695 118.854 86.9242 120.593Z" fill="black"/>
<path id="Vector_4" d="M136.364 129.288C136.612 141.213 136.861 141.462 137.606 132.518C138.848 120.841 141.333 118.854 154.003 118.854H163.196V129.785V140.717L146.55 142.953L129.656 145.437L144.066 145.934C164.686 146.431 167.171 144.443 166.177 129.04L165.183 116.369H150.525H135.867L136.364 129.288Z" fill="black"/>
<path id="Vector_5" d="M145.556 124.319C142.824 133.76 143.817 136.245 149.531 136.245C154.5 136.245 155.742 135.002 155.742 130.034C155.742 125.562 154.5 123.823 150.774 123.823C148.041 123.823 145.805 124.071 145.556 124.319Z" fill="black"/>
<path id="Vector_6" d="M97.8556 131.276C98.601 134.009 101.334 136.245 103.818 136.245C106.8 136.245 108.539 134.506 108.539 131.276C108.539 127.798 106.8 126.307 102.576 126.307C97.8556 126.307 96.8619 127.301 97.8556 131.276Z" fill="black"/>
</g>

        
<g id="Frame 13">
<path id="Vector" d="M126.771 132.787C125.934 135.017 122.589 143.938 119.244 152.858C113.111 170.143 113.668 180.457 120.638 174.603C123.704 172.094 124.819 172.094 125.656 174.603C126.213 176.554 128.443 177.112 130.116 175.997C134.298 173.488 142.661 157.598 140.709 155.646C140.152 154.81 136.807 158.992 133.74 165.125C129.28 173.488 128.165 174.603 127.886 169.585C127.886 166.24 129.28 162.616 130.674 161.779C132.346 160.943 133.461 158.713 133.461 157.04C133.461 155.089 131.789 155.367 129.28 157.598C127.049 159.549 125.098 162.616 125.098 164.846C125.098 168.749 120.08 172.93 117.85 170.979C117.292 170.143 119.801 161.222 123.704 150.628C127.607 140.314 130.116 131.114 129.558 130.278C128.722 129.441 127.328 130.556 126.771 132.787Z" fill="black"/>
</g>

        
<g id="Frame 27">
<g id="Group 39">
<path id="Vector" d="M116.685 190.826C114.433 191.951 110.774 194.203 108.804 196.174C105.989 199.27 106.271 200.958 111.056 205.743C124.003 218.691 163.69 206.025 154.683 191.67C152.713 188.574 124.003 188.011 116.685 190.826ZM127.944 194.485C127.944 195.892 126.818 197.299 125.129 197.299C123.722 197.299 122.314 195.892 122.314 194.485C122.314 192.796 123.722 191.67 125.129 191.67C126.818 191.67 127.944 192.796 127.944 194.485ZM136.388 194.485C136.388 195.892 135.825 197.299 135.262 197.299C134.418 197.299 133.01 195.892 132.166 194.485C131.321 192.796 131.884 191.67 133.292 191.67C134.981 191.67 136.388 192.796 136.388 194.485ZM152.15 195.048C155.528 200.114 144.55 205.743 131.04 205.743C115.559 205.743 107.397 201.521 113.87 197.581C116.122 195.892 119.218 195.892 120.907 197.018C122.314 198.425 127.099 200.114 131.603 201.24C138.077 202.647 139.203 202.084 139.203 197.299C139.203 191.107 148.772 189.418 152.15 195.048Z" fill="black"/>
</g>
</g>

        
<g id="Frame 37">
<g id="Group 40">
<path id="Vector" d="M40.8998 116.821C40.2662 119.147 39.6326 125.945 39.6326 132.206C39.6326 138.467 38.7879 143.119 37.9432 142.582C36.8872 142.045 36.2537 149.917 36.2537 159.935C36.4648 169.953 35.8313 182.654 34.9865 188.021C33.5082 197.681 33.5082 197.681 36.2537 191.599L39.2103 185.337L40.6886 193.03C41.5333 197.144 43.2228 201.08 44.2788 201.617C45.3347 202.153 45.5459 200.543 44.7011 197.502L43.2228 192.493L48.9249 198.397C52.3039 201.617 56.7388 205.016 59.0619 206.089C61.5961 207.162 59.0619 204.121 53.571 199.47C48.2913 194.64 43.2228 189.273 42.5893 187.663C41.9557 185.874 40.4774 184.443 39.4215 184.443C38.3655 184.443 37.5208 183.191 37.5208 181.76C37.5208 180.328 38.5767 179.076 39.6326 179.076C40.8998 179.076 41.7445 179.613 41.7445 180.507C41.7445 183.012 59.0619 201.438 62.4408 202.511C67.9317 204.121 71.5219 200.186 67.7205 196.608C66.031 194.998 64.5527 192.672 64.1303 191.241C63.708 187.842 55.0493 176.393 50.8256 173.53C47.6578 171.205 47.6578 171.384 50.192 175.498C52.7262 179.613 52.7262 179.792 49.3473 177.466C47.4466 176.035 46.3906 173.709 47.0242 171.742C47.6578 170.131 47.2354 168.164 45.9683 167.448C44.7011 166.733 43.8564 168.343 43.8564 171.563C43.8564 175.498 46.1794 178.539 52.3039 183.37C56.95 186.947 60.7514 190.525 60.7514 191.42C60.7514 192.314 62.2297 193.924 63.9192 195.177C65.6087 196.429 67.087 198.218 67.087 199.112C67.087 200.364 66.031 200.186 64.3415 198.933C62.652 197.86 60.5402 197.681 59.6954 198.397C58.6395 199.112 58.6395 198.754 59.4842 197.502C60.1178 196.429 56.3164 191.062 50.4032 185.516C40.8998 176.214 37.3096 167.985 41.7445 165.659C42.5893 165.122 42.5893 161.366 41.7445 157.251C40.8998 152.958 40.8998 145.981 41.7445 141.509C43.2228 134.353 43.434 134.89 43.6452 147.591C43.8564 164.228 45.7571 164.586 47.4466 148.307C48.2913 139.183 47.8689 135.605 45.1235 132.027C42.3781 128.449 42.1669 127.376 44.2788 126.482C46.1794 125.766 46.1794 125.05 44.7011 124.514C43.434 123.977 43.0116 121.115 43.434 118.252C44.49 111.991 42.8005 111.097 40.8998 116.821Z" fill="black"/>
<path id="Vector_2" d="M205.837 115.39C203.936 119.505 206.259 139.362 208.793 140.793C209.849 141.33 210.483 144.371 210.483 147.412L210.06 153.136L208.582 146.875C207.104 141.151 207.104 141.33 206.681 150.095C206.47 156.535 205.626 159.219 204.147 158.324C202.669 157.609 202.247 158.324 203.091 160.829C204.57 164.586 200.346 173.709 194.221 179.434C192.532 181.223 192.11 182.654 193.166 182.654C194.433 182.654 198.023 179.255 201.191 174.961C204.147 170.847 206.048 169.058 205.203 171.026C204.358 172.994 203.514 176.393 203.514 178.539C203.303 180.507 202.458 181.938 201.402 181.223C200.346 180.686 199.924 181.58 200.768 183.012C201.402 184.622 200.557 187.305 199.079 189.273C197.389 191.062 195.911 191.598 195.911 190.525C195.911 189.631 196.967 187.842 198.445 186.589C200.346 184.979 200.346 184.443 198.445 184.443C197.178 184.443 195.489 186.411 194.644 188.915C194.01 191.42 192.532 192.851 191.476 192.493C190.631 191.956 191.054 193.745 192.743 196.429C194.855 199.828 195.066 201.617 193.588 202.511C191.898 203.227 191.898 204.121 193.377 204.837C194.644 205.373 196.122 204.3 196.967 202.332C197.812 200.364 199.079 199.112 200.135 199.649C200.979 200.185 202.88 199.291 204.358 197.86C206.47 195.713 206.47 194.64 204.57 192.672C203.091 191.062 202.88 189.631 204.147 189.094C205.203 188.557 206.681 189.094 207.104 190.167C207.737 191.42 208.371 190.346 208.371 187.842C208.582 185.158 210.06 180.686 211.75 178.003C215.34 172.099 215.763 174.961 213.017 184.443C209.427 196.25 208.582 202.511 210.694 201.438C211.961 200.901 212.806 197.681 212.806 194.282C212.806 185.695 217.03 184.443 217.241 192.851C217.452 196.607 217.241 201.617 217.03 203.942C216.818 206.447 217.452 207.699 218.93 206.983C221.887 205.373 221.676 196.965 218.297 183.548C216.818 177.645 216.185 172.457 217.03 171.92C221.253 169.416 218.93 117 214.707 119.326C213.651 119.862 213.439 118.968 214.073 117.537C214.918 115.927 214.284 114.674 212.806 114.674C210.905 114.674 210.694 116.642 211.539 120.936C212.384 124.692 212.172 127.197 210.905 127.197C209.849 127.197 208.582 123.798 208.16 119.505C207.737 113.959 207.104 112.886 205.837 115.39ZM215.974 145.623C216.818 152.958 217.03 160.292 216.607 162.26C216.185 164.049 214.918 158.145 213.862 149.022C212.595 140.077 212.384 132.564 213.228 132.564C213.862 132.564 215.129 138.467 215.974 145.623ZM215.129 167.448C216.185 166.732 216.396 167.627 215.763 169.058C213.017 174.961 208.371 170.31 208.793 162.439C208.793 159.04 209.216 159.219 211.116 163.512C212.172 166.196 214.073 167.985 215.129 167.448ZM209.216 176.393C208.582 178.003 207.526 178.897 207.104 178.36C206.47 177.824 206.681 176.75 207.526 175.677C209.427 172.815 210.694 173.351 209.216 176.393ZM204.358 195.892C204.358 196.429 203.514 197.323 202.247 197.86C201.191 198.396 200.135 198.039 200.135 197.144C200.135 196.071 201.191 195.176 202.247 195.176C203.514 195.176 204.358 195.534 204.358 195.892Z" fill="black"/>
<path id="Vector_3" d="M49.136 142.403C49.3472 156.714 50.192 168.879 51.0367 169.595C51.8815 170.489 52.3038 158.682 51.8815 143.655C51.6703 128.807 50.6143 116.463 49.9808 116.463C49.3472 116.463 48.9248 128.091 49.136 142.403Z" fill="black"/>
<path id="Vector_4" d="M219.564 127.197C219.564 130.596 219.986 132.027 220.62 130.238C221.042 128.628 221.042 125.766 220.62 123.977C219.986 122.367 219.564 123.798 219.564 127.197Z" fill="black"/>
<path id="Vector_5" d="M37.5207 197.86C37.5207 201.259 38.3655 204.121 39.2102 204.121C40.055 204.121 40.4773 201.259 40.055 197.86C39.6326 194.461 38.7878 191.598 38.3655 191.598C37.9431 191.598 37.5207 194.461 37.5207 197.86Z" fill="black"/>
<path id="Vector_6" d="M127.845 223.603C126.577 226.644 125.944 227.002 124.254 225.034C122.776 223.245 122.565 223.603 123.832 226.108C124.677 228.076 125.31 231.475 125.31 233.621C125.099 235.947 125.944 237.378 127 236.841C127.845 236.305 129.323 238.63 130.168 242.208C130.801 245.607 132.279 248.112 133.124 247.575C134.18 247.038 135.447 248.29 136.292 250.258C136.926 252.226 138.615 253.836 139.671 253.836C140.938 253.836 141.149 252.942 140.516 252.047C139.882 250.974 140.727 249.722 142.416 249.185C144.317 248.648 145.373 247.575 144.74 246.68C144.317 245.965 145.584 240.24 147.696 233.8L151.709 222.172L145.795 221.993C140.938 221.993 140.305 222.53 141.149 226.287C141.572 228.612 141.149 230.58 140.093 230.58C138.826 230.58 137.982 232.369 138.193 234.516C138.404 239.167 135.236 243.281 132.279 241.85C131.435 241.314 131.857 240.24 133.335 239.346C135.87 237.915 135.87 237.557 133.335 236.126C131.012 234.874 131.224 234.337 134.18 233.979C137.77 233.263 137.982 233.085 134.603 230.222C132.702 228.612 131.012 226.287 131.012 225.034C131.012 223.782 132.279 224.319 134.18 226.287C137.77 230.222 138.404 228.433 135.236 223.245C132.279 218.773 129.534 218.952 127.845 223.603ZM145.795 231.475C144.528 234.158 143.05 235.947 142.416 235.589C141.994 235.052 142.628 232.548 143.895 229.864C147.274 223.782 148.752 225.034 145.795 231.475ZM140.305 245.786C139.46 247.217 138.615 248.469 138.193 248.469C137.77 248.469 137.348 247.217 137.348 245.786C137.348 244.355 138.193 243.103 139.46 243.103C140.516 243.103 140.938 244.355 140.305 245.786Z" fill="black"/>
</g>
</g>

    </svg>
