
    <svg width="256" height="256" viewBox="0 0 256 256" fill="none" xmlns="http://www.w3.org/2000/svg">
        
<g id="Frame 43">
<rect width="256" height="256" fill="#BB4DFF"/>
</g>

        
<style type="text/css">
	.st0{fill:none;stroke:#000000;stroke-width:4;stroke-miterlimit:10;}
</style>
<g id="head">
	<path d="M35,60.1c0.5,0,0.7,0.2,0.5,0.6c-0.2,0.3-0.1,0.6,0.4,0.6c0.4,0,0.5,0.6,0.4,1.5c-0.2,0.8-0.1,1.5,0.1,1.5
		c0.4,0,0.9,9.1,0.7,13c-0.4,8.8-0.4,9.5,0.5,10c0.7,0.4,0.7,0.5,0.1,0.6c-0.5,0-0.7,0.4-0.5,0.7c0.1,0.4-0.2,1.7-0.6,2.8l-0.9,2.1
		l1.6-1c1.5-1,1.6-1,1.6,0.2c0,0.8-0.3,1.1-0.8,0.9c-0.5-0.2-1-0.1-1.3,0.3c-0.2,0.4,0.1,0.7,0.7,0.7c0.8,0,0.9,0.1,0.3,0.5
		c-1.1,0.7-1,1.4,0.3,1.9c1,0.4,1,0.5-0.2,0.5c-1.3,0.1-1.5,0.7-1.4,4c0,1,0.1,2.8,0.1,4.1c0.1,1.4,0.4,2.2,0.8,2
		c0.4-0.2,0.9,0.1,1.1,0.6c0.2,0.7,0.1,0.8-0.8,0.5c-0.7-0.2-1.2-0.1-1.2,0.2s0.3,0.7,0.6,0.7c0.4,0,0.4,0.4,0,1.2
		c-0.8,1.5-0.2,1.6,1.4,0.1c1-0.8,1.1-0.8,0.5,0c-0.4,0.5-0.5,1.1-0.2,1.2c0.2,0.1,0.1,0.8-0.4,1.7c-0.8,1.4-0.8,1.4-0.5,0.1
		c0.2-0.7,0.1-1.3-0.2-1.3c-0.8,0-0.6,2.2,0.4,3c0.7,0.5,0.9,3.1,1,12.7c0.1,6.6,0,11.8-0.2,11.7c-0.6-0.4-0.5,4,0.1,5.7
		c0.4,0.8,0.6,3,0.6,4.7c0,0.1,0,0.2,0,0.4c1-0.7,2.1-1.2,3.2-1.7c-0.2-1.6-0.5-3.4-0.8-4.7c-0.3-1.9-0.6-12.4-0.6-23.2
		c0-21.5-0.5-34.6-1.3-40.3c-0.6-3.7-0.3-27,0.3-28c0.2-0.3,0.1-0.7-0.2-0.9c-0.3-0.2-0.4-1.9-0.2-3.7c0.4-3.3,0.3-3.3-1.2-3.3
		c-0.8,0-1.7,0.2-1.9,0.6c-0.2,0.3,0.1,1.5,0.5,2.7c0.5,1.1,0.7,2.7,0.5,3.3c-0.2,0.7-0.1,2.1,0.3,3c0.8,2.3-0.2,3.3-3.6,3.6
		C33.6,58.3,34,60.1,35,60.1z M39.3,101.2c0.1,1-0.2,1.8-0.5,1.8c-0.4,0-0.5-0.3-0.3-0.6c0.2-0.4-0.1-0.6-0.5-0.6
		c-0.5,0-1-0.1-1-0.2c0-0.7,1.2-3.4,1.4-3.4c0.2,0,0.1,0.4-0.1,1c-0.2,0.5-0.1,0.8,0.2,0.6C39,99.6,39.3,100.2,39.3,101.2z"/>
	<path d="M207.2,67.6c0,1.5,0.2,2.8,0.5,2.8c0.5,0,0.8,4.6,1,22.3c0.3,20.3,1.5,34.1,3,33.6c0.7-0.2,0.6-1.9-0.7-10.3
		c-1.1-8.2-1.1-18.9,0-18.9c1,0,1.3,1.8,1.9,11.9c0.2,3.1,0.5,6.5,0.6,7.5c0.3,2.3,1,13,1,14.2c-0.2,4.3-0.1,6.1,0.8,7.5
		c0.6,0.8,0.8,1.6,0.4,1.6c-0.3,0-0.5,0.7-0.5,1.5c0,0.8,0.1,1.4,0.4,1.3c0.3-0.2,0.3,5.3,0.1,12.3c0,0.1,0,0.2,0,0.4
		c0.6-0.7,1.4-1.2,2.2-1.5c0.1-0.7,0.3-1,0.6-0.9c0.2,0.1,0.4,0.3,0.5,0.6c0.6-0.1,1.2,0,1.8,0.1c0-0.3,0.1-0.5,0.1-0.6
		c0.3-1.4,0.1-1.8-1.1-2.2c-1.4-0.5-1.4-0.8-1-2.8c0.3-1.3,0.4-2.5,0.3-2.7c-0.1-0.2-0.3-3-0.4-6.1c-0.1-3.1-0.3-6.2-0.6-6.7
		c-0.3-0.5-0.7-2.3-0.8-3.9c-0.4-4-2.1-19.3-2.8-25.5c-0.3-2.8-0.6-8.1-0.7-11.9c-0.1-5.4-0.3-7.2-1.2-8.9c-0.8-1.5-1.1-3.4-1.1-6
		c0-4.5-1-10.4-2.1-12.5c-1.5-2.9-2.2-6.7-1.8-10c0.4-3,0.3-3.3-0.8-3.3c-0.7,0-1.4,0.2-1.6,0.6c-0.2,0.3-0.2,1.6,0.1,2.7
		c0.2,1.4,0.1,2.5-0.4,3c-0.6,0.7-0.6,1.3-0.2,2.3C206.8,63.4,207.2,65.1,207.2,67.6z M210.3,90.6c0.4-0.5,1-0.9,1.3-0.9
		c0.4,0,0.3,0.4-0.1,0.9c-0.4,0.5-1,0.9-1.3,0.9C209.8,91.5,209.8,91.1,210.3,90.6z M211.7,92.1c0.7,0,0.9,0.2,0.5,0.4
		c-0.4,0.1-0.8,0.8-0.8,1.4c0,1.4-1,2.1-1.4,0.9C209.5,93.3,210.3,92.1,211.7,92.1z"/>
</g>
<path class="st0" d="M39.8,149.4C40,146,40,144,40,141c2-9,3-18,1-27c-4-24,0-47-3-70.7"/>
<path class="st0" d="M205.3,52.1c0.3-0.7,0.6-1.3,0.9-2c-1.3,7,0.5,14.1,1.7,21C211,92,211,114,212,136c1,4,3,8,4,13
	c0,2,0,5,0.2,7.1"/>
<path class="st0" d="M38.7,146.7c-0.3,4.6,0.2,9.2,0.7,13.8c1.4,14.2,2.9,28.4,4.3,42.5c0.7,6.8,1.4,13.8,5,19.6
	c3.6,5.9,9.9,9.9,16.4,12.1c6.6,2.2,13.6,2.9,20.5,3.4c17.2,1.4,34.5,2.5,51.8,2.5c18,0,36.5-1.3,53.1-8.5c8-3.4,15.5-8.4,20.5-15.5
	c7.6-10.9,8.2-25.1,8.4-38.4c0.2-10.2,0.4-20.4,0.6-30.6"/>

        
<g id="hair">
<path id="Vector" d="M132.009 9.92403C136.468 17.9256 134.557 20.3876 125.959 18.2333C122.137 17.0023 120.863 15.4636 122.774 14.5403C124.685 13.3093 121.182 12.386 115.131 12.386C102.074 12.386 100.482 15.7713 111.946 18.5411C116.723 19.7721 119.908 22.5418 119.908 25.9271C119.589 30.5434 119.271 30.5434 114.812 25.0039C110.672 19.7721 109.717 19.4643 107.169 23.4651C104.94 26.5426 105.577 28.3891 108.443 29.0046C112.902 29.9279 111.946 41.9302 107.488 41.9302C106.214 41.9302 105.259 44.7 104.94 48.393C104.303 56.0868 97.9339 64.0883 94.1124 61.6263C92.5201 60.7031 91.2462 62.2418 91.2462 64.7038C91.2462 67.7814 93.157 68.7046 96.0231 67.7814C98.5708 66.5503 100.8 64.7038 100.8 62.8573C100.8 61.3186 102.392 61.0108 103.985 61.9341C105.895 63.1651 106.214 65.6271 105.259 67.4736C103.985 69.6279 104.303 70.2434 105.577 68.7046C107.169 67.4736 112.902 70.8589 118.634 76.0907L128.825 85.631L140.289 77.3217C151.435 69.0124 152.072 69.0124 158.123 74.2441C164.174 79.4759 164.811 79.4759 170.543 74.5519C175.32 70.5511 176.912 70.2434 178.186 73.3209C179.142 76.3984 181.052 76.7062 186.148 73.6286C191.243 70.5511 192.835 70.8589 194.428 74.2441C196.338 79.4759 207.803 80.3992 210.669 75.7829C211.625 73.9364 214.491 72.7054 216.402 72.7054C218.949 72.7054 218.631 73.6286 215.765 75.4751C212.262 77.6294 212.58 78.8604 217.357 81.6302C222.771 84.7077 222.771 85.0155 215.765 84.0922C209.714 83.7844 207.485 85.3232 205.574 91.1705C203.663 97.6333 203.345 97.941 202.708 92.7092C202.389 89.0162 201.434 88.093 200.478 90.555C199.523 92.7092 200.797 97.0178 203.345 99.7875C210.988 108.097 214.491 121.638 208.758 119.791C207.485 119.484 205.892 121.638 204.937 125.023C203.982 129.024 205.255 131.486 209.714 133.025C214.809 134.563 215.446 135.487 211.943 137.641C208.44 139.795 208.44 140.411 212.898 140.411C219.905 140.411 223.726 134.256 218.631 131.178C215.765 129.332 215.765 127.485 218.631 121.946C225.318 110.251 225.318 97.6333 218.949 94.248C215.765 92.7092 212.262 92.4015 210.988 93.3247C210.032 94.248 209.077 93.6325 209.077 91.4782C209.077 89.0162 211.306 88.4007 215.446 89.6317C224.682 92.4015 225.318 77.3217 216.402 70.5511C212.58 67.4736 212.262 65.6271 215.128 62.5496C217.038 60.0876 217.675 54.2403 216.72 48.393C215.128 41.007 215.765 38.8527 219.905 38.8527C222.771 38.8527 225 37.9294 225 36.3907C225 35.1597 218.949 34.5442 211.306 35.1597C201.752 36.0829 196.338 34.8519 193.472 31.4666C189.969 27.4659 189.969 26.5426 194.109 26.5426C196.657 26.5426 199.842 28.3891 200.478 30.2356C201.752 33.3132 202.389 33.3132 202.389 30.5434C202.708 24.6961 180.734 15.7713 176.275 20.0798C174.365 21.9263 170.543 23.4651 167.995 23.4651C164.174 23.4651 164.174 22.5418 167.04 19.7721C172.454 14.5403 171.817 5 166.403 5C163.855 5 159.397 7.15426 156.849 9.92403C151.435 14.8481 141.563 13.617 132.965 6.84651C129.143 4.07674 129.143 4.3845 132.009 9.92403ZM166.722 15.1558C164.811 20.0798 148.569 24.0806 148.569 20.0798C148.569 18.5411 150.162 17.3101 152.072 17.3101C153.983 17.3101 157.486 15.1558 160.352 12.6938C165.766 7.15426 169.269 8.69302 166.722 15.1558ZM149.525 27.4659C159.715 33.9287 168.314 34.5442 159.397 28.0814C153.346 23.4651 156.849 21.9263 165.766 25.3116C173.409 28.0814 171.817 35.1597 163.855 36.3907C159.078 37.0062 156.531 39.4682 156.531 43.469C156.531 50.855 146.977 53.317 139.971 47.4697C135.512 43.7767 135.831 43.1612 143.792 41.9302C148.888 41.007 153.346 38.5449 154.302 36.0829C155.257 33.6209 154.302 32.6977 152.391 33.9287C150.48 35.1597 147.295 33.0054 145.385 29.6201C142.518 24.6961 140.608 24.0806 135.831 26.5426C127.551 30.8511 123.092 30.5434 123.092 25.3116C123.092 19.4643 138.697 20.6953 149.525 27.4659ZM186.785 23.1574C186.785 25.0039 183.918 25.9271 180.734 25.6194C177.231 25.6194 175.32 24.0806 175.957 22.8496C178.186 19.4643 186.785 19.7721 186.785 23.1574ZM145.385 34.2364C148.569 37.9294 148.569 38.8527 144.429 38.8527C141.882 38.8527 138.06 36.6984 135.831 34.2364C132.646 30.5434 132.646 29.6201 136.786 29.6201C139.334 29.6201 143.155 31.7744 145.385 34.2364ZM180.415 34.2364C180.415 36.6984 178.823 38.8527 176.912 38.8527C175.32 38.8527 174.683 40.3914 175.638 41.9302C176.912 43.7767 179.142 44.3922 180.734 43.1612C184.874 40.6992 192.835 51.1628 190.925 56.3945C189.651 59.1643 187.74 59.4721 183.6 57.3178C179.46 55.1635 177.231 55.4713 175.957 59.1643C175.002 61.6263 172.772 62.8573 170.862 61.9341C166.085 59.1643 176.275 50.2395 182.008 52.3938C184.874 53.317 185.829 52.3938 184.874 49.9318C183.918 47.4697 179.46 46.2387 174.046 46.8542C168.951 47.4697 163.855 46.2387 162.582 44.3922C160.989 41.9302 161.945 41.6225 165.448 42.8535C169.269 44.3922 171.498 42.5457 172.772 37.3139C175.002 29.0046 180.415 26.8504 180.415 34.2364ZM191.88 37.9294C189.651 40.0837 183.6 35.7752 183.6 32.0822C183.6 30.2356 185.511 30.2356 188.377 32.6977C191.243 34.8519 192.517 37.3139 191.88 37.9294ZM129.78 41.3147C127.551 41.9302 124.366 40.6992 122.774 38.5449C120.545 35.1597 119.908 35.4674 119.908 39.4682C119.908 42.5457 118.634 45.0077 116.723 45.0077C112.902 45.0077 113.857 38.2372 117.997 35.1597C119.908 33.9287 124.048 34.5442 127.551 36.3907C132.328 38.8527 132.965 40.3914 129.78 41.3147ZM207.166 45.6232C204.3 55.1635 204.3 55.1635 196.657 50.5473C187.422 45.0077 188.377 40.6992 197.931 43.1612C202.389 44.3922 205.892 43.7767 205.892 41.9302C205.892 40.3914 206.848 38.8527 207.803 38.8527C208.758 38.8527 208.44 41.9302 207.166 45.6232ZM143.792 53.317C150.798 57.6255 155.575 60.3953 154.302 58.8566C150.798 55.1635 159.078 49.0085 165.129 50.5473C169.906 51.4705 170.225 52.7015 167.358 56.3945C164.492 59.4721 162.9 59.7798 160.989 57.01C159.715 54.548 158.123 55.779 156.531 60.0876C154.302 67.7814 150.798 68.3969 145.385 62.2418C139.652 55.4713 131.691 59.7798 133.92 68.3969C135.194 72.3976 135.194 75.7829 134.557 75.7829C133.92 75.7829 130.417 76.7062 127.232 77.6294C122.137 79.4759 122.137 79.1682 127.869 74.8596C131.372 72.0899 132.646 69.6279 130.735 69.6279C128.506 69.6279 126.277 67.1659 125.322 64.0883C124.048 58.2411 110.354 52.3938 110.354 57.6255C110.354 59.1643 113.22 60.3953 116.723 60.3953C120.863 60.3953 123.092 62.5496 123.092 66.5503C123.092 70.5511 121.5 72.0899 118.315 70.5511C115.449 69.6279 114.175 68.0891 114.812 67.1659C115.768 66.2426 114.494 64.0883 111.628 62.2418C108.762 60.0876 107.806 56.7023 108.762 53.6248C110.672 49.0085 111.628 48.7007 117.997 52.7015C125.322 57.3178 139.015 57.6255 139.015 53.317C139.015 51.7783 136.786 51.1628 134.239 52.3938C131.691 53.317 129.462 52.7015 129.462 51.4705C129.462 49.9318 126.277 49.3163 122.455 50.5473C117.997 51.4705 116.405 51.1628 117.997 48.7007C121.5 42.8535 130.099 44.3922 143.792 53.317ZM214.172 58.8566C211.625 65.9348 206.211 61.6263 208.122 53.9325C209.395 49.9318 210.988 48.7007 213.217 50.855C214.809 52.3938 215.446 56.0868 214.172 58.8566ZM202.708 60.3953C202.708 61.9341 200.478 62.5496 197.612 61.3186C193.154 59.7798 192.835 60.3953 196.02 65.9348C197.931 69.3201 201.115 73.0131 203.345 73.6286C205.892 74.8596 205.574 75.4751 202.389 75.4751C199.523 75.7829 196.02 73.6286 195.065 71.1666C193.791 67.4736 191.88 67.1659 187.103 69.3201C182.645 71.7821 180.097 71.4744 177.549 68.3969C172.454 62.5496 178.823 58.5488 184.874 63.1651C188.058 65.9348 189.651 65.6271 191.243 61.9341C193.154 57.01 202.708 55.4713 202.708 60.3953ZM145.385 68.3969C145.385 72.7054 144.429 72.7054 140.608 69.6279C138.06 67.4736 135.831 65.3193 135.831 64.7038C135.831 64.0883 138.06 63.4728 140.608 63.4728C143.155 63.4728 145.385 65.6271 145.385 68.3969ZM170.862 65.6271C170.862 67.1659 169.269 70.2434 167.677 72.7054C164.811 76.7062 164.174 76.7062 161.626 72.7054C159.397 69.6279 159.715 67.4736 162.263 65.9348C167.04 62.8573 170.862 62.8573 170.862 65.6271ZM219.586 102.25C218.631 106.866 213.217 106.866 211.306 102.25C210.032 99.4798 211.306 98.2488 214.809 98.5565C217.675 99.172 219.905 100.711 219.586 102.25Z" fill="black"/>
<path id="Vector_2" d="M81.3739 14.8481C81.3739 15.4636 80.4185 19.1566 79.7816 23.4651C79.1447 27.4659 76.9154 31.7744 75.3231 32.6977C73.7308 33.6209 71.1831 37.9294 69.5908 41.9302L66.4062 49.624L64.177 41.007C62.9031 36.3907 60.6739 32.6977 58.7631 32.6977C57.1708 32.6977 56.8524 34.2364 58.1262 36.0829C59.4 38.5449 58.4447 38.5449 54.3047 36.3907C50.8016 34.8519 46.3431 34.2364 44.4324 34.8519C42.2031 35.7752 40.2923 34.8519 40.2923 33.3132C40.2923 31.4666 43.477 29.3124 47.617 28.6969C52.3939 27.4659 51.4385 27.1581 45.0693 27.4659C39.337 27.7736 35.8339 29.6201 36.4708 31.7744C36.7893 33.9287 35.5154 35.7752 33.6047 35.7752C31.6939 35.7752 30.7385 41.6225 31.3754 50.2395C32.3308 63.7806 32.9677 65.0116 40.2923 65.0116C45.7062 65.0116 48.5724 63.1651 49.5277 58.8566C50.1647 55.4713 52.0754 51.7783 54.3047 50.5473C56.8524 48.7007 56.5339 48.0852 53.6677 48.0852C51.4385 48.0852 50.1647 46.8542 51.4385 45.0077C52.3939 43.469 55.26 42.8535 57.4893 43.7767C62.2662 45.6232 60.6739 57.3178 55.5785 60.7031C53.6677 61.6263 55.5785 63.4728 59.0816 64.3961C64.8139 65.6271 65.4508 65.0116 63.8585 58.5488C61.6293 50.2395 67.9985 48.0852 70.8647 55.779C74.0493 63.1651 66.4062 69.0124 54.3047 69.0124C47.9354 69.0124 41.2477 70.5511 39.337 72.3976C36.7893 74.8597 38.7 74.8596 46.0247 73.0131C54.3047 70.5511 56.2154 70.8589 56.2154 74.5519C56.2154 77.6294 54.3047 78.5527 50.1647 77.3217C43.1585 75.1674 33.2862 78.5527 35.8339 82.2457C36.7893 83.7844 39.0185 84.4 40.6108 83.4767C42.2031 82.2457 43.477 83.7844 43.477 86.2465C43.477 91.786 38.3816 93.017 36.4708 87.7852C34.8785 83.4767 25.3247 87.4775 23.0954 93.3248C21.8216 96.0945 23.7323 100.711 27.2354 104.096C33.9231 109.943 38.7 111.482 35.5154 106.866C33.6047 103.788 39.6554 98.8643 42.2031 101.326C44.7508 103.788 35.8339 115.791 31.6939 115.791C29.4647 115.791 27.5539 117.022 27.5539 118.868C27.5539 120.407 29.7831 121.022 32.3308 120.099C34.8785 118.868 37.1077 119.791 37.1077 121.638C37.1077 123.792 35.197 125.946 32.6493 126.87C29.1462 128.101 28.8277 130.255 31.6939 137.641C33.6047 142.565 36.4708 146.566 37.7447 146.566C42.5216 146.566 43.7954 139.795 39.9739 135.179C36.4708 131.178 36.7893 129.947 41.5662 126.562C44.4323 124.408 46.6616 119.791 46.3431 116.714C45.7062 113.636 46.3431 109.636 47.617 107.481C48.8908 105.635 47.617 101.634 44.7508 99.172C40.2923 94.5558 40.2923 94.248 46.3431 94.248C53.3493 94.248 57.8077 89.6317 53.3493 86.862C51.757 85.631 49.5277 86.862 48.8908 88.7085C47.617 91.1705 46.98 90.8627 46.98 87.7852C46.6616 82.2457 58.4447 77.6294 60.037 82.2457C60.6739 84.0922 67.0431 83.1689 74.6862 80.7069C87.1062 76.3984 88.0616 76.3984 88.0616 81.6302C88.0616 89.324 84.5585 91.786 79.4631 87.7852C76.597 85.0155 75.3231 85.3232 75.3231 87.7852C75.3231 89.6317 78.5077 92.7092 82.6478 94.248L89.6539 97.0178H82.3293C78.1893 97.3255 75.6416 98.5565 76.597 100.095C80.1001 105.327 90.9278 100.095 90.2908 93.3248C89.9724 88.7085 91.8831 86.5542 97.6154 85.0155C102.074 84.0922 105.895 80.7069 106.532 77.3217C107.806 71.1666 107.488 71.1666 103.029 77.3217C100.163 80.7069 96.9785 82.2457 95.7047 81.0147C94.1124 79.7837 95.0678 77.3217 97.6154 75.7829C102.711 72.7054 99.8447 71.4744 89.9724 72.7054C86.7877 73.0131 84.877 71.7821 85.8324 70.2434C87.1062 68.7046 88.0616 62.2418 88.3801 55.4713C89.3354 41.6225 96.0231 32.3899 103.029 34.8519C107.169 36.3907 107.169 35.4674 102.392 28.6969C99.5262 24.0806 93.7939 20.3876 89.9724 20.0798C83.6031 20.0798 83.6031 19.7721 89.6539 17.3101C95.7047 14.848 95.7047 14.5403 89.017 14.5403C84.877 14.2325 81.6924 14.5403 81.3739 14.8481ZM97.6154 26.8504C97.6154 28.0814 94.1124 28.6969 89.9724 28.3891C85.8324 28.3891 82.9662 27.1581 83.6031 25.9271C85.5139 23.1574 97.6154 24.0806 97.6154 26.8504ZM91.2462 35.7752C91.2462 37.3139 89.9724 38.8527 88.0616 38.8527C86.4693 38.8527 84.877 37.3139 84.877 35.7752C84.877 33.9287 86.4693 32.6977 88.0616 32.6977C89.9724 32.6977 91.2462 33.9287 91.2462 35.7752ZM82.3293 51.1628C80.1001 53.0093 79.1447 53.317 80.1001 52.3938C81.0554 51.1628 80.1001 48.393 78.1893 46.2387C76.2785 44.0845 75.9601 40.3914 77.2339 38.5449C78.8262 35.7752 80.4185 36.6984 82.6478 41.3147C84.877 46.2387 84.877 49.3162 82.3293 51.1628ZM41.8847 41.9302C40.9293 43.469 38.7 45.0077 36.7893 45.0077C35.197 45.0077 33.9231 43.469 33.9231 41.9302C33.9231 40.0837 36.1523 38.8527 39.0185 38.8527C41.5662 38.8527 42.84 40.0837 41.8847 41.9302ZM42.84 52.3938C38.0631 55.779 33.2231 55.779 38 58.8566C43.0954 62.2418 47.9354 63.1651 43.1585 63.1651C35.197 63.4728 36.7893 54.2403 43.1585 49.624C46.3431 47.4697 45.3877 45.931 46.3431 46.8542C47.2985 47.7775 45.7062 50.2395 42.84 52.3938ZM84.877 63.1651C84.877 70.2434 75.9601 79.7837 71.8201 77.3217C66.4062 73.9364 68.9539 69.6279 76.2785 69.3201C80.1001 69.3201 81.3739 68.3969 79.4631 67.4736C73.7308 65.3193 74.3677 57.3178 80.1001 57.3178C82.6478 57.3178 84.877 60.0876 84.877 63.1651ZM65.7693 77.6294C65.7693 80.0914 64.4954 81.3224 62.5847 80.3992C60.9924 79.4759 59.4 77.3217 59.4 75.4752C59.4 73.9364 60.9924 72.7054 62.5847 72.7054C64.4954 72.7054 65.7693 74.8596 65.7693 77.6294ZM37.1077 93.9403C37.1077 95.479 34.8785 97.3255 32.3308 98.5565C29.4647 99.4798 27.5539 98.5565 27.5539 95.7868C27.5539 93.3248 29.7831 91.1705 32.3308 91.1705C34.8785 91.1705 37.1077 92.4015 37.1077 93.9403Z" fill="black"/>
<path id="Vector_3" d="M62.5847 24.081C62.5847 26.2353 64.177 30.236 66.0878 32.698C68.6355 36.0833 68.9539 35.4678 67.0432 29.6205C65.1324 22.5422 65.1324 22.2345 70.8647 26.543C76.597 30.8515 76.597 30.8515 72.457 25.6198C67.3616 19.4647 62.5847 18.8492 62.5847 24.081Z" fill="black"/>
<path id="Vector_4" d="M18 71.1669C18 73.6289 19.5923 75.7832 21.5031 75.7832C23.0954 75.7832 23.7323 74.2444 22.7769 72.7057C21.8216 70.8592 23.0954 69.6282 26.28 69.6282C31.057 69.6282 31.057 70.2437 26.28 77.322C22.14 83.1692 22.14 84.4003 25.6431 83.1692C31.057 81.015 34.5601 73.3212 32.0124 69.3204C29.1462 64.7041 18 66.2429 18 71.1669Z" fill="black"/>
<path id="Vector_5" d="M96.9785 43.4692C95.0677 52.7018 96.3416 53.3173 100.8 45.3157C102.711 41.9305 102.711 38.5452 101.118 37.622C99.5262 36.6987 97.6154 39.1607 96.9785 43.4692Z" fill="black"/>
</g>

        
<g id="head">
<g id="Group 56">
<path id="Vector" d="M147.498 104.609C135.416 110.804 135.726 122.576 148.117 129.081C159.889 135.276 164.535 134.967 170.731 128.152C177.546 120.717 177.236 111.114 170.421 104.918C163.296 98.4131 158.34 98.4131 147.498 104.609ZM169.492 112.663C174.448 125.364 162.057 131.869 147.807 124.434C140.683 120.407 140.373 117 146.878 110.804C154.003 103.37 166.394 104.609 169.492 112.663Z" fill="black"/>
<path id="Vector_2" d="M154.932 114.212C156.171 120.717 165.155 121.956 165.155 115.141C165.155 112.663 162.677 110.185 159.579 109.565C155.242 108.636 154.003 109.875 154.932 114.212Z" fill="black"/>
<path id="Vector_3" d="M86.4719 114.831C79.6568 121.646 80.5862 130.63 89.5696 138.684C99.1727 147.358 120.237 137.755 120.237 124.434C120.237 109.875 97.6238 103.679 86.4719 114.831ZM114.661 119.168C117.759 124.434 110.015 134.967 101.961 136.206C88.3305 138.374 80.2764 121.956 91.7381 115.451C97.9336 111.733 111.254 113.902 114.661 119.168Z" fill="black"/>
<path id="Vector_4" d="M89.2595 123.195C89.2595 125.983 91.4279 127.532 94.5257 126.912C102.27 125.364 103.199 118.239 95.7648 118.239C92.0475 118.239 89.2595 120.097 89.2595 123.195Z" fill="black"/>
</g>
</g>

        
<g id="Frame 24">
<path id="Vector" d="M127.512 137.586C126.876 138.434 125.394 143.305 124.123 148.388C122.217 154.741 120.099 158.13 116.499 159.4C110.992 161.518 105.91 169.143 108.875 170.837C109.933 171.472 111.204 170.202 111.84 167.872C112.475 165.542 115.44 162.789 118.405 161.73C122.429 160.036 124.547 156.859 126.876 148.599C129.842 138.434 130.265 133.139 127.512 137.586Z" fill="black"/>
<path id="Vector_2" d="M132.383 159.612C129.841 161.307 130.477 161.518 135.136 160.46C138.948 159.824 142.549 160.248 144.667 161.942C147.42 164.272 147.632 164.272 146.784 161.518C145.514 157.706 136.619 156.436 132.383 159.612Z" fill="black"/>
<path id="Vector_3" d="M118.617 167.872C117.981 168.931 118.829 169.99 120.523 169.99C122.217 169.99 124.335 168.931 124.97 167.872C125.606 166.601 124.759 165.754 123.064 165.754C121.37 165.754 119.252 166.601 118.617 167.872Z" fill="black"/>
<path id="Vector_4" d="M132.806 168.084C133.23 169.355 134.501 170.202 135.56 170.202C136.619 170.202 137.889 169.355 138.313 168.084C138.736 166.813 137.466 165.754 135.56 165.754C133.654 165.754 132.383 166.813 132.806 168.084Z" fill="black"/>
</g>

        
<g id="Frame 27">
<g id="Group 39">
<path id="Vector" d="M116.685 190.826C114.433 191.951 110.774 194.203 108.804 196.174C105.989 199.27 106.271 200.958 111.056 205.743C124.003 218.691 163.69 206.025 154.683 191.67C152.713 188.574 124.003 188.011 116.685 190.826ZM127.944 194.485C127.944 195.892 126.818 197.299 125.129 197.299C123.722 197.299 122.314 195.892 122.314 194.485C122.314 192.796 123.722 191.67 125.129 191.67C126.818 191.67 127.944 192.796 127.944 194.485ZM136.388 194.485C136.388 195.892 135.825 197.299 135.262 197.299C134.418 197.299 133.01 195.892 132.166 194.485C131.321 192.796 131.884 191.67 133.292 191.67C134.981 191.67 136.388 192.796 136.388 194.485ZM152.15 195.048C155.528 200.114 144.55 205.743 131.04 205.743C115.559 205.743 107.397 201.521 113.87 197.581C116.122 195.892 119.218 195.892 120.907 197.018C122.314 198.425 127.099 200.114 131.603 201.24C138.077 202.647 139.203 202.084 139.203 197.299C139.203 191.107 148.772 189.418 152.15 195.048Z" fill="black"/>
</g>
</g>

        
<g id="Frame 33">
<g id="Group 43">
<path id="Vector" d="M42.6958 145.951C40.7973 149.587 43.1177 179.282 45.6491 181.1C46.7038 181.858 47.5476 184.282 47.5476 186.554C47.5476 188.827 48.3914 191.099 49.4461 191.554C50.2899 192.008 52.3994 195.493 53.876 199.28C57.0402 207.613 60.2044 209.431 60.2044 203.068C60.2044 200.493 59.3607 198.674 58.3059 199.129C54.2979 200.947 49.0242 180.191 52.3994 176.252C53.2432 175.343 52.6103 170.04 50.9228 164.283C49.4461 158.526 48.3914 152.617 48.8133 151.102C49.0242 149.739 48.3914 148.527 47.5476 148.527C46.4929 148.527 45.4381 147.315 45.0163 145.8C44.3834 143.376 44.1725 143.376 42.6958 145.951ZM46.9148 165.495C46.4929 167.465 46.071 166.253 46.071 162.92C45.86 159.586 46.2819 158.071 46.9148 159.435C47.3367 160.95 47.3367 163.677 46.9148 165.495Z" fill="black"/>
<path id="Vector_2" d="M206.391 147.769C210.188 154.738 212.508 164.131 211.243 168.222C210.399 171.404 210.821 172.616 212.719 172.313C214.196 172.161 215.04 173.373 214.618 175.797C214.196 177.918 213.774 183.675 213.985 188.675C213.985 198.826 210.61 196.402 209.766 185.645L209.344 179.585L208.079 184.584C207.446 187.311 205.969 189.281 204.703 189.13C203.649 188.827 202.383 190.19 201.961 192.16C201.539 193.978 200.274 195.19 199.219 194.735C198.164 194.129 197.32 198.068 197.531 204.128C197.742 215.037 200.695 233.672 201.328 227.309C201.328 225.187 203.438 222.309 205.758 220.794C208.5 219.127 209.977 216.249 210.188 212.613C210.399 209.431 211.243 204.734 212.297 202.31C213.774 198.674 213.774 199.28 213.141 205.34C212.087 214.431 215.04 210.34 217.36 199.28C218.204 195.038 219.47 192.614 219.892 193.675C220.524 194.584 221.579 195.19 222.423 194.887C224.321 193.978 221.157 173.222 218.415 168.525C217.149 166.555 216.305 162.768 216.305 159.889C216.305 152.92 214.196 149.133 211.876 151.86C210.61 153.223 209.977 152.92 209.977 150.496C209.977 148.678 208.922 146.708 207.446 146.102C205.758 145.345 205.547 145.799 206.391 147.769ZM218.204 185.19C217.993 190.493 217.782 190.948 216.516 187.918C215.04 184.433 215.673 178.827 217.571 178.827C217.993 178.827 218.415 181.706 218.204 185.19ZM209.344 197.917C208.5 202.159 208.5 202.159 208.079 197.311C207.868 193.978 207.024 192.614 205.336 193.372C203.86 194.129 203.649 193.826 204.703 192.614C207.235 189.584 210.399 193.069 209.344 197.917ZM205.125 200.341C204.492 201.401 204.071 200.644 204.071 198.523C204.071 196.402 204.492 195.644 205.125 196.553C205.547 197.614 205.547 199.432 205.125 200.341ZM205.125 205.795C208.289 208.219 208.711 211.552 205.758 212.916C204.703 213.37 203.649 215.34 203.649 217.158C203.649 219.733 203.227 220.036 201.75 218.37C200.695 217.309 200.695 214.431 201.539 212.158C202.383 209.886 202.383 207.007 201.328 205.946C200.274 204.734 199.641 202.765 199.641 201.553C199.852 199.583 199.852 199.583 200.906 201.553C201.75 202.765 203.438 204.734 205.125 205.795Z" fill="black"/>
<path id="Vector_3" d="M55.5637 175.343C54.9309 185.645 56.1966 191.251 60.4155 196.705C62.525 199.735 64.4235 203.977 64.6345 206.098C64.6345 208.219 65.4783 211.249 66.533 212.916C68.0097 215.491 68.4315 215.34 68.4315 211.401C68.8534 205.189 72.2286 209.28 74.1271 217.764C74.76 221.4 76.2366 224.279 77.2914 224.279C79.6118 224.279 79.6118 224.582 77.2914 218.521C76.0257 215.491 76.0257 213.976 77.2914 214.431C78.3461 215.037 79.1899 213.825 79.1899 212.158C79.1899 209.886 78.1351 209.128 76.0257 209.583C73.9162 210.34 72.6505 208.977 71.8067 204.886C71.1739 201.856 70.1191 197.765 69.4863 195.796C69.0644 193.978 69.4863 192.463 70.752 192.463C71.8067 192.463 72.8614 190.039 72.8614 187.009C72.8614 184.13 72.0177 182.009 70.9629 182.615C69.6972 183.069 67.7987 182.16 66.533 180.797C64.6345 178.676 64.4235 179.888 65.2673 186.403C65.6892 190.948 66.9549 196.099 67.7987 197.614C68.8534 199.432 68.6425 200.189 67.1659 199.583C65.9002 198.977 64.4235 196.553 63.5797 193.978C62.9469 191.251 61.4703 189.584 60.2046 190.19C59.1498 190.645 58.0951 189.736 58.0951 187.918C58.0951 185.797 58.9389 185.039 60.8374 185.797C62.525 186.706 62.525 186.251 60.4155 184.433C58.7279 182.918 57.8842 179.433 58.517 175.797C58.9389 172.464 58.517 169.737 57.6732 169.737C56.6185 169.737 55.7747 172.313 55.5637 175.343ZM70.1191 189.736C69.4863 190.796 69.0644 190.039 69.0644 187.918C69.0644 185.797 69.4863 185.039 70.1191 185.948C70.541 187.009 70.541 188.827 70.1191 189.736Z" fill="black"/>
<path id="Vector_4" d="M60.4154 179.736C60.4154 181.403 61.0482 181.857 61.6811 180.645C62.3139 179.585 62.103 178.221 61.4701 177.767C60.8373 177.161 60.2045 178.07 60.4154 179.736Z" fill="black"/>
<path id="Vector_5" d="M73.9161 196.25C73.2832 200.19 73.0723 203.674 73.4942 203.977C74.127 204.432 75.1817 201.553 76.0255 197.765C76.6584 193.826 76.8693 190.342 76.4474 190.039C75.8146 189.584 74.7598 192.463 73.9161 196.25Z" fill="black"/>
<path id="Vector_6" d="M79.8225 197.614C80.6662 202.159 80.4553 204.432 79.1896 203.826C77.9239 203.371 77.0801 203.826 77.0801 205.189C77.0801 206.401 77.9239 207.613 78.9787 207.916C80.0334 208.068 81.51 210.795 82.1429 213.673C83.4086 217.764 83.1976 218.37 81.2991 216.703C79.6115 214.885 79.4006 215.491 80.4553 218.976C81.2991 221.4 82.7757 224.885 83.8304 226.551C85.518 229.278 85.518 229.278 84.6742 226.097C84.0414 223.976 84.8852 222.764 86.5728 222.764C88.8932 222.764 88.8932 223.824 87.4166 227.612C84.6742 234.732 85.3071 238.065 88.4713 232.005L91.0027 226.854L95.6435 232.46C98.1749 235.49 100.284 238.671 100.284 239.58C100.284 240.338 101.339 240.944 102.394 240.944C103.659 240.944 104.503 240.338 104.503 239.58C104.503 238.671 103.659 237.611 102.394 237.156C101.339 236.702 100.284 235.49 100.284 234.732C100.284 233.823 101.339 233.672 102.605 234.278C104.081 234.884 104.503 234.278 103.659 232.157C101.55 227.46 99.6515 217.915 99.6515 212.31C99.6515 207.916 99.2296 207.613 96.9092 209.886C94.5888 212.158 94.1669 211.704 93.3231 206.704L92.4793 200.795L92.2683 206.553C92.0574 209.734 93.1121 213.825 94.7997 215.643C98.5968 220.036 101.339 230.945 98.3858 229.581C97.1201 229.127 96.0654 226.4 95.8544 223.824C95.8544 220.036 95.4325 219.582 94.1669 221.854C92.9012 224.127 92.2683 224.279 91.4245 222.612C90.7917 221.4 90.1589 219.885 90.1589 219.279C89.9479 218.673 88.2603 217.006 86.3618 215.643C83.8304 213.673 83.1976 211.249 83.8304 205.038C84.4633 199.886 84.0414 197.614 82.9867 198.826C81.51 200.189 81.2991 199.432 81.9319 196.553C82.3538 194.281 81.9319 192.008 80.6662 191.402C79.1896 190.796 78.9787 192.917 79.8225 197.614Z" fill="black"/>
<path id="Vector_7" d="M190.57 197.008C188.039 201.402 186.562 215.491 188.882 214.431C190.148 213.825 190.992 215.037 190.992 217.309C190.992 219.43 190.148 221.249 188.882 221.249C187.828 221.249 186.773 223.067 186.984 225.339L187.195 229.581L188.882 225.794C190.359 222.764 190.57 223.37 190.781 229.127C190.992 233.217 190.148 236.399 188.882 236.399C187.828 236.399 186.773 237.156 186.773 238.065C186.773 238.823 187.828 239.126 189.093 238.52C190.992 237.762 191.203 238.671 190.148 241.55C189.304 243.823 189.726 245.489 190.992 245.489C192.047 245.489 193.101 242.762 193.101 239.58C193.101 236.247 194.156 233.066 195.211 232.611C196.476 232.157 197.109 228.521 197.109 224.582C196.898 219.43 196.476 218.521 195.422 221.249C194.789 223.37 193.734 218.37 193.101 209.886C192.469 201.553 191.414 195.796 190.57 197.008Z" fill="black"/>
<path id="Vector_8" d="M87.8385 200.795C87.8385 202.462 86.9947 205.492 86.3619 207.613C85.3072 210.492 85.5181 210.946 87.4166 209.734C88.8933 208.825 89.7371 205.795 89.1042 202.916C88.6823 200.038 88.0495 199.129 87.8385 200.795Z" fill="black"/>
<path id="Vector_9" d="M178.546 211.552C178.335 217.158 177.702 222.309 177.069 223.066C176.437 223.672 177.069 224.278 178.124 224.278C179.601 224.278 180.445 228.066 180.445 233.52C180.445 240.792 179.812 242.61 177.491 242.004C175.593 241.398 174.327 242.61 173.694 245.489C173.061 248.671 173.694 250.034 176.437 250.489C181.288 251.398 182.554 250.337 182.554 245.186C182.554 242.762 183.609 239.429 184.664 237.914C186.984 234.884 183.398 204.886 180.445 202.613C179.601 202.007 178.757 205.946 178.546 211.552ZM177.702 247.307C177.069 248.519 176.437 248.065 176.437 246.398C176.226 244.731 176.859 243.822 177.491 244.428C178.124 244.883 178.335 246.247 177.702 247.307Z" fill="black"/>
<path id="Vector_10" d="M167.999 212.31C166.311 215.188 165.889 217.461 167.155 218.067C170.53 219.582 167.788 239.429 164.412 239.429C162.725 239.429 161.459 240.186 161.459 241.095C161.459 241.853 162.514 242.156 163.78 241.55C165.467 240.944 165.678 241.55 164.623 243.823C163.991 245.489 164.202 248.065 165.256 249.428C166.733 251.398 167.999 250.186 170.53 244.277C174.327 236.399 174.749 227.309 172.429 214.734L170.952 207.462L167.999 212.31Z" fill="black"/>
<path id="Vector_11" d="M145.638 215.946C146.06 219.279 147.115 225.945 147.959 230.642C149.013 236.853 148.592 239.429 146.904 239.429C145.638 239.429 144.373 237.156 144.373 234.429C143.951 225.49 142.685 220.794 140.576 219.279C138.888 218.067 138.466 221.4 139.099 229.733L139.943 241.701L146.482 241.55C151.545 241.55 152.811 242.004 152.178 243.822C151.545 245.186 152.811 248.519 154.92 251.398C158.717 256.397 158.928 256.549 161.248 253.519C162.936 251.246 162.936 249.125 161.459 246.701C159.35 243.519 159.35 243.671 160.405 247.761L161.459 252.307L157.662 247.155C155.553 244.125 154.92 241.701 156.186 241.398C157.451 241.095 158.084 235.793 157.662 228.066C157.24 219.127 157.662 215.188 159.35 215.188C160.616 215.188 161.248 215.643 160.616 216.4C160.194 217.006 160.405 219.885 161.459 222.763C163.147 227.763 163.147 227.611 163.358 220.188C163.569 212.613 163.358 212.31 158.928 213.522C154.287 214.734 154.076 215.643 154.709 227.157C155.131 233.823 154.498 239.429 153.443 239.429C152.389 239.429 151.545 236.247 151.334 232.157C151.123 228.217 149.646 221.551 147.748 217.461C144.794 210.189 144.794 210.037 145.638 215.946Z" fill="black"/>
<path id="Vector_12" d="M106.613 215.34C106.613 216.097 105.769 216.552 104.714 216.097C102.605 215.188 103.027 223.824 105.347 225.339C105.98 225.794 106.613 227.612 106.613 229.127C106.613 230.642 107.878 231.854 109.355 231.854C110.832 231.854 113.152 233.672 114.629 235.944C119.691 244.58 124.754 249.883 128.129 250.489C133.614 251.549 134.247 247.61 129.606 240.035C126.02 233.823 126.02 233.217 128.973 235.035C132.348 237.005 132.559 236.702 131.083 231.854C130.239 228.975 128.973 224.279 128.34 221.552C126.442 214.128 123.91 215.794 124.754 223.824C125.598 231.248 124.754 231.248 122.645 223.824C120.957 218.824 117.16 218.37 117.16 223.067C117.16 225.339 117.793 225.945 118.848 224.582C119.902 223.521 120.746 225.945 120.746 230.339C120.746 234.429 120.113 237.914 119.059 237.914C116.316 237.914 114.418 227.763 115.894 220.794C117.793 212.764 113.996 214.885 111.043 223.521C109.566 228.218 109.144 228.672 108.722 225.794C108.511 223.673 108.511 220.188 108.722 217.764C108.933 215.491 108.511 213.673 107.878 213.673C107.246 213.673 106.613 214.431 106.613 215.34ZM129.184 247.459C128.973 248.216 126.864 247.156 124.965 244.883C122.856 242.611 121.801 240.187 122.645 239.278C124.121 237.459 130.239 245.186 129.184 247.459Z" fill="black"/>
<path id="Vector_13" d="M131.294 214.885C130.239 215.946 130.661 220.491 131.926 225.188C133.192 229.733 133.825 234.581 133.192 235.793C132.559 237.156 133.403 240.035 135.091 242.459C138.677 247.459 139.31 250.64 136.145 249.277C133.403 248.065 133.403 250.034 136.145 253.064C138.044 255.034 138.255 255.034 138.255 253.064C138.255 251.095 138.466 251.095 140.364 253.064C142.052 254.731 142.263 254.125 141.208 250.943C140.153 247.762 140.364 246.853 142.263 247.61C143.529 248.216 144.583 250.489 144.794 252.761C144.794 256.397 145.005 256.549 146.693 253.822C148.591 250.792 148.591 250.792 148.802 253.822C149.013 256.7 149.013 256.7 151.123 253.973C152.599 252.307 152.81 250.792 151.545 250.186C150.49 249.731 147.958 247.61 146.06 245.489C143.95 243.368 142.474 242.762 142.474 243.974C142.474 248.519 137.622 242.61 136.778 236.853C134.247 218.37 132.77 213.067 131.294 214.885Z" fill="black"/>
<path id="Vector_14" d="M176.647 233.369C176.647 236.247 177.069 237.459 177.702 235.944C178.124 234.581 178.124 232.157 177.702 230.642C177.069 229.278 176.647 230.49 176.647 233.369Z" fill="black"/>
<path id="Vector_15" d="M163.991 234.126C163.991 236.55 164.413 237.459 165.045 235.944C165.467 234.581 165.467 232.46 165.045 231.399C164.413 230.49 163.991 231.551 163.991 234.126Z" fill="black"/>
<path id="Vector_16" d="M104.504 236.247C104.504 237.005 105.98 238.368 107.668 239.429C109.355 240.489 110.832 242.307 110.832 243.519C110.832 244.731 111.676 245.337 112.731 244.731C113.996 244.277 115.684 245.186 116.949 246.549C118.215 248.064 119.27 248.519 119.27 247.761C119.27 245.489 108.933 234.884 106.613 234.884C105.347 234.884 104.504 235.49 104.504 236.247Z" fill="black"/>
</g>
</g>

    </svg>
