
    <svg width="256" height="256" viewBox="0 0 256 256" fill="none" xmlns="http://www.w3.org/2000/svg">
        
<g id="Frame 41">
<rect width="256" height="256" fill="#FF4D4D"/>
</g>

        
<style type="text/css">
	.st0{fill:none;stroke:#000000;stroke-width:4;stroke-miterlimit:10;}
</style>
<g id="head">
	<path d="M38,51.8c0.5,0,0.7,0.2,0.5,0.6c-0.2,0.3-0.1,0.6,0.4,0.6c0.4,0,0.5,0.6,0.4,1.5c-0.2,0.8-0.1,1.5,0.1,1.5
		c0.4,0,0.9,9.1,0.7,13c-0.4,8.8-0.4,9.5,0.5,10c0.7,0.4,0.7,0.5,0.1,0.6c-0.5,0-0.7,0.4-0.5,0.7c0.1,0.4-0.2,1.7-0.6,2.8l-0.9,2.1
		l1.6-1c1.5-1,1.6-1,1.6,0.2c0,0.8-0.3,1.1-0.8,0.9c-0.5-0.2-1-0.1-1.3,0.3c-0.2,0.4,0.1,0.7,0.7,0.7c0.8,0,0.9,0.1,0.3,0.5
		c-1.1,0.7-1,1.4,0.3,1.9c1,0.4,1,0.5-0.2,0.5c-1.3,0.1-1.5,0.7-1.4,4c0,1,0.1,2.8,0.1,4.1c0.1,1.4,0.4,2.2,0.8,2
		c0.4-0.2,0.9,0.1,1.1,0.6c0.2,0.7,0.1,0.8-0.8,0.5c-0.7-0.2-1.2-0.1-1.2,0.2s0.3,0.7,0.6,0.7c0.4,0,0.4,0.4,0,1.2
		c-0.8,1.5-0.2,1.6,1.4,0.1c1-0.8,1.1-0.8,0.5,0c-0.4,0.5-0.5,1.1-0.2,1.2c0.2,0.1,0.1,0.8-0.4,1.7c-0.8,1.4-0.8,1.4-0.5,0.1
		c0.2-0.7,0.1-1.3-0.2-1.3c-0.8,0-0.6,2.2,0.4,3c0.7,0.5,0.9,3.1,1,12.7c0.1,6.6,0,11.8-0.2,11.7c-0.6-0.4-0.5,4,0.1,5.7
		c0.4,0.8,0.6,3,0.6,4.7c0,0.1,0,0.2,0,0.4c1-0.7,2.1-1.2,3.2-1.7c-0.2-1.6-0.5-3.4-0.8-4.7c-0.3-1.9-0.6-12.4-0.6-23.2
		c0-21.5-0.5-34.6-1.3-40.3c-0.6-3.7-0.3-27,0.3-28c0.2-0.3,0.1-0.7-0.2-0.9c-0.3-0.2-0.4-1.9-0.2-3.7c0.4-3.3,0.3-3.3-1.2-3.3
		c-0.8,0-1.7,0.2-1.9,0.6c-0.2,0.3,0.1,1.5,0.5,2.7c0.5,1.1,0.7,2.7,0.5,3.3c-0.2,0.7-0.1,2.1,0.3,3c0.8,2.3-0.2,3.3-3.6,3.6
		C36.6,50,37.1,51.8,38,51.8z M42.4,92.9c0.1,1-0.2,1.8-0.5,1.8c-0.4,0-0.5-0.3-0.3-0.6c0.2-0.4-0.1-0.6-0.5-0.6c-0.5,0-1-0.1-1-0.2
		c0-0.7,1.2-3.4,1.4-3.4c0.2,0,0.1,0.4-0.1,1c-0.2,0.5-0.1,0.8,0.2,0.6C42,91.3,42.3,91.9,42.4,92.9z"/>
	<path d="M210.3,59.3c0,1.5,0.2,2.8,0.5,2.8c0.5,0,0.8,4.6,1,22.3c0.3,20.3,1.5,34.1,3,33.6c0.7-0.2,0.6-1.9-0.7-10.3
		c-1.1-8.2-1.1-18.9,0-18.9c1,0,1.3,1.8,1.9,11.9c0.2,3.1,0.5,6.5,0.6,7.5c0.3,2.3,1,13,1,14.2c-0.2,4.3-0.1,6.1,0.8,7.5
		c0.6,0.8,0.8,1.6,0.4,1.6c-0.3,0-0.5,0.7-0.5,1.5c0,0.8,0.1,1.4,0.4,1.3c0.3-0.2,0.3,5.3,0.1,12.3c0,0.1,0,0.2,0,0.4
		c0.6-0.7,1.4-1.2,2.2-1.5c0.1-0.7,0.3-1,0.6-0.9c0.2,0.1,0.4,0.3,0.5,0.6c0.6-0.1,1.2,0,1.8,0.1c0-0.3,0.1-0.5,0.1-0.6
		c0.3-1.4,0.1-1.8-1.1-2.2c-1.4-0.5-1.4-0.8-1-2.8c0.3-1.3,0.4-2.5,0.3-2.7c-0.1-0.2-0.3-3-0.4-6.1c-0.1-3.1-0.3-6.2-0.6-6.7
		c-0.3-0.5-0.7-2.3-0.8-3.9c-0.4-4-2.1-19.3-2.8-25.5c-0.3-2.8-0.6-8.1-0.7-11.9c-0.1-5.4-0.3-7.2-1.2-8.9c-0.8-1.5-1.1-3.4-1.1-6
		c0-4.5-1-10.4-2.1-12.5c-1.5-2.9-2.2-6.7-1.8-10c0.4-3,0.3-3.3-0.8-3.3c-0.7,0-1.4,0.2-1.6,0.6c-0.2,0.3-0.2,1.6,0.1,2.7
		c0.2,1.4,0.1,2.5-0.4,3c-0.6,0.7-0.6,1.3-0.2,2.3C209.8,55.1,210.3,56.8,210.3,59.3z M213.3,82.3c0.4-0.5,1-0.9,1.3-0.9
		c0.4,0,0.3,0.4-0.1,0.9c-0.4,0.5-1,0.9-1.3,0.9C212.8,83.2,212.9,82.8,213.3,82.3z M214.7,83.8c0.7,0,0.9,0.2,0.5,0.4
		c-0.4,0.1-0.8,0.8-0.8,1.4c0,1.4-1,2.1-1.4,0.9C212.5,85,213.3,83.8,214.7,83.8z"/>
</g>
<path class="st0" d="M42.9,141.1c0.2-3.4,0.2-5.4,0.2-8.4c2-9,3-18,1-27c-4-24,0-47-3-70.7"/>
<path class="st0" d="M208.3,43.8c0.3-0.7,0.6-1.3,0.9-2c-1.3,7,0.5,14.1,1.7,21c3.1,20.9,3.1,42.9,4.1,64.9c1,4,3,8,4,13
	c0,2,0,5,0.2,7.1"/>
<path class="st0" d="M42.9,143.7c-1.4-0.1-2.4-2-1.7-3.2c9.6,20.5,19.5,40.9,29.7,61.1c3.8,7.6,8.1,15.6,15.2,20.2
	c3.8,2.4,8.1,3.7,12.3,5.5c8.8,3.7,16.5,9.5,24.3,14.9c1.4,1,2.9,2,4.5,2.4c1.3,0.3,2.7,0.3,4.1,0.3c3.2-0.1,6.3-0.2,9.5-0.2
	c3.4-0.1,6.9-0.2,9.8-2c4.8-2.9,6.2-9.4,10.3-13.3c4.8-4.7,12.4-4.9,18.4-7.9c4.8-2.4,8.5-6.5,11.8-10.7
	c16.8-21.3,27.2-47.5,29.6-74.5"/>

        
<g id="hair">
<path id="Vector" d="M132.009 9.92403C136.468 17.9256 134.557 20.3876 125.959 18.2333C122.137 17.0023 120.863 15.4636 122.774 14.5403C124.685 13.3093 121.182 12.386 115.131 12.386C102.074 12.386 100.482 15.7713 111.946 18.5411C116.723 19.7721 119.908 22.5418 119.908 25.9271C119.589 30.5434 119.271 30.5434 114.812 25.0039C110.672 19.7721 109.717 19.4643 107.169 23.4651C104.94 26.5426 105.577 28.3891 108.443 29.0046C112.902 29.9279 111.946 41.9302 107.488 41.9302C106.214 41.9302 105.259 44.7 104.94 48.393C104.303 56.0868 97.9339 64.0883 94.1124 61.6263C92.5201 60.7031 91.2462 62.2418 91.2462 64.7038C91.2462 67.7814 93.157 68.7046 96.0231 67.7814C98.5708 66.5503 100.8 64.7038 100.8 62.8573C100.8 61.3186 102.392 61.0108 103.985 61.9341C105.895 63.1651 106.214 65.6271 105.259 67.4736C103.985 69.6279 104.303 70.2434 105.577 68.7046C107.169 67.4736 112.902 70.8589 118.634 76.0907L128.825 85.631L140.289 77.3217C151.435 69.0124 152.072 69.0124 158.123 74.2441C164.174 79.4759 164.811 79.4759 170.543 74.5519C175.32 70.5511 176.912 70.2434 178.186 73.3209C179.142 76.3984 181.052 76.7062 186.148 73.6286C191.243 70.5511 192.835 70.8589 194.428 74.2441C196.338 79.4759 207.803 80.3992 210.669 75.7829C211.625 73.9364 214.491 72.7054 216.402 72.7054C218.949 72.7054 218.631 73.6286 215.765 75.4751C212.262 77.6294 212.58 78.8604 217.357 81.6302C222.771 84.7077 222.771 85.0155 215.765 84.0922C209.714 83.7844 207.485 85.3232 205.574 91.1705C203.663 97.6333 203.345 97.941 202.708 92.7092C202.389 89.0162 201.434 88.093 200.478 90.555C199.523 92.7092 200.797 97.0178 203.345 99.7875C210.988 108.097 214.491 121.638 208.758 119.791C207.485 119.484 205.892 121.638 204.937 125.023C203.982 129.024 205.255 131.486 209.714 133.025C214.809 134.563 215.446 135.487 211.943 137.641C208.44 139.795 208.44 140.411 212.898 140.411C219.905 140.411 223.726 134.256 218.631 131.178C215.765 129.332 215.765 127.485 218.631 121.946C225.318 110.251 225.318 97.6333 218.949 94.248C215.765 92.7092 212.262 92.4015 210.988 93.3247C210.032 94.248 209.077 93.6325 209.077 91.4782C209.077 89.0162 211.306 88.4007 215.446 89.6317C224.682 92.4015 225.318 77.3217 216.402 70.5511C212.58 67.4736 212.262 65.6271 215.128 62.5496C217.038 60.0876 217.675 54.2403 216.72 48.393C215.128 41.007 215.765 38.8527 219.905 38.8527C222.771 38.8527 225 37.9294 225 36.3907C225 35.1597 218.949 34.5442 211.306 35.1597C201.752 36.0829 196.338 34.8519 193.472 31.4666C189.969 27.4659 189.969 26.5426 194.109 26.5426C196.657 26.5426 199.842 28.3891 200.478 30.2356C201.752 33.3132 202.389 33.3132 202.389 30.5434C202.708 24.6961 180.734 15.7713 176.275 20.0798C174.365 21.9263 170.543 23.4651 167.995 23.4651C164.174 23.4651 164.174 22.5418 167.04 19.7721C172.454 14.5403 171.817 5 166.403 5C163.855 5 159.397 7.15426 156.849 9.92403C151.435 14.8481 141.563 13.617 132.965 6.84651C129.143 4.07674 129.143 4.3845 132.009 9.92403ZM166.722 15.1558C164.811 20.0798 148.569 24.0806 148.569 20.0798C148.569 18.5411 150.162 17.3101 152.072 17.3101C153.983 17.3101 157.486 15.1558 160.352 12.6938C165.766 7.15426 169.269 8.69302 166.722 15.1558ZM149.525 27.4659C159.715 33.9287 168.314 34.5442 159.397 28.0814C153.346 23.4651 156.849 21.9263 165.766 25.3116C173.409 28.0814 171.817 35.1597 163.855 36.3907C159.078 37.0062 156.531 39.4682 156.531 43.469C156.531 50.855 146.977 53.317 139.971 47.4697C135.512 43.7767 135.831 43.1612 143.792 41.9302C148.888 41.007 153.346 38.5449 154.302 36.0829C155.257 33.6209 154.302 32.6977 152.391 33.9287C150.48 35.1597 147.295 33.0054 145.385 29.6201C142.518 24.6961 140.608 24.0806 135.831 26.5426C127.551 30.8511 123.092 30.5434 123.092 25.3116C123.092 19.4643 138.697 20.6953 149.525 27.4659ZM186.785 23.1574C186.785 25.0039 183.918 25.9271 180.734 25.6194C177.231 25.6194 175.32 24.0806 175.957 22.8496C178.186 19.4643 186.785 19.7721 186.785 23.1574ZM145.385 34.2364C148.569 37.9294 148.569 38.8527 144.429 38.8527C141.882 38.8527 138.06 36.6984 135.831 34.2364C132.646 30.5434 132.646 29.6201 136.786 29.6201C139.334 29.6201 143.155 31.7744 145.385 34.2364ZM180.415 34.2364C180.415 36.6984 178.823 38.8527 176.912 38.8527C175.32 38.8527 174.683 40.3914 175.638 41.9302C176.912 43.7767 179.142 44.3922 180.734 43.1612C184.874 40.6992 192.835 51.1628 190.925 56.3945C189.651 59.1643 187.74 59.4721 183.6 57.3178C179.46 55.1635 177.231 55.4713 175.957 59.1643C175.002 61.6263 172.772 62.8573 170.862 61.9341C166.085 59.1643 176.275 50.2395 182.008 52.3938C184.874 53.317 185.829 52.3938 184.874 49.9318C183.918 47.4697 179.46 46.2387 174.046 46.8542C168.951 47.4697 163.855 46.2387 162.582 44.3922C160.989 41.9302 161.945 41.6225 165.448 42.8535C169.269 44.3922 171.498 42.5457 172.772 37.3139C175.002 29.0046 180.415 26.8504 180.415 34.2364ZM191.88 37.9294C189.651 40.0837 183.6 35.7752 183.6 32.0822C183.6 30.2356 185.511 30.2356 188.377 32.6977C191.243 34.8519 192.517 37.3139 191.88 37.9294ZM129.78 41.3147C127.551 41.9302 124.366 40.6992 122.774 38.5449C120.545 35.1597 119.908 35.4674 119.908 39.4682C119.908 42.5457 118.634 45.0077 116.723 45.0077C112.902 45.0077 113.857 38.2372 117.997 35.1597C119.908 33.9287 124.048 34.5442 127.551 36.3907C132.328 38.8527 132.965 40.3914 129.78 41.3147ZM207.166 45.6232C204.3 55.1635 204.3 55.1635 196.657 50.5473C187.422 45.0077 188.377 40.6992 197.931 43.1612C202.389 44.3922 205.892 43.7767 205.892 41.9302C205.892 40.3914 206.848 38.8527 207.803 38.8527C208.758 38.8527 208.44 41.9302 207.166 45.6232ZM143.792 53.317C150.798 57.6255 155.575 60.3953 154.302 58.8566C150.798 55.1635 159.078 49.0085 165.129 50.5473C169.906 51.4705 170.225 52.7015 167.358 56.3945C164.492 59.4721 162.9 59.7798 160.989 57.01C159.715 54.548 158.123 55.779 156.531 60.0876C154.302 67.7814 150.798 68.3969 145.385 62.2418C139.652 55.4713 131.691 59.7798 133.92 68.3969C135.194 72.3976 135.194 75.7829 134.557 75.7829C133.92 75.7829 130.417 76.7062 127.232 77.6294C122.137 79.4759 122.137 79.1682 127.869 74.8596C131.372 72.0899 132.646 69.6279 130.735 69.6279C128.506 69.6279 126.277 67.1659 125.322 64.0883C124.048 58.2411 110.354 52.3938 110.354 57.6255C110.354 59.1643 113.22 60.3953 116.723 60.3953C120.863 60.3953 123.092 62.5496 123.092 66.5503C123.092 70.5511 121.5 72.0899 118.315 70.5511C115.449 69.6279 114.175 68.0891 114.812 67.1659C115.768 66.2426 114.494 64.0883 111.628 62.2418C108.762 60.0876 107.806 56.7023 108.762 53.6248C110.672 49.0085 111.628 48.7007 117.997 52.7015C125.322 57.3178 139.015 57.6255 139.015 53.317C139.015 51.7783 136.786 51.1628 134.239 52.3938C131.691 53.317 129.462 52.7015 129.462 51.4705C129.462 49.9318 126.277 49.3163 122.455 50.5473C117.997 51.4705 116.405 51.1628 117.997 48.7007C121.5 42.8535 130.099 44.3922 143.792 53.317ZM214.172 58.8566C211.625 65.9348 206.211 61.6263 208.122 53.9325C209.395 49.9318 210.988 48.7007 213.217 50.855C214.809 52.3938 215.446 56.0868 214.172 58.8566ZM202.708 60.3953C202.708 61.9341 200.478 62.5496 197.612 61.3186C193.154 59.7798 192.835 60.3953 196.02 65.9348C197.931 69.3201 201.115 73.0131 203.345 73.6286C205.892 74.8596 205.574 75.4751 202.389 75.4751C199.523 75.7829 196.02 73.6286 195.065 71.1666C193.791 67.4736 191.88 67.1659 187.103 69.3201C182.645 71.7821 180.097 71.4744 177.549 68.3969C172.454 62.5496 178.823 58.5488 184.874 63.1651C188.058 65.9348 189.651 65.6271 191.243 61.9341C193.154 57.01 202.708 55.4713 202.708 60.3953ZM145.385 68.3969C145.385 72.7054 144.429 72.7054 140.608 69.6279C138.06 67.4736 135.831 65.3193 135.831 64.7038C135.831 64.0883 138.06 63.4728 140.608 63.4728C143.155 63.4728 145.385 65.6271 145.385 68.3969ZM170.862 65.6271C170.862 67.1659 169.269 70.2434 167.677 72.7054C164.811 76.7062 164.174 76.7062 161.626 72.7054C159.397 69.6279 159.715 67.4736 162.263 65.9348C167.04 62.8573 170.862 62.8573 170.862 65.6271ZM219.586 102.25C218.631 106.866 213.217 106.866 211.306 102.25C210.032 99.4798 211.306 98.2488 214.809 98.5565C217.675 99.172 219.905 100.711 219.586 102.25Z" fill="black"/>
<path id="Vector_2" d="M81.3739 14.8481C81.3739 15.4636 80.4185 19.1566 79.7816 23.4651C79.1447 27.4659 76.9154 31.7744 75.3231 32.6977C73.7308 33.6209 71.1831 37.9294 69.5908 41.9302L66.4062 49.624L64.177 41.007C62.9031 36.3907 60.6739 32.6977 58.7631 32.6977C57.1708 32.6977 56.8524 34.2364 58.1262 36.0829C59.4 38.5449 58.4447 38.5449 54.3047 36.3907C50.8016 34.8519 46.3431 34.2364 44.4324 34.8519C42.2031 35.7752 40.2923 34.8519 40.2923 33.3132C40.2923 31.4666 43.477 29.3124 47.617 28.6969C52.3939 27.4659 51.4385 27.1581 45.0693 27.4659C39.337 27.7736 35.8339 29.6201 36.4708 31.7744C36.7893 33.9287 35.5154 35.7752 33.6047 35.7752C31.6939 35.7752 30.7385 41.6225 31.3754 50.2395C32.3308 63.7806 32.9677 65.0116 40.2923 65.0116C45.7062 65.0116 48.5724 63.1651 49.5277 58.8566C50.1647 55.4713 52.0754 51.7783 54.3047 50.5473C56.8524 48.7007 56.5339 48.0852 53.6677 48.0852C51.4385 48.0852 50.1647 46.8542 51.4385 45.0077C52.3939 43.469 55.26 42.8535 57.4893 43.7767C62.2662 45.6232 60.6739 57.3178 55.5785 60.7031C53.6677 61.6263 55.5785 63.4728 59.0816 64.3961C64.8139 65.6271 65.4508 65.0116 63.8585 58.5488C61.6293 50.2395 67.9985 48.0852 70.8647 55.779C74.0493 63.1651 66.4062 69.0124 54.3047 69.0124C47.9354 69.0124 41.2477 70.5511 39.337 72.3976C36.7893 74.8597 38.7 74.8596 46.0247 73.0131C54.3047 70.5511 56.2154 70.8589 56.2154 74.5519C56.2154 77.6294 54.3047 78.5527 50.1647 77.3217C43.1585 75.1674 33.2862 78.5527 35.8339 82.2457C36.7893 83.7844 39.0185 84.4 40.6108 83.4767C42.2031 82.2457 43.477 83.7844 43.477 86.2465C43.477 91.786 38.3816 93.017 36.4708 87.7852C34.8785 83.4767 25.3247 87.4775 23.0954 93.3248C21.8216 96.0945 23.7323 100.711 27.2354 104.096C33.9231 109.943 38.7 111.482 35.5154 106.866C33.6047 103.788 39.6554 98.8643 42.2031 101.326C44.7508 103.788 35.8339 115.791 31.6939 115.791C29.4647 115.791 27.5539 117.022 27.5539 118.868C27.5539 120.407 29.7831 121.022 32.3308 120.099C34.8785 118.868 37.1077 119.791 37.1077 121.638C37.1077 123.792 35.197 125.946 32.6493 126.87C29.1462 128.101 28.8277 130.255 31.6939 137.641C33.6047 142.565 36.4708 146.566 37.7447 146.566C42.5216 146.566 43.7954 139.795 39.9739 135.179C36.4708 131.178 36.7893 129.947 41.5662 126.562C44.4323 124.408 46.6616 119.791 46.3431 116.714C45.7062 113.636 46.3431 109.636 47.617 107.481C48.8908 105.635 47.617 101.634 44.7508 99.172C40.2923 94.5558 40.2923 94.248 46.3431 94.248C53.3493 94.248 57.8077 89.6317 53.3493 86.862C51.757 85.631 49.5277 86.862 48.8908 88.7085C47.617 91.1705 46.98 90.8627 46.98 87.7852C46.6616 82.2457 58.4447 77.6294 60.037 82.2457C60.6739 84.0922 67.0431 83.1689 74.6862 80.7069C87.1062 76.3984 88.0616 76.3984 88.0616 81.6302C88.0616 89.324 84.5585 91.786 79.4631 87.7852C76.597 85.0155 75.3231 85.3232 75.3231 87.7852C75.3231 89.6317 78.5077 92.7092 82.6478 94.248L89.6539 97.0178H82.3293C78.1893 97.3255 75.6416 98.5565 76.597 100.095C80.1001 105.327 90.9278 100.095 90.2908 93.3248C89.9724 88.7085 91.8831 86.5542 97.6154 85.0155C102.074 84.0922 105.895 80.7069 106.532 77.3217C107.806 71.1666 107.488 71.1666 103.029 77.3217C100.163 80.7069 96.9785 82.2457 95.7047 81.0147C94.1124 79.7837 95.0678 77.3217 97.6154 75.7829C102.711 72.7054 99.8447 71.4744 89.9724 72.7054C86.7877 73.0131 84.877 71.7821 85.8324 70.2434C87.1062 68.7046 88.0616 62.2418 88.3801 55.4713C89.3354 41.6225 96.0231 32.3899 103.029 34.8519C107.169 36.3907 107.169 35.4674 102.392 28.6969C99.5262 24.0806 93.7939 20.3876 89.9724 20.0798C83.6031 20.0798 83.6031 19.7721 89.6539 17.3101C95.7047 14.848 95.7047 14.5403 89.017 14.5403C84.877 14.2325 81.6924 14.5403 81.3739 14.8481ZM97.6154 26.8504C97.6154 28.0814 94.1124 28.6969 89.9724 28.3891C85.8324 28.3891 82.9662 27.1581 83.6031 25.9271C85.5139 23.1574 97.6154 24.0806 97.6154 26.8504ZM91.2462 35.7752C91.2462 37.3139 89.9724 38.8527 88.0616 38.8527C86.4693 38.8527 84.877 37.3139 84.877 35.7752C84.877 33.9287 86.4693 32.6977 88.0616 32.6977C89.9724 32.6977 91.2462 33.9287 91.2462 35.7752ZM82.3293 51.1628C80.1001 53.0093 79.1447 53.317 80.1001 52.3938C81.0554 51.1628 80.1001 48.393 78.1893 46.2387C76.2785 44.0845 75.9601 40.3914 77.2339 38.5449C78.8262 35.7752 80.4185 36.6984 82.6478 41.3147C84.877 46.2387 84.877 49.3162 82.3293 51.1628ZM41.8847 41.9302C40.9293 43.469 38.7 45.0077 36.7893 45.0077C35.197 45.0077 33.9231 43.469 33.9231 41.9302C33.9231 40.0837 36.1523 38.8527 39.0185 38.8527C41.5662 38.8527 42.84 40.0837 41.8847 41.9302ZM42.84 52.3938C38.0631 55.779 33.2231 55.779 38 58.8566C43.0954 62.2418 47.9354 63.1651 43.1585 63.1651C35.197 63.4728 36.7893 54.2403 43.1585 49.624C46.3431 47.4697 45.3877 45.931 46.3431 46.8542C47.2985 47.7775 45.7062 50.2395 42.84 52.3938ZM84.877 63.1651C84.877 70.2434 75.9601 79.7837 71.8201 77.3217C66.4062 73.9364 68.9539 69.6279 76.2785 69.3201C80.1001 69.3201 81.3739 68.3969 79.4631 67.4736C73.7308 65.3193 74.3677 57.3178 80.1001 57.3178C82.6478 57.3178 84.877 60.0876 84.877 63.1651ZM65.7693 77.6294C65.7693 80.0914 64.4954 81.3224 62.5847 80.3992C60.9924 79.4759 59.4 77.3217 59.4 75.4752C59.4 73.9364 60.9924 72.7054 62.5847 72.7054C64.4954 72.7054 65.7693 74.8596 65.7693 77.6294ZM37.1077 93.9403C37.1077 95.479 34.8785 97.3255 32.3308 98.5565C29.4647 99.4798 27.5539 98.5565 27.5539 95.7868C27.5539 93.3248 29.7831 91.1705 32.3308 91.1705C34.8785 91.1705 37.1077 92.4015 37.1077 93.9403Z" fill="black"/>
<path id="Vector_3" d="M62.5847 24.081C62.5847 26.2353 64.177 30.236 66.0878 32.698C68.6355 36.0833 68.9539 35.4678 67.0432 29.6205C65.1324 22.5422 65.1324 22.2345 70.8647 26.543C76.597 30.8515 76.597 30.8515 72.457 25.6198C67.3616 19.4647 62.5847 18.8492 62.5847 24.081Z" fill="black"/>
<path id="Vector_4" d="M18 71.1669C18 73.6289 19.5923 75.7832 21.5031 75.7832C23.0954 75.7832 23.7323 74.2444 22.7769 72.7057C21.8216 70.8592 23.0954 69.6282 26.28 69.6282C31.057 69.6282 31.057 70.2437 26.28 77.322C22.14 83.1692 22.14 84.4003 25.6431 83.1692C31.057 81.015 34.5601 73.3212 32.0124 69.3204C29.1462 64.7041 18 66.2429 18 71.1669Z" fill="black"/>
<path id="Vector_5" d="M96.9785 43.4692C95.0677 52.7018 96.3416 53.3173 100.8 45.3157C102.711 41.9305 102.711 38.5452 101.118 37.622C99.5262 36.6987 97.6154 39.1607 96.9785 43.4692Z" fill="black"/>
</g>

        
<g id="Frame 9">
<path id="Vector" d="M98.7396 112.067C91.6529 112.953 83.9757 114.724 81.9088 116.201C79.8418 117.972 71.2788 118.268 60.6488 117.087C47.9519 115.61 41.4558 116.201 38.2077 118.858C32.5974 123.583 32.5974 132.441 38.2077 134.803C40.5699 135.689 42.6369 135.099 42.6369 133.622C42.6369 131.851 41.4558 130.669 39.9794 130.669C38.503 130.669 37.9124 128.012 38.7983 124.469C40.2746 119.449 42.0463 118.563 49.7235 120.039C54.7432 120.925 64.4874 122.697 71.5741 123.583C81.0229 125.059 83.9757 126.831 83.9757 130.965C83.9757 133.917 86.6332 137.756 90.1766 139.528C99.9207 144.843 125.315 137.166 125.315 128.898C125.315 122.697 136.535 122.106 138.012 128.012C138.897 130.965 142.736 135.099 146.575 136.87C156.319 141.299 175.512 133.622 175.512 125.354C175.512 120.63 178.169 119.154 188.209 118.268C207.697 116.201 215.374 119.449 214.784 128.898C214.193 137.756 218.327 136.87 220.689 127.717C223.642 116.496 205.04 109.409 186.732 114.429C181.417 115.906 178.465 115.315 178.465 113.248C178.465 111.181 171.378 110 159.271 110C144.803 110 139.783 111.181 137.716 115.02C135.059 119.449 134.173 119.449 124.429 115.02C118.818 112.362 113.503 110.295 112.913 110.591C112.618 110.886 106.122 111.476 98.7396 112.067ZM171.083 115.906C174.626 121.811 169.606 124.469 161.929 121.221C155.138 117.972 154.842 117.382 159.862 115.61C167.539 112.362 169.016 112.657 171.083 115.906ZM98.7396 122.402L101.397 129.193V122.402C101.692 117.087 103.464 115.906 112.027 115.906C120.295 115.906 122.362 117.087 122.362 121.516C122.362 128.602 116.752 133.032 104.645 135.394C96.9679 137.166 94.0152 136.28 90.7671 132.146C85.1568 123.878 85.4521 115.906 91.6529 123.583C96.0821 128.898 96.0821 128.898 94.3104 122.402C93.1293 118.858 93.1293 115.906 94.3104 115.906C95.1963 115.906 97.2632 118.858 98.7396 122.402ZM148.937 117.087C148.937 117.972 147.756 119.449 145.984 120.335C144.508 121.221 143.031 120.63 143.031 119.154C143.031 117.382 144.508 115.906 145.984 115.906C147.756 115.906 148.937 116.496 148.937 117.087ZM157.795 128.898C157.795 130.965 158.976 130.669 160.453 128.012C161.929 125.65 163.701 125.354 164.882 127.126C167.244 130.965 159.862 133.622 152.185 131.555C145.984 130.079 144.508 127.421 147.756 123.878C150.413 121.221 157.795 124.764 157.795 128.898Z" fill="black"/>
<path id="Vector_2" d="M106.121 124.764C107.303 126.536 109.369 127.126 110.846 126.241C114.98 123.583 114.094 121.811 108.779 121.811C106.417 121.811 105.236 123.288 106.121 124.764Z" fill="black"/>
</g>

        
<g id="Frame 25">
<path id="Vector" d="M119.775 151.295C113.846 162.66 111.622 168.59 113.846 168.59C115.575 168.59 122.987 169.331 130.152 170.072C138.8 171.06 143 170.813 143 168.837C143 166.119 135.094 164.884 122.493 165.872L115.575 166.366L124.223 150.307C129.164 141.412 132.129 134 130.894 134C129.658 134 124.717 141.659 119.775 151.295Z" fill="black"/>
</g>

        
<g id="Frame 31">
<g id="Group 39">
<path id="Vector" d="M124.847 193.374C117.555 195.201 108.319 202.053 110.263 204.032C111.478 205.25 113.666 204.184 116.583 201.139C121.93 195.506 130.194 193.983 141.618 196.419C150.368 198.094 158.632 203.423 156.201 205.707C155.715 206.316 156.201 207.229 157.66 207.838C160.819 209.056 160.819 203.119 157.417 199.16C154.743 195.963 141.132 191.852 134.083 192.004C131.652 192.004 127.52 192.613 124.847 193.374Z" fill="black"/>
</g>
</g>

        
<g id="Frame 36">
<g id="Group 41">
<path id="Vector" d="M152.691 177.632C151.849 177.897 144.551 178.425 136.412 178.822C103.293 180.408 99.0835 182.787 93.7508 202.086C90.1022 215.304 92.0668 224.689 100.487 235.792L107.784 245.045L106.381 236.057C105.258 229.844 105.819 227.201 107.784 227.861C109.468 228.258 110.871 227.729 110.871 226.54C110.871 225.35 109.749 224.689 108.345 225.086C106.942 225.482 105.258 224.557 104.135 222.839C100.487 216.097 103.855 185.695 108.345 187.017C109.749 187.414 110.871 187.149 110.871 186.489C110.871 185.035 142.867 181.994 148.2 182.92C150.165 183.316 156.058 183.713 161.391 183.977C169.811 184.241 172.056 185.035 176.547 189.529C182.722 195.741 185.809 218.609 180.757 221.385C179.073 222.442 178.231 225.218 178.792 227.729C179.354 230.241 179.073 232.091 177.95 231.695C176.828 231.43 175.144 232.356 174.021 233.81C173.179 235.264 170.934 236.453 169.53 236.453C167.846 236.453 167.566 237.775 168.688 239.361C169.53 241.08 169.53 242.005 168.408 241.476C167.004 240.947 164.478 241.476 162.233 242.798C158.304 244.913 158.304 244.913 159.426 242.401C160.268 240.947 161.672 238.833 162.514 237.643C163.636 236.321 163.075 235.528 160.549 235.528C158.304 235.528 156.9 237.379 156.62 240.683C156.058 244.252 157.181 245.706 160.268 245.706C162.233 245.706 164.198 245.045 164.198 244.384C164.198 242.005 169.811 242.93 170.092 245.309C170.092 246.631 172.056 245.045 174.021 241.741C175.986 238.436 180.757 233.149 184.967 229.844C188.896 226.54 192.264 222.971 191.984 221.913C191.984 220.856 190.3 221.649 188.054 223.896L183.844 227.861L185.528 223.896C186.37 221.649 188.616 216.494 190.3 212.264C192.545 206.58 192.545 203.672 190.019 200.368C188.054 197.856 186.651 194.816 186.651 193.362C186.651 189.529 176.266 182.259 170.653 182.259C167.846 182.259 163.917 181.069 161.952 179.615C158.584 177.104 155.216 176.311 152.691 177.632ZM158.023 180.54C155.216 180.805 150.726 180.805 148.2 180.54C145.393 180.144 147.639 179.879 152.971 179.879C158.304 179.879 160.549 180.144 158.023 180.54ZM122.098 182.259C119.853 182.92 115.923 183.448 113.678 183.448C110.871 183.448 111.433 183.052 115.081 182.259C122.659 180.673 127.15 180.673 122.098 182.259ZM98.8028 206.316C98.2415 208.034 97.6801 206.977 97.6801 204.069C97.3995 201.161 97.9608 199.839 98.8028 201.029C99.3641 202.35 99.3641 204.73 98.8028 206.316ZM101.048 223.896C102.732 227.729 102.171 228.787 99.9255 227.729C98.2415 227.068 96.2768 223.764 95.7155 220.591C94.3121 213.586 98.2415 215.965 101.048 223.896Z" fill="black"/>
<path id="Vector_2" d="M111.152 220.856C112.555 223.235 113.117 226.804 112.275 228.787C111.152 230.637 111.713 232.62 113.397 233.017C115.081 233.545 118.449 235.925 120.975 238.436C123.501 240.948 126.589 243.062 127.992 243.062C129.395 243.062 129.676 243.988 128.553 245.177C127.15 247.028 126.308 246.764 123.221 244.252C120.975 242.269 119.572 241.873 119.572 243.062C119.291 248.746 133.044 249.539 133.605 243.856C133.605 242.402 134.167 239.626 134.447 237.775C135.009 235.925 133.886 232.356 132.483 229.844C130.799 227.333 129.676 224.293 129.957 223.235C130.518 221.649 130.237 221.649 127.992 223.367C126.027 224.821 126.027 227.068 127.711 229.976C131.36 236.057 131.36 243.062 127.711 240.419C126.308 239.361 124.905 236.453 124.905 234.074C124.905 231.43 123.782 229.976 122.098 230.505C119.853 231.166 119.011 229.712 119.291 225.218C119.572 224.16 110.871 216.626 109.468 216.626C108.907 216.626 109.749 218.609 111.152 220.856Z" fill="black"/>
<path id="Vector_3" d="M149.322 220.195C148.2 220.591 147.358 222.045 147.358 223.235C147.358 224.425 145.393 226.54 142.867 227.994C138.657 230.505 138.657 230.373 139.78 227.465C140.622 225.879 140.341 224.821 139.218 225.218C136.692 225.879 137.254 248.085 140.06 249.275C140.902 249.671 141.744 247.953 141.744 245.442C141.744 239.361 146.796 226.936 149.884 225.482C151.006 224.953 151.568 227.597 150.726 231.43C149.884 235.264 148.48 238.568 147.358 238.833C144.551 239.361 148.2 247.424 151.568 247.953C153.252 248.217 154.374 244.384 154.094 238.568C154.094 233.149 154.655 228.919 155.497 229.183C156.62 229.448 157.181 227.994 157.181 225.879C157.181 223.499 156.058 222.442 153.532 222.838C151.287 223.367 150.726 222.838 151.848 221.384C153.532 219.137 152.41 218.609 149.322 220.195Z" fill="black"/>
<path id="Vector_4" d="M169.811 221.12C169.811 222.31 168.688 223.235 167.004 223.235C162.514 223.235 158.023 232.884 162.233 234.074C166.724 235.396 169.25 235.396 171.214 233.81C174.021 231.695 174.582 220.592 172.056 219.798C170.934 219.402 169.811 220.063 169.811 221.12ZM167.285 232.884C163.636 234.603 163.356 232.224 166.443 227.201L168.408 223.896L169.25 227.729C169.811 229.844 168.969 232.091 167.285 232.884Z" fill="black"/>
<path id="Vector_5" d="M108.065 234.999C108.065 235.792 109.468 236.718 111.152 237.246C112.836 237.643 113.678 239.229 112.836 240.551C111.152 243.723 115.362 245.177 117.607 242.269C118.73 241.08 117.327 238.7 115.081 236.982C110.591 233.678 108.065 233.017 108.065 234.999Z" fill="black"/>
</g>
</g>

    </svg>
