
    <svg width="256" height="256" viewBox="0 0 256 256" fill="none" xmlns="http://www.w3.org/2000/svg">
        
<g id="Frame 46">
<rect width="256" height="256" fill="#4DDFFF"/>
<rect width="256" height="256" fill="#4DDFFF"/>
<rect width="256" height="256" fill="#FF8D4D"/>
</g>

        
<style type="text/css">
	.st0{fill:none;stroke:#000000;stroke-width:4;stroke-miterlimit:10;}
</style>
<g id="head">
	<path d="M35,60.1c0.5,0,0.7,0.2,0.5,0.6c-0.2,0.3-0.1,0.6,0.4,0.6c0.4,0,0.5,0.6,0.4,1.5c-0.2,0.8-0.1,1.5,0.1,1.5
		c0.4,0,0.9,9.1,0.7,13c-0.4,8.8-0.4,9.5,0.5,10c0.7,0.4,0.7,0.5,0.1,0.6c-0.5,0-0.7,0.4-0.5,0.7c0.1,0.4-0.2,1.7-0.6,2.8l-0.9,2.1
		l1.6-1c1.5-1,1.6-1,1.6,0.2c0,0.8-0.3,1.1-0.8,0.9c-0.5-0.2-1-0.1-1.3,0.3c-0.2,0.4,0.1,0.7,0.7,0.7c0.8,0,0.9,0.1,0.3,0.5
		c-1.1,0.7-1,1.4,0.3,1.9c1,0.4,1,0.5-0.2,0.5c-1.3,0.1-1.5,0.7-1.4,4c0,1,0.1,2.8,0.1,4.1c0.1,1.4,0.4,2.2,0.8,2
		c0.4-0.2,0.9,0.1,1.1,0.6c0.2,0.7,0.1,0.8-0.8,0.5c-0.7-0.2-1.2-0.1-1.2,0.2s0.3,0.7,0.6,0.7c0.4,0,0.4,0.4,0,1.2
		c-0.8,1.5-0.2,1.6,1.4,0.1c1-0.8,1.1-0.8,0.5,0c-0.4,0.5-0.5,1.1-0.2,1.2c0.2,0.1,0.1,0.8-0.4,1.7c-0.8,1.4-0.8,1.4-0.5,0.1
		c0.2-0.7,0.1-1.3-0.2-1.3c-0.8,0-0.6,2.2,0.4,3c0.7,0.5,0.9,3.1,1,12.7c0.1,6.6,0,11.8-0.2,11.7c-0.6-0.4-0.5,4,0.1,5.7
		c0.4,0.8,0.6,3,0.6,4.7c0,0.1,0,0.2,0,0.4c1-0.7,2.1-1.2,3.2-1.7c-0.2-1.6-0.5-3.4-0.8-4.7c-0.3-1.9-0.6-12.4-0.6-23.2
		c0-21.5-0.5-34.6-1.3-40.3c-0.6-3.7-0.3-27,0.3-28c0.2-0.3,0.1-0.7-0.2-0.9c-0.3-0.2-0.4-1.9-0.2-3.7c0.4-3.3,0.3-3.3-1.2-3.3
		c-0.8,0-1.7,0.2-1.9,0.6c-0.2,0.3,0.1,1.5,0.5,2.7c0.5,1.1,0.7,2.7,0.5,3.3c-0.2,0.7-0.1,2.1,0.3,3c0.8,2.3-0.2,3.3-3.6,3.6
		C33.6,58.3,34,60.1,35,60.1z M39.3,101.2c0.1,1-0.2,1.8-0.5,1.8c-0.4,0-0.5-0.3-0.3-0.6c0.2-0.4-0.1-0.6-0.5-0.6
		c-0.5,0-1-0.1-1-0.2c0-0.7,1.2-3.4,1.4-3.4c0.2,0,0.1,0.4-0.1,1c-0.2,0.5-0.1,0.8,0.2,0.6C39,99.6,39.3,100.2,39.3,101.2z"/>
	<path d="M207.2,67.6c0,1.5,0.2,2.8,0.5,2.8c0.5,0,0.8,4.6,1,22.3c0.3,20.3,1.5,34.1,3,33.6c0.7-0.2,0.6-1.9-0.7-10.3
		c-1.1-8.2-1.1-18.9,0-18.9c1,0,1.3,1.8,1.9,11.9c0.2,3.1,0.5,6.5,0.6,7.5c0.3,2.3,1,13,1,14.2c-0.2,4.3-0.1,6.1,0.8,7.5
		c0.6,0.8,0.8,1.6,0.4,1.6c-0.3,0-0.5,0.7-0.5,1.5c0,0.8,0.1,1.4,0.4,1.3c0.3-0.2,0.3,5.3,0.1,12.3c0,0.1,0,0.2,0,0.4
		c0.6-0.7,1.4-1.2,2.2-1.5c0.1-0.7,0.3-1,0.6-0.9c0.2,0.1,0.4,0.3,0.5,0.6c0.6-0.1,1.2,0,1.8,0.1c0-0.3,0.1-0.5,0.1-0.6
		c0.3-1.4,0.1-1.8-1.1-2.2c-1.4-0.5-1.4-0.8-1-2.8c0.3-1.3,0.4-2.5,0.3-2.7c-0.1-0.2-0.3-3-0.4-6.1c-0.1-3.1-0.3-6.2-0.6-6.7
		c-0.3-0.5-0.7-2.3-0.8-3.9c-0.4-4-2.1-19.3-2.8-25.5c-0.3-2.8-0.6-8.1-0.7-11.9c-0.1-5.4-0.3-7.2-1.2-8.9c-0.8-1.5-1.1-3.4-1.1-6
		c0-4.5-1-10.4-2.1-12.5c-1.5-2.9-2.2-6.7-1.8-10c0.4-3,0.3-3.3-0.8-3.3c-0.7,0-1.4,0.2-1.6,0.6c-0.2,0.3-0.2,1.6,0.1,2.7
		c0.2,1.4,0.1,2.5-0.4,3c-0.6,0.7-0.6,1.3-0.2,2.3C206.8,63.4,207.2,65.1,207.2,67.6z M210.3,90.6c0.4-0.5,1-0.9,1.3-0.9
		c0.4,0,0.3,0.4-0.1,0.9c-0.4,0.5-1,0.9-1.3,0.9C209.8,91.5,209.8,91.1,210.3,90.6z M211.7,92.1c0.7,0,0.9,0.2,0.5,0.4
		c-0.4,0.1-0.8,0.8-0.8,1.4c0,1.4-1,2.1-1.4,0.9C209.5,93.3,210.3,92.1,211.7,92.1z"/>
</g>
<path class="st0" d="M39.8,149.4C40,146,40,144,40,141c2-9,3-18,1-27c-4-24,0-47-3-70.7"/>
<path class="st0" d="M205.3,52.1c0.3-0.7,0.6-1.3,0.9-2c-1.3,7,0.5,14.1,1.7,21C211,92,211,114,212,136c1,4,3,8,4,13
	c0,2,0,5,0.2,7.1"/>
<path class="st0" d="M38.7,146.7c-0.3,4.6,0.2,9.2,0.7,13.8c1.4,14.2,2.9,28.4,4.3,42.5c0.7,6.8,1.4,13.8,5,19.6
	c3.6,5.9,9.9,9.9,16.4,12.1c6.6,2.2,13.6,2.9,20.5,3.4c17.2,1.4,34.5,2.5,51.8,2.5c18,0,36.5-1.3,53.1-8.5c8-3.4,15.5-8.4,20.5-15.5
	c7.6-10.9,8.2-25.1,8.4-38.4c0.2-10.2,0.4-20.4,0.6-30.6"/>

        
<g>
<path d="M66.8402 17.6126C64.1798 20.2735 64.771 27.3693 67.727 27.3693C71.2742 27.3693 74.2302 19.0909 71.2742 17.3169C69.7962 16.43 68.0226 16.43 66.8402 17.6126Z" fill="black"/>
<path d="M102.608 18.4996C96.6961 19.6822 90.784 21.4561 89.6016 22.6388C86.9412 25.0041 111.181 21.4561 119.753 18.2039C125.665 15.8386 125.665 15.8386 119.753 16.1343C116.501 16.1343 108.816 17.3169 102.608 18.4996Z" fill="black"/>
<path d="M59.1547 28.5517C63.8843 33.8735 64.7711 35.9431 61.5195 34.7605C58.8591 33.5779 55.9031 34.1692 54.7206 35.9431C53.8338 37.7171 54.7206 39.1954 56.7899 39.491C58.8591 39.491 63.5887 40.0824 67.1359 40.9693C70.6832 41.5607 74.526 40.6737 75.4128 39.1954C76.2996 37.4214 81.3248 36.2388 86.0545 36.2388C91.0797 36.2388 94.3313 35.0562 93.4445 33.5779C91.0797 30.03 110.294 26.7777 126.848 27.6647C146.357 28.8473 143.401 31.8039 122.709 31.8039C110.294 31.8039 102.608 33.2822 99.9478 35.9431C96.6961 39.491 96.9918 39.7867 100.539 38.6041C106.155 36.5345 118.275 40.9693 118.275 45.1086C118.275 47.1782 116.501 47.4738 113.25 45.6999C105.269 41.5607 87.2369 38.8997 81.6204 40.9693C72.1612 44.5173 77.1864 46.8825 94.0357 46.2912C104.382 45.9956 108.52 46.5869 104.973 48.0652C100.243 49.8391 99.9478 50.4304 103.495 51.6131C105.86 52.5001 104.973 52.5001 101.426 52.2044C95.8093 51.0218 95.2181 52.2044 96.4005 59.0046C97.583 65.8047 97.2874 66.396 93.4445 62.8481C90.7841 60.7785 89.6017 57.8219 90.4885 56.3436C93.1489 52.2044 85.4633 47.7695 79.2556 49.8391C76.5952 50.4304 73.6392 49.8391 72.4568 48.0652C71.57 46.5869 68.9096 45.1086 67.1359 45.1086C64.7711 45.1086 64.7711 45.9956 67.4315 47.7695C70.3876 49.5435 69.5008 50.7261 63.8843 51.6131C57.3811 53.0914 56.7899 52.5001 59.4503 47.1782C62.1107 42.7433 61.8151 41.8563 58.8591 42.7433C56.7899 43.3346 53.5382 49.5435 51.7646 56.3436C50.2866 63.1438 47.035 70.2396 45.2614 72.3092C40.5317 76.7441 40.2361 103.945 44.6702 110.154C46.7394 113.406 47.3306 109.267 46.1482 95.3706C44.6702 77.9267 44.6702 77.0398 48.2174 85.6139C52.3558 96.2576 57.6767 102.762 55.3119 93.8923C54.425 90.6401 52.6514 83.8399 51.7646 79.1094L49.6954 70.2396L55.3119 77.0398L60.9283 83.8399L59.7459 71.4222C58.2679 58.4132 61.5195 53.9784 72.7524 53.9784C81.916 53.9784 99.9478 75.8571 97.8786 84.4313C97.583 85.9095 98.7654 86.2052 100.243 85.3182C101.721 84.4313 102.313 78.5181 101.426 72.0136C99.3566 57.8219 104.677 53.6827 109.111 66.396C110.885 71.4222 112.954 74.9702 113.841 74.0832C114.728 73.1962 114.137 68.7613 112.363 64.3264C110.589 59.8915 109.998 55.4566 110.589 54.5697C111.476 53.6827 113.545 56.6393 115.023 61.0742C116.797 65.2134 118.866 68.7613 119.458 68.7613C122.118 68.7613 117.684 58.7089 112.954 53.0914C110.589 50.4304 109.703 48.0652 111.476 48.0652C116.501 48.0652 130.395 60.1872 136.602 69.9439L142.219 79.1094L140.445 69.057C138.672 61.0742 139.263 59.5959 142.219 61.6655C147.244 64.6221 123.596 42.152 116.206 36.8301C111.476 33.5779 111.772 33.2822 118.275 35.0562C127.734 37.7171 147.54 37.7171 156.703 35.0562C161.729 33.5779 162.615 33.8735 160.251 35.6475C156.999 37.7171 157.295 38.8997 161.433 40.378C164.093 41.265 165.571 43.039 164.685 44.2216C163.502 45.1086 160.842 44.2216 158.181 42.152C155.521 40.0824 152.861 39.1954 151.678 40.0824C150.791 41.265 154.634 43.9259 160.546 46.5869C178.578 53.9784 185.377 71.4222 176.804 87.3878C173.848 93.0054 174.144 93.301 177.987 90.0488C180.647 87.9792 183.603 81.4747 184.786 75.8571C186.264 66.6917 185.081 63.4394 176.213 51.9087C166.458 39.1954 166.163 38.0128 170.892 34.4648C173.553 32.3952 177.396 30.6213 178.874 30.3256C180.647 30.3256 180.056 31.5083 177.691 32.9866C175.326 34.4648 172.961 38.3084 172.666 41.265C172.075 45.9956 172.37 45.9956 175.326 41.5607C178.282 37.1258 179.169 37.1258 185.968 41.5607C190.106 44.2216 194.54 47.7695 195.723 49.5435C197.201 51.3174 199.861 50.4304 203.113 46.8825C206.069 43.9259 206.66 42.152 204.887 43.3346C202.817 44.5173 201.044 44.2216 201.044 42.7433C201.044 40.9693 197.792 38.8997 193.654 38.0128C188.628 36.8301 186.855 34.7605 188.037 32.3952C189.22 30.3256 189.22 29.7343 187.742 30.9169C186.559 32.0996 183.899 31.8039 181.83 30.3256C180.056 28.8473 161.729 26.482 141.036 25.5951C110.294 23.8211 101.426 24.4124 91.0797 28.256C77.482 33.2822 70.9788 33.5779 64.7711 28.5517C55.0163 21.1602 52.3558 21.1602 59.1547 28.5517ZM152.861 32.0996C151.974 32.9866 149.313 33.2822 147.244 32.3952C144.879 31.5083 145.766 30.6213 149.018 30.6213C152.269 30.3256 154.043 31.2126 152.861 32.0996ZM87.2369 56.3436C86.3501 57.2306 83.9853 56.3436 81.916 54.274C79.2556 51.3174 79.5512 51.0218 83.6897 52.7957C86.6457 53.6827 88.1237 55.4566 87.2369 56.3436Z" fill="black"/>
<path d="M78.3689 27.3694C77.4821 28.8477 77.7777 30.326 79.5513 30.326C81.0293 30.326 83.3942 28.8477 84.281 27.3694C85.1678 25.5955 84.8722 24.4128 83.0986 24.4128C81.6205 24.4128 79.2557 25.5955 78.3689 27.3694Z" fill="black"/>
<path d="M40.8273 29.4391C36.0976 30.0304 32.5504 31.8043 32.5504 32.987C32.5504 34.7609 41.1229 35.0566 52.6514 33.8739C54.7206 33.5783 55.6074 31.8043 54.7206 30.326C53.8338 28.5521 52.0602 27.6651 50.8778 27.6651C49.6954 27.9608 45.2613 28.8477 40.8273 29.4391Z" fill="black"/>
<path d="M39.3492 44.813C31.9592 51.0218 20.4307 77.3355 21.0219 87.3879C21.3175 92.4141 21.9087 91.8228 23.6823 85.0226L25.7515 76.1529L27.8207 87.9792C31.0724 105.127 31.9592 106.901 32.5504 96.849C32.846 89.1619 33.4372 88.8662 35.2108 93.8924C36.9844 98.0316 37.5756 94.7794 37.8712 83.5443C37.8712 67.8744 37.5756 67.8744 34.0284 76.1529C29.0031 87.3879 28.7075 83.84 33.1416 66.3961C36.3932 53.9784 36.9844 53.0914 38.758 59.8916L40.8272 67.2831L41.1228 59.0046C41.4184 54.5697 43.1921 50.1349 45.5569 49.2479C51.1733 47.1783 54.1294 39.1955 49.3997 39.1955C47.3305 39.4911 42.8965 41.8564 39.3492 44.813Z" fill="black"/>
<path d="M176.213 44.8129C175.031 46.2912 177.691 50.1347 182.125 53.0913C186.264 56.0479 193.062 61.3698 197.496 64.622C204.591 70.5352 205.773 70.5352 209.321 66.1003C211.39 63.4394 212.572 62.8481 211.685 64.3264C211.094 66.1003 214.346 70.2396 219.075 73.1962C223.805 76.4484 229.126 82.9529 231.195 87.6835C232.969 92.414 235.334 94.7793 235.925 93.0053C236.516 91.2314 233.56 81.7703 229.126 72.3092C220.553 53.387 209.616 44.2216 203.408 50.4304C200.748 53.0913 200.748 54.8653 203.408 57.5262C205.478 59.5958 206.956 62.2568 206.956 63.7351C206.956 66.1003 193.654 56.6392 183.012 46.2912C179.76 43.6302 177.395 42.7433 176.213 44.8129ZM220.258 62.8481C219.371 64.3264 219.962 66.1003 221.736 67.283C223.214 68.1699 224.692 70.5352 224.692 72.3092C224.692 74.0831 222.918 74.0831 220.258 71.7179C217.597 69.6482 216.119 66.1003 217.006 63.7351C217.893 61.6654 216.711 59.8915 214.346 59.8915C211.981 59.8915 209.912 58.4132 209.912 56.9349C209.912 54.8653 211.981 54.8653 215.824 56.9349C219.075 58.7089 221.145 61.3698 220.258 62.8481Z" fill="black"/>
<path d="M44.6702 61.6658C44.6702 64.9181 45.557 65.805 46.4437 63.4398C47.3305 61.3702 47.0349 58.7092 46.1482 57.8222C45.2614 56.6396 44.3746 58.4136 44.6702 61.6658Z" fill="black"/>
<path d="M189.219 64.6222C189.219 66.3961 192.471 70.831 196.61 74.6746C201.635 79.4051 204 84.727 204 91.8228C204 105.127 206.956 102.467 207.547 88.8662C207.842 82.3617 209.32 78.5181 211.981 78.5181C214.641 78.5181 215.528 80.2921 214.346 83.2487C211.685 90.0488 211.685 90.0488 215.824 100.988C219.667 111.336 219.667 111.336 222.623 103.945C224.396 100.101 225.283 94.1881 224.987 90.9358C224.101 83.5443 209.32 69.3527 207.547 74.6746C206.66 76.7442 203.113 74.9702 197.792 69.944C193.062 65.5091 189.219 63.1439 189.219 64.6222ZM221.736 96.849C221.736 101.875 221.145 101.875 218.78 98.3273C217.302 95.962 215.824 91.2315 215.824 87.9792C215.824 82.953 216.415 82.953 218.78 86.5009C220.258 88.8662 221.736 93.5968 221.736 96.849Z" fill="black"/>
</g>

        
<g id="Frame 8">
<path id="Vector" d="M147.165 114.282C139.203 115.135 137.781 116.272 137.781 122.244C137.781 140.442 167.07 150.395 179.865 136.746C183.278 133.049 186.121 128.784 186.121 127.078C186.121 118.832 166.217 112.576 147.165 114.282ZM175.031 120.538C177.875 122.244 180.434 125.087 180.434 126.793C180.434 132.765 171.05 140.442 163.942 140.442C154.843 140.442 140.625 129.921 140.625 123.097C140.625 118.547 142.615 117.694 155.127 117.694C163.089 117.694 171.904 119.116 175.031 120.538Z" fill="black"/>
<path id="Vector_2" d="M154.842 126.225C154.842 127.647 156.833 129.068 159.392 129.068C161.667 129.068 162.804 127.647 161.951 126.225C161.098 124.519 159.108 123.381 157.402 123.381C155.98 123.381 154.842 124.519 154.842 126.225Z" fill="black"/>
<path id="Vector_3" d="M83.7548 119.969C74.6556 123.382 70.6747 126.794 70.106 131.059C68.6842 140.158 81.7644 146.13 97.4036 143.286C110.768 141.011 116.739 136.746 119.299 128.784C123.848 115.135 107.072 111.154 83.7548 119.969ZM110.484 119.401C117.024 121.96 116.171 130.775 108.778 135.893C98.2567 143.286 72.3808 140.443 72.3808 131.628C72.3808 128.784 82.3331 124.235 96.5506 120.538C101.385 119.401 105.365 118.263 105.65 117.979C105.934 117.695 107.925 118.548 110.484 119.401Z" fill="black"/>
<path id="Vector_4" d="M92.2853 129.068C92.2853 130.49 93.7071 131.912 95.1288 131.912C96.8349 131.912 97.9724 130.49 97.9724 129.068C97.9724 127.362 96.8349 126.225 95.1288 126.225C93.7071 126.225 92.2853 127.362 92.2853 129.068Z" fill="black"/>
</g>

        
<g id="Frame 24">
<path id="Vector" d="M127.512 137.586C126.876 138.434 125.394 143.305 124.123 148.388C122.217 154.741 120.099 158.13 116.499 159.4C110.992 161.518 105.91 169.143 108.875 170.837C109.933 171.472 111.204 170.202 111.84 167.872C112.475 165.542 115.44 162.789 118.405 161.73C122.429 160.036 124.547 156.859 126.876 148.599C129.842 138.434 130.265 133.139 127.512 137.586Z" fill="black"/>
<path id="Vector_2" d="M132.383 159.612C129.841 161.307 130.477 161.518 135.136 160.46C138.948 159.824 142.549 160.248 144.667 161.942C147.42 164.272 147.632 164.272 146.784 161.518C145.514 157.706 136.619 156.436 132.383 159.612Z" fill="black"/>
<path id="Vector_3" d="M118.617 167.872C117.981 168.931 118.829 169.99 120.523 169.99C122.217 169.99 124.335 168.931 124.97 167.872C125.606 166.601 124.759 165.754 123.064 165.754C121.37 165.754 119.252 166.601 118.617 167.872Z" fill="black"/>
<path id="Vector_4" d="M132.806 168.084C133.23 169.355 134.501 170.202 135.56 170.202C136.619 170.202 137.889 169.355 138.313 168.084C138.736 166.813 137.466 165.754 135.56 165.754C133.654 165.754 132.383 166.813 132.806 168.084Z" fill="black"/>
</g>

        
<g id="Frame 30">
<g id="Group 39">
<path id="Vector" d="M148.249 185.971C147.677 186.544 137.194 187.116 124.995 187.116C112.796 187.307 102.503 187.879 102.122 188.642C100.978 190.549 108.221 206 110.127 206C111.271 206 113.749 202.376 115.655 198.179L119.467 190.168L123.661 197.226C126.139 201.041 128.235 204.093 128.807 204.093C129.76 204.093 135.288 193.22 135.288 191.312C135.288 190.549 133.572 191.885 131.476 194.555C127.854 199.324 127.854 199.324 124.995 195.509C121.564 190.74 123.661 188.26 130.713 189.214C134.907 189.596 137.003 191.503 139.672 196.844C141.387 200.85 143.484 204.093 144.437 204.093C145.199 204.093 147.296 201.231 149.393 197.798L153.014 191.694L154.73 196.844C155.683 199.896 157.208 202.185 157.97 202.185C159.114 202.185 162.545 196.272 167.31 186.353C168.073 184.827 149.774 184.445 148.249 185.971ZM161.973 188.26C161.973 192.075 159.495 198.37 158.161 198.37C157.398 198.37 156.064 196.081 155.302 193.029L153.968 187.879L148.821 194.174L143.484 200.278L141.387 195.509C138.338 188.833 138.147 189.214 146.343 188.26C159.686 186.925 161.973 186.925 161.973 188.26ZM113.749 196.463C112.605 199.515 111.08 202.185 110.509 202.185C109.937 202.185 108.412 199.515 107.268 196.463C105.171 190.931 105.362 190.74 110.509 190.74C115.655 190.74 115.846 190.931 113.749 196.463Z" fill="black"/>
</g>
</g>

        
<g id="Frame 37">
<g id="Group 40">
<path id="Vector" d="M40.8998 116.821C40.2662 119.147 39.6326 125.945 39.6326 132.206C39.6326 138.467 38.7879 143.119 37.9432 142.582C36.8872 142.045 36.2537 149.917 36.2537 159.935C36.4648 169.953 35.8313 182.654 34.9865 188.021C33.5082 197.681 33.5082 197.681 36.2537 191.599L39.2103 185.337L40.6886 193.03C41.5333 197.144 43.2228 201.08 44.2788 201.617C45.3347 202.153 45.5459 200.543 44.7011 197.502L43.2228 192.493L48.9249 198.397C52.3039 201.617 56.7388 205.016 59.0619 206.089C61.5961 207.162 59.0619 204.121 53.571 199.47C48.2913 194.64 43.2228 189.273 42.5893 187.663C41.9557 185.874 40.4774 184.443 39.4215 184.443C38.3655 184.443 37.5208 183.191 37.5208 181.76C37.5208 180.328 38.5767 179.076 39.6326 179.076C40.8998 179.076 41.7445 179.613 41.7445 180.507C41.7445 183.012 59.0619 201.438 62.4408 202.511C67.9317 204.121 71.5219 200.186 67.7205 196.608C66.031 194.998 64.5527 192.672 64.1303 191.241C63.708 187.842 55.0493 176.393 50.8256 173.53C47.6578 171.205 47.6578 171.384 50.192 175.498C52.7262 179.613 52.7262 179.792 49.3473 177.466C47.4466 176.035 46.3906 173.709 47.0242 171.742C47.6578 170.131 47.2354 168.164 45.9683 167.448C44.7011 166.733 43.8564 168.343 43.8564 171.563C43.8564 175.498 46.1794 178.539 52.3039 183.37C56.95 186.947 60.7514 190.525 60.7514 191.42C60.7514 192.314 62.2297 193.924 63.9192 195.177C65.6087 196.429 67.087 198.218 67.087 199.112C67.087 200.364 66.031 200.186 64.3415 198.933C62.652 197.86 60.5402 197.681 59.6954 198.397C58.6395 199.112 58.6395 198.754 59.4842 197.502C60.1178 196.429 56.3164 191.062 50.4032 185.516C40.8998 176.214 37.3096 167.985 41.7445 165.659C42.5893 165.122 42.5893 161.366 41.7445 157.251C40.8998 152.958 40.8998 145.981 41.7445 141.509C43.2228 134.353 43.434 134.89 43.6452 147.591C43.8564 164.228 45.7571 164.586 47.4466 148.307C48.2913 139.183 47.8689 135.605 45.1235 132.027C42.3781 128.449 42.1669 127.376 44.2788 126.482C46.1794 125.766 46.1794 125.05 44.7011 124.514C43.434 123.977 43.0116 121.115 43.434 118.252C44.49 111.991 42.8005 111.097 40.8998 116.821Z" fill="black"/>
<path id="Vector_2" d="M205.837 115.39C203.936 119.505 206.259 139.362 208.793 140.793C209.849 141.33 210.483 144.371 210.483 147.412L210.06 153.136L208.582 146.875C207.104 141.151 207.104 141.33 206.681 150.095C206.47 156.535 205.626 159.219 204.147 158.324C202.669 157.609 202.247 158.324 203.091 160.829C204.57 164.586 200.346 173.709 194.221 179.434C192.532 181.223 192.11 182.654 193.166 182.654C194.433 182.654 198.023 179.255 201.191 174.961C204.147 170.847 206.048 169.058 205.203 171.026C204.358 172.994 203.514 176.393 203.514 178.539C203.303 180.507 202.458 181.938 201.402 181.223C200.346 180.686 199.924 181.58 200.768 183.012C201.402 184.622 200.557 187.305 199.079 189.273C197.389 191.062 195.911 191.598 195.911 190.525C195.911 189.631 196.967 187.842 198.445 186.589C200.346 184.979 200.346 184.443 198.445 184.443C197.178 184.443 195.489 186.411 194.644 188.915C194.01 191.42 192.532 192.851 191.476 192.493C190.631 191.956 191.054 193.745 192.743 196.429C194.855 199.828 195.066 201.617 193.588 202.511C191.898 203.227 191.898 204.121 193.377 204.837C194.644 205.373 196.122 204.3 196.967 202.332C197.812 200.364 199.079 199.112 200.135 199.649C200.979 200.185 202.88 199.291 204.358 197.86C206.47 195.713 206.47 194.64 204.57 192.672C203.091 191.062 202.88 189.631 204.147 189.094C205.203 188.557 206.681 189.094 207.104 190.167C207.737 191.42 208.371 190.346 208.371 187.842C208.582 185.158 210.06 180.686 211.75 178.003C215.34 172.099 215.763 174.961 213.017 184.443C209.427 196.25 208.582 202.511 210.694 201.438C211.961 200.901 212.806 197.681 212.806 194.282C212.806 185.695 217.03 184.443 217.241 192.851C217.452 196.607 217.241 201.617 217.03 203.942C216.818 206.447 217.452 207.699 218.93 206.983C221.887 205.373 221.676 196.965 218.297 183.548C216.818 177.645 216.185 172.457 217.03 171.92C221.253 169.416 218.93 117 214.707 119.326C213.651 119.862 213.439 118.968 214.073 117.537C214.918 115.927 214.284 114.674 212.806 114.674C210.905 114.674 210.694 116.642 211.539 120.936C212.384 124.692 212.172 127.197 210.905 127.197C209.849 127.197 208.582 123.798 208.16 119.505C207.737 113.959 207.104 112.886 205.837 115.39ZM215.974 145.623C216.818 152.958 217.03 160.292 216.607 162.26C216.185 164.049 214.918 158.145 213.862 149.022C212.595 140.077 212.384 132.564 213.228 132.564C213.862 132.564 215.129 138.467 215.974 145.623ZM215.129 167.448C216.185 166.732 216.396 167.627 215.763 169.058C213.017 174.961 208.371 170.31 208.793 162.439C208.793 159.04 209.216 159.219 211.116 163.512C212.172 166.196 214.073 167.985 215.129 167.448ZM209.216 176.393C208.582 178.003 207.526 178.897 207.104 178.36C206.47 177.824 206.681 176.75 207.526 175.677C209.427 172.815 210.694 173.351 209.216 176.393ZM204.358 195.892C204.358 196.429 203.514 197.323 202.247 197.86C201.191 198.396 200.135 198.039 200.135 197.144C200.135 196.071 201.191 195.176 202.247 195.176C203.514 195.176 204.358 195.534 204.358 195.892Z" fill="black"/>
<path id="Vector_3" d="M49.136 142.403C49.3472 156.714 50.192 168.879 51.0367 169.595C51.8815 170.489 52.3038 158.682 51.8815 143.655C51.6703 128.807 50.6143 116.463 49.9808 116.463C49.3472 116.463 48.9248 128.091 49.136 142.403Z" fill="black"/>
<path id="Vector_4" d="M219.564 127.197C219.564 130.596 219.986 132.027 220.62 130.238C221.042 128.628 221.042 125.766 220.62 123.977C219.986 122.367 219.564 123.798 219.564 127.197Z" fill="black"/>
<path id="Vector_5" d="M37.5207 197.86C37.5207 201.259 38.3655 204.121 39.2102 204.121C40.055 204.121 40.4773 201.259 40.055 197.86C39.6326 194.461 38.7878 191.598 38.3655 191.598C37.9431 191.598 37.5207 194.461 37.5207 197.86Z" fill="black"/>
<path id="Vector_6" d="M127.845 223.603C126.577 226.644 125.944 227.002 124.254 225.034C122.776 223.245 122.565 223.603 123.832 226.108C124.677 228.076 125.31 231.475 125.31 233.621C125.099 235.947 125.944 237.378 127 236.841C127.845 236.305 129.323 238.63 130.168 242.208C130.801 245.607 132.279 248.112 133.124 247.575C134.18 247.038 135.447 248.29 136.292 250.258C136.926 252.226 138.615 253.836 139.671 253.836C140.938 253.836 141.149 252.942 140.516 252.047C139.882 250.974 140.727 249.722 142.416 249.185C144.317 248.648 145.373 247.575 144.74 246.68C144.317 245.965 145.584 240.24 147.696 233.8L151.709 222.172L145.795 221.993C140.938 221.993 140.305 222.53 141.149 226.287C141.572 228.612 141.149 230.58 140.093 230.58C138.826 230.58 137.982 232.369 138.193 234.516C138.404 239.167 135.236 243.281 132.279 241.85C131.435 241.314 131.857 240.24 133.335 239.346C135.87 237.915 135.87 237.557 133.335 236.126C131.012 234.874 131.224 234.337 134.18 233.979C137.77 233.263 137.982 233.085 134.603 230.222C132.702 228.612 131.012 226.287 131.012 225.034C131.012 223.782 132.279 224.319 134.18 226.287C137.77 230.222 138.404 228.433 135.236 223.245C132.279 218.773 129.534 218.952 127.845 223.603ZM145.795 231.475C144.528 234.158 143.05 235.947 142.416 235.589C141.994 235.052 142.628 232.548 143.895 229.864C147.274 223.782 148.752 225.034 145.795 231.475ZM140.305 245.786C139.46 247.217 138.615 248.469 138.193 248.469C137.77 248.469 137.348 247.217 137.348 245.786C137.348 244.355 138.193 243.103 139.46 243.103C140.516 243.103 140.938 244.355 140.305 245.786Z" fill="black"/>
</g>
</g>

    </svg>
