
    <svg width="256" height="256" viewBox="0 0 256 256" fill="none" xmlns="http://www.w3.org/2000/svg">
        
<g id="Frame 41">
<rect width="256" height="256" fill="#FF4D4D"/>
</g>

        
<style type="text/css">
	.st0{fill:none;stroke:#000000;stroke-width:4;stroke-miterlimit:10;}
</style>
<g id="head">
	<path d="M38,51.8c0.5,0,0.7,0.2,0.5,0.6c-0.2,0.3-0.1,0.6,0.4,0.6c0.4,0,0.5,0.6,0.4,1.5c-0.2,0.8-0.1,1.5,0.1,1.5
		c0.4,0,0.9,9.1,0.7,13c-0.4,8.8-0.4,9.5,0.5,10c0.7,0.4,0.7,0.5,0.1,0.6c-0.5,0-0.7,0.4-0.5,0.7c0.1,0.4-0.2,1.7-0.6,2.8l-0.9,2.1
		l1.6-1c1.5-1,1.6-1,1.6,0.2c0,0.8-0.3,1.1-0.8,0.9c-0.5-0.2-1-0.1-1.3,0.3c-0.2,0.4,0.1,0.7,0.7,0.7c0.8,0,0.9,0.1,0.3,0.5
		c-1.1,0.7-1,1.4,0.3,1.9c1,0.4,1,0.5-0.2,0.5c-1.3,0.1-1.5,0.7-1.4,4c0,1,0.1,2.8,0.1,4.1c0.1,1.4,0.4,2.2,0.8,2
		c0.4-0.2,0.9,0.1,1.1,0.6c0.2,0.7,0.1,0.8-0.8,0.5c-0.7-0.2-1.2-0.1-1.2,0.2s0.3,0.7,0.6,0.7c0.4,0,0.4,0.4,0,1.2
		c-0.8,1.5-0.2,1.6,1.4,0.1c1-0.8,1.1-0.8,0.5,0c-0.4,0.5-0.5,1.1-0.2,1.2c0.2,0.1,0.1,0.8-0.4,1.7c-0.8,1.4-0.8,1.4-0.5,0.1
		c0.2-0.7,0.1-1.3-0.2-1.3c-0.8,0-0.6,2.2,0.4,3c0.7,0.5,0.9,3.1,1,12.7c0.1,6.6,0,11.8-0.2,11.7c-0.6-0.4-0.5,4,0.1,5.7
		c0.4,0.8,0.6,3,0.6,4.7c0,0.1,0,0.2,0,0.4c1-0.7,2.1-1.2,3.2-1.7c-0.2-1.6-0.5-3.4-0.8-4.7c-0.3-1.9-0.6-12.4-0.6-23.2
		c0-21.5-0.5-34.6-1.3-40.3c-0.6-3.7-0.3-27,0.3-28c0.2-0.3,0.1-0.7-0.2-0.9c-0.3-0.2-0.4-1.9-0.2-3.7c0.4-3.3,0.3-3.3-1.2-3.3
		c-0.8,0-1.7,0.2-1.9,0.6c-0.2,0.3,0.1,1.5,0.5,2.7c0.5,1.1,0.7,2.7,0.5,3.3c-0.2,0.7-0.1,2.1,0.3,3c0.8,2.3-0.2,3.3-3.6,3.6
		C36.6,50,37.1,51.8,38,51.8z M42.4,92.9c0.1,1-0.2,1.8-0.5,1.8c-0.4,0-0.5-0.3-0.3-0.6c0.2-0.4-0.1-0.6-0.5-0.6c-0.5,0-1-0.1-1-0.2
		c0-0.7,1.2-3.4,1.4-3.4c0.2,0,0.1,0.4-0.1,1c-0.2,0.5-0.1,0.8,0.2,0.6C42,91.3,42.3,91.9,42.4,92.9z"/>
	<path d="M210.3,59.3c0,1.5,0.2,2.8,0.5,2.8c0.5,0,0.8,4.6,1,22.3c0.3,20.3,1.5,34.1,3,33.6c0.7-0.2,0.6-1.9-0.7-10.3
		c-1.1-8.2-1.1-18.9,0-18.9c1,0,1.3,1.8,1.9,11.9c0.2,3.1,0.5,6.5,0.6,7.5c0.3,2.3,1,13,1,14.2c-0.2,4.3-0.1,6.1,0.8,7.5
		c0.6,0.8,0.8,1.6,0.4,1.6c-0.3,0-0.5,0.7-0.5,1.5c0,0.8,0.1,1.4,0.4,1.3c0.3-0.2,0.3,5.3,0.1,12.3c0,0.1,0,0.2,0,0.4
		c0.6-0.7,1.4-1.2,2.2-1.5c0.1-0.7,0.3-1,0.6-0.9c0.2,0.1,0.4,0.3,0.5,0.6c0.6-0.1,1.2,0,1.8,0.1c0-0.3,0.1-0.5,0.1-0.6
		c0.3-1.4,0.1-1.8-1.1-2.2c-1.4-0.5-1.4-0.8-1-2.8c0.3-1.3,0.4-2.5,0.3-2.7c-0.1-0.2-0.3-3-0.4-6.1c-0.1-3.1-0.3-6.2-0.6-6.7
		c-0.3-0.5-0.7-2.3-0.8-3.9c-0.4-4-2.1-19.3-2.8-25.5c-0.3-2.8-0.6-8.1-0.7-11.9c-0.1-5.4-0.3-7.2-1.2-8.9c-0.8-1.5-1.1-3.4-1.1-6
		c0-4.5-1-10.4-2.1-12.5c-1.5-2.9-2.2-6.7-1.8-10c0.4-3,0.3-3.3-0.8-3.3c-0.7,0-1.4,0.2-1.6,0.6c-0.2,0.3-0.2,1.6,0.1,2.7
		c0.2,1.4,0.1,2.5-0.4,3c-0.6,0.7-0.6,1.3-0.2,2.3C209.8,55.1,210.3,56.8,210.3,59.3z M213.3,82.3c0.4-0.5,1-0.9,1.3-0.9
		c0.4,0,0.3,0.4-0.1,0.9c-0.4,0.5-1,0.9-1.3,0.9C212.8,83.2,212.9,82.8,213.3,82.3z M214.7,83.8c0.7,0,0.9,0.2,0.5,0.4
		c-0.4,0.1-0.8,0.8-0.8,1.4c0,1.4-1,2.1-1.4,0.9C212.5,85,213.3,83.8,214.7,83.8z"/>
</g>
<path class="st0" d="M42.9,141.1c0.2-3.4,0.2-5.4,0.2-8.4c2-9,3-18,1-27c-4-24,0-47-3-70.7"/>
<path class="st0" d="M208.3,43.8c0.3-0.7,0.6-1.3,0.9-2c-1.3,7,0.5,14.1,1.7,21c3.1,20.9,3.1,42.9,4.1,64.9c1,4,3,8,4,13
	c0,2,0,5,0.2,7.1"/>
<path class="st0" d="M219.5,142.2c-0.6,3.6-1.2,7.3-0.7,11c0.2,1.7,0.7,3.5,1,5.2c0.9,5.4-0.2,11,0.5,16.4c0,0.3,1.8-2.8,1.9-3.1
	c-14.3,12.2-28.3,24.8-42.2,37.5c-15,13.7-30.1,27.4-45.1,41c-2.5-2.8-5.8-4.7-8.9-6.7c-20.2-12.6-38.6-28.1-54.5-45.8
	c-4-4.5-7.9-9.1-11.6-13.8c-1.8-2.3-3.5-4.6-5.2-7c-0.4-0.6-0.9-1.2-1.5-1.7c-1.2-1-2.8-1.3-3.8-2.7c-0.9-1.4-1.1-3.2-1.6-4.7
	c-0.5-1.6-1.2-3.2-2.1-4.7c-1.1-1.9-2.6-3.6-3.1-5.8c-0.3-1.2-0.2-2.4-0.2-3.5c0.3-6.5,0.5-13,0.8-19.6"/>

        
<g id="hair">
<path id="Vector" d="M103.61 8.43327C92.2007 9.92611 80.791 14.1061 69.0811 21.2717C46.8622 34.7072 32.7502 48.7399 38.1548 52.0241C40.2566 53.2184 42.3584 52.9198 43.2591 50.8298C45.6612 43.0671 57.0709 32.0201 67.2795 27.5416C73.2846 24.5559 80.4908 20.6745 82.8928 18.5846C88.8979 13.8075 139.341 7.239 143.845 10.8218C148.649 14.7032 173.87 23.6602 176.572 22.7645C180.776 20.9731 199.692 42.4699 201.494 50.8298C203.595 60.384 209 62.1754 209 53.2184C209 49.9341 207.799 47.247 205.997 47.247C204.496 47.247 202.995 45.4556 202.995 43.0671C202.995 37.6929 180.476 17.3903 174.471 17.3903C171.768 17.3903 164.562 14.7032 157.957 11.4189C145.646 5.14903 133.636 4.5519 103.61 8.43327Z" fill="black"/>
<path id="Vector_2" d="M130.934 17.3903C130.934 18.8831 132.435 20.376 133.936 20.376C135.738 20.376 136.939 18.8831 136.939 17.3903C136.939 15.5989 135.738 14.4046 133.936 14.4046C132.435 14.4046 130.934 15.5989 130.934 17.3903Z" fill="black"/>
<path id="Vector_3" d="M145.946 23.3617C145.946 24.8545 147.448 26.3474 149.249 26.3474C150.751 26.3474 151.351 24.8545 150.45 23.3617C149.549 21.5703 148.048 20.376 147.147 20.376C146.547 20.376 145.946 21.5703 145.946 23.3617Z" fill="black"/>
<path id="Vector_4" d="M81.3915 26.3473C80.4907 27.8402 81.0912 29.333 82.5925 29.333C84.394 29.333 85.8953 27.8402 85.8953 26.3473C85.8953 24.5559 85.2948 23.3617 84.6943 23.3617C83.7935 23.3617 82.2923 24.5559 81.3915 26.3473Z" fill="black"/>
<path id="Vector_5" d="M124.929 26.6459C124.929 28.1387 126.43 28.7358 127.931 27.8401C129.733 26.9444 130.934 25.4516 130.934 24.5559C130.934 23.9588 129.733 23.3616 127.931 23.3616C126.43 23.3616 124.929 24.8545 124.929 26.6459Z" fill="black"/>
<path id="Vector_6" d="M97.9056 32.3187C97.9056 33.8116 99.4069 35.3044 100.908 35.3044C102.71 35.3044 103.911 33.8116 103.911 32.3187C103.911 30.5273 102.71 29.3331 100.908 29.3331C99.4069 29.3331 97.9056 30.5273 97.9056 32.3187Z" fill="black"/>
<path id="Vector_7" d="M169.967 35.6029C169.967 37.0957 171.468 37.6929 172.969 36.7972C174.771 35.9015 175.972 34.4086 175.972 33.5129C175.972 32.9158 174.771 32.3186 172.969 32.3186C171.468 32.3186 169.967 33.8115 169.967 35.6029Z" fill="black"/>
<path id="Vector_8" d="M132.435 38.29C131.534 39.7828 132.135 41.2757 133.636 41.2757C135.437 41.2757 136.939 39.7828 136.939 38.29C136.939 36.4986 136.338 35.3043 135.738 35.3043C134.837 35.3043 133.336 36.4986 132.435 38.29Z" fill="black"/>
<path id="Vector_9" d="M85.8954 41.2756C85.8954 42.7685 87.3967 44.2613 88.8979 44.2613C90.6995 44.2613 91.9005 42.7685 91.9005 41.2756C91.9005 39.4842 90.6995 38.29 88.8979 38.29C87.3967 38.29 85.8954 39.4842 85.8954 41.2756Z" fill="black"/>
<path id="Vector_10" d="M105.412 41.2756C104.511 42.7685 104.811 44.2613 106.613 44.2613C108.114 44.2613 110.516 42.7685 111.417 41.2756C112.318 39.4842 112.018 38.29 110.216 38.29C108.715 38.29 106.313 39.4842 105.412 41.2756Z" fill="black"/>
<path id="Vector_11" d="M181.977 41.2756C181.977 42.7685 183.478 44.2613 184.98 44.2613C186.781 44.2613 187.982 42.7685 187.982 41.2756C187.982 39.4842 186.781 38.29 184.98 38.29C183.478 38.29 181.977 39.4842 181.977 41.2756Z" fill="black"/>
<path id="Vector_12" d="M60.3736 47.247C59.4728 48.7399 60.0733 50.2327 61.5746 50.2327C63.3762 50.2327 64.8774 48.7399 64.8774 47.247C64.8774 45.4556 64.2769 44.2613 63.6764 44.2613C62.7756 44.2613 61.2744 45.4556 60.3736 47.247Z" fill="black"/>
<path id="Vector_13" d="M75.3864 50.2328C74.4856 51.7256 75.0861 53.2185 76.5874 53.2185C78.3889 53.2185 79.8902 51.7256 79.8902 50.2328C79.8902 48.4414 79.2897 47.2471 78.6892 47.2471C77.7884 47.2471 76.2871 48.4414 75.3864 50.2328Z" fill="black"/>
<path id="Vector_14" d="M168.466 53.2184C169.366 54.7113 170.868 56.2041 171.768 56.2041C172.369 56.2041 172.969 54.7113 172.969 53.2184C172.969 51.427 171.468 50.2328 169.667 50.2328C168.165 50.2328 167.565 51.427 168.466 53.2184Z" fill="black"/>
</g>

        
<g id="Frame 11">
<path id="Vector" d="M115.074 90.7387C114.767 98.7026 102.515 100.847 102.515 93.1891C102.515 90.7387 101.29 88.5946 99.7585 88.5946C98.227 88.5946 97.6144 91.3513 98.5333 94.7207C100.371 101.153 93.9387 103.297 88.4253 97.7837C86.5874 95.9459 85.3622 99.9278 85.0559 108.198C84.7496 120.45 85.3622 121.675 95.7766 126.576C101.903 129.639 116.605 132.702 128.551 133.621C146.623 134.847 151.524 133.928 160.101 128.72C170.515 121.982 172.659 113.099 165.614 107.279C163.164 105.135 161.938 100.847 162.857 96.8648C164.389 90.4324 164.389 90.4324 160.101 95.9459C155.506 101.459 146.623 100.234 149.993 94.4144C151.218 92.8828 150.299 91.6576 148.767 91.6576C146.929 91.6576 145.398 92.8828 145.398 94.7207C145.398 99.9278 136.821 98.09 135.29 92.2702C134.065 87.3693 133.758 87.3693 133.452 92.2702C132.839 100.847 118.443 99.6215 116.912 90.7387L115.686 84L115.074 90.7387ZM108.948 108.198C105.885 111.567 105.885 114.324 108.641 119.225C113.542 128.414 111.092 129.639 98.227 123.513C82.6055 115.856 84.4433 106.054 102.515 103.297C112.317 101.766 113.542 102.685 108.948 108.198ZM138.353 114.63C137.74 122.594 135.903 129.639 134.984 130.558C131.002 134.847 116.299 126.576 113.542 118.612C109.56 107.585 115.686 100.847 129.47 100.847H140.191L138.353 114.63ZM157.038 106.973C162.245 110.342 166.839 114.324 166.839 116.162C166.839 119.531 155.812 126.883 146.011 129.946C139.884 131.784 139.578 131.171 142.029 124.739C143.254 120.757 143.866 114.018 143.254 109.117C142.029 99.3152 143.866 99.0089 157.038 106.973Z" fill="black"/>
<path id="Vector_2" d="M122.119 111.261C120.281 119.225 122.425 125.351 127.326 125.351C131.002 125.351 131.002 107.892 127.02 105.441C125.488 104.522 123.344 106.973 122.119 111.261Z" fill="black"/>
</g>

        
<g id="Frame 24">
<path id="Vector" d="M127.512 137.586C126.876 138.434 125.394 143.305 124.123 148.388C122.217 154.741 120.099 158.13 116.499 159.4C110.992 161.518 105.91 169.143 108.875 170.837C109.933 171.472 111.204 170.202 111.84 167.872C112.475 165.542 115.44 162.789 118.405 161.73C122.429 160.036 124.547 156.859 126.876 148.599C129.842 138.434 130.265 133.139 127.512 137.586Z" fill="black"/>
<path id="Vector_2" d="M132.383 159.612C129.841 161.307 130.477 161.518 135.136 160.46C138.948 159.824 142.549 160.248 144.667 161.942C147.42 164.272 147.632 164.272 146.784 161.518C145.514 157.706 136.619 156.436 132.383 159.612Z" fill="black"/>
<path id="Vector_3" d="M118.617 167.872C117.981 168.931 118.829 169.99 120.523 169.99C122.217 169.99 124.335 168.931 124.97 167.872C125.606 166.601 124.759 165.754 123.064 165.754C121.37 165.754 119.252 166.601 118.617 167.872Z" fill="black"/>
<path id="Vector_4" d="M132.806 168.084C133.23 169.355 134.501 170.202 135.56 170.202C136.619 170.202 137.889 169.355 138.313 168.084C138.736 166.813 137.466 165.754 135.56 165.754C133.654 165.754 132.383 166.813 132.806 168.084Z" fill="black"/>
</g>

        
<g id="Frame 30">
<g id="Group 39">
<path id="Vector" d="M148.249 185.971C147.677 186.544 137.194 187.116 124.995 187.116C112.796 187.307 102.503 187.879 102.122 188.642C100.978 190.549 108.221 206 110.127 206C111.271 206 113.749 202.376 115.655 198.179L119.467 190.168L123.661 197.226C126.139 201.041 128.235 204.093 128.807 204.093C129.76 204.093 135.288 193.22 135.288 191.312C135.288 190.549 133.572 191.885 131.476 194.555C127.854 199.324 127.854 199.324 124.995 195.509C121.564 190.74 123.661 188.26 130.713 189.214C134.907 189.596 137.003 191.503 139.672 196.844C141.387 200.85 143.484 204.093 144.437 204.093C145.199 204.093 147.296 201.231 149.393 197.798L153.014 191.694L154.73 196.844C155.683 199.896 157.208 202.185 157.97 202.185C159.114 202.185 162.545 196.272 167.31 186.353C168.073 184.827 149.774 184.445 148.249 185.971ZM161.973 188.26C161.973 192.075 159.495 198.37 158.161 198.37C157.398 198.37 156.064 196.081 155.302 193.029L153.968 187.879L148.821 194.174L143.484 200.278L141.387 195.509C138.338 188.833 138.147 189.214 146.343 188.26C159.686 186.925 161.973 186.925 161.973 188.26ZM113.749 196.463C112.605 199.515 111.08 202.185 110.509 202.185C109.937 202.185 108.412 199.515 107.268 196.463C105.171 190.931 105.362 190.74 110.509 190.74C115.655 190.74 115.846 190.931 113.749 196.463Z" fill="black"/>
</g>
</g>

        
<g id="Frame 36">
<g id="Group 41">
<path id="Vector" d="M152.691 177.632C151.849 177.897 144.551 178.425 136.412 178.822C103.293 180.408 99.0835 182.787 93.7508 202.086C90.1022 215.304 92.0668 224.689 100.487 235.792L107.784 245.045L106.381 236.057C105.258 229.844 105.819 227.201 107.784 227.861C109.468 228.258 110.871 227.729 110.871 226.54C110.871 225.35 109.749 224.689 108.345 225.086C106.942 225.482 105.258 224.557 104.135 222.839C100.487 216.097 103.855 185.695 108.345 187.017C109.749 187.414 110.871 187.149 110.871 186.489C110.871 185.035 142.867 181.994 148.2 182.92C150.165 183.316 156.058 183.713 161.391 183.977C169.811 184.241 172.056 185.035 176.547 189.529C182.722 195.741 185.809 218.609 180.757 221.385C179.073 222.442 178.231 225.218 178.792 227.729C179.354 230.241 179.073 232.091 177.95 231.695C176.828 231.43 175.144 232.356 174.021 233.81C173.179 235.264 170.934 236.453 169.53 236.453C167.846 236.453 167.566 237.775 168.688 239.361C169.53 241.08 169.53 242.005 168.408 241.476C167.004 240.947 164.478 241.476 162.233 242.798C158.304 244.913 158.304 244.913 159.426 242.401C160.268 240.947 161.672 238.833 162.514 237.643C163.636 236.321 163.075 235.528 160.549 235.528C158.304 235.528 156.9 237.379 156.62 240.683C156.058 244.252 157.181 245.706 160.268 245.706C162.233 245.706 164.198 245.045 164.198 244.384C164.198 242.005 169.811 242.93 170.092 245.309C170.092 246.631 172.056 245.045 174.021 241.741C175.986 238.436 180.757 233.149 184.967 229.844C188.896 226.54 192.264 222.971 191.984 221.913C191.984 220.856 190.3 221.649 188.054 223.896L183.844 227.861L185.528 223.896C186.37 221.649 188.616 216.494 190.3 212.264C192.545 206.58 192.545 203.672 190.019 200.368C188.054 197.856 186.651 194.816 186.651 193.362C186.651 189.529 176.266 182.259 170.653 182.259C167.846 182.259 163.917 181.069 161.952 179.615C158.584 177.104 155.216 176.311 152.691 177.632ZM158.023 180.54C155.216 180.805 150.726 180.805 148.2 180.54C145.393 180.144 147.639 179.879 152.971 179.879C158.304 179.879 160.549 180.144 158.023 180.54ZM122.098 182.259C119.853 182.92 115.923 183.448 113.678 183.448C110.871 183.448 111.433 183.052 115.081 182.259C122.659 180.673 127.15 180.673 122.098 182.259ZM98.8028 206.316C98.2415 208.034 97.6801 206.977 97.6801 204.069C97.3995 201.161 97.9608 199.839 98.8028 201.029C99.3641 202.35 99.3641 204.73 98.8028 206.316ZM101.048 223.896C102.732 227.729 102.171 228.787 99.9255 227.729C98.2415 227.068 96.2768 223.764 95.7155 220.591C94.3121 213.586 98.2415 215.965 101.048 223.896Z" fill="black"/>
<path id="Vector_2" d="M111.152 220.856C112.555 223.235 113.117 226.804 112.275 228.787C111.152 230.637 111.713 232.62 113.397 233.017C115.081 233.545 118.449 235.925 120.975 238.436C123.501 240.948 126.589 243.062 127.992 243.062C129.395 243.062 129.676 243.988 128.553 245.177C127.15 247.028 126.308 246.764 123.221 244.252C120.975 242.269 119.572 241.873 119.572 243.062C119.291 248.746 133.044 249.539 133.605 243.856C133.605 242.402 134.167 239.626 134.447 237.775C135.009 235.925 133.886 232.356 132.483 229.844C130.799 227.333 129.676 224.293 129.957 223.235C130.518 221.649 130.237 221.649 127.992 223.367C126.027 224.821 126.027 227.068 127.711 229.976C131.36 236.057 131.36 243.062 127.711 240.419C126.308 239.361 124.905 236.453 124.905 234.074C124.905 231.43 123.782 229.976 122.098 230.505C119.853 231.166 119.011 229.712 119.291 225.218C119.572 224.16 110.871 216.626 109.468 216.626C108.907 216.626 109.749 218.609 111.152 220.856Z" fill="black"/>
<path id="Vector_3" d="M149.322 220.195C148.2 220.591 147.358 222.045 147.358 223.235C147.358 224.425 145.393 226.54 142.867 227.994C138.657 230.505 138.657 230.373 139.78 227.465C140.622 225.879 140.341 224.821 139.218 225.218C136.692 225.879 137.254 248.085 140.06 249.275C140.902 249.671 141.744 247.953 141.744 245.442C141.744 239.361 146.796 226.936 149.884 225.482C151.006 224.953 151.568 227.597 150.726 231.43C149.884 235.264 148.48 238.568 147.358 238.833C144.551 239.361 148.2 247.424 151.568 247.953C153.252 248.217 154.374 244.384 154.094 238.568C154.094 233.149 154.655 228.919 155.497 229.183C156.62 229.448 157.181 227.994 157.181 225.879C157.181 223.499 156.058 222.442 153.532 222.838C151.287 223.367 150.726 222.838 151.848 221.384C153.532 219.137 152.41 218.609 149.322 220.195Z" fill="black"/>
<path id="Vector_4" d="M169.811 221.12C169.811 222.31 168.688 223.235 167.004 223.235C162.514 223.235 158.023 232.884 162.233 234.074C166.724 235.396 169.25 235.396 171.214 233.81C174.021 231.695 174.582 220.592 172.056 219.798C170.934 219.402 169.811 220.063 169.811 221.12ZM167.285 232.884C163.636 234.603 163.356 232.224 166.443 227.201L168.408 223.896L169.25 227.729C169.811 229.844 168.969 232.091 167.285 232.884Z" fill="black"/>
<path id="Vector_5" d="M108.065 234.999C108.065 235.792 109.468 236.718 111.152 237.246C112.836 237.643 113.678 239.229 112.836 240.551C111.152 243.723 115.362 245.177 117.607 242.269C118.73 241.08 117.327 238.7 115.081 236.982C110.591 233.678 108.065 233.017 108.065 234.999Z" fill="black"/>
</g>
</g>

    </svg>
