
    <svg width="256" height="256" viewBox="0 0 256 256" fill="none" xmlns="http://www.w3.org/2000/svg">
        
<g id="Frame 46">
<rect width="256" height="256" fill="#4DDFFF"/>
<rect width="256" height="256" fill="#4DDFFF"/>
<rect width="256" height="256" fill="#FF8D4D"/>
</g>

        
<style type="text/css">
	.st0{fill:none;stroke:#000000;stroke-width:4;stroke-miterlimit:10;}
</style>
<g id="head">
	<path d="M35,60.1c0.5,0,0.7,0.2,0.5,0.6c-0.2,0.3-0.1,0.6,0.4,0.6c0.4,0,0.5,0.6,0.4,1.5c-0.2,0.8-0.1,1.5,0.1,1.5
		c0.4,0,0.9,9.1,0.7,13c-0.4,8.8-0.4,9.5,0.5,10c0.7,0.4,0.7,0.5,0.1,0.6c-0.5,0-0.7,0.4-0.5,0.7c0.1,0.4-0.2,1.7-0.6,2.8l-0.9,2.1
		l1.6-1c1.5-1,1.6-1,1.6,0.2c0,0.8-0.3,1.1-0.8,0.9c-0.5-0.2-1-0.1-1.3,0.3c-0.2,0.4,0.1,0.7,0.7,0.7c0.8,0,0.9,0.1,0.3,0.5
		c-1.1,0.7-1,1.4,0.3,1.9c1,0.4,1,0.5-0.2,0.5c-1.3,0.1-1.5,0.7-1.4,4c0,1,0.1,2.8,0.1,4.1c0.1,1.4,0.4,2.2,0.8,2
		c0.4-0.2,0.9,0.1,1.1,0.6c0.2,0.7,0.1,0.8-0.8,0.5c-0.7-0.2-1.2-0.1-1.2,0.2s0.3,0.7,0.6,0.7c0.4,0,0.4,0.4,0,1.2
		c-0.8,1.5-0.2,1.6,1.4,0.1c1-0.8,1.1-0.8,0.5,0c-0.4,0.5-0.5,1.1-0.2,1.2c0.2,0.1,0.1,0.8-0.4,1.7c-0.8,1.4-0.8,1.4-0.5,0.1
		c0.2-0.7,0.1-1.3-0.2-1.3c-0.8,0-0.6,2.2,0.4,3c0.7,0.5,0.9,3.1,1,12.7c0.1,6.6,0,11.8-0.2,11.7c-0.6-0.4-0.5,4,0.1,5.7
		c0.4,0.8,0.6,3,0.6,4.7c0,0.1,0,0.2,0,0.4c1-0.7,2.1-1.2,3.2-1.7c-0.2-1.6-0.5-3.4-0.8-4.7c-0.3-1.9-0.6-12.4-0.6-23.2
		c0-21.5-0.5-34.6-1.3-40.3c-0.6-3.7-0.3-27,0.3-28c0.2-0.3,0.1-0.7-0.2-0.9c-0.3-0.2-0.4-1.9-0.2-3.7c0.4-3.3,0.3-3.3-1.2-3.3
		c-0.8,0-1.7,0.2-1.9,0.6c-0.2,0.3,0.1,1.5,0.5,2.7c0.5,1.1,0.7,2.7,0.5,3.3c-0.2,0.7-0.1,2.1,0.3,3c0.8,2.3-0.2,3.3-3.6,3.6
		C33.6,58.3,34,60.1,35,60.1z M39.3,101.2c0.1,1-0.2,1.8-0.5,1.8c-0.4,0-0.5-0.3-0.3-0.6c0.2-0.4-0.1-0.6-0.5-0.6
		c-0.5,0-1-0.1-1-0.2c0-0.7,1.2-3.4,1.4-3.4c0.2,0,0.1,0.4-0.1,1c-0.2,0.5-0.1,0.8,0.2,0.6C39,99.6,39.3,100.2,39.3,101.2z"/>
	<path d="M207.2,67.6c0,1.5,0.2,2.8,0.5,2.8c0.5,0,0.8,4.6,1,22.3c0.3,20.3,1.5,34.1,3,33.6c0.7-0.2,0.6-1.9-0.7-10.3
		c-1.1-8.2-1.1-18.9,0-18.9c1,0,1.3,1.8,1.9,11.9c0.2,3.1,0.5,6.5,0.6,7.5c0.3,2.3,1,13,1,14.2c-0.2,4.3-0.1,6.1,0.8,7.5
		c0.6,0.8,0.8,1.6,0.4,1.6c-0.3,0-0.5,0.7-0.5,1.5c0,0.8,0.1,1.4,0.4,1.3c0.3-0.2,0.3,5.3,0.1,12.3c0,0.1,0,0.2,0,0.4
		c0.6-0.7,1.4-1.2,2.2-1.5c0.1-0.7,0.3-1,0.6-0.9c0.2,0.1,0.4,0.3,0.5,0.6c0.6-0.1,1.2,0,1.8,0.1c0-0.3,0.1-0.5,0.1-0.6
		c0.3-1.4,0.1-1.8-1.1-2.2c-1.4-0.5-1.4-0.8-1-2.8c0.3-1.3,0.4-2.5,0.3-2.7c-0.1-0.2-0.3-3-0.4-6.1c-0.1-3.1-0.3-6.2-0.6-6.7
		c-0.3-0.5-0.7-2.3-0.8-3.9c-0.4-4-2.1-19.3-2.8-25.5c-0.3-2.8-0.6-8.1-0.7-11.9c-0.1-5.4-0.3-7.2-1.2-8.9c-0.8-1.5-1.1-3.4-1.1-6
		c0-4.5-1-10.4-2.1-12.5c-1.5-2.9-2.2-6.7-1.8-10c0.4-3,0.3-3.3-0.8-3.3c-0.7,0-1.4,0.2-1.6,0.6c-0.2,0.3-0.2,1.6,0.1,2.7
		c0.2,1.4,0.1,2.5-0.4,3c-0.6,0.7-0.6,1.3-0.2,2.3C206.8,63.4,207.2,65.1,207.2,67.6z M210.3,90.6c0.4-0.5,1-0.9,1.3-0.9
		c0.4,0,0.3,0.4-0.1,0.9c-0.4,0.5-1,0.9-1.3,0.9C209.8,91.5,209.8,91.1,210.3,90.6z M211.7,92.1c0.7,0,0.9,0.2,0.5,0.4
		c-0.4,0.1-0.8,0.8-0.8,1.4c0,1.4-1,2.1-1.4,0.9C209.5,93.3,210.3,92.1,211.7,92.1z"/>
</g>
<path class="st0" d="M39.8,149.4C40,146,40,144,40,141c2-9,3-18,1-27c-4-24,0-47-3-70.7"/>
<path class="st0" d="M205.3,52.1c0.3-0.7,0.6-1.3,0.9-2c-1.3,7,0.5,14.1,1.7,21C211,92,211,114,212,136c1,4,3,8,4,13
	c0,2,0,5,0.2,7.1"/>
<path class="st0" d="M38.7,146.7c-0.3,4.6,0.2,9.2,0.7,13.8c1.4,14.2,2.9,28.4,4.3,42.5c0.7,6.8,1.4,13.8,5,19.6
	c3.6,5.9,9.9,9.9,16.4,12.1c6.6,2.2,13.6,2.9,20.5,3.4c17.2,1.4,34.5,2.5,51.8,2.5c18,0,36.5-1.3,53.1-8.5c8-3.4,15.5-8.4,20.5-15.5
	c7.6-10.9,8.2-25.1,8.4-38.4c0.2-10.2,0.4-20.4,0.6-30.6"/>

        
<g>
<path d="M66.8402 17.6126C64.1798 20.2735 64.771 27.3693 67.727 27.3693C71.2742 27.3693 74.2302 19.0909 71.2742 17.3169C69.7962 16.43 68.0226 16.43 66.8402 17.6126Z" fill="black"/>
<path d="M102.608 18.4996C96.6961 19.6822 90.784 21.4561 89.6016 22.6388C86.9412 25.0041 111.181 21.4561 119.753 18.2039C125.665 15.8386 125.665 15.8386 119.753 16.1343C116.501 16.1343 108.816 17.3169 102.608 18.4996Z" fill="black"/>
<path d="M59.1547 28.5517C63.8843 33.8735 64.7711 35.9431 61.5195 34.7605C58.8591 33.5779 55.9031 34.1692 54.7206 35.9431C53.8338 37.7171 54.7206 39.1954 56.7899 39.491C58.8591 39.491 63.5887 40.0824 67.1359 40.9693C70.6832 41.5607 74.526 40.6737 75.4128 39.1954C76.2996 37.4214 81.3248 36.2388 86.0545 36.2388C91.0797 36.2388 94.3313 35.0562 93.4445 33.5779C91.0797 30.03 110.294 26.7777 126.848 27.6647C146.357 28.8473 143.401 31.8039 122.709 31.8039C110.294 31.8039 102.608 33.2822 99.9478 35.9431C96.6961 39.491 96.9918 39.7867 100.539 38.6041C106.155 36.5345 118.275 40.9693 118.275 45.1086C118.275 47.1782 116.501 47.4738 113.25 45.6999C105.269 41.5607 87.2369 38.8997 81.6204 40.9693C72.1612 44.5173 77.1864 46.8825 94.0357 46.2912C104.382 45.9956 108.52 46.5869 104.973 48.0652C100.243 49.8391 99.9478 50.4304 103.495 51.6131C105.86 52.5001 104.973 52.5001 101.426 52.2044C95.8093 51.0218 95.2181 52.2044 96.4005 59.0046C97.583 65.8047 97.2874 66.396 93.4445 62.8481C90.7841 60.7785 89.6017 57.8219 90.4885 56.3436C93.1489 52.2044 85.4633 47.7695 79.2556 49.8391C76.5952 50.4304 73.6392 49.8391 72.4568 48.0652C71.57 46.5869 68.9096 45.1086 67.1359 45.1086C64.7711 45.1086 64.7711 45.9956 67.4315 47.7695C70.3876 49.5435 69.5008 50.7261 63.8843 51.6131C57.3811 53.0914 56.7899 52.5001 59.4503 47.1782C62.1107 42.7433 61.8151 41.8563 58.8591 42.7433C56.7899 43.3346 53.5382 49.5435 51.7646 56.3436C50.2866 63.1438 47.035 70.2396 45.2614 72.3092C40.5317 76.7441 40.2361 103.945 44.6702 110.154C46.7394 113.406 47.3306 109.267 46.1482 95.3706C44.6702 77.9267 44.6702 77.0398 48.2174 85.6139C52.3558 96.2576 57.6767 102.762 55.3119 93.8923C54.425 90.6401 52.6514 83.8399 51.7646 79.1094L49.6954 70.2396L55.3119 77.0398L60.9283 83.8399L59.7459 71.4222C58.2679 58.4132 61.5195 53.9784 72.7524 53.9784C81.916 53.9784 99.9478 75.8571 97.8786 84.4313C97.583 85.9095 98.7654 86.2052 100.243 85.3182C101.721 84.4313 102.313 78.5181 101.426 72.0136C99.3566 57.8219 104.677 53.6827 109.111 66.396C110.885 71.4222 112.954 74.9702 113.841 74.0832C114.728 73.1962 114.137 68.7613 112.363 64.3264C110.589 59.8915 109.998 55.4566 110.589 54.5697C111.476 53.6827 113.545 56.6393 115.023 61.0742C116.797 65.2134 118.866 68.7613 119.458 68.7613C122.118 68.7613 117.684 58.7089 112.954 53.0914C110.589 50.4304 109.703 48.0652 111.476 48.0652C116.501 48.0652 130.395 60.1872 136.602 69.9439L142.219 79.1094L140.445 69.057C138.672 61.0742 139.263 59.5959 142.219 61.6655C147.244 64.6221 123.596 42.152 116.206 36.8301C111.476 33.5779 111.772 33.2822 118.275 35.0562C127.734 37.7171 147.54 37.7171 156.703 35.0562C161.729 33.5779 162.615 33.8735 160.251 35.6475C156.999 37.7171 157.295 38.8997 161.433 40.378C164.093 41.265 165.571 43.039 164.685 44.2216C163.502 45.1086 160.842 44.2216 158.181 42.152C155.521 40.0824 152.861 39.1954 151.678 40.0824C150.791 41.265 154.634 43.9259 160.546 46.5869C178.578 53.9784 185.377 71.4222 176.804 87.3878C173.848 93.0054 174.144 93.301 177.987 90.0488C180.647 87.9792 183.603 81.4747 184.786 75.8571C186.264 66.6917 185.081 63.4394 176.213 51.9087C166.458 39.1954 166.163 38.0128 170.892 34.4648C173.553 32.3952 177.396 30.6213 178.874 30.3256C180.647 30.3256 180.056 31.5083 177.691 32.9866C175.326 34.4648 172.961 38.3084 172.666 41.265C172.075 45.9956 172.37 45.9956 175.326 41.5607C178.282 37.1258 179.169 37.1258 185.968 41.5607C190.106 44.2216 194.54 47.7695 195.723 49.5435C197.201 51.3174 199.861 50.4304 203.113 46.8825C206.069 43.9259 206.66 42.152 204.887 43.3346C202.817 44.5173 201.044 44.2216 201.044 42.7433C201.044 40.9693 197.792 38.8997 193.654 38.0128C188.628 36.8301 186.855 34.7605 188.037 32.3952C189.22 30.3256 189.22 29.7343 187.742 30.9169C186.559 32.0996 183.899 31.8039 181.83 30.3256C180.056 28.8473 161.729 26.482 141.036 25.5951C110.294 23.8211 101.426 24.4124 91.0797 28.256C77.482 33.2822 70.9788 33.5779 64.7711 28.5517C55.0163 21.1602 52.3558 21.1602 59.1547 28.5517ZM152.861 32.0996C151.974 32.9866 149.313 33.2822 147.244 32.3952C144.879 31.5083 145.766 30.6213 149.018 30.6213C152.269 30.3256 154.043 31.2126 152.861 32.0996ZM87.2369 56.3436C86.3501 57.2306 83.9853 56.3436 81.916 54.274C79.2556 51.3174 79.5512 51.0218 83.6897 52.7957C86.6457 53.6827 88.1237 55.4566 87.2369 56.3436Z" fill="black"/>
<path d="M78.3689 27.3694C77.4821 28.8477 77.7777 30.326 79.5513 30.326C81.0293 30.326 83.3942 28.8477 84.281 27.3694C85.1678 25.5955 84.8722 24.4128 83.0986 24.4128C81.6205 24.4128 79.2557 25.5955 78.3689 27.3694Z" fill="black"/>
<path d="M40.8273 29.4391C36.0976 30.0304 32.5504 31.8043 32.5504 32.987C32.5504 34.7609 41.1229 35.0566 52.6514 33.8739C54.7206 33.5783 55.6074 31.8043 54.7206 30.326C53.8338 28.5521 52.0602 27.6651 50.8778 27.6651C49.6954 27.9608 45.2613 28.8477 40.8273 29.4391Z" fill="black"/>
<path d="M39.3492 44.813C31.9592 51.0218 20.4307 77.3355 21.0219 87.3879C21.3175 92.4141 21.9087 91.8228 23.6823 85.0226L25.7515 76.1529L27.8207 87.9792C31.0724 105.127 31.9592 106.901 32.5504 96.849C32.846 89.1619 33.4372 88.8662 35.2108 93.8924C36.9844 98.0316 37.5756 94.7794 37.8712 83.5443C37.8712 67.8744 37.5756 67.8744 34.0284 76.1529C29.0031 87.3879 28.7075 83.84 33.1416 66.3961C36.3932 53.9784 36.9844 53.0914 38.758 59.8916L40.8272 67.2831L41.1228 59.0046C41.4184 54.5697 43.1921 50.1349 45.5569 49.2479C51.1733 47.1783 54.1294 39.1955 49.3997 39.1955C47.3305 39.4911 42.8965 41.8564 39.3492 44.813Z" fill="black"/>
<path d="M176.213 44.8129C175.031 46.2912 177.691 50.1347 182.125 53.0913C186.264 56.0479 193.062 61.3698 197.496 64.622C204.591 70.5352 205.773 70.5352 209.321 66.1003C211.39 63.4394 212.572 62.8481 211.685 64.3264C211.094 66.1003 214.346 70.2396 219.075 73.1962C223.805 76.4484 229.126 82.9529 231.195 87.6835C232.969 92.414 235.334 94.7793 235.925 93.0053C236.516 91.2314 233.56 81.7703 229.126 72.3092C220.553 53.387 209.616 44.2216 203.408 50.4304C200.748 53.0913 200.748 54.8653 203.408 57.5262C205.478 59.5958 206.956 62.2568 206.956 63.7351C206.956 66.1003 193.654 56.6392 183.012 46.2912C179.76 43.6302 177.395 42.7433 176.213 44.8129ZM220.258 62.8481C219.371 64.3264 219.962 66.1003 221.736 67.283C223.214 68.1699 224.692 70.5352 224.692 72.3092C224.692 74.0831 222.918 74.0831 220.258 71.7179C217.597 69.6482 216.119 66.1003 217.006 63.7351C217.893 61.6654 216.711 59.8915 214.346 59.8915C211.981 59.8915 209.912 58.4132 209.912 56.9349C209.912 54.8653 211.981 54.8653 215.824 56.9349C219.075 58.7089 221.145 61.3698 220.258 62.8481Z" fill="black"/>
<path d="M44.6702 61.6658C44.6702 64.9181 45.557 65.805 46.4437 63.4398C47.3305 61.3702 47.0349 58.7092 46.1482 57.8222C45.2614 56.6396 44.3746 58.4136 44.6702 61.6658Z" fill="black"/>
<path d="M189.219 64.6222C189.219 66.3961 192.471 70.831 196.61 74.6746C201.635 79.4051 204 84.727 204 91.8228C204 105.127 206.956 102.467 207.547 88.8662C207.842 82.3617 209.32 78.5181 211.981 78.5181C214.641 78.5181 215.528 80.2921 214.346 83.2487C211.685 90.0488 211.685 90.0488 215.824 100.988C219.667 111.336 219.667 111.336 222.623 103.945C224.396 100.101 225.283 94.1881 224.987 90.9358C224.101 83.5443 209.32 69.3527 207.547 74.6746C206.66 76.7442 203.113 74.9702 197.792 69.944C193.062 65.5091 189.219 63.1439 189.219 64.6222ZM221.736 96.849C221.736 101.875 221.145 101.875 218.78 98.3273C217.302 95.962 215.824 91.2315 215.824 87.9792C215.824 82.953 216.415 82.953 218.78 86.5009C220.258 88.8662 221.736 93.5968 221.736 96.849Z" fill="black"/>
</g>

        
<g id="Frame 12">
<path id="Vector" d="M92.6383 107.674C91.6446 110.904 98.104 111.152 103.073 107.922C104.564 106.929 106.054 107.177 106.054 108.171C106.054 109.413 108.29 110.407 110.775 110.655C113.756 110.904 115.246 109.91 114.501 107.922C113.011 104.196 94.129 103.947 92.6383 107.674Z" fill="black"/>
<path id="Vector_2" d="M137.855 108.419C136.364 110.158 135.867 112.394 136.861 113.139C137.855 114.133 139.345 113.885 140.339 112.394C141.333 110.903 145.805 109.661 150.277 109.661C162.947 109.164 164.189 108.916 162.202 107.177C159.221 103.947 140.588 104.941 137.855 108.419Z" fill="black"/>
<path id="Vector_3" d="M86.9242 120.593C86.4273 122.083 86.1789 126.555 86.9242 130.53C87.918 137.238 87.918 137.238 88.4148 129.288C88.6633 121.338 88.6633 121.338 101.334 121.338H113.756L113.011 130.53L112.265 139.971H97.8556C90.1539 139.971 83.6945 140.717 83.6945 141.71C83.6945 142.953 90.8993 143.698 99.8431 143.698H115.992V130.53V117.115L102.079 117.363C93.8805 117.612 87.6695 118.854 86.9242 120.593Z" fill="black"/>
<path id="Vector_4" d="M136.364 129.288C136.612 141.213 136.861 141.462 137.606 132.518C138.848 120.841 141.333 118.854 154.003 118.854H163.196V129.785V140.717L146.55 142.953L129.656 145.437L144.066 145.934C164.686 146.431 167.171 144.443 166.177 129.04L165.183 116.369H150.525H135.867L136.364 129.288Z" fill="black"/>
<path id="Vector_5" d="M145.556 124.319C142.824 133.76 143.817 136.245 149.531 136.245C154.5 136.245 155.742 135.002 155.742 130.034C155.742 125.562 154.5 123.823 150.774 123.823C148.041 123.823 145.805 124.071 145.556 124.319Z" fill="black"/>
<path id="Vector_6" d="M97.8556 131.276C98.601 134.009 101.334 136.245 103.818 136.245C106.8 136.245 108.539 134.506 108.539 131.276C108.539 127.798 106.8 126.307 102.576 126.307C97.8556 126.307 96.8619 127.301 97.8556 131.276Z" fill="black"/>
</g>

        
<g id="Frame 22">
<path id="Vector" d="M128.675 141.043C120.022 149.078 114.254 159.79 115.078 167.001C115.902 175.035 121.259 179.156 126.615 175.859C130.529 173.387 132.795 160.615 129.087 160.615C127.645 160.615 127.233 162.263 128.057 164.735C129.499 169.061 126.203 175.035 122.701 175.035C121.671 175.035 119.816 172.769 118.374 170.091C116.52 165.971 116.932 163.293 120.847 156.082C123.319 151.138 127.851 145.164 130.735 142.691C133.825 140.425 135.885 137.747 135.267 137.129C134.649 136.511 131.559 138.159 128.675 141.043Z" fill="black"/>
</g>

        
<g id="Frame 28">
<g id="Group 39">
<path id="Vector" d="M158.304 187.996C148.161 196.872 132.438 198.393 118.237 192.054C108.601 187.743 106.825 187.489 106.065 190.786C105.557 192.814 108.093 198.393 111.644 203.212C124.577 220.202 152.218 217.413 163.123 198.14C172.506 181.403 170.477 177.092 158.304 187.996ZM160.333 198.14C158.051 201.69 155.008 203.972 153.486 203.212C152.218 202.197 153.486 198.901 156.783 195.604C163.883 187.996 165.912 189.518 160.333 198.14ZM119.505 196.872C120.266 198.14 120.012 199.408 118.491 199.408C117.223 199.408 115.194 198.14 114.433 196.872C113.672 195.35 113.926 194.336 115.447 194.336C116.715 194.336 118.744 195.35 119.505 196.872ZM148.668 197.886C148.668 198.393 146.893 199.661 144.61 200.422C142.582 201.183 141.567 200.929 142.328 199.408C143.85 196.872 148.668 195.858 148.668 197.886ZM127.366 203.465C126.098 206.762 127.366 207.269 133.96 206.508C138.524 205.748 144.357 204.48 146.893 203.212C149.936 201.944 151.204 202.451 151.204 205.24C151.204 212.848 121.534 212.087 116.715 204.226C115.701 202.197 116.969 201.944 120.773 203.212C124.577 204.48 125.845 204.226 124.83 202.197C123.816 200.676 124.323 199.408 125.845 199.408C127.62 199.408 128.127 201.183 127.366 203.465ZM138.524 201.944C138.524 203.212 136.749 204.48 134.72 204.48C132.692 204.48 130.917 203.212 130.917 201.944C130.917 200.422 132.692 199.408 134.72 199.408C136.749 199.408 138.524 200.422 138.524 201.944Z" fill="black"/>
</g>
</g>

        
    </svg>
