
    <svg width="256" height="256" viewBox="0 0 256 256" fill="none" xmlns="http://www.w3.org/2000/svg">
        
<g id="Frame 45">
<rect width="256" height="256" fill="#4DDFFF"/>
<rect width="256" height="256" fill="#4DDFFF"/>
<rect width="256" height="256" fill="#4DDFFF"/>
</g>

        
<style type="text/css">
	.st0{fill:none;stroke:#000000;stroke-width:4;stroke-miterlimit:10;}
</style>
<g id="head">
	<path d="M35,60.1c0.5,0,0.7,0.2,0.5,0.6c-0.2,0.3-0.1,0.6,0.4,0.6c0.4,0,0.5,0.6,0.4,1.5c-0.2,0.8-0.1,1.5,0.1,1.5
		c0.4,0,0.9,9.1,0.7,13c-0.4,8.8-0.4,9.5,0.5,10c0.7,0.4,0.7,0.5,0.1,0.6c-0.5,0-0.7,0.4-0.5,0.7c0.1,0.4-0.2,1.7-0.6,2.8l-0.9,2.1
		l1.6-1c1.5-1,1.6-1,1.6,0.2c0,0.8-0.3,1.1-0.8,0.9c-0.5-0.2-1-0.1-1.3,0.3c-0.2,0.4,0.1,0.7,0.7,0.7c0.8,0,0.9,0.1,0.3,0.5
		c-1.1,0.7-1,1.4,0.3,1.9c1,0.4,1,0.5-0.2,0.5c-1.3,0.1-1.5,0.7-1.4,4c0,1,0.1,2.8,0.1,4.1c0.1,1.4,0.4,2.2,0.8,2
		c0.4-0.2,0.9,0.1,1.1,0.6c0.2,0.7,0.1,0.8-0.8,0.5c-0.7-0.2-1.2-0.1-1.2,0.2s0.3,0.7,0.6,0.7c0.4,0,0.4,0.4,0,1.2
		c-0.8,1.5-0.2,1.6,1.4,0.1c1-0.8,1.1-0.8,0.5,0c-0.4,0.5-0.5,1.1-0.2,1.2c0.2,0.1,0.1,0.8-0.4,1.7c-0.8,1.4-0.8,1.4-0.5,0.1
		c0.2-0.7,0.1-1.3-0.2-1.3c-0.8,0-0.6,2.2,0.4,3c0.7,0.5,0.9,3.1,1,12.7c0.1,6.6,0,11.8-0.2,11.7c-0.6-0.4-0.5,4,0.1,5.7
		c0.4,0.8,0.6,3,0.6,4.7c0,0.1,0,0.2,0,0.4c1-0.7,2.1-1.2,3.2-1.7c-0.2-1.6-0.5-3.4-0.8-4.7c-0.3-1.9-0.6-12.4-0.6-23.2
		c0-21.5-0.5-34.6-1.3-40.3c-0.6-3.7-0.3-27,0.3-28c0.2-0.3,0.1-0.7-0.2-0.9c-0.3-0.2-0.4-1.9-0.2-3.7c0.4-3.3,0.3-3.3-1.2-3.3
		c-0.8,0-1.7,0.2-1.9,0.6c-0.2,0.3,0.1,1.5,0.5,2.7c0.5,1.1,0.7,2.7,0.5,3.3c-0.2,0.7-0.1,2.1,0.3,3c0.8,2.3-0.2,3.3-3.6,3.6
		C33.6,58.3,34,60.1,35,60.1z M39.3,101.2c0.1,1-0.2,1.8-0.5,1.8c-0.4,0-0.5-0.3-0.3-0.6c0.2-0.4-0.1-0.6-0.5-0.6
		c-0.5,0-1-0.1-1-0.2c0-0.7,1.2-3.4,1.4-3.4c0.2,0,0.1,0.4-0.1,1c-0.2,0.5-0.1,0.8,0.2,0.6C39,99.6,39.3,100.2,39.3,101.2z"/>
	<path d="M207.2,67.6c0,1.5,0.2,2.8,0.5,2.8c0.5,0,0.8,4.6,1,22.3c0.3,20.3,1.5,34.1,3,33.6c0.7-0.2,0.6-1.9-0.7-10.3
		c-1.1-8.2-1.1-18.9,0-18.9c1,0,1.3,1.8,1.9,11.9c0.2,3.1,0.5,6.5,0.6,7.5c0.3,2.3,1,13,1,14.2c-0.2,4.3-0.1,6.1,0.8,7.5
		c0.6,0.8,0.8,1.6,0.4,1.6c-0.3,0-0.5,0.7-0.5,1.5c0,0.8,0.1,1.4,0.4,1.3c0.3-0.2,0.3,5.3,0.1,12.3c0,0.1,0,0.2,0,0.4
		c0.6-0.7,1.4-1.2,2.2-1.5c0.1-0.7,0.3-1,0.6-0.9c0.2,0.1,0.4,0.3,0.5,0.6c0.6-0.1,1.2,0,1.8,0.1c0-0.3,0.1-0.5,0.1-0.6
		c0.3-1.4,0.1-1.8-1.1-2.2c-1.4-0.5-1.4-0.8-1-2.8c0.3-1.3,0.4-2.5,0.3-2.7c-0.1-0.2-0.3-3-0.4-6.1c-0.1-3.1-0.3-6.2-0.6-6.7
		c-0.3-0.5-0.7-2.3-0.8-3.9c-0.4-4-2.1-19.3-2.8-25.5c-0.3-2.8-0.6-8.1-0.7-11.9c-0.1-5.4-0.3-7.2-1.2-8.9c-0.8-1.5-1.1-3.4-1.1-6
		c0-4.5-1-10.4-2.1-12.5c-1.5-2.9-2.2-6.7-1.8-10c0.4-3,0.3-3.3-0.8-3.3c-0.7,0-1.4,0.2-1.6,0.6c-0.2,0.3-0.2,1.6,0.1,2.7
		c0.2,1.4,0.1,2.5-0.4,3c-0.6,0.7-0.6,1.3-0.2,2.3C206.8,63.4,207.2,65.1,207.2,67.6z M210.3,90.6c0.4-0.5,1-0.9,1.3-0.9
		c0.4,0,0.3,0.4-0.1,0.9c-0.4,0.5-1,0.9-1.3,0.9C209.8,91.5,209.8,91.1,210.3,90.6z M211.7,92.1c0.7,0,0.9,0.2,0.5,0.4
		c-0.4,0.1-0.8,0.8-0.8,1.4c0,1.4-1,2.1-1.4,0.9C209.5,93.3,210.3,92.1,211.7,92.1z"/>
</g>
<path class="st0" d="M39.8,149.4C40,146,40,144,40,141c2-9,3-18,1-27c-4-24,0-47-3-70.7"/>
<path class="st0" d="M205.3,52.1c0.3-0.7,0.6-1.3,0.9-2c-1.3,7,0.5,14.1,1.7,21C211,92,211,114,212,136c1,4,3,8,4,13
	c0,2,0,5,0.2,7.1"/>
<path class="st0" d="M38.7,146.7c-0.3,4.6,0.2,9.2,0.7,13.8c1.4,14.2,2.9,28.4,4.3,42.5c0.7,6.8,1.4,13.8,5,19.6
	c3.6,5.9,9.9,9.9,16.4,12.1c6.6,2.2,13.6,2.9,20.5,3.4c17.2,1.4,34.5,2.5,51.8,2.5c18,0,36.5-1.3,53.1-8.5c8-3.4,15.5-8.4,20.5-15.5
	c7.6-10.9,8.2-25.1,8.4-38.4c0.2-10.2,0.4-20.4,0.6-30.6"/>

        
<g id="hair">
<path id="Vector" d="M144.668 18.5545C144.668 35.4742 137.327 37.0704 135.731 20.4699C133.816 0.67709 129.986 10.5735 131.262 31.9625C132.22 49.2014 131.581 54.6285 127.432 57.8209C124.56 60.3748 121.687 61.6518 121.049 61.0133C120.091 60.3748 119.134 48.563 118.495 35.1549C118.176 21.4276 116.58 10.2543 115.623 10.2543C114.027 10.2543 106.366 24.62 106.366 28.1317C106.366 29.0894 107.643 29.0894 109.239 27.8124C114.346 24.9393 116.261 31.6433 112.75 40.2628C110.835 45.6898 110.835 48.563 112.75 48.563C114.665 48.563 115.942 52.3938 115.942 57.1824C115.942 71.229 109.558 61.0133 108.281 45.3706C107.005 28.1317 103.175 26.2162 96.7911 39.6243C92.3226 49.8399 92.0034 49.8399 91.0459 42.4974C90.0884 37.3896 92.0034 32.9202 96.1527 29.7279C99.6637 26.8547 103.175 20.7892 103.813 15.6813C106.047 3.86948 100.94 4.50796 98.387 16.639C96.4719 25.5777 90.4075 30.3663 90.4075 22.7046C90.4075 21.1084 89.1308 20.4699 87.2158 21.4276C85.6199 22.3854 84.024 21.4276 84.024 19.193C84.024 16.3198 83.0665 16.3198 80.8322 19.8314C79.2363 22.3854 77.6404 25.897 77.6404 27.8124C77.6404 29.4086 79.2363 28.7701 80.8322 26.2162C84.3432 20.7892 84.6623 21.7469 85.6199 44.0936C85.6199 51.1169 89.1308 63.5672 92.961 71.8674C100.302 87.5102 105.409 92.2987 101.26 79.5292C99.9829 75.6983 99.0253 68.0366 99.3445 62.9287C99.9829 53.6708 99.6637 53.6708 95.1952 59.4171C91.0459 65.1634 90.4075 65.1634 90.4075 60.0556C90.4075 53.3516 101.898 40.2628 102.536 46.0091C102.855 48.2437 104.451 60.0556 106.047 71.8674C107.643 83.9985 110.516 95.4911 112.75 97.4066C115.942 100.599 116.261 99.9605 114.346 94.8527C113.069 91.341 111.473 85.5947 110.516 82.0831C109.239 76.9753 110.516 77.6137 115.942 84.637C119.772 89.4256 124.24 92.618 125.836 91.341C127.432 90.3833 128.709 92.618 128.709 96.1296C128.709 99.9605 129.986 102.834 131.262 102.834C132.858 102.834 133.816 99.6412 133.496 95.4911C133.177 91.6603 135.092 85.5947 137.965 82.4023C141.476 77.933 141.795 76.9753 138.603 78.8907C135.092 80.8061 134.454 80.1677 136.369 75.3791C137.646 72.1867 139.561 65.4826 140.518 60.6941C141.476 55.9055 143.391 52.7131 144.987 53.6708C146.583 54.6285 147.859 54.3093 147.54 52.7131C146.264 45.3706 148.179 35.4742 150.732 37.0704C155.52 40.2628 157.116 51.7554 153.285 55.9055C147.221 62.2903 140.518 75.0598 144.349 72.5059C146.583 71.229 147.859 73.4636 148.179 77.933C148.179 82.4023 150.094 79.5292 152.966 69.952C158.073 53.3516 165.095 48.563 160.307 65.1634C156.477 78.5715 156.796 83.6793 160.627 83.6793C162.542 83.6793 163.818 80.4869 163.818 76.656C163.818 72.8251 166.053 67.3981 168.925 64.2057C174.351 58.1401 172.755 46.6475 167.329 50.1592C162.222 53.0323 154.881 37.7088 153.285 20.7892C152.966 17.2775 151.37 14.7236 149.775 15.6813C148.498 16.639 148.179 14.4044 149.455 10.5735C150.732 6.74263 150.094 3.86948 148.179 3.86948C146.264 3.86948 144.668 10.2543 144.668 18.5545ZM141.795 37.0704C145.625 34.8357 145.306 40.2628 140.838 50.1592C136.05 60.3748 131.262 60.6941 135.092 50.1592C136.688 45.6898 137.646 40.582 137.007 38.3473C136.688 36.1126 136.688 35.1549 137.327 36.7511C138.284 38.0281 140.199 38.3473 141.795 37.0704ZM130.624 73.4636C130.943 79.8484 130.305 82.0831 129.666 77.933C128.07 69.3135 122.325 71.8674 122.325 81.4446C122.325 87.8294 121.687 87.5102 116.261 78.8907C110.516 69.3135 112.75 63.5672 121.368 66.7596C123.602 67.7173 125.517 66.7596 125.517 64.8442C125.517 62.9287 126.475 61.3325 128.07 61.3325C129.347 61.3325 130.624 66.7596 130.624 73.4636Z" fill="black"/>
<path id="Vector_2" d="M168.606 10.2541C169.564 11.8503 168.925 13.4465 167.329 13.4465C165.095 13.4465 163.818 20.789 164.138 31.6431C164.138 43.7742 165.095 47.9243 166.691 44.0934C170.84 33.5585 178.82 53.6706 176.266 68.3556C175.309 75.0596 175.628 80.4867 177.224 80.4867C178.501 80.4867 179.777 77.6135 179.777 74.1019C179.777 65.4824 183.927 66.1209 187.757 74.7404C189.672 78.8905 193.183 82.0829 195.736 82.4021C210.418 83.3598 210.737 83.6791 209.142 91.9793L207.546 100.599L203.396 92.937C201.162 88.7869 199.247 87.1907 198.928 89.7446C198.928 92.2985 201.481 97.0871 204.673 100.599C207.546 103.791 212.333 118.795 215.206 134.119C220.313 160.935 220.632 161.254 220.951 145.292C221.27 136.354 219.994 125.18 218.079 120.392C215.844 114.326 215.844 112.73 218.717 114.326C221.27 115.922 221.589 114.326 219.994 108.899C215.525 95.1717 214.568 74.1019 218.079 67.7171C220.313 63.2478 220.313 61.3323 218.079 61.3323C216.483 61.3323 214.887 62.9285 214.887 64.844C214.887 66.7594 212.652 70.271 210.099 72.8249C205.95 77.2943 205.311 76.9751 205.95 70.271C206.588 66.1209 209.461 60.0554 212.333 56.863C215.525 53.3514 217.44 49.8397 216.483 48.882C215.525 48.2435 212.652 50.159 209.78 53.6706C205.311 59.4169 204.992 59.0977 206.269 49.5205C207.226 41.2203 206.588 39.9433 203.077 42.4972C199.885 45.3704 198.928 43.4549 198.609 32.2816C198.609 19.8312 198.29 19.1928 195.417 25.8968C193.821 30.3661 193.183 38.3471 194.459 43.4549C198.29 59.7361 198.609 61.3323 195.417 61.3323C194.14 61.3323 193.502 63.567 194.459 66.1209C197.332 73.1442 191.587 71.8672 187.118 64.5247C184.246 60.0554 183.927 57.8207 186.799 56.2245C189.033 54.9476 189.353 55.2668 188.076 57.5015C186.799 59.7361 187.118 61.3323 188.714 61.3323C193.502 61.3323 196.055 52.3936 191.906 49.8397C189.991 48.5628 189.353 42.178 190.629 33.8778C191.587 26.216 190.948 19.1928 189.353 18.235C187.437 17.2773 187.118 18.5543 188.076 21.1082C189.033 23.9814 188.714 26.216 186.799 26.216C184.884 26.216 182.969 24.3006 182.011 22.0659C181.373 20.1505 179.458 19.1928 178.181 20.4697C176.585 22.0659 177.224 26.5353 179.139 30.6854C182.011 36.7509 181.692 38.6664 177.862 40.2625C174.67 41.5395 173.394 39.6241 173.394 33.2393C173.394 26.5353 172.755 25.5775 170.202 29.4084C167.648 33.2393 167.01 32.92 167.01 27.1737C167.01 23.3429 168.606 19.1928 170.202 18.235C174.351 15.6811 174.351 7.06167 169.883 7.06167C168.287 7.06167 167.648 8.33863 168.606 10.2541ZM183.927 46.6473C185.203 49.8397 184.246 50.7974 181.054 49.5205C178.82 48.5628 176.585 46.6473 176.585 45.0511C176.585 40.5818 182.011 41.8587 183.927 46.6473Z" fill="black"/>
<path id="Vector_3" d="M71.2568 19.512C71.2568 22.7044 69.0226 27.1737 66.4692 29.4084C63.9157 31.6431 61.6815 32.2815 61.6815 31.3238C61.6815 30.0469 59.4473 31.0046 56.8938 33.8777C54.0212 36.4317 49.8719 38.0279 47.3185 37.0701C43.8076 35.4739 42.5309 37.3894 42.85 42.4972C42.85 49.8397 43.1692 49.8397 45.7226 43.7742C47.6377 39.6241 48.5952 38.9856 48.5952 42.178C48.9144 46.3281 49.2336 46.3281 52.1062 42.178C54.6596 38.6663 55.2979 39.9433 54.6596 47.605C54.3404 53.3513 52.7445 58.1399 51.787 58.1399C50.5103 58.1399 48.9144 62.6093 48.276 68.3556C46.6802 83.3598 40.6158 82.7213 37.1048 67.0786C34.8706 56.863 34.5514 64.2055 35.509 96.4486C36.1473 120.072 38.0624 140.823 39.6583 142.738C41.2541 144.335 42.5309 149.123 42.5309 153.592C42.5309 157.743 43.4884 160.296 44.4459 159.339C46.361 157.423 46.361 120.711 44.4459 93.8947C43.8076 88.4676 44.7651 83.6791 46.361 83.6791C47.6377 83.6791 49.2336 91.9793 49.5528 101.876C50.1911 120.392 50.1911 120.072 52.1062 96.4486C53.3829 83.3598 54.3404 76.6558 54.6596 82.0829C54.9788 87.1907 56.8938 93.8947 58.4897 96.4486C60.724 99.9603 61.0431 97.0871 60.0856 86.8714C59.1281 77.9327 59.4473 74.1019 61.3623 76.975C63.2774 79.8482 64.8733 80.1674 66.15 77.6135C68.7034 73.7826 65.5116 66.7594 62.3199 68.9941C61.0431 69.6325 59.7664 66.7594 59.7664 62.6093C59.4473 58.4592 60.4048 54.9475 62.0007 54.9475C63.5966 54.9475 64.2349 51.7551 63.2774 47.605C62.0007 43.1357 63.5966 38.3471 67.4267 34.197C74.1294 26.8545 78.5979 13.4464 74.1294 13.4464C72.5335 13.4464 71.2568 16.0004 71.2568 19.512Z" fill="black"/>
<path id="Vector_4" d="M70.2994 41.5395C69.6611 46.3281 68.0652 53.0322 66.4693 56.5438C64.5542 61.6516 64.8734 61.9708 68.0652 58.14C70.9378 54.3091 71.2569 56.2245 70.6186 67.0787C69.6611 78.8905 70.2994 80.806 75.0871 79.529C78.2788 78.5713 80.8323 79.2098 80.8323 80.806C80.8323 82.4022 83.0665 83.6791 85.6199 83.6791C88.1733 83.6791 90.4076 81.1252 90.4076 77.9328C90.4076 73.4635 89.7692 73.1442 87.2158 77.2943C84.6624 81.4444 84.024 81.1252 84.024 76.3366C84.024 73.4635 82.7473 70.9095 81.1514 70.9095C77.6405 70.9095 77.3213 49.8398 80.8323 40.5818C82.7473 35.474 82.109 33.8778 77.6405 33.5586C73.8104 33.2393 71.5761 35.7932 70.2994 41.5395ZM76.683 42.8165C75.7254 45.3704 74.7679 44.4127 74.7679 40.9011C74.4487 37.3894 75.4062 35.474 76.3638 36.751C77.3213 37.7087 77.6405 40.5818 76.683 42.8165Z" fill="black"/>
<path id="Vector_5" d="M41.5734 57.1823C40.935 58.7785 41.5734 63.8863 42.8501 69.3134C45.0843 78.5713 45.0843 78.5713 45.4035 66.7595C45.7227 55.5861 44.446 52.0744 41.5734 57.1823Z" fill="black"/>
<path id="Vector_6" d="M168.606 71.2289C167.329 73.1443 167.01 75.0597 167.968 76.0175C168.606 76.9752 170.202 75.379 171.16 72.5058C173.394 67.0788 171.479 66.121 168.606 71.2289Z" fill="black"/>
</g>

        
<g id="head">
<g id="Group 54">
<path id="Vector" d="M147.763 96.5219C141.907 98.5714 137.223 102.377 136.637 105.598C135.466 110.868 136.051 110.868 143.371 105.013C153.326 97.1075 172.649 96.5219 180.554 103.549C183.482 106.184 185.824 106.769 185.824 105.013C185.824 100.035 173.527 92.7157 165.33 93.0085C161.231 93.0085 153.326 94.4724 147.763 96.5219Z" fill="black"/>
<path id="Vector_2" d="M70.4691 108.526C71.6402 111.746 78.0814 112.625 96.5265 112.039C109.702 112.039 120.242 110.575 119.363 109.404C118.485 107.94 108.823 107.355 97.6977 107.648C86.572 107.94 76.6175 107.355 75.4463 106.476C72.2258 102.963 68.7124 104.427 70.4691 108.526Z" fill="black"/>
<path id="Vector_3" d="M148.934 111.454C136.93 116.724 134.295 121.408 139.858 126.971C146.006 133.119 170.307 137.218 177.334 133.705C185.824 129.02 190.216 119.066 185.239 114.381C179.383 108.526 159.181 106.769 148.934 111.454ZM168.843 113.796C169.429 115.845 169.136 121.408 167.965 126.385C166.794 132.241 165.915 133.119 165.622 129.313C165.33 126.093 164.451 120.53 163.573 116.724C161.523 109.99 166.794 107.355 168.843 113.796ZM157.132 122.579C158.596 130.777 158.303 131.07 154.497 126.385C150.105 120.237 149.519 113.21 153.326 113.21C154.79 113.21 156.546 117.309 157.132 122.579ZM182.018 117.895C183.482 122.287 175.87 133.412 172.942 130.484C170.892 128.435 174.699 113.21 177.334 113.21C179.09 113.21 180.847 115.26 182.018 117.895ZM150.691 127.849C150.691 131.363 149.812 131.363 146.006 127.264C143.371 124.629 142.2 121.115 143.371 119.066C146.006 114.967 150.691 120.53 150.691 127.849Z" fill="black"/>
<path id="Vector_4" d="M84.2296 121.115C67.5412 124.336 83.9369 130.777 108.53 130.777C122.877 130.777 125.512 126.385 113.8 121.994C106.481 119.066 96.2336 118.773 84.2296 121.115Z" fill="black"/>
</g>
</g>

        
<style type="text/css">
	.st0{fill:none;stroke:#000000;stroke-width:3;stroke-miterlimit:10;}
</style>
<g id="Frame_25">
	<path d="M115.2,165.7c0.3-0.2,0.7-0.4,1.1-0.6l8-14.8c4.9-8.9,7.9-16.3,6.7-16.3c-1.2,0-6.2,7.7-11.1,17.3
		c-4.8,9.2-7.2,14.9-6.7,16.7C113.4,167.1,114.1,166.3,115.2,165.7z"/>
</g>
<path class="st0" d="M117.4,162.3c-2.4,1.7-3.9,4.6-3.7,7.6c4.1,2.5,7.9,5.5,11.3,8.9c2.2,2.2,4.7,4.7,7.7,4.3
	c1.9-0.3,3.4-1.7,4.9-2.8c2.5-1.9,5.3-3.2,8.3-4c1.6-0.4,3.2-0.6,4.6-1.5s2.5-2.4,2.2-4"/>
<path class="st0" d="M117.2,170.4c1.2-0.4,2.4,0.6,3.2,1.6c1.4,1.4,2.7,2.9,3.4,4.8"/>
<path class="st0" d="M140.7,177.2c1.2-1.1,2.6-2.1,4.2-2.7c1.5-0.6,3.4-0.9,4.6,0.3c0.1,0.1,0.3,0.3,0.5,0.2s-0.2-0.4-0.1-0.2"/>
<path class="st0" d="M129.7,135.7c-6.2,10.3-12.6,20.9-15.3,32.6"/>

        
<g id="Frame 28">
<g id="Group 39">
<path id="Vector" d="M158.304 187.996C148.161 196.872 132.438 198.393 118.237 192.054C108.601 187.743 106.825 187.489 106.065 190.786C105.557 192.814 108.093 198.393 111.644 203.212C124.577 220.202 152.218 217.413 163.123 198.14C172.506 181.403 170.477 177.092 158.304 187.996ZM160.333 198.14C158.051 201.69 155.008 203.972 153.486 203.212C152.218 202.197 153.486 198.901 156.783 195.604C163.883 187.996 165.912 189.518 160.333 198.14ZM119.505 196.872C120.266 198.14 120.012 199.408 118.491 199.408C117.223 199.408 115.194 198.14 114.433 196.872C113.672 195.35 113.926 194.336 115.447 194.336C116.715 194.336 118.744 195.35 119.505 196.872ZM148.668 197.886C148.668 198.393 146.893 199.661 144.61 200.422C142.582 201.183 141.567 200.929 142.328 199.408C143.85 196.872 148.668 195.858 148.668 197.886ZM127.366 203.465C126.098 206.762 127.366 207.269 133.96 206.508C138.524 205.748 144.357 204.48 146.893 203.212C149.936 201.944 151.204 202.451 151.204 205.24C151.204 212.848 121.534 212.087 116.715 204.226C115.701 202.197 116.969 201.944 120.773 203.212C124.577 204.48 125.845 204.226 124.83 202.197C123.816 200.676 124.323 199.408 125.845 199.408C127.62 199.408 128.127 201.183 127.366 203.465ZM138.524 201.944C138.524 203.212 136.749 204.48 134.72 204.48C132.692 204.48 130.917 203.212 130.917 201.944C130.917 200.422 132.692 199.408 134.72 199.408C136.749 199.408 138.524 200.422 138.524 201.944Z" fill="black"/>
</g>
</g>

        
<g id="Frame 33">
<g id="Group 43">
<path id="Vector" d="M42.6958 145.951C40.7973 149.587 43.1177 179.282 45.6491 181.1C46.7038 181.858 47.5476 184.282 47.5476 186.554C47.5476 188.827 48.3914 191.099 49.4461 191.554C50.2899 192.008 52.3994 195.493 53.876 199.28C57.0402 207.613 60.2044 209.431 60.2044 203.068C60.2044 200.493 59.3607 198.674 58.3059 199.129C54.2979 200.947 49.0242 180.191 52.3994 176.252C53.2432 175.343 52.6103 170.04 50.9228 164.283C49.4461 158.526 48.3914 152.617 48.8133 151.102C49.0242 149.739 48.3914 148.527 47.5476 148.527C46.4929 148.527 45.4381 147.315 45.0163 145.8C44.3834 143.376 44.1725 143.376 42.6958 145.951ZM46.9148 165.495C46.4929 167.465 46.071 166.253 46.071 162.92C45.86 159.586 46.2819 158.071 46.9148 159.435C47.3367 160.95 47.3367 163.677 46.9148 165.495Z" fill="black"/>
<path id="Vector_2" d="M206.391 147.769C210.188 154.738 212.508 164.131 211.243 168.222C210.399 171.404 210.821 172.616 212.719 172.313C214.196 172.161 215.04 173.373 214.618 175.797C214.196 177.918 213.774 183.675 213.985 188.675C213.985 198.826 210.61 196.402 209.766 185.645L209.344 179.585L208.079 184.584C207.446 187.311 205.969 189.281 204.703 189.13C203.649 188.827 202.383 190.19 201.961 192.16C201.539 193.978 200.274 195.19 199.219 194.735C198.164 194.129 197.32 198.068 197.531 204.128C197.742 215.037 200.695 233.672 201.328 227.309C201.328 225.187 203.438 222.309 205.758 220.794C208.5 219.127 209.977 216.249 210.188 212.613C210.399 209.431 211.243 204.734 212.297 202.31C213.774 198.674 213.774 199.28 213.141 205.34C212.087 214.431 215.04 210.34 217.36 199.28C218.204 195.038 219.47 192.614 219.892 193.675C220.524 194.584 221.579 195.19 222.423 194.887C224.321 193.978 221.157 173.222 218.415 168.525C217.149 166.555 216.305 162.768 216.305 159.889C216.305 152.92 214.196 149.133 211.876 151.86C210.61 153.223 209.977 152.92 209.977 150.496C209.977 148.678 208.922 146.708 207.446 146.102C205.758 145.345 205.547 145.799 206.391 147.769ZM218.204 185.19C217.993 190.493 217.782 190.948 216.516 187.918C215.04 184.433 215.673 178.827 217.571 178.827C217.993 178.827 218.415 181.706 218.204 185.19ZM209.344 197.917C208.5 202.159 208.5 202.159 208.079 197.311C207.868 193.978 207.024 192.614 205.336 193.372C203.86 194.129 203.649 193.826 204.703 192.614C207.235 189.584 210.399 193.069 209.344 197.917ZM205.125 200.341C204.492 201.401 204.071 200.644 204.071 198.523C204.071 196.402 204.492 195.644 205.125 196.553C205.547 197.614 205.547 199.432 205.125 200.341ZM205.125 205.795C208.289 208.219 208.711 211.552 205.758 212.916C204.703 213.37 203.649 215.34 203.649 217.158C203.649 219.733 203.227 220.036 201.75 218.37C200.695 217.309 200.695 214.431 201.539 212.158C202.383 209.886 202.383 207.007 201.328 205.946C200.274 204.734 199.641 202.765 199.641 201.553C199.852 199.583 199.852 199.583 200.906 201.553C201.75 202.765 203.438 204.734 205.125 205.795Z" fill="black"/>
<path id="Vector_3" d="M55.5637 175.343C54.9309 185.645 56.1966 191.251 60.4155 196.705C62.525 199.735 64.4235 203.977 64.6345 206.098C64.6345 208.219 65.4783 211.249 66.533 212.916C68.0097 215.491 68.4315 215.34 68.4315 211.401C68.8534 205.189 72.2286 209.28 74.1271 217.764C74.76 221.4 76.2366 224.279 77.2914 224.279C79.6118 224.279 79.6118 224.582 77.2914 218.521C76.0257 215.491 76.0257 213.976 77.2914 214.431C78.3461 215.037 79.1899 213.825 79.1899 212.158C79.1899 209.886 78.1351 209.128 76.0257 209.583C73.9162 210.34 72.6505 208.977 71.8067 204.886C71.1739 201.856 70.1191 197.765 69.4863 195.796C69.0644 193.978 69.4863 192.463 70.752 192.463C71.8067 192.463 72.8614 190.039 72.8614 187.009C72.8614 184.13 72.0177 182.009 70.9629 182.615C69.6972 183.069 67.7987 182.16 66.533 180.797C64.6345 178.676 64.4235 179.888 65.2673 186.403C65.6892 190.948 66.9549 196.099 67.7987 197.614C68.8534 199.432 68.6425 200.189 67.1659 199.583C65.9002 198.977 64.4235 196.553 63.5797 193.978C62.9469 191.251 61.4703 189.584 60.2046 190.19C59.1498 190.645 58.0951 189.736 58.0951 187.918C58.0951 185.797 58.9389 185.039 60.8374 185.797C62.525 186.706 62.525 186.251 60.4155 184.433C58.7279 182.918 57.8842 179.433 58.517 175.797C58.9389 172.464 58.517 169.737 57.6732 169.737C56.6185 169.737 55.7747 172.313 55.5637 175.343ZM70.1191 189.736C69.4863 190.796 69.0644 190.039 69.0644 187.918C69.0644 185.797 69.4863 185.039 70.1191 185.948C70.541 187.009 70.541 188.827 70.1191 189.736Z" fill="black"/>
<path id="Vector_4" d="M60.4154 179.736C60.4154 181.403 61.0482 181.857 61.6811 180.645C62.3139 179.585 62.103 178.221 61.4701 177.767C60.8373 177.161 60.2045 178.07 60.4154 179.736Z" fill="black"/>
<path id="Vector_5" d="M73.9161 196.25C73.2832 200.19 73.0723 203.674 73.4942 203.977C74.127 204.432 75.1817 201.553 76.0255 197.765C76.6584 193.826 76.8693 190.342 76.4474 190.039C75.8146 189.584 74.7598 192.463 73.9161 196.25Z" fill="black"/>
<path id="Vector_6" d="M79.8225 197.614C80.6662 202.159 80.4553 204.432 79.1896 203.826C77.9239 203.371 77.0801 203.826 77.0801 205.189C77.0801 206.401 77.9239 207.613 78.9787 207.916C80.0334 208.068 81.51 210.795 82.1429 213.673C83.4086 217.764 83.1976 218.37 81.2991 216.703C79.6115 214.885 79.4006 215.491 80.4553 218.976C81.2991 221.4 82.7757 224.885 83.8304 226.551C85.518 229.278 85.518 229.278 84.6742 226.097C84.0414 223.976 84.8852 222.764 86.5728 222.764C88.8932 222.764 88.8932 223.824 87.4166 227.612C84.6742 234.732 85.3071 238.065 88.4713 232.005L91.0027 226.854L95.6435 232.46C98.1749 235.49 100.284 238.671 100.284 239.58C100.284 240.338 101.339 240.944 102.394 240.944C103.659 240.944 104.503 240.338 104.503 239.58C104.503 238.671 103.659 237.611 102.394 237.156C101.339 236.702 100.284 235.49 100.284 234.732C100.284 233.823 101.339 233.672 102.605 234.278C104.081 234.884 104.503 234.278 103.659 232.157C101.55 227.46 99.6515 217.915 99.6515 212.31C99.6515 207.916 99.2296 207.613 96.9092 209.886C94.5888 212.158 94.1669 211.704 93.3231 206.704L92.4793 200.795L92.2683 206.553C92.0574 209.734 93.1121 213.825 94.7997 215.643C98.5968 220.036 101.339 230.945 98.3858 229.581C97.1201 229.127 96.0654 226.4 95.8544 223.824C95.8544 220.036 95.4325 219.582 94.1669 221.854C92.9012 224.127 92.2683 224.279 91.4245 222.612C90.7917 221.4 90.1589 219.885 90.1589 219.279C89.9479 218.673 88.2603 217.006 86.3618 215.643C83.8304 213.673 83.1976 211.249 83.8304 205.038C84.4633 199.886 84.0414 197.614 82.9867 198.826C81.51 200.189 81.2991 199.432 81.9319 196.553C82.3538 194.281 81.9319 192.008 80.6662 191.402C79.1896 190.796 78.9787 192.917 79.8225 197.614Z" fill="black"/>
<path id="Vector_7" d="M190.57 197.008C188.039 201.402 186.562 215.491 188.882 214.431C190.148 213.825 190.992 215.037 190.992 217.309C190.992 219.43 190.148 221.249 188.882 221.249C187.828 221.249 186.773 223.067 186.984 225.339L187.195 229.581L188.882 225.794C190.359 222.764 190.57 223.37 190.781 229.127C190.992 233.217 190.148 236.399 188.882 236.399C187.828 236.399 186.773 237.156 186.773 238.065C186.773 238.823 187.828 239.126 189.093 238.52C190.992 237.762 191.203 238.671 190.148 241.55C189.304 243.823 189.726 245.489 190.992 245.489C192.047 245.489 193.101 242.762 193.101 239.58C193.101 236.247 194.156 233.066 195.211 232.611C196.476 232.157 197.109 228.521 197.109 224.582C196.898 219.43 196.476 218.521 195.422 221.249C194.789 223.37 193.734 218.37 193.101 209.886C192.469 201.553 191.414 195.796 190.57 197.008Z" fill="black"/>
<path id="Vector_8" d="M87.8385 200.795C87.8385 202.462 86.9947 205.492 86.3619 207.613C85.3072 210.492 85.5181 210.946 87.4166 209.734C88.8933 208.825 89.7371 205.795 89.1042 202.916C88.6823 200.038 88.0495 199.129 87.8385 200.795Z" fill="black"/>
<path id="Vector_9" d="M178.546 211.552C178.335 217.158 177.702 222.309 177.069 223.066C176.437 223.672 177.069 224.278 178.124 224.278C179.601 224.278 180.445 228.066 180.445 233.52C180.445 240.792 179.812 242.61 177.491 242.004C175.593 241.398 174.327 242.61 173.694 245.489C173.061 248.671 173.694 250.034 176.437 250.489C181.288 251.398 182.554 250.337 182.554 245.186C182.554 242.762 183.609 239.429 184.664 237.914C186.984 234.884 183.398 204.886 180.445 202.613C179.601 202.007 178.757 205.946 178.546 211.552ZM177.702 247.307C177.069 248.519 176.437 248.065 176.437 246.398C176.226 244.731 176.859 243.822 177.491 244.428C178.124 244.883 178.335 246.247 177.702 247.307Z" fill="black"/>
<path id="Vector_10" d="M167.999 212.31C166.311 215.188 165.889 217.461 167.155 218.067C170.53 219.582 167.788 239.429 164.412 239.429C162.725 239.429 161.459 240.186 161.459 241.095C161.459 241.853 162.514 242.156 163.78 241.55C165.467 240.944 165.678 241.55 164.623 243.823C163.991 245.489 164.202 248.065 165.256 249.428C166.733 251.398 167.999 250.186 170.53 244.277C174.327 236.399 174.749 227.309 172.429 214.734L170.952 207.462L167.999 212.31Z" fill="black"/>
<path id="Vector_11" d="M145.638 215.946C146.06 219.279 147.115 225.945 147.959 230.642C149.013 236.853 148.592 239.429 146.904 239.429C145.638 239.429 144.373 237.156 144.373 234.429C143.951 225.49 142.685 220.794 140.576 219.279C138.888 218.067 138.466 221.4 139.099 229.733L139.943 241.701L146.482 241.55C151.545 241.55 152.811 242.004 152.178 243.822C151.545 245.186 152.811 248.519 154.92 251.398C158.717 256.397 158.928 256.549 161.248 253.519C162.936 251.246 162.936 249.125 161.459 246.701C159.35 243.519 159.35 243.671 160.405 247.761L161.459 252.307L157.662 247.155C155.553 244.125 154.92 241.701 156.186 241.398C157.451 241.095 158.084 235.793 157.662 228.066C157.24 219.127 157.662 215.188 159.35 215.188C160.616 215.188 161.248 215.643 160.616 216.4C160.194 217.006 160.405 219.885 161.459 222.763C163.147 227.763 163.147 227.611 163.358 220.188C163.569 212.613 163.358 212.31 158.928 213.522C154.287 214.734 154.076 215.643 154.709 227.157C155.131 233.823 154.498 239.429 153.443 239.429C152.389 239.429 151.545 236.247 151.334 232.157C151.123 228.217 149.646 221.551 147.748 217.461C144.794 210.189 144.794 210.037 145.638 215.946Z" fill="black"/>
<path id="Vector_12" d="M106.613 215.34C106.613 216.097 105.769 216.552 104.714 216.097C102.605 215.188 103.027 223.824 105.347 225.339C105.98 225.794 106.613 227.612 106.613 229.127C106.613 230.642 107.878 231.854 109.355 231.854C110.832 231.854 113.152 233.672 114.629 235.944C119.691 244.58 124.754 249.883 128.129 250.489C133.614 251.549 134.247 247.61 129.606 240.035C126.02 233.823 126.02 233.217 128.973 235.035C132.348 237.005 132.559 236.702 131.083 231.854C130.239 228.975 128.973 224.279 128.34 221.552C126.442 214.128 123.91 215.794 124.754 223.824C125.598 231.248 124.754 231.248 122.645 223.824C120.957 218.824 117.16 218.37 117.16 223.067C117.16 225.339 117.793 225.945 118.848 224.582C119.902 223.521 120.746 225.945 120.746 230.339C120.746 234.429 120.113 237.914 119.059 237.914C116.316 237.914 114.418 227.763 115.894 220.794C117.793 212.764 113.996 214.885 111.043 223.521C109.566 228.218 109.144 228.672 108.722 225.794C108.511 223.673 108.511 220.188 108.722 217.764C108.933 215.491 108.511 213.673 107.878 213.673C107.246 213.673 106.613 214.431 106.613 215.34ZM129.184 247.459C128.973 248.216 126.864 247.156 124.965 244.883C122.856 242.611 121.801 240.187 122.645 239.278C124.121 237.459 130.239 245.186 129.184 247.459Z" fill="black"/>
<path id="Vector_13" d="M131.294 214.885C130.239 215.946 130.661 220.491 131.926 225.188C133.192 229.733 133.825 234.581 133.192 235.793C132.559 237.156 133.403 240.035 135.091 242.459C138.677 247.459 139.31 250.64 136.145 249.277C133.403 248.065 133.403 250.034 136.145 253.064C138.044 255.034 138.255 255.034 138.255 253.064C138.255 251.095 138.466 251.095 140.364 253.064C142.052 254.731 142.263 254.125 141.208 250.943C140.153 247.762 140.364 246.853 142.263 247.61C143.529 248.216 144.583 250.489 144.794 252.761C144.794 256.397 145.005 256.549 146.693 253.822C148.591 250.792 148.591 250.792 148.802 253.822C149.013 256.7 149.013 256.7 151.123 253.973C152.599 252.307 152.81 250.792 151.545 250.186C150.49 249.731 147.958 247.61 146.06 245.489C143.95 243.368 142.474 242.762 142.474 243.974C142.474 248.519 137.622 242.61 136.778 236.853C134.247 218.37 132.77 213.067 131.294 214.885Z" fill="black"/>
<path id="Vector_14" d="M176.647 233.369C176.647 236.247 177.069 237.459 177.702 235.944C178.124 234.581 178.124 232.157 177.702 230.642C177.069 229.278 176.647 230.49 176.647 233.369Z" fill="black"/>
<path id="Vector_15" d="M163.991 234.126C163.991 236.55 164.413 237.459 165.045 235.944C165.467 234.581 165.467 232.46 165.045 231.399C164.413 230.49 163.991 231.551 163.991 234.126Z" fill="black"/>
<path id="Vector_16" d="M104.504 236.247C104.504 237.005 105.98 238.368 107.668 239.429C109.355 240.489 110.832 242.307 110.832 243.519C110.832 244.731 111.676 245.337 112.731 244.731C113.996 244.277 115.684 245.186 116.949 246.549C118.215 248.064 119.27 248.519 119.27 247.761C119.27 245.489 108.933 234.884 106.613 234.884C105.347 234.884 104.504 235.49 104.504 236.247Z" fill="black"/>
</g>
</g>

    </svg>
