
    <svg width="256" height="256" viewBox="0 0 256 256" fill="none" xmlns="http://www.w3.org/2000/svg">
        
<g id="Frame 42">
<rect width="256" height="256" fill="#4DFF5E"/>
</g>

        
<style type="text/css">
	.st0{fill:none;stroke:#000000;stroke-width:4;stroke-miterlimit:10;}
</style>
<g id="head">
	<path d="M35,60.1c0.5,0,0.7,0.2,0.5,0.6c-0.2,0.3-0.1,0.6,0.4,0.6c0.4,0,0.5,0.6,0.4,1.5c-0.2,0.8-0.1,1.5,0.1,1.5
		c0.4,0,0.9,9.1,0.7,13c-0.4,8.8-0.4,9.5,0.5,10c0.7,0.4,0.7,0.5,0.1,0.6c-0.5,0-0.7,0.4-0.5,0.7c0.1,0.4-0.2,1.7-0.6,2.8l-0.9,2.1
		l1.6-1c1.5-1,1.6-1,1.6,0.2c0,0.8-0.3,1.1-0.8,0.9c-0.5-0.2-1-0.1-1.3,0.3c-0.2,0.4,0.1,0.7,0.7,0.7c0.8,0,0.9,0.1,0.3,0.5
		c-1.1,0.7-1,1.4,0.3,1.9c1,0.4,1,0.5-0.2,0.5c-1.3,0.1-1.5,0.7-1.4,4c0,1,0.1,2.8,0.1,4.1c0.1,1.4,0.4,2.2,0.8,2
		c0.4-0.2,0.9,0.1,1.1,0.6c0.2,0.7,0.1,0.8-0.8,0.5c-0.7-0.2-1.2-0.1-1.2,0.2s0.3,0.7,0.6,0.7c0.4,0,0.4,0.4,0,1.2
		c-0.8,1.5-0.2,1.6,1.4,0.1c1-0.8,1.1-0.8,0.5,0c-0.4,0.5-0.5,1.1-0.2,1.2c0.2,0.1,0.1,0.8-0.4,1.7c-0.8,1.4-0.8,1.4-0.5,0.1
		c0.2-0.7,0.1-1.3-0.2-1.3c-0.8,0-0.6,2.2,0.4,3c0.7,0.5,0.9,3.1,1,12.7c0.1,6.6,0,11.8-0.2,11.7c-0.6-0.4-0.5,4,0.1,5.7
		c0.4,0.8,0.6,3,0.6,4.7c0.1,1.8,0.4,3.6,0.8,4c0.1,0.1,0.1,0.2,0.2,0.3c1.1-0.1,2.1-0.1,3.2-0.2c-0.2-1.1-0.5-2.3-0.6-3.3
		c-0.2-1.8-0.7-4.9-1.1-6.8c-0.3-1.9-0.6-12.4-0.6-23.2c0-21.5-0.5-34.6-1.3-40.3c-0.6-3.7-0.3-27,0.3-28c0.2-0.3,0.1-0.7-0.2-0.9
		c-0.3-0.2-0.4-1.9-0.2-3.7c0.4-3.3,0.3-3.3-1.2-3.3c-0.8,0-1.7,0.2-1.9,0.6c-0.2,0.3,0.1,1.5,0.5,2.7c0.5,1.1,0.7,2.7,0.5,3.3
		c-0.2,0.7-0.1,2.1,0.3,3c0.8,2.3-0.2,3.3-3.6,3.6C33.6,58.3,34,60.1,35,60.1z M39.3,101.2c0.1,1-0.2,1.8-0.5,1.8
		c-0.4,0-0.5-0.3-0.3-0.6c0.2-0.4-0.1-0.6-0.5-0.6c-0.5,0-1-0.1-1-0.2c0-0.7,1.2-3.4,1.4-3.4c0.2,0,0.1,0.4-0.1,1
		c-0.2,0.5-0.1,0.8,0.2,0.6C39,99.6,39.3,100.2,39.3,101.2z"/>
	<path d="M207.2,67.6c0,1.5,0.2,2.8,0.5,2.8c0.5,0,0.8,4.6,1,22.3c0.3,20.3,1.5,34.1,3,33.6c0.7-0.2,0.6-1.9-0.7-10.3
		c-1.1-8.2-1.1-18.9,0-18.9c1,0,1.3,1.8,1.9,11.9c0.2,3.1,0.5,6.5,0.6,7.5c0.3,2.3,1,13,1,14.2c-0.2,4.3-0.1,6.1,0.8,7.5
		c0.6,0.8,0.8,1.6,0.4,1.6c-0.3,0-0.5,0.7-0.5,1.5c0,0.8,0.1,1.4,0.4,1.3c0.3-0.2,0.3,5.3,0.1,12.3c0,0.1,0,0.2,0,0.4
		c0.6-0.7,1.4-1.2,2.2-1.5c0.1-0.7,0.3-1,0.6-0.9c0.2,0.1,0.4,0.3,0.5,0.6c0.6-0.1,1.2,0,1.8,0.1c0-0.3,0.1-0.5,0.1-0.6
		c0.3-1.4,0.1-1.8-1.1-2.2c-1.4-0.5-1.4-0.8-1-2.8c0.3-1.3,0.4-2.5,0.3-2.7c-0.1-0.2-0.3-3-0.4-6.1c-0.1-3.1-0.3-6.2-0.6-6.7
		c-0.3-0.5-0.7-2.3-0.8-3.9c-0.4-4-2.1-19.3-2.8-25.5c-0.3-2.8-0.6-8.1-0.7-11.9c-0.1-5.4-0.3-7.2-1.2-8.9c-0.8-1.5-1.1-3.4-1.1-6
		c0-4.5-1-10.4-2.1-12.5c-1.5-2.9-2.2-6.7-1.8-10c0.4-3,0.3-3.3-0.8-3.3c-0.7,0-1.4,0.2-1.6,0.6c-0.2,0.3-0.2,1.6,0.1,2.7
		c0.2,1.4,0.1,2.5-0.4,3c-0.6,0.7-0.6,1.3-0.2,2.3C206.8,63.4,207.2,65.1,207.2,67.6z M210.3,90.6c0.4-0.5,1-0.9,1.3-0.9
		c0.4,0,0.3,0.4-0.1,0.9c-0.4,0.5-1,0.9-1.3,0.9C209.8,91.5,209.8,91.1,210.3,90.6z M211.7,92.1c0.7,0,0.9,0.2,0.5,0.4
		c-0.4,0.1-0.8,0.8-0.8,1.4c0,1.4-1,2.1-1.4,0.9C209.5,93.3,210.3,92.1,211.7,92.1z"/>
</g>
<path class="st0" d="M205.3,52.1c0.3-0.7,0.6-1.3,0.9-2c-1.7,8.6,1.4,17.3,3,25.9c0.9,4.8,1.2,9.6,1.5,14.5
	c1.2,17.8,2.1,35.7,2.9,53.6c0.2,4,3.9,4.5,2.9,8.3c-1.3,5.1-2.7,10.4-6.1,14.5c-2.4,3-5.7,5.1-8.6,7.6
	c-13.1,10.8-20.4,27.2-32.8,38.9c-11.5,10.9-26.3,16.3-42.1,16.5c-7.6,0.1-14.8-3.8-20.6-8.6c-5.8-4.9-10.6-10.9-16.1-16.1
	c-6.9-6.6-14.8-12.1-22.5-17.8c-9.2-6.8-18.4-14.2-24.5-24.1c-1.5-2.4-3.2-5.2-3.3-8.1c-0.1-1.7,0.1-3.4-0.1-5
	c-0.3-2.5-0.3-5-0.1-7.6c0.6-6.9,2.6-13.7,2.6-20.6c0-4.8-1.1-9.6-1.8-14.3c-3.1-21.2,0.1-43-2.7-64.3"/>

        
<g>
<path d="M66.8402 17.6126C64.1798 20.2735 64.771 27.3693 67.727 27.3693C71.2742 27.3693 74.2302 19.0909 71.2742 17.3169C69.7962 16.43 68.0226 16.43 66.8402 17.6126Z" fill="black"/>
<path d="M102.608 18.4996C96.6961 19.6822 90.784 21.4561 89.6016 22.6388C86.9412 25.0041 111.181 21.4561 119.753 18.2039C125.665 15.8386 125.665 15.8386 119.753 16.1343C116.501 16.1343 108.816 17.3169 102.608 18.4996Z" fill="black"/>
<path d="M59.1547 28.5517C63.8843 33.8735 64.7711 35.9431 61.5195 34.7605C58.8591 33.5779 55.9031 34.1692 54.7206 35.9431C53.8338 37.7171 54.7206 39.1954 56.7899 39.491C58.8591 39.491 63.5887 40.0824 67.1359 40.9693C70.6832 41.5607 74.526 40.6737 75.4128 39.1954C76.2996 37.4214 81.3248 36.2388 86.0545 36.2388C91.0797 36.2388 94.3313 35.0562 93.4445 33.5779C91.0797 30.03 110.294 26.7777 126.848 27.6647C146.357 28.8473 143.401 31.8039 122.709 31.8039C110.294 31.8039 102.608 33.2822 99.9478 35.9431C96.6961 39.491 96.9918 39.7867 100.539 38.6041C106.155 36.5345 118.275 40.9693 118.275 45.1086C118.275 47.1782 116.501 47.4738 113.25 45.6999C105.269 41.5607 87.2369 38.8997 81.6204 40.9693C72.1612 44.5173 77.1864 46.8825 94.0357 46.2912C104.382 45.9956 108.52 46.5869 104.973 48.0652C100.243 49.8391 99.9478 50.4304 103.495 51.6131C105.86 52.5001 104.973 52.5001 101.426 52.2044C95.8093 51.0218 95.2181 52.2044 96.4005 59.0046C97.583 65.8047 97.2874 66.396 93.4445 62.8481C90.7841 60.7785 89.6017 57.8219 90.4885 56.3436C93.1489 52.2044 85.4633 47.7695 79.2556 49.8391C76.5952 50.4304 73.6392 49.8391 72.4568 48.0652C71.57 46.5869 68.9096 45.1086 67.1359 45.1086C64.7711 45.1086 64.7711 45.9956 67.4315 47.7695C70.3876 49.5435 69.5008 50.7261 63.8843 51.6131C57.3811 53.0914 56.7899 52.5001 59.4503 47.1782C62.1107 42.7433 61.8151 41.8563 58.8591 42.7433C56.7899 43.3346 53.5382 49.5435 51.7646 56.3436C50.2866 63.1438 47.035 70.2396 45.2614 72.3092C40.5317 76.7441 40.2361 103.945 44.6702 110.154C46.7394 113.406 47.3306 109.267 46.1482 95.3706C44.6702 77.9267 44.6702 77.0398 48.2174 85.6139C52.3558 96.2576 57.6767 102.762 55.3119 93.8923C54.425 90.6401 52.6514 83.8399 51.7646 79.1094L49.6954 70.2396L55.3119 77.0398L60.9283 83.8399L59.7459 71.4222C58.2679 58.4132 61.5195 53.9784 72.7524 53.9784C81.916 53.9784 99.9478 75.8571 97.8786 84.4313C97.583 85.9095 98.7654 86.2052 100.243 85.3182C101.721 84.4313 102.313 78.5181 101.426 72.0136C99.3566 57.8219 104.677 53.6827 109.111 66.396C110.885 71.4222 112.954 74.9702 113.841 74.0832C114.728 73.1962 114.137 68.7613 112.363 64.3264C110.589 59.8915 109.998 55.4566 110.589 54.5697C111.476 53.6827 113.545 56.6393 115.023 61.0742C116.797 65.2134 118.866 68.7613 119.458 68.7613C122.118 68.7613 117.684 58.7089 112.954 53.0914C110.589 50.4304 109.703 48.0652 111.476 48.0652C116.501 48.0652 130.395 60.1872 136.602 69.9439L142.219 79.1094L140.445 69.057C138.672 61.0742 139.263 59.5959 142.219 61.6655C147.244 64.6221 123.596 42.152 116.206 36.8301C111.476 33.5779 111.772 33.2822 118.275 35.0562C127.734 37.7171 147.54 37.7171 156.703 35.0562C161.729 33.5779 162.615 33.8735 160.251 35.6475C156.999 37.7171 157.295 38.8997 161.433 40.378C164.093 41.265 165.571 43.039 164.685 44.2216C163.502 45.1086 160.842 44.2216 158.181 42.152C155.521 40.0824 152.861 39.1954 151.678 40.0824C150.791 41.265 154.634 43.9259 160.546 46.5869C178.578 53.9784 185.377 71.4222 176.804 87.3878C173.848 93.0054 174.144 93.301 177.987 90.0488C180.647 87.9792 183.603 81.4747 184.786 75.8571C186.264 66.6917 185.081 63.4394 176.213 51.9087C166.458 39.1954 166.163 38.0128 170.892 34.4648C173.553 32.3952 177.396 30.6213 178.874 30.3256C180.647 30.3256 180.056 31.5083 177.691 32.9866C175.326 34.4648 172.961 38.3084 172.666 41.265C172.075 45.9956 172.37 45.9956 175.326 41.5607C178.282 37.1258 179.169 37.1258 185.968 41.5607C190.106 44.2216 194.54 47.7695 195.723 49.5435C197.201 51.3174 199.861 50.4304 203.113 46.8825C206.069 43.9259 206.66 42.152 204.887 43.3346C202.817 44.5173 201.044 44.2216 201.044 42.7433C201.044 40.9693 197.792 38.8997 193.654 38.0128C188.628 36.8301 186.855 34.7605 188.037 32.3952C189.22 30.3256 189.22 29.7343 187.742 30.9169C186.559 32.0996 183.899 31.8039 181.83 30.3256C180.056 28.8473 161.729 26.482 141.036 25.5951C110.294 23.8211 101.426 24.4124 91.0797 28.256C77.482 33.2822 70.9788 33.5779 64.7711 28.5517C55.0163 21.1602 52.3558 21.1602 59.1547 28.5517ZM152.861 32.0996C151.974 32.9866 149.313 33.2822 147.244 32.3952C144.879 31.5083 145.766 30.6213 149.018 30.6213C152.269 30.3256 154.043 31.2126 152.861 32.0996ZM87.2369 56.3436C86.3501 57.2306 83.9853 56.3436 81.916 54.274C79.2556 51.3174 79.5512 51.0218 83.6897 52.7957C86.6457 53.6827 88.1237 55.4566 87.2369 56.3436Z" fill="black"/>
<path d="M78.3689 27.3694C77.4821 28.8477 77.7777 30.326 79.5513 30.326C81.0293 30.326 83.3942 28.8477 84.281 27.3694C85.1678 25.5955 84.8722 24.4128 83.0986 24.4128C81.6205 24.4128 79.2557 25.5955 78.3689 27.3694Z" fill="black"/>
<path d="M40.8273 29.4391C36.0976 30.0304 32.5504 31.8043 32.5504 32.987C32.5504 34.7609 41.1229 35.0566 52.6514 33.8739C54.7206 33.5783 55.6074 31.8043 54.7206 30.326C53.8338 28.5521 52.0602 27.6651 50.8778 27.6651C49.6954 27.9608 45.2613 28.8477 40.8273 29.4391Z" fill="black"/>
<path d="M39.3492 44.813C31.9592 51.0218 20.4307 77.3355 21.0219 87.3879C21.3175 92.4141 21.9087 91.8228 23.6823 85.0226L25.7515 76.1529L27.8207 87.9792C31.0724 105.127 31.9592 106.901 32.5504 96.849C32.846 89.1619 33.4372 88.8662 35.2108 93.8924C36.9844 98.0316 37.5756 94.7794 37.8712 83.5443C37.8712 67.8744 37.5756 67.8744 34.0284 76.1529C29.0031 87.3879 28.7075 83.84 33.1416 66.3961C36.3932 53.9784 36.9844 53.0914 38.758 59.8916L40.8272 67.2831L41.1228 59.0046C41.4184 54.5697 43.1921 50.1349 45.5569 49.2479C51.1733 47.1783 54.1294 39.1955 49.3997 39.1955C47.3305 39.4911 42.8965 41.8564 39.3492 44.813Z" fill="black"/>
<path d="M176.213 44.8129C175.031 46.2912 177.691 50.1347 182.125 53.0913C186.264 56.0479 193.062 61.3698 197.496 64.622C204.591 70.5352 205.773 70.5352 209.321 66.1003C211.39 63.4394 212.572 62.8481 211.685 64.3264C211.094 66.1003 214.346 70.2396 219.075 73.1962C223.805 76.4484 229.126 82.9529 231.195 87.6835C232.969 92.414 235.334 94.7793 235.925 93.0053C236.516 91.2314 233.56 81.7703 229.126 72.3092C220.553 53.387 209.616 44.2216 203.408 50.4304C200.748 53.0913 200.748 54.8653 203.408 57.5262C205.478 59.5958 206.956 62.2568 206.956 63.7351C206.956 66.1003 193.654 56.6392 183.012 46.2912C179.76 43.6302 177.395 42.7433 176.213 44.8129ZM220.258 62.8481C219.371 64.3264 219.962 66.1003 221.736 67.283C223.214 68.1699 224.692 70.5352 224.692 72.3092C224.692 74.0831 222.918 74.0831 220.258 71.7179C217.597 69.6482 216.119 66.1003 217.006 63.7351C217.893 61.6654 216.711 59.8915 214.346 59.8915C211.981 59.8915 209.912 58.4132 209.912 56.9349C209.912 54.8653 211.981 54.8653 215.824 56.9349C219.075 58.7089 221.145 61.3698 220.258 62.8481Z" fill="black"/>
<path d="M44.6702 61.6658C44.6702 64.9181 45.557 65.805 46.4437 63.4398C47.3305 61.3702 47.0349 58.7092 46.1482 57.8222C45.2614 56.6396 44.3746 58.4136 44.6702 61.6658Z" fill="black"/>
<path d="M189.219 64.6222C189.219 66.3961 192.471 70.831 196.61 74.6746C201.635 79.4051 204 84.727 204 91.8228C204 105.127 206.956 102.467 207.547 88.8662C207.842 82.3617 209.32 78.5181 211.981 78.5181C214.641 78.5181 215.528 80.2921 214.346 83.2487C211.685 90.0488 211.685 90.0488 215.824 100.988C219.667 111.336 219.667 111.336 222.623 103.945C224.396 100.101 225.283 94.1881 224.987 90.9358C224.101 83.5443 209.32 69.3527 207.547 74.6746C206.66 76.7442 203.113 74.9702 197.792 69.944C193.062 65.5091 189.219 63.1439 189.219 64.6222ZM221.736 96.849C221.736 101.875 221.145 101.875 218.78 98.3273C217.302 95.962 215.824 91.2315 215.824 87.9792C215.824 82.953 216.415 82.953 218.78 86.5009C220.258 88.8662 221.736 93.5968 221.736 96.849Z" fill="black"/>
</g>

        
<g id="Frame 21">
<path id="Vector" d="M75.8591 97.6206C72.5407 100.939 76.7641 104.861 83.0991 104.861C86.1157 104.861 91.2441 106.067 94.2607 107.576C109.947 116.324 119.299 119.341 118.092 116.022C115.981 109.386 79.7807 93.6989 75.8591 97.6206Z" fill="black"/>
<path id="Vector_2" d="M144.639 106.973C138.002 109.084 131.365 112.403 129.857 113.911C124.125 119.643 130.159 119.643 145.544 113.911C154.292 110.593 164.549 107.878 168.772 107.878C172.995 107.878 176.314 106.671 176.314 104.861C176.314 100.939 159.119 101.844 144.639 106.973Z" fill="black"/>
<path id="Vector_3" d="M71.0319 124.469C71.0319 130.201 71.3336 130.502 73.4452 124.469C75.5569 119.039 75.8586 119.341 77.6686 126.279C78.8752 130.502 82.7969 135.631 86.4169 137.441L93.3552 141.061L86.1152 140.156C82.1936 139.854 78.2719 141.061 77.6686 142.871C76.1602 147.094 109.947 148.301 115.98 144.077C119.299 141.664 117.187 141.362 108.439 142.569C98.1819 143.776 97.5785 143.776 104.819 141.362C132.873 132.011 124.728 120.246 90.0369 118.737C72.2386 118.134 70.7302 118.737 71.0319 124.469ZM95.7685 129.296C94.8635 132.614 95.4669 135.027 97.2769 135.027C98.7852 135.027 100.897 132.312 101.802 128.994C103.31 122.659 111.154 120.849 114.472 125.977C117.79 131.106 110.249 137.742 102.104 137.139C97.8802 136.837 93.3552 134.424 91.8469 132.011C89.4335 128.391 88.8302 128.391 88.8302 131.709C88.8302 135.027 87.9252 135.027 84.3052 132.011C77.3669 126.279 78.8752 123.262 88.5286 123.564C95.1652 123.866 96.6735 125.072 95.7685 129.296Z" fill="black"/>
<path id="Vector_4" d="M104.215 130.804C104.215 134.122 105.12 135.027 106.025 132.614C106.93 130.502 106.629 127.787 105.724 126.882C104.819 125.676 103.914 127.486 104.215 130.804Z" fill="black"/>
<path id="Vector_5" d="M136.192 125.374C132.874 128.994 132.27 132.011 134.382 135.932C136.494 139.552 136.192 141.061 133.477 141.061C130.762 141.061 131.064 142.267 134.08 145.586C137.7 148.904 142.527 149.206 156.102 147.396C165.755 146.189 175.107 143.172 177.219 141.061C180.235 138.044 179.632 137.742 174.805 139.552C171.487 141.061 163.644 142.267 157.309 142.871C151.275 143.474 144.94 144.379 143.432 145.586C141.924 146.491 139.812 145.887 138.605 144.077C137.7 142.267 139.812 141.061 143.734 140.759H150.672L144.035 138.044C140.114 136.536 137.097 133.217 137.097 130.502C137.097 124.469 140.114 124.771 144.94 131.106C148.56 135.932 148.56 135.932 147.052 129.597C145.544 123.866 146.449 122.961 155.197 122.961C164.247 122.961 164.85 123.564 163.644 132.011C162.739 136.837 162.739 141.061 163.04 141.061C163.644 141.061 167.565 139.552 171.789 137.441C187.475 130.502 178.425 119.944 156.705 119.944C145.544 119.944 139.51 121.452 136.192 125.374ZM175.409 129.899C173.599 135.631 168.47 135.329 168.47 129.296C168.47 125.977 169.979 124.167 172.694 125.072C174.805 125.977 176.012 128.089 175.409 129.899Z" fill="black"/>
<path id="Vector_6" d="M152.18 130.201C152.18 132.614 153.689 135.631 155.197 136.536C157.007 137.441 158.214 135.631 158.214 132.312C158.214 128.692 157.007 125.977 155.197 125.977C153.689 125.977 152.18 127.787 152.18 130.201Z" fill="black"/>
<path id="Vector_7" d="M182.95 132.011C182.95 136.234 183.554 137.742 184.459 135.631C185.062 133.821 185.062 130.201 184.459 128.089C183.554 126.279 182.95 127.788 182.95 132.011Z" fill="black"/>
</g>

        
<g id="Frame 13">
<path id="Vector" d="M126.771 132.787C125.934 135.017 122.589 143.938 119.244 152.858C113.111 170.143 113.668 180.457 120.638 174.603C123.704 172.094 124.819 172.094 125.656 174.603C126.213 176.554 128.443 177.112 130.116 175.997C134.298 173.488 142.661 157.598 140.709 155.646C140.152 154.81 136.807 158.992 133.74 165.125C129.28 173.488 128.165 174.603 127.886 169.585C127.886 166.24 129.28 162.616 130.674 161.779C132.346 160.943 133.461 158.713 133.461 157.04C133.461 155.089 131.789 155.367 129.28 157.598C127.049 159.549 125.098 162.616 125.098 164.846C125.098 168.749 120.08 172.93 117.85 170.979C117.292 170.143 119.801 161.222 123.704 150.628C127.607 140.314 130.116 131.114 129.558 130.278C128.722 129.441 127.328 130.556 126.771 132.787Z" fill="black"/>
</g>

        
<g id="Frame 31">
<g id="Group 39">
<path id="Vector" d="M124.847 193.374C117.555 195.201 108.319 202.053 110.263 204.032C111.478 205.25 113.666 204.184 116.583 201.139C121.93 195.506 130.194 193.983 141.618 196.419C150.368 198.094 158.632 203.423 156.201 205.707C155.715 206.316 156.201 207.229 157.66 207.838C160.819 209.056 160.819 203.119 157.417 199.16C154.743 195.963 141.132 191.852 134.083 192.004C131.652 192.004 127.52 192.613 124.847 193.374Z" fill="black"/>
</g>
</g>

        
<g id="Frame 36">
<g id="Group 41">
<path id="Vector" d="M152.691 177.632C151.849 177.897 144.551 178.425 136.412 178.822C103.293 180.408 99.0835 182.787 93.7508 202.086C90.1022 215.304 92.0668 224.689 100.487 235.792L107.784 245.045L106.381 236.057C105.258 229.844 105.819 227.201 107.784 227.861C109.468 228.258 110.871 227.729 110.871 226.54C110.871 225.35 109.749 224.689 108.345 225.086C106.942 225.482 105.258 224.557 104.135 222.839C100.487 216.097 103.855 185.695 108.345 187.017C109.749 187.414 110.871 187.149 110.871 186.489C110.871 185.035 142.867 181.994 148.2 182.92C150.165 183.316 156.058 183.713 161.391 183.977C169.811 184.241 172.056 185.035 176.547 189.529C182.722 195.741 185.809 218.609 180.757 221.385C179.073 222.442 178.231 225.218 178.792 227.729C179.354 230.241 179.073 232.091 177.95 231.695C176.828 231.43 175.144 232.356 174.021 233.81C173.179 235.264 170.934 236.453 169.53 236.453C167.846 236.453 167.566 237.775 168.688 239.361C169.53 241.08 169.53 242.005 168.408 241.476C167.004 240.947 164.478 241.476 162.233 242.798C158.304 244.913 158.304 244.913 159.426 242.401C160.268 240.947 161.672 238.833 162.514 237.643C163.636 236.321 163.075 235.528 160.549 235.528C158.304 235.528 156.9 237.379 156.62 240.683C156.058 244.252 157.181 245.706 160.268 245.706C162.233 245.706 164.198 245.045 164.198 244.384C164.198 242.005 169.811 242.93 170.092 245.309C170.092 246.631 172.056 245.045 174.021 241.741C175.986 238.436 180.757 233.149 184.967 229.844C188.896 226.54 192.264 222.971 191.984 221.913C191.984 220.856 190.3 221.649 188.054 223.896L183.844 227.861L185.528 223.896C186.37 221.649 188.616 216.494 190.3 212.264C192.545 206.58 192.545 203.672 190.019 200.368C188.054 197.856 186.651 194.816 186.651 193.362C186.651 189.529 176.266 182.259 170.653 182.259C167.846 182.259 163.917 181.069 161.952 179.615C158.584 177.104 155.216 176.311 152.691 177.632ZM158.023 180.54C155.216 180.805 150.726 180.805 148.2 180.54C145.393 180.144 147.639 179.879 152.971 179.879C158.304 179.879 160.549 180.144 158.023 180.54ZM122.098 182.259C119.853 182.92 115.923 183.448 113.678 183.448C110.871 183.448 111.433 183.052 115.081 182.259C122.659 180.673 127.15 180.673 122.098 182.259ZM98.8028 206.316C98.2415 208.034 97.6801 206.977 97.6801 204.069C97.3995 201.161 97.9608 199.839 98.8028 201.029C99.3641 202.35 99.3641 204.73 98.8028 206.316ZM101.048 223.896C102.732 227.729 102.171 228.787 99.9255 227.729C98.2415 227.068 96.2768 223.764 95.7155 220.591C94.3121 213.586 98.2415 215.965 101.048 223.896Z" fill="black"/>
<path id="Vector_2" d="M111.152 220.856C112.555 223.235 113.117 226.804 112.275 228.787C111.152 230.637 111.713 232.62 113.397 233.017C115.081 233.545 118.449 235.925 120.975 238.436C123.501 240.948 126.589 243.062 127.992 243.062C129.395 243.062 129.676 243.988 128.553 245.177C127.15 247.028 126.308 246.764 123.221 244.252C120.975 242.269 119.572 241.873 119.572 243.062C119.291 248.746 133.044 249.539 133.605 243.856C133.605 242.402 134.167 239.626 134.447 237.775C135.009 235.925 133.886 232.356 132.483 229.844C130.799 227.333 129.676 224.293 129.957 223.235C130.518 221.649 130.237 221.649 127.992 223.367C126.027 224.821 126.027 227.068 127.711 229.976C131.36 236.057 131.36 243.062 127.711 240.419C126.308 239.361 124.905 236.453 124.905 234.074C124.905 231.43 123.782 229.976 122.098 230.505C119.853 231.166 119.011 229.712 119.291 225.218C119.572 224.16 110.871 216.626 109.468 216.626C108.907 216.626 109.749 218.609 111.152 220.856Z" fill="black"/>
<path id="Vector_3" d="M149.322 220.195C148.2 220.591 147.358 222.045 147.358 223.235C147.358 224.425 145.393 226.54 142.867 227.994C138.657 230.505 138.657 230.373 139.78 227.465C140.622 225.879 140.341 224.821 139.218 225.218C136.692 225.879 137.254 248.085 140.06 249.275C140.902 249.671 141.744 247.953 141.744 245.442C141.744 239.361 146.796 226.936 149.884 225.482C151.006 224.953 151.568 227.597 150.726 231.43C149.884 235.264 148.48 238.568 147.358 238.833C144.551 239.361 148.2 247.424 151.568 247.953C153.252 248.217 154.374 244.384 154.094 238.568C154.094 233.149 154.655 228.919 155.497 229.183C156.62 229.448 157.181 227.994 157.181 225.879C157.181 223.499 156.058 222.442 153.532 222.838C151.287 223.367 150.726 222.838 151.848 221.384C153.532 219.137 152.41 218.609 149.322 220.195Z" fill="black"/>
<path id="Vector_4" d="M169.811 221.12C169.811 222.31 168.688 223.235 167.004 223.235C162.514 223.235 158.023 232.884 162.233 234.074C166.724 235.396 169.25 235.396 171.214 233.81C174.021 231.695 174.582 220.592 172.056 219.798C170.934 219.402 169.811 220.063 169.811 221.12ZM167.285 232.884C163.636 234.603 163.356 232.224 166.443 227.201L168.408 223.896L169.25 227.729C169.811 229.844 168.969 232.091 167.285 232.884Z" fill="black"/>
<path id="Vector_5" d="M108.065 234.999C108.065 235.792 109.468 236.718 111.152 237.246C112.836 237.643 113.678 239.229 112.836 240.551C111.152 243.723 115.362 245.177 117.607 242.269C118.73 241.08 117.327 238.7 115.081 236.982C110.591 233.678 108.065 233.017 108.065 234.999Z" fill="black"/>
</g>
</g>

    </svg>
