
    <svg width="256" height="256" viewBox="0 0 256 256" fill="none" xmlns="http://www.w3.org/2000/svg">
        
<g id="Frame 41">
<rect width="256" height="256" fill="#FF4D4D"/>
</g>

        
<style type="text/css">
	.st0{fill:none;stroke:#000000;stroke-width:4;stroke-miterlimit:10;}
</style>
<g id="head">
	<path d="M38,51.8c0.5,0,0.7,0.2,0.5,0.6c-0.2,0.3-0.1,0.6,0.4,0.6c0.4,0,0.5,0.6,0.4,1.5c-0.2,0.8-0.1,1.5,0.1,1.5
		c0.4,0,0.9,9.1,0.7,13c-0.4,8.8-0.4,9.5,0.5,10c0.7,0.4,0.7,0.5,0.1,0.6c-0.5,0-0.7,0.4-0.5,0.7c0.1,0.4-0.2,1.7-0.6,2.8l-0.9,2.1
		l1.6-1c1.5-1,1.6-1,1.6,0.2c0,0.8-0.3,1.1-0.8,0.9c-0.5-0.2-1-0.1-1.3,0.3c-0.2,0.4,0.1,0.7,0.7,0.7c0.8,0,0.9,0.1,0.3,0.5
		c-1.1,0.7-1,1.4,0.3,1.9c1,0.4,1,0.5-0.2,0.5c-1.3,0.1-1.5,0.7-1.4,4c0,1,0.1,2.8,0.1,4.1c0.1,1.4,0.4,2.2,0.8,2
		c0.4-0.2,0.9,0.1,1.1,0.6c0.2,0.7,0.1,0.8-0.8,0.5c-0.7-0.2-1.2-0.1-1.2,0.2s0.3,0.7,0.6,0.7c0.4,0,0.4,0.4,0,1.2
		c-0.8,1.5-0.2,1.6,1.4,0.1c1-0.8,1.1-0.8,0.5,0c-0.4,0.5-0.5,1.1-0.2,1.2c0.2,0.1,0.1,0.8-0.4,1.7c-0.8,1.4-0.8,1.4-0.5,0.1
		c0.2-0.7,0.1-1.3-0.2-1.3c-0.8,0-0.6,2.2,0.4,3c0.7,0.5,0.9,3.1,1,12.7c0.1,6.6,0,11.8-0.2,11.7c-0.6-0.4-0.5,4,0.1,5.7
		c0.4,0.8,0.6,3,0.6,4.7c0,0.1,0,0.2,0,0.4c1-0.7,2.1-1.2,3.2-1.7c-0.2-1.6-0.5-3.4-0.8-4.7c-0.3-1.9-0.6-12.4-0.6-23.2
		c0-21.5-0.5-34.6-1.3-40.3c-0.6-3.7-0.3-27,0.3-28c0.2-0.3,0.1-0.7-0.2-0.9c-0.3-0.2-0.4-1.9-0.2-3.7c0.4-3.3,0.3-3.3-1.2-3.3
		c-0.8,0-1.7,0.2-1.9,0.6c-0.2,0.3,0.1,1.5,0.5,2.7c0.5,1.1,0.7,2.7,0.5,3.3c-0.2,0.7-0.1,2.1,0.3,3c0.8,2.3-0.2,3.3-3.6,3.6
		C36.6,50,37.1,51.8,38,51.8z M42.4,92.9c0.1,1-0.2,1.8-0.5,1.8c-0.4,0-0.5-0.3-0.3-0.6c0.2-0.4-0.1-0.6-0.5-0.6c-0.5,0-1-0.1-1-0.2
		c0-0.7,1.2-3.4,1.4-3.4c0.2,0,0.1,0.4-0.1,1c-0.2,0.5-0.1,0.8,0.2,0.6C42,91.3,42.3,91.9,42.4,92.9z"/>
	<path d="M210.3,59.3c0,1.5,0.2,2.8,0.5,2.8c0.5,0,0.8,4.6,1,22.3c0.3,20.3,1.5,34.1,3,33.6c0.7-0.2,0.6-1.9-0.7-10.3
		c-1.1-8.2-1.1-18.9,0-18.9c1,0,1.3,1.8,1.9,11.9c0.2,3.1,0.5,6.5,0.6,7.5c0.3,2.3,1,13,1,14.2c-0.2,4.3-0.1,6.1,0.8,7.5
		c0.6,0.8,0.8,1.6,0.4,1.6c-0.3,0-0.5,0.7-0.5,1.5c0,0.8,0.1,1.4,0.4,1.3c0.3-0.2,0.3,5.3,0.1,12.3c0,0.1,0,0.2,0,0.4
		c0.6-0.7,1.4-1.2,2.2-1.5c0.1-0.7,0.3-1,0.6-0.9c0.2,0.1,0.4,0.3,0.5,0.6c0.6-0.1,1.2,0,1.8,0.1c0-0.3,0.1-0.5,0.1-0.6
		c0.3-1.4,0.1-1.8-1.1-2.2c-1.4-0.5-1.4-0.8-1-2.8c0.3-1.3,0.4-2.5,0.3-2.7c-0.1-0.2-0.3-3-0.4-6.1c-0.1-3.1-0.3-6.2-0.6-6.7
		c-0.3-0.5-0.7-2.3-0.8-3.9c-0.4-4-2.1-19.3-2.8-25.5c-0.3-2.8-0.6-8.1-0.7-11.9c-0.1-5.4-0.3-7.2-1.2-8.9c-0.8-1.5-1.1-3.4-1.1-6
		c0-4.5-1-10.4-2.1-12.5c-1.5-2.9-2.2-6.7-1.8-10c0.4-3,0.3-3.3-0.8-3.3c-0.7,0-1.4,0.2-1.6,0.6c-0.2,0.3-0.2,1.6,0.1,2.7
		c0.2,1.4,0.1,2.5-0.4,3c-0.6,0.7-0.6,1.3-0.2,2.3C209.8,55.1,210.3,56.8,210.3,59.3z M213.3,82.3c0.4-0.5,1-0.9,1.3-0.9
		c0.4,0,0.3,0.4-0.1,0.9c-0.4,0.5-1,0.9-1.3,0.9C212.8,83.2,212.9,82.8,213.3,82.3z M214.7,83.8c0.7,0,0.9,0.2,0.5,0.4
		c-0.4,0.1-0.8,0.8-0.8,1.4c0,1.4-1,2.1-1.4,0.9C212.5,85,213.3,83.8,214.7,83.8z"/>
</g>
<path class="st0" d="M42.9,141.1c0.2-3.4,0.2-5.4,0.2-8.4c2-9,3-18,1-27c-4-24,0-47-3-70.7"/>
<path class="st0" d="M208.3,43.8c0.3-0.7,0.6-1.3,0.9-2c-1.3,7,0.5,14.1,1.7,21c3.1,20.9,3.1,42.9,4.1,64.9c1,4,3,8,4,13
	c0,2,0,5,0.2,7.1"/>
<path class="st0" d="M42.9,143.7c-1.4-0.1-2.4-2-1.7-3.2c9.6,20.5,19.5,40.9,29.7,61.1c3.8,7.6,8.1,15.6,15.2,20.2
	c3.8,2.4,8.1,3.7,12.3,5.5c8.8,3.7,16.5,9.5,24.3,14.9c1.4,1,2.9,2,4.5,2.4c1.3,0.3,2.7,0.3,4.1,0.3c3.2-0.1,6.3-0.2,9.5-0.2
	c3.4-0.1,6.9-0.2,9.8-2c4.8-2.9,6.2-9.4,10.3-13.3c4.8-4.7,12.4-4.9,18.4-7.9c4.8-2.4,8.5-6.5,11.8-10.7
	c16.8-21.3,27.2-47.5,29.6-74.5"/>

        
<path d="M135.122 4.5C135.122 5.37338 139.405 6.47159 143.688 8C143.688 8 164.032 21.0289 151.183 30.8544C142.349 37.6231 140.475 35.4397 145.829 25.3958C147.971 20.8106 149.309 16.662 148.774 16.2253C146.097 14.0419 125.753 26.9242 124.146 31.9462C122.54 37.6231 119.328 38.9332 116.383 35.2213C115.58 34.1296 111.297 31.0728 106.747 28.4526L98.7159 23.8674L100.322 29.1077C102.464 35.658 97.6452 46.1386 92.5591 46.1386C90.4176 46.1386 86.6699 44.3918 84.2607 42.4267C78.6392 38.0598 80.2454 25.8325 87.2053 19.7188C93.0945 14.4785 88.0084 14.2602 78.1039 19.2821C65.7902 25.3958 56.1534 33.6929 56.1534 37.8415C56.1534 41.5533 55.618 41.5533 48.3904 37.1864C42.2335 33.4746 38.7536 33.0379 28.3137 34.1296C21.6215 35.003 16 36.7497 16 37.8415C16 39.1515 21.3538 39.3699 29.6521 38.4965C42.2335 36.9681 43.8397 37.4048 51.0673 43.0817L58.8303 49.1954V43.3001C58.8303 40.0249 62.3102 34.3479 67.1286 29.7627C75.9624 21.6839 82.1192 19.5005 78.9069 25.8325C74.3562 34.7846 74.8916 36.9681 81.5838 43.5184C86.6699 48.5404 88.0084 51.3789 86.1345 53.999C84.7961 55.9641 82.9223 57.2742 82.1192 57.2742C75.1593 56.4008 71.947 57.9292 67.664 63.6062C63.381 69.5015 62.5779 69.9382 59.6333 66.663C58.0272 64.6979 57.2241 61.8594 58.0272 60.1127C58.8303 58.3659 58.2949 57.0558 56.9564 57.0558C53.7442 57.0558 48.1227 66.8814 48.1227 72.34C48.1227 75.1785 46.7842 76.2702 43.8397 75.1785C41.6982 74.5234 40.3597 72.7767 40.8951 71.2482C41.6982 69.9382 39.8243 67.5364 37.1474 66.2263C32.8644 63.8245 32.0613 64.2612 32.0613 68.1914C32.0613 70.5932 33.3998 71.9033 34.7382 71.2482C36.3444 70.5932 37.4151 71.4666 37.4151 73.2134C37.4151 79.7637 32.329 78.8903 29.9198 71.9033C28.3137 67.9731 26.4399 63.1695 25.6368 61.2044C24.0307 58.3659 25.1014 57.9292 30.7229 58.5842C34.4705 59.2393 38.2182 60.5493 39.0213 61.6411C42.7689 66.663 44.6427 62.7328 42.2335 54.4357C39.5566 44.6102 35.809 39.5882 31.2583 39.5882C29.9198 39.5882 30.7229 41.5533 33.3998 43.9551C36.0767 46.3569 37.1474 48.322 36.0767 48.322C34.7382 48.322 35.0059 49.4138 36.8797 50.9422C41.9658 55.0907 40.6274 57.2742 33.6675 55.7458C29.9198 55.0907 24.5661 55.0907 21.6215 55.9641L16 57.2742L21.6215 63.6062C25.9045 68.1914 26.9753 72.1216 26.4399 79.7637C25.3691 90.0259 27.7783 93.0828 30.7229 85.4407C31.526 83.0389 34.7382 79.9821 37.4151 78.8903C41.6982 76.9252 43.3043 77.7986 46.5166 82.6022C50.5319 88.7158 50.5319 88.7158 50.7996 77.1436C50.7996 64.4796 53.7442 62.5145 58.8303 72.34C62.8456 80.2004 66.8609 80.8554 66.8609 73.65C66.8609 70.8116 69.2701 66.2263 72.2147 63.3878L77.8362 58.1475L75.9624 65.7896C75.1593 69.9382 70.8763 78.2353 66.3255 84.1306C62.0425 89.8076 59.0979 95.0479 59.901 95.7029C60.4364 96.3579 64.184 92.6461 68.1994 87.8425C74.8916 78.8903 85.5992 69.0648 86.6699 70.5932C86.9376 71.0299 88.8114 75.3968 90.9529 80.4187C92.8268 85.659 95.5037 89.8076 97.1098 89.8076C98.4482 89.8076 98.7159 88.2792 97.9129 86.3141C96.039 82.1655 100.857 65.7896 104.07 65.7896C105.14 65.7896 108.888 70.5932 112.368 76.7069C115.848 82.6022 119.596 87.6241 120.399 87.6241C121.469 87.6241 122.005 83.0389 121.469 77.1436L120.399 66.8814L124.949 77.1436C129.232 86.9691 133.516 90.8993 133.783 84.7856C134.051 83.4756 135.657 79.1087 138.066 75.6152L141.814 69.0648L140.475 79.327C139.94 85.2223 139.672 89.8076 140.208 89.8076C141.011 89.8076 145.026 86.7507 149.309 83.2572C157.875 76.4885 166.977 73.65 160.552 79.982C156.269 84.1306 152.521 100.506 155.198 101.817C156.269 102.472 158.678 100.07 160.552 96.5763C162.158 93.0828 165.906 88.4975 168.583 86.5324C173.401 83.0389 173.669 83.0389 175.275 88.9342C176.346 92.4277 177.417 96.1396 177.952 97.4496C178.22 98.5414 180.629 95.7029 183.306 91.1176L187.589 82.6022L192.942 89.5892C196.69 94.6112 199.635 96.3579 202.579 95.2662C205.524 94.3928 208.736 95.7029 211.948 98.9781L216.767 104V98.323C216.767 95.2662 213.822 88.0608 210.342 82.6022C206.862 76.9252 204.721 72.34 205.792 72.34C208.736 72.34 213.287 75.6151 216.499 79.982C219.176 83.6939 219.444 83.0389 218.105 75.6152C216.231 64.6979 211.413 54.8724 208.468 54.8724C207.13 54.8724 206.059 53.7806 206.059 52.6889C206.059 48.322 216.767 50.7238 221.05 55.9641C227.207 63.6062 228.813 61.4227 224.797 51.1605C220.782 41.1166 212.216 33.0379 205.524 33.0379C202.847 33.0379 200.705 32.3828 200.705 31.7278C200.705 29.5444 211.948 16.8803 216.231 14.0419C224.262 8.80158 217.302 9.01992 201.776 14.6969C193.21 17.7537 184.109 21.6839 181.7 23.4307C177.952 26.2692 176.881 25.6141 172.598 17.7537C166.977 7.27316 135.122 1.5 135.122 4.5ZM173.937 29.5444C173.937 33.4746 174.472 33.2562 181.432 28.2343C189.195 22.339 205.792 14.6969 207.665 16.2253C208.201 16.662 206.595 19.5005 203.65 22.339C195.619 30.6361 195.619 35.8764 203.115 36.313C206.595 36.5314 212.484 39.3699 215.964 42.8634C222.924 49.4137 222.656 52.0339 214.893 48.7587C211.413 47.2303 208.468 47.4486 204.721 49.8504C200.973 52.2522 200.438 53.5623 202.847 54.2173C206.327 55.3091 214.09 66.2263 214.09 69.9382C214.09 71.4666 211.681 71.4666 206.862 69.9382C198.832 67.5364 192.407 71.9033 199.367 75.1785C202.847 76.7069 211.413 87.8425 211.413 90.681C211.413 91.1176 208.201 91.336 204.453 91.1176C199.367 90.681 196.422 88.4975 194.281 84.3489L191.069 78.2353L185.447 83.9123L179.826 89.8076L178.22 84.3489C176.078 77.1436 173.133 77.3619 164.835 85.659C156.537 93.7378 155.734 91.991 163.497 81.9472L169.118 74.5234H162.694C159.214 74.5234 153.592 76.2702 150.112 78.2353L143.688 81.7288L145.294 73.65C146.632 66.8814 146.097 65.5713 142.617 66.2263C140.208 66.663 136.728 70.3749 135.122 74.5234L131.642 82.1655L128.697 76.0518C127.091 72.5583 125.753 67.318 125.753 64.4796C125.753 56.6191 120.934 60.1127 118.793 69.5015L116.919 77.3619L111.833 69.2831C106.211 60.1127 107.55 56.1824 115.848 58.3659C120.934 59.676 121.202 59.4576 117.99 56.1824C116.116 54.2173 113.439 52.6889 112.636 52.6889C109.156 52.6889 96.3067 70.3749 96.3067 75.1785C96.3067 79.1087 95.7713 79.327 93.6298 76.7069C92.2914 74.9601 90.9529 70.8116 90.9529 67.318C90.9529 64.0429 89.8822 61.4227 88.2761 61.4227C86.9376 61.4227 85.5992 62.7328 85.5992 64.4796C85.5992 66.008 83.7253 68.8465 81.3161 70.3749C77.3008 72.995 77.0331 72.7767 78.9069 67.9731C82.6546 58.1476 93.6298 48.5404 93.6298 54.8724C93.6298 55.9641 94.9683 57.0558 96.5744 57.0558C98.7159 57.0558 98.4482 55.9641 96.3067 53.7807C93.3621 50.9422 93.8975 49.6321 98.4482 45.4835C101.393 42.8634 104.337 38.4965 104.873 35.658C105.676 30.8544 105.676 30.8544 115.045 37.4048L124.414 43.9551L126.288 36.9681C127.894 30.6361 140.743 18.4088 143.42 20.5922C143.955 21.0289 142.885 24.5224 141.278 28.2343C138.869 33.4746 138.869 35.8764 141.011 37.6231C146.365 41.99 159.034 29.7627 159.034 20.5922L149.904 8L168.583 17.7537C171.527 21.9023 173.669 27.3609 173.937 29.5444Z" fill="black"/>
<path d="M179.825 35.221C169.386 43.0814 163.229 43.7364 163.229 36.9677C163.229 32.6008 162.426 32.8192 155.733 39.5879L147.97 47.0116L139.672 41.9897L131.106 37.1861L132.712 43.7364C134.051 49.1951 133.515 50.5051 129.768 50.5051C125.217 50.5051 125.217 50.7235 129.232 54.4353C131.909 56.6188 133.783 59.6756 133.783 61.204C133.783 62.7325 134.854 63.3875 136.46 62.5141C137.798 61.8591 138.334 59.894 137.263 58.1472C135.389 53.562 141.01 53.9987 144.223 58.5839C146.632 62.0774 147.167 62.0774 152.789 58.1472C158.678 53.7803 158.678 53.7803 156.804 58.1472C151.718 68.6278 156.001 71.4663 169.118 67.0994C172.598 65.7893 173.133 66.4443 172.062 69.9378C170.456 75.3965 172.865 75.8332 178.755 70.8112C183.038 67.3177 183.305 67.536 184.108 71.9029C184.644 74.5231 186.785 76.7065 189.194 76.7065C192.674 76.7065 192.674 76.0515 189.998 73.4314C188.124 71.6846 187.321 68.6278 188.391 66.881C189.998 62.9508 188.927 62.7325 181.967 65.7893C177.684 67.7544 177.148 67.536 178.487 64.4792C179.825 61.6407 179.022 61.204 173.669 62.5141C170.189 63.3875 166.173 64.9159 164.567 66.0076C160.552 69.0645 157.875 68.1911 157.875 63.8242C157.875 61.6407 159.749 58.5839 161.89 57.0555C168.582 52.6886 162.158 49.1951 155.198 53.3436C147.703 57.7105 136.46 54.217 136.46 47.6667C136.46 43.5181 136.727 43.5181 141.546 47.0116C146.097 50.2868 146.9 50.2868 152.789 46.3566C156.804 43.7364 160.552 42.8631 163.229 43.9548C168.315 46.1382 179.022 42.8631 180.896 38.4962C183.038 34.3476 187.321 34.1293 187.321 38.4962C187.321 40.2429 188.391 41.7713 189.462 41.7713C190.801 41.7713 191.336 38.7145 190.533 35.221C189.998 31.5091 189.194 28.6706 188.927 28.6706C188.927 28.6706 184.644 31.7275 179.825 35.221Z" fill="black"/>
<path d="M199.635 43.0813C196.423 49.85 200.438 50.505 205.524 43.9547C208.201 40.4612 208.201 39.5878 204.989 39.5878C202.847 39.5878 200.438 41.1162 199.635 43.0813Z" fill="black"/>
<path d="M105.943 47.4482C104.873 49.4133 104.873 51.5967 105.676 52.2518C106.479 52.9068 107.014 52.2518 107.014 50.7233C107.014 49.1949 109.423 48.7582 114.509 49.6316C121.469 50.9417 121.469 50.9417 116.383 47.6665C109.423 43.0813 108.085 43.0813 105.943 47.4482Z" fill="black"/>
<path d="M173.133 50.0685C167.512 55.0904 166.977 58.5839 172.598 54.872C175.81 52.6886 176.881 52.9069 178.22 55.7454C180.093 59.4573 187.321 60.549 187.321 57.0555C187.321 55.7454 188.659 54.872 189.998 54.872C191.604 54.872 192.675 56.8372 192.675 59.4573C192.675 61.8591 193.746 63.3875 195.084 62.5141C196.422 61.8591 199.367 62.9508 201.509 64.6976C206.327 68.6278 208.736 68.8461 208.736 65.7893C208.736 64.4792 205.792 62.5141 202.312 61.4224C198.296 60.3307 195.084 57.0555 194.013 52.9069C192.139 45.4832 187.321 43.7365 187.321 50.2868C187.321 57.0555 182.77 57.7105 180.093 51.3785C177.952 45.9199 177.684 45.9199 173.133 50.0685Z" fill="black"/>
<path d="M65.7902 45.2647C64.7194 48.5399 64.4517 51.5967 65.5225 52.2518C66.3255 52.9068 66.8609 52.2518 66.8609 50.7233C66.8609 48.7582 68.1994 48.7582 72.4824 50.505C75.427 52.0334 78.6392 52.4701 79.4423 51.8151C80.2454 51.16 78.9069 50.0683 76.4977 49.1949C74.0885 48.5399 72.2147 45.9198 72.2147 43.7363C72.2147 37.6226 67.664 38.7144 65.7902 45.2647Z" fill="black"/>
<path d="M46.5166 51.5969C46.2489 54.6537 47.052 57.0555 48.3904 57.0555C49.7289 57.0555 50.7996 55.5271 50.7996 53.562C50.7996 51.5969 52.1381 50.9418 54.2796 51.8152C56.4211 52.9069 56.4211 52.2519 53.7442 49.8501C48.6581 44.8282 46.7843 45.2649 46.5166 51.5969Z" fill="black"/>

        
<g id="Frame 11">
<path id="Vector" d="M115.074 90.7387C114.767 98.7026 102.515 100.847 102.515 93.1891C102.515 90.7387 101.29 88.5946 99.7585 88.5946C98.227 88.5946 97.6144 91.3513 98.5333 94.7207C100.371 101.153 93.9387 103.297 88.4253 97.7837C86.5874 95.9459 85.3622 99.9278 85.0559 108.198C84.7496 120.45 85.3622 121.675 95.7766 126.576C101.903 129.639 116.605 132.702 128.551 133.621C146.623 134.847 151.524 133.928 160.101 128.72C170.515 121.982 172.659 113.099 165.614 107.279C163.164 105.135 161.938 100.847 162.857 96.8648C164.389 90.4324 164.389 90.4324 160.101 95.9459C155.506 101.459 146.623 100.234 149.993 94.4144C151.218 92.8828 150.299 91.6576 148.767 91.6576C146.929 91.6576 145.398 92.8828 145.398 94.7207C145.398 99.9278 136.821 98.09 135.29 92.2702C134.065 87.3693 133.758 87.3693 133.452 92.2702C132.839 100.847 118.443 99.6215 116.912 90.7387L115.686 84L115.074 90.7387ZM108.948 108.198C105.885 111.567 105.885 114.324 108.641 119.225C113.542 128.414 111.092 129.639 98.227 123.513C82.6055 115.856 84.4433 106.054 102.515 103.297C112.317 101.766 113.542 102.685 108.948 108.198ZM138.353 114.63C137.74 122.594 135.903 129.639 134.984 130.558C131.002 134.847 116.299 126.576 113.542 118.612C109.56 107.585 115.686 100.847 129.47 100.847H140.191L138.353 114.63ZM157.038 106.973C162.245 110.342 166.839 114.324 166.839 116.162C166.839 119.531 155.812 126.883 146.011 129.946C139.884 131.784 139.578 131.171 142.029 124.739C143.254 120.757 143.866 114.018 143.254 109.117C142.029 99.3152 143.866 99.0089 157.038 106.973Z" fill="black"/>
<path id="Vector_2" d="M122.119 111.261C120.281 119.225 122.425 125.351 127.326 125.351C131.002 125.351 131.002 107.892 127.02 105.441C125.488 104.522 123.344 106.973 122.119 111.261Z" fill="black"/>
</g>

        
<g id="Frame 22">
<path id="Vector" d="M128.675 141.043C120.022 149.078 114.254 159.79 115.078 167.001C115.902 175.035 121.259 179.156 126.615 175.859C130.529 173.387 132.795 160.615 129.087 160.615C127.645 160.615 127.233 162.263 128.057 164.735C129.499 169.061 126.203 175.035 122.701 175.035C121.671 175.035 119.816 172.769 118.374 170.091C116.52 165.971 116.932 163.293 120.847 156.082C123.319 151.138 127.851 145.164 130.735 142.691C133.825 140.425 135.885 137.747 135.267 137.129C134.649 136.511 131.559 138.159 128.675 141.043Z" fill="black"/>
</g>

        
<g id="Frame 27">
<g id="Group 39">
<path id="Vector" d="M116.685 190.826C114.433 191.951 110.774 194.203 108.804 196.174C105.989 199.27 106.271 200.958 111.056 205.743C124.003 218.691 163.69 206.025 154.683 191.67C152.713 188.574 124.003 188.011 116.685 190.826ZM127.944 194.485C127.944 195.892 126.818 197.299 125.129 197.299C123.722 197.299 122.314 195.892 122.314 194.485C122.314 192.796 123.722 191.67 125.129 191.67C126.818 191.67 127.944 192.796 127.944 194.485ZM136.388 194.485C136.388 195.892 135.825 197.299 135.262 197.299C134.418 197.299 133.01 195.892 132.166 194.485C131.321 192.796 131.884 191.67 133.292 191.67C134.981 191.67 136.388 192.796 136.388 194.485ZM152.15 195.048C155.528 200.114 144.55 205.743 131.04 205.743C115.559 205.743 107.397 201.521 113.87 197.581C116.122 195.892 119.218 195.892 120.907 197.018C122.314 198.425 127.099 200.114 131.603 201.24C138.077 202.647 139.203 202.084 139.203 197.299C139.203 191.107 148.772 189.418 152.15 195.048Z" fill="black"/>
</g>
</g>

        
<g id="Frame 33">
<g id="Group 43">
<path id="Vector" d="M42.6958 145.951C40.7973 149.587 43.1177 179.282 45.6491 181.1C46.7038 181.858 47.5476 184.282 47.5476 186.554C47.5476 188.827 48.3914 191.099 49.4461 191.554C50.2899 192.008 52.3994 195.493 53.876 199.28C57.0402 207.613 60.2044 209.431 60.2044 203.068C60.2044 200.493 59.3607 198.674 58.3059 199.129C54.2979 200.947 49.0242 180.191 52.3994 176.252C53.2432 175.343 52.6103 170.04 50.9228 164.283C49.4461 158.526 48.3914 152.617 48.8133 151.102C49.0242 149.739 48.3914 148.527 47.5476 148.527C46.4929 148.527 45.4381 147.315 45.0163 145.8C44.3834 143.376 44.1725 143.376 42.6958 145.951ZM46.9148 165.495C46.4929 167.465 46.071 166.253 46.071 162.92C45.86 159.586 46.2819 158.071 46.9148 159.435C47.3367 160.95 47.3367 163.677 46.9148 165.495Z" fill="black"/>
<path id="Vector_2" d="M206.391 147.769C210.188 154.738 212.508 164.131 211.243 168.222C210.399 171.404 210.821 172.616 212.719 172.313C214.196 172.161 215.04 173.373 214.618 175.797C214.196 177.918 213.774 183.675 213.985 188.675C213.985 198.826 210.61 196.402 209.766 185.645L209.344 179.585L208.079 184.584C207.446 187.311 205.969 189.281 204.703 189.13C203.649 188.827 202.383 190.19 201.961 192.16C201.539 193.978 200.274 195.19 199.219 194.735C198.164 194.129 197.32 198.068 197.531 204.128C197.742 215.037 200.695 233.672 201.328 227.309C201.328 225.187 203.438 222.309 205.758 220.794C208.5 219.127 209.977 216.249 210.188 212.613C210.399 209.431 211.243 204.734 212.297 202.31C213.774 198.674 213.774 199.28 213.141 205.34C212.087 214.431 215.04 210.34 217.36 199.28C218.204 195.038 219.47 192.614 219.892 193.675C220.524 194.584 221.579 195.19 222.423 194.887C224.321 193.978 221.157 173.222 218.415 168.525C217.149 166.555 216.305 162.768 216.305 159.889C216.305 152.92 214.196 149.133 211.876 151.86C210.61 153.223 209.977 152.92 209.977 150.496C209.977 148.678 208.922 146.708 207.446 146.102C205.758 145.345 205.547 145.799 206.391 147.769ZM218.204 185.19C217.993 190.493 217.782 190.948 216.516 187.918C215.04 184.433 215.673 178.827 217.571 178.827C217.993 178.827 218.415 181.706 218.204 185.19ZM209.344 197.917C208.5 202.159 208.5 202.159 208.079 197.311C207.868 193.978 207.024 192.614 205.336 193.372C203.86 194.129 203.649 193.826 204.703 192.614C207.235 189.584 210.399 193.069 209.344 197.917ZM205.125 200.341C204.492 201.401 204.071 200.644 204.071 198.523C204.071 196.402 204.492 195.644 205.125 196.553C205.547 197.614 205.547 199.432 205.125 200.341ZM205.125 205.795C208.289 208.219 208.711 211.552 205.758 212.916C204.703 213.37 203.649 215.34 203.649 217.158C203.649 219.733 203.227 220.036 201.75 218.37C200.695 217.309 200.695 214.431 201.539 212.158C202.383 209.886 202.383 207.007 201.328 205.946C200.274 204.734 199.641 202.765 199.641 201.553C199.852 199.583 199.852 199.583 200.906 201.553C201.75 202.765 203.438 204.734 205.125 205.795Z" fill="black"/>
<path id="Vector_3" d="M55.5637 175.343C54.9309 185.645 56.1966 191.251 60.4155 196.705C62.525 199.735 64.4235 203.977 64.6345 206.098C64.6345 208.219 65.4783 211.249 66.533 212.916C68.0097 215.491 68.4315 215.34 68.4315 211.401C68.8534 205.189 72.2286 209.28 74.1271 217.764C74.76 221.4 76.2366 224.279 77.2914 224.279C79.6118 224.279 79.6118 224.582 77.2914 218.521C76.0257 215.491 76.0257 213.976 77.2914 214.431C78.3461 215.037 79.1899 213.825 79.1899 212.158C79.1899 209.886 78.1351 209.128 76.0257 209.583C73.9162 210.34 72.6505 208.977 71.8067 204.886C71.1739 201.856 70.1191 197.765 69.4863 195.796C69.0644 193.978 69.4863 192.463 70.752 192.463C71.8067 192.463 72.8614 190.039 72.8614 187.009C72.8614 184.13 72.0177 182.009 70.9629 182.615C69.6972 183.069 67.7987 182.16 66.533 180.797C64.6345 178.676 64.4235 179.888 65.2673 186.403C65.6892 190.948 66.9549 196.099 67.7987 197.614C68.8534 199.432 68.6425 200.189 67.1659 199.583C65.9002 198.977 64.4235 196.553 63.5797 193.978C62.9469 191.251 61.4703 189.584 60.2046 190.19C59.1498 190.645 58.0951 189.736 58.0951 187.918C58.0951 185.797 58.9389 185.039 60.8374 185.797C62.525 186.706 62.525 186.251 60.4155 184.433C58.7279 182.918 57.8842 179.433 58.517 175.797C58.9389 172.464 58.517 169.737 57.6732 169.737C56.6185 169.737 55.7747 172.313 55.5637 175.343ZM70.1191 189.736C69.4863 190.796 69.0644 190.039 69.0644 187.918C69.0644 185.797 69.4863 185.039 70.1191 185.948C70.541 187.009 70.541 188.827 70.1191 189.736Z" fill="black"/>
<path id="Vector_4" d="M60.4154 179.736C60.4154 181.403 61.0482 181.857 61.6811 180.645C62.3139 179.585 62.103 178.221 61.4701 177.767C60.8373 177.161 60.2045 178.07 60.4154 179.736Z" fill="black"/>
<path id="Vector_5" d="M73.9161 196.25C73.2832 200.19 73.0723 203.674 73.4942 203.977C74.127 204.432 75.1817 201.553 76.0255 197.765C76.6584 193.826 76.8693 190.342 76.4474 190.039C75.8146 189.584 74.7598 192.463 73.9161 196.25Z" fill="black"/>
<path id="Vector_6" d="M79.8225 197.614C80.6662 202.159 80.4553 204.432 79.1896 203.826C77.9239 203.371 77.0801 203.826 77.0801 205.189C77.0801 206.401 77.9239 207.613 78.9787 207.916C80.0334 208.068 81.51 210.795 82.1429 213.673C83.4086 217.764 83.1976 218.37 81.2991 216.703C79.6115 214.885 79.4006 215.491 80.4553 218.976C81.2991 221.4 82.7757 224.885 83.8304 226.551C85.518 229.278 85.518 229.278 84.6742 226.097C84.0414 223.976 84.8852 222.764 86.5728 222.764C88.8932 222.764 88.8932 223.824 87.4166 227.612C84.6742 234.732 85.3071 238.065 88.4713 232.005L91.0027 226.854L95.6435 232.46C98.1749 235.49 100.284 238.671 100.284 239.58C100.284 240.338 101.339 240.944 102.394 240.944C103.659 240.944 104.503 240.338 104.503 239.58C104.503 238.671 103.659 237.611 102.394 237.156C101.339 236.702 100.284 235.49 100.284 234.732C100.284 233.823 101.339 233.672 102.605 234.278C104.081 234.884 104.503 234.278 103.659 232.157C101.55 227.46 99.6515 217.915 99.6515 212.31C99.6515 207.916 99.2296 207.613 96.9092 209.886C94.5888 212.158 94.1669 211.704 93.3231 206.704L92.4793 200.795L92.2683 206.553C92.0574 209.734 93.1121 213.825 94.7997 215.643C98.5968 220.036 101.339 230.945 98.3858 229.581C97.1201 229.127 96.0654 226.4 95.8544 223.824C95.8544 220.036 95.4325 219.582 94.1669 221.854C92.9012 224.127 92.2683 224.279 91.4245 222.612C90.7917 221.4 90.1589 219.885 90.1589 219.279C89.9479 218.673 88.2603 217.006 86.3618 215.643C83.8304 213.673 83.1976 211.249 83.8304 205.038C84.4633 199.886 84.0414 197.614 82.9867 198.826C81.51 200.189 81.2991 199.432 81.9319 196.553C82.3538 194.281 81.9319 192.008 80.6662 191.402C79.1896 190.796 78.9787 192.917 79.8225 197.614Z" fill="black"/>
<path id="Vector_7" d="M190.57 197.008C188.039 201.402 186.562 215.491 188.882 214.431C190.148 213.825 190.992 215.037 190.992 217.309C190.992 219.43 190.148 221.249 188.882 221.249C187.828 221.249 186.773 223.067 186.984 225.339L187.195 229.581L188.882 225.794C190.359 222.764 190.57 223.37 190.781 229.127C190.992 233.217 190.148 236.399 188.882 236.399C187.828 236.399 186.773 237.156 186.773 238.065C186.773 238.823 187.828 239.126 189.093 238.52C190.992 237.762 191.203 238.671 190.148 241.55C189.304 243.823 189.726 245.489 190.992 245.489C192.047 245.489 193.101 242.762 193.101 239.58C193.101 236.247 194.156 233.066 195.211 232.611C196.476 232.157 197.109 228.521 197.109 224.582C196.898 219.43 196.476 218.521 195.422 221.249C194.789 223.37 193.734 218.37 193.101 209.886C192.469 201.553 191.414 195.796 190.57 197.008Z" fill="black"/>
<path id="Vector_8" d="M87.8385 200.795C87.8385 202.462 86.9947 205.492 86.3619 207.613C85.3072 210.492 85.5181 210.946 87.4166 209.734C88.8933 208.825 89.7371 205.795 89.1042 202.916C88.6823 200.038 88.0495 199.129 87.8385 200.795Z" fill="black"/>
<path id="Vector_9" d="M178.546 211.552C178.335 217.158 177.702 222.309 177.069 223.066C176.437 223.672 177.069 224.278 178.124 224.278C179.601 224.278 180.445 228.066 180.445 233.52C180.445 240.792 179.812 242.61 177.491 242.004C175.593 241.398 174.327 242.61 173.694 245.489C173.061 248.671 173.694 250.034 176.437 250.489C181.288 251.398 182.554 250.337 182.554 245.186C182.554 242.762 183.609 239.429 184.664 237.914C186.984 234.884 183.398 204.886 180.445 202.613C179.601 202.007 178.757 205.946 178.546 211.552ZM177.702 247.307C177.069 248.519 176.437 248.065 176.437 246.398C176.226 244.731 176.859 243.822 177.491 244.428C178.124 244.883 178.335 246.247 177.702 247.307Z" fill="black"/>
<path id="Vector_10" d="M167.999 212.31C166.311 215.188 165.889 217.461 167.155 218.067C170.53 219.582 167.788 239.429 164.412 239.429C162.725 239.429 161.459 240.186 161.459 241.095C161.459 241.853 162.514 242.156 163.78 241.55C165.467 240.944 165.678 241.55 164.623 243.823C163.991 245.489 164.202 248.065 165.256 249.428C166.733 251.398 167.999 250.186 170.53 244.277C174.327 236.399 174.749 227.309 172.429 214.734L170.952 207.462L167.999 212.31Z" fill="black"/>
<path id="Vector_11" d="M145.638 215.946C146.06 219.279 147.115 225.945 147.959 230.642C149.013 236.853 148.592 239.429 146.904 239.429C145.638 239.429 144.373 237.156 144.373 234.429C143.951 225.49 142.685 220.794 140.576 219.279C138.888 218.067 138.466 221.4 139.099 229.733L139.943 241.701L146.482 241.55C151.545 241.55 152.811 242.004 152.178 243.822C151.545 245.186 152.811 248.519 154.92 251.398C158.717 256.397 158.928 256.549 161.248 253.519C162.936 251.246 162.936 249.125 161.459 246.701C159.35 243.519 159.35 243.671 160.405 247.761L161.459 252.307L157.662 247.155C155.553 244.125 154.92 241.701 156.186 241.398C157.451 241.095 158.084 235.793 157.662 228.066C157.24 219.127 157.662 215.188 159.35 215.188C160.616 215.188 161.248 215.643 160.616 216.4C160.194 217.006 160.405 219.885 161.459 222.763C163.147 227.763 163.147 227.611 163.358 220.188C163.569 212.613 163.358 212.31 158.928 213.522C154.287 214.734 154.076 215.643 154.709 227.157C155.131 233.823 154.498 239.429 153.443 239.429C152.389 239.429 151.545 236.247 151.334 232.157C151.123 228.217 149.646 221.551 147.748 217.461C144.794 210.189 144.794 210.037 145.638 215.946Z" fill="black"/>
<path id="Vector_12" d="M106.613 215.34C106.613 216.097 105.769 216.552 104.714 216.097C102.605 215.188 103.027 223.824 105.347 225.339C105.98 225.794 106.613 227.612 106.613 229.127C106.613 230.642 107.878 231.854 109.355 231.854C110.832 231.854 113.152 233.672 114.629 235.944C119.691 244.58 124.754 249.883 128.129 250.489C133.614 251.549 134.247 247.61 129.606 240.035C126.02 233.823 126.02 233.217 128.973 235.035C132.348 237.005 132.559 236.702 131.083 231.854C130.239 228.975 128.973 224.279 128.34 221.552C126.442 214.128 123.91 215.794 124.754 223.824C125.598 231.248 124.754 231.248 122.645 223.824C120.957 218.824 117.16 218.37 117.16 223.067C117.16 225.339 117.793 225.945 118.848 224.582C119.902 223.521 120.746 225.945 120.746 230.339C120.746 234.429 120.113 237.914 119.059 237.914C116.316 237.914 114.418 227.763 115.894 220.794C117.793 212.764 113.996 214.885 111.043 223.521C109.566 228.218 109.144 228.672 108.722 225.794C108.511 223.673 108.511 220.188 108.722 217.764C108.933 215.491 108.511 213.673 107.878 213.673C107.246 213.673 106.613 214.431 106.613 215.34ZM129.184 247.459C128.973 248.216 126.864 247.156 124.965 244.883C122.856 242.611 121.801 240.187 122.645 239.278C124.121 237.459 130.239 245.186 129.184 247.459Z" fill="black"/>
<path id="Vector_13" d="M131.294 214.885C130.239 215.946 130.661 220.491 131.926 225.188C133.192 229.733 133.825 234.581 133.192 235.793C132.559 237.156 133.403 240.035 135.091 242.459C138.677 247.459 139.31 250.64 136.145 249.277C133.403 248.065 133.403 250.034 136.145 253.064C138.044 255.034 138.255 255.034 138.255 253.064C138.255 251.095 138.466 251.095 140.364 253.064C142.052 254.731 142.263 254.125 141.208 250.943C140.153 247.762 140.364 246.853 142.263 247.61C143.529 248.216 144.583 250.489 144.794 252.761C144.794 256.397 145.005 256.549 146.693 253.822C148.591 250.792 148.591 250.792 148.802 253.822C149.013 256.7 149.013 256.7 151.123 253.973C152.599 252.307 152.81 250.792 151.545 250.186C150.49 249.731 147.958 247.61 146.06 245.489C143.95 243.368 142.474 242.762 142.474 243.974C142.474 248.519 137.622 242.61 136.778 236.853C134.247 218.37 132.77 213.067 131.294 214.885Z" fill="black"/>
<path id="Vector_14" d="M176.647 233.369C176.647 236.247 177.069 237.459 177.702 235.944C178.124 234.581 178.124 232.157 177.702 230.642C177.069 229.278 176.647 230.49 176.647 233.369Z" fill="black"/>
<path id="Vector_15" d="M163.991 234.126C163.991 236.55 164.413 237.459 165.045 235.944C165.467 234.581 165.467 232.46 165.045 231.399C164.413 230.49 163.991 231.551 163.991 234.126Z" fill="black"/>
<path id="Vector_16" d="M104.504 236.247C104.504 237.005 105.98 238.368 107.668 239.429C109.355 240.489 110.832 242.307 110.832 243.519C110.832 244.731 111.676 245.337 112.731 244.731C113.996 244.277 115.684 245.186 116.949 246.549C118.215 248.064 119.27 248.519 119.27 247.761C119.27 245.489 108.933 234.884 106.613 234.884C105.347 234.884 104.504 235.49 104.504 236.247Z" fill="black"/>
</g>
</g>

    </svg>
