
    <svg width="256" height="256" viewBox="0 0 256 256" fill="none" xmlns="http://www.w3.org/2000/svg">
        
<g id="Frame 40">
<rect width="256" height="256" fill="#FFDFFF"/>
<rect width="256" height="256" fill="#FFDFFF"/>
<rect width="256" height="256" fill="#FFDFFF"/>
</g>

        
<style type="text/css">
	.st0{fill:none;stroke:#000000;stroke-width:4;stroke-miterlimit:10;}
</style>
<g id="head">
	<path d="M35,60.1c0.5,0,0.7,0.2,0.5,0.6c-0.2,0.3-0.1,0.6,0.4,0.6c0.4,0,0.5,0.6,0.4,1.5c-0.2,0.8-0.1,1.5,0.1,1.5
		c0.4,0,0.9,9.1,0.7,13c-0.4,8.8-0.4,9.5,0.5,10c0.7,0.4,0.7,0.5,0.1,0.6c-0.5,0-0.7,0.4-0.5,0.7c0.1,0.4-0.2,1.7-0.6,2.8l-0.9,2.1
		l1.6-1c1.5-1,1.6-1,1.6,0.2c0,0.8-0.3,1.1-0.8,0.9c-0.5-0.2-1-0.1-1.3,0.3c-0.2,0.4,0.1,0.7,0.7,0.7c0.8,0,0.9,0.1,0.3,0.5
		c-1.1,0.7-1,1.4,0.3,1.9c1,0.4,1,0.5-0.2,0.5c-1.3,0.1-1.5,0.7-1.4,4c0,1,0.1,2.8,0.1,4.1c0.1,1.4,0.4,2.2,0.8,2
		c0.4-0.2,0.9,0.1,1.1,0.6c0.2,0.7,0.1,0.8-0.8,0.5c-0.7-0.2-1.2-0.1-1.2,0.2s0.3,0.7,0.6,0.7c0.4,0,0.4,0.4,0,1.2
		c-0.8,1.5-0.2,1.6,1.4,0.1c1-0.8,1.1-0.8,0.5,0c-0.4,0.5-0.5,1.1-0.2,1.2c0.2,0.1,0.1,0.8-0.4,1.7c-0.8,1.4-0.8,1.4-0.5,0.1
		c0.2-0.7,0.1-1.3-0.2-1.3c-0.8,0-0.6,2.2,0.4,3c0.7,0.5,0.9,3.1,1,12.7c0.1,6.6,0,11.8-0.2,11.7c-0.6-0.4-0.5,4,0.1,5.7
		c0.4,0.8,0.6,3,0.6,4.7c0.1,1.8,0.4,3.6,0.8,4c0.1,0.1,0.1,0.2,0.2,0.3c1.1-0.1,2.1-0.1,3.2-0.2c-0.2-1.1-0.5-2.3-0.6-3.3
		c-0.2-1.8-0.7-4.9-1.1-6.8c-0.3-1.9-0.6-12.4-0.6-23.2c0-21.5-0.5-34.6-1.3-40.3c-0.6-3.7-0.3-27,0.3-28c0.2-0.3,0.1-0.7-0.2-0.9
		c-0.3-0.2-0.4-1.9-0.2-3.7c0.4-3.3,0.3-3.3-1.2-3.3c-0.8,0-1.7,0.2-1.9,0.6c-0.2,0.3,0.1,1.5,0.5,2.7c0.5,1.1,0.7,2.7,0.5,3.3
		c-0.2,0.7-0.1,2.1,0.3,3c0.8,2.3-0.2,3.3-3.6,3.6C33.6,58.3,34,60.1,35,60.1z M39.3,101.2c0.1,1-0.2,1.8-0.5,1.8
		c-0.4,0-0.5-0.3-0.3-0.6c0.2-0.4-0.1-0.6-0.5-0.6c-0.5,0-1-0.1-1-0.2c0-0.7,1.2-3.4,1.4-3.4c0.2,0,0.1,0.4-0.1,1
		c-0.2,0.5-0.1,0.8,0.2,0.6C39,99.6,39.3,100.2,39.3,101.2z"/>
	<path d="M207.2,67.6c0,1.5,0.2,2.8,0.5,2.8c0.5,0,0.8,4.6,1,22.3c0.3,20.3,1.5,34.1,3,33.6c0.7-0.2,0.6-1.9-0.7-10.3
		c-1.1-8.2-1.1-18.9,0-18.9c1,0,1.3,1.8,1.9,11.9c0.2,3.1,0.5,6.5,0.6,7.5c0.3,2.3,1,13,1,14.2c-0.2,4.3-0.1,6.1,0.8,7.5
		c0.6,0.8,0.8,1.6,0.4,1.6c-0.3,0-0.5,0.7-0.5,1.5c0,0.8,0.1,1.4,0.4,1.3c0.3-0.2,0.3,5.3,0.1,12.3c0,0.1,0,0.2,0,0.4
		c0.6-0.7,1.4-1.2,2.2-1.5c0.1-0.7,0.3-1,0.6-0.9c0.2,0.1,0.4,0.3,0.5,0.6c0.6-0.1,1.2,0,1.8,0.1c0-0.3,0.1-0.5,0.1-0.6
		c0.3-1.4,0.1-1.8-1.1-2.2c-1.4-0.5-1.4-0.8-1-2.8c0.3-1.3,0.4-2.5,0.3-2.7c-0.1-0.2-0.3-3-0.4-6.1c-0.1-3.1-0.3-6.2-0.6-6.7
		c-0.3-0.5-0.7-2.3-0.8-3.9c-0.4-4-2.1-19.3-2.8-25.5c-0.3-2.8-0.6-8.1-0.7-11.9c-0.1-5.4-0.3-7.2-1.2-8.9c-0.8-1.5-1.1-3.4-1.1-6
		c0-4.5-1-10.4-2.1-12.5c-1.5-2.9-2.2-6.7-1.8-10c0.4-3,0.3-3.3-0.8-3.3c-0.7,0-1.4,0.2-1.6,0.6c-0.2,0.3-0.2,1.6,0.1,2.7
		c0.2,1.4,0.1,2.5-0.4,3c-0.6,0.7-0.6,1.3-0.2,2.3C206.8,63.4,207.2,65.1,207.2,67.6z M210.3,90.6c0.4-0.5,1-0.9,1.3-0.9
		c0.4,0,0.3,0.4-0.1,0.9c-0.4,0.5-1,0.9-1.3,0.9C209.8,91.5,209.8,91.1,210.3,90.6z M211.7,92.1c0.7,0,0.9,0.2,0.5,0.4
		c-0.4,0.1-0.8,0.8-0.8,1.4c0,1.4-1,2.1-1.4,0.9C209.5,93.3,210.3,92.1,211.7,92.1z"/>
</g>
<path class="st0" d="M205.3,52.1c0.3-0.7,0.6-1.3,0.9-2c-1.7,8.6,1.4,17.3,3,25.9c0.9,4.8,1.2,9.6,1.5,14.5
	c1.2,17.8,2.1,35.7,2.9,53.6c0.2,4,3.9,4.5,2.9,8.3c-1.3,5.1-2.7,10.4-6.1,14.5c-2.4,3-5.7,5.1-8.6,7.6
	c-13.1,10.8-20.4,27.2-32.8,38.9c-11.5,10.9-26.3,16.3-42.1,16.5c-7.6,0.1-14.8-3.8-20.6-8.6c-5.8-4.9-10.6-10.9-16.1-16.1
	c-6.9-6.6-14.8-12.1-22.5-17.8c-9.2-6.8-18.4-14.2-24.5-24.1c-1.5-2.4-3.2-5.2-3.3-8.1c-0.1-1.7,0.1-3.4-0.1-5
	c-0.3-2.5-0.3-5-0.1-7.6c0.6-6.9,2.6-13.7,2.6-20.6c0-4.8-1.1-9.6-1.8-14.3c-3.1-21.2,0.1-43-2.7-64.3"/>

        
<path d="M111.48 7.18457C111.48 8.64095 108.082 13.2528 103.956 17.622C96.9166 25.1466 96.4311 24.4184 101.043 12.7674C102.499 9.36914 102.014 9.12641 98.8584 11.5537C96.9166 13.2528 94.4893 13.981 93.7611 13.0101C92.7902 12.2819 92.062 12.5246 91.8192 13.7383C91.8192 14.9519 91.3338 18.3502 91.091 21.2629C90.6056 24.9039 91.5765 25.8748 94.0038 24.9039C96.6738 23.9329 97.402 24.6611 96.1884 27.5739C94.2465 32.914 96.6738 32.914 101.043 27.3312C104.198 23.4475 104.198 23.6902 102.742 29.0303C101.771 32.914 102.014 34.1276 103.956 33.1567C105.412 32.1858 106.626 32.4285 106.626 33.8849C106.626 38.254 102.499 38.9822 97.8875 35.3413C91.8192 30.7294 89.6347 30.7294 89.6347 35.3413C89.6347 39.7104 84.7801 49.1769 81.1391 51.6042C79.44 52.8178 79.44 53.546 81.1391 53.546C82.5955 53.546 81.8673 54.7597 79.9255 55.9733C76.77 57.9151 77.0127 58.8861 81.6246 63.4979C86.4792 68.5953 86.7219 69.3235 83.3237 75.8772C79.6827 82.9163 76.5272 84.3727 73.8572 80.2463C71.4299 76.1199 77.2554 68.1098 81.3818 69.8089C84.7801 71.0226 84.5373 70.2944 80.8964 66.168C76.5272 61.0706 70.9445 58.6433 73.6145 63.0125C74.5854 64.2261 73.3718 68.3525 71.4299 72.2362C69.2453 75.8772 66.5753 82.1882 65.1189 86.3146C63.6626 90.1982 61.9634 92.3828 61.2353 90.6837C60.2643 88.0137 64.148 77.0908 71.4299 62.7697C73.129 59.3715 74.0999 55.7306 73.129 55.0024C70.459 52.0896 66.3326 53.7887 66.0899 57.6724C65.3617 68.3525 64.148 72.9644 62.2062 72.9644C61.2353 72.9644 60.7498 73.9353 61.7207 75.149C64.148 79.2754 58.5652 80.2463 54.6815 76.3626C51.0406 72.7217 50.0697 72.7217 44.7296 76.3626C37.4477 81.2172 36.9622 81.2172 36.9622 76.6054C36.9622 74.4208 38.4186 73.2071 40.1177 73.9353C41.5741 74.4208 45.2151 73.4499 47.8851 71.508C51.0406 69.3235 53.4679 68.838 54.4388 70.5371C57.3516 75.3917 60.2643 72.7217 61.9634 63.9834C63.9053 53.7887 77.0127 26.8457 80.1682 26.8457C81.1391 26.8457 82.8382 27.8166 83.5664 29.273C85.5083 32.4285 89.6347 32.4285 89.6347 29.5157C89.6347 28.3021 87.9356 25.6321 85.9937 23.6902C84.0519 21.7484 83.3237 19.5638 84.0519 18.5929C85.0228 17.8647 83.5664 17.1365 81.3818 17.1365C78.4691 17.1365 77.4982 18.3502 78.4691 21.0202C79.1973 22.962 78.9545 24.1757 77.9836 23.4475C76.77 22.7193 72.4008 29.273 68.2744 38.0113C61.478 51.8469 60.0216 53.3033 55.8952 51.1187C51.7688 48.9341 50.5551 50.1478 46.9142 59.6143C42.7878 70.5371 39.3895 73.6926 39.3895 66.8962C39.3895 64.9543 40.3605 63.2552 41.5741 63.2552C42.545 63.2552 43.516 61.5561 43.516 59.6143C43.516 57.6724 42.3023 55.9733 41.0887 55.9733C39.6323 55.9733 40.1177 52.5751 42.3023 48.4487C44.4869 44.3223 46.9142 41.6522 47.8851 42.3804C48.6133 43.3513 47.8851 45.2932 46.4287 46.7496C44.7296 48.4487 43.516 51.3614 43.516 53.3033C43.516 55.9733 44.7296 55.4878 47.3996 51.6042C49.3415 48.6914 52.0115 46.7496 53.2252 47.4778C54.1961 48.2059 55.8952 46.9923 56.6234 44.8077C58.808 38.9822 58.3225 38.0113 54.4388 41.4095C52.0115 43.5941 50.7979 43.5941 50.7979 41.6522C50.7979 40.1959 50.7979 38.4967 50.7979 37.7686C50.7979 37.0404 51.526 36.5549 52.7397 36.3122C53.7106 36.3122 55.6525 35.0985 57.3516 33.8849C60.9925 30.7294 62.9344 36.5549 60.0216 42.1377C58.808 44.565 58.3225 47.235 58.808 47.7205C59.5361 48.4487 61.9634 43.8368 64.3907 37.2831C66.5753 30.9721 69.4881 24.6611 70.7017 23.2048C73.8572 19.5638 72.8863 16.4083 69.4881 19.3211C67.5462 20.7775 65.6044 21.5056 64.8762 20.7775C64.148 20.0493 62.2062 21.2629 60.2643 23.6902C57.3516 27.3312 57.3516 27.5739 61.2353 26.1175C63.9053 25.1466 65.1189 25.3893 64.148 27.0884C63.1771 28.3021 60.7498 28.7875 58.5652 28.3021C52.7397 26.3602 32.8358 44.0795 26.7676 56.7015C19.0002 72.4789 23.6121 92.6255 37.205 102.82C46.186 109.617 51.526 111.801 62.6916 113.258C69.2453 113.986 70.459 113.743 68.0317 111.073C66.5753 109.131 65.8471 107.189 66.5753 106.704C67.0608 105.976 63.1771 105.733 57.5943 105.976C47.3996 106.461 38.6614 103.063 38.6614 98.6938C38.6614 97.4801 40.6032 98.2083 43.0305 100.393C47.8851 104.762 52.0115 105.976 49.5842 102.335C48.856 100.878 50.3124 100.15 52.9824 100.393C55.6525 100.393 57.3516 101.364 56.8661 102.092C56.3807 102.82 59.7789 103.063 64.3907 102.577C69.0026 102.092 73.129 100.636 73.8572 99.422C74.5854 98.4511 71.4299 98.2083 66.818 98.9365C59.2934 100.15 57.837 99.422 53.2252 92.1401L48.1278 83.8873L49.3415 90.6837C50.3124 96.2665 49.8269 97.4801 46.9142 96.2665C44.7296 95.5383 42.3023 94.8101 41.0887 94.8101C40.1177 94.8101 38.4186 92.3828 37.6904 89.2273C35.9913 84.13 35.9913 84.13 34.0495 88.7419C32.1076 93.111 31.8649 93.111 30.1658 87.0428C29.1949 83.4018 28.9522 79.0327 29.6803 77.3335C30.4085 75.6344 31.1367 76.6054 31.1367 79.5181C31.3795 83.4018 32.3504 84.6155 35.2631 83.4018C37.6904 82.4309 39.3895 83.6445 40.3605 87.2855C41.0887 89.9555 43.2732 92.3828 45.2151 92.3828C47.1569 92.3828 48.1278 91.4119 47.3996 90.1982C44.9723 86.3146 48.6133 80.7318 52.7397 81.46C54.9243 81.9454 57.837 82.4309 58.808 82.4309C60.0216 82.6736 60.0216 83.8873 59.2934 85.1009C58.3225 86.5573 56.6234 87.0428 55.4097 86.3146C52.0115 84.13 52.7397 86.8 57.1088 90.9264C62.4489 96.2665 65.1189 95.781 68.2744 88.7419C70.459 84.13 71.6726 83.4018 75.3136 85.1009C81.1391 88.2564 82.3528 88.2564 82.3528 84.13C82.3528 82.4309 84.0519 79.5181 85.9937 77.819C88.9065 75.3917 90.3629 75.3917 93.2756 77.819C95.4602 79.5181 96.9166 79.7609 96.9166 78.3045C96.9166 77.0908 95.2175 75.149 93.0329 74.4208C90.8483 73.4499 89.6347 72.2362 90.3629 71.508C91.091 70.7798 94.0038 71.508 96.9166 72.9644C100.558 74.9062 101.528 77.0908 100.315 80.9745C99.1011 85.8291 99.1011 85.8291 102.499 82.6736C107.354 78.0617 110.509 65.6825 106.869 65.6825C105.412 65.6825 104.927 63.7407 105.655 61.3134C106.869 57.9151 106.626 57.6724 104.441 60.8279C102.257 63.9834 101.771 63.9834 101.771 60.8279C101.771 58.8861 102.742 55.7306 103.956 54.0315C105.412 51.3614 106.383 51.6042 107.839 55.2451C109.053 57.6724 109.539 61.0706 109.296 62.7697C109.053 64.4689 110.267 65.4398 111.966 65.197C114.15 64.7116 114.879 67.6243 114.636 75.3917C113.908 86.3146 115.364 85.3436 119.976 71.7508C121.432 67.6243 122.646 68.5953 127.743 78.5472C130.899 85.1009 134.297 89.7128 135.025 88.9846C135.753 88.2564 134.054 83.8873 131.384 79.0327C128.471 74.4208 126.772 68.838 127.743 66.8962C128.471 64.7116 128.229 63.2552 127.015 63.7407C125.801 64.2261 124.831 63.2552 124.831 62.0416C124.831 60.5852 125.559 59.857 126.772 60.0997C128.957 61.0706 128.957 57.4297 126.772 55.2451C126.044 54.2742 123.86 54.7597 121.918 56.216C119.733 58.4006 118.762 58.1579 118.762 56.216C118.762 54.7597 119.976 53.546 121.432 53.546C122.646 53.546 123.131 52.3324 122.403 51.1187C121.432 49.6623 119.733 49.1769 118.52 49.9051C117.306 50.876 116.335 49.6623 116.335 47.7205C116.335 42.6232 117.063 42.8659 125.316 50.6332C132.598 57.187 140.608 70.2944 140.608 75.3917C140.608 80.7318 135.996 75.149 134.54 68.1098C133.569 63.9834 131.87 60.8279 130.656 60.8279C129.2 60.8279 129.2 62.527 130.656 65.4398C132.112 67.8671 132.598 70.5371 131.87 71.0226C131.384 71.7508 133.569 77.0908 136.967 82.9163C140.608 88.9846 142.55 90.9264 141.579 87.5282C140.123 81.9454 140.123 81.7027 144.249 85.1009C148.133 88.2564 148.618 88.2564 147.404 85.1009C146.676 83.1591 144.249 81.7027 142.064 81.7027C138.909 82.1882 138.666 81.46 140.851 78.7899C142.307 76.8481 143.035 73.6926 142.064 71.7508C141.336 69.5662 142.064 68.1098 144.006 68.1098C146.191 68.1098 146.919 70.0516 146.191 73.4499C145.22 78.0617 145.463 78.3045 147.647 75.3917C149.104 73.4499 150.317 69.5662 150.56 66.8962C150.803 62.2843 151.045 62.2843 152.016 66.6534C152.744 69.3235 154.686 72.7217 156.385 74.6635C159.055 77.3335 160.026 76.6054 161.968 71.0226L164.153 64.4689L167.308 71.0226C171.192 79.0327 175.561 77.3335 173.619 68.3525C172.163 62.7697 172.406 62.527 175.318 66.168C177.26 68.5953 179.93 70.5371 181.387 70.5371C182.843 70.5371 184.785 72.7217 185.513 75.6344C186.484 78.5472 188.426 80.0036 190.61 79.2754C192.552 78.5472 194.009 79.5181 194.009 81.7027C194.009 84.13 195.465 85.1009 197.65 84.13C199.834 83.4018 201.29 84.13 201.29 86.5573C201.29 88.7419 199.591 89.9555 197.164 89.4701C194.494 88.9846 192.795 90.441 192.795 93.111C192.795 95.5383 191.096 98.4511 189.154 99.6647C187.212 100.878 186.727 102.092 188.183 102.092C189.397 102.092 191.824 100.878 193.523 99.1793C195.708 96.9947 196.436 96.9947 196.436 99.1793C196.436 100.878 198.378 102.092 200.562 102.092C204.203 102.092 203.961 101.607 199.834 98.2083C197.407 96.2665 196.679 95.2956 198.62 96.2665C201.048 97.4801 201.533 96.9947 200.077 94.8101C198.863 92.8683 199.349 92.1401 201.533 92.8683C205.174 94.0819 206.388 105.248 202.99 109.859C201.29 112.287 201.048 112.044 202.019 108.888C203.475 104.762 196.193 101.364 190.125 103.791C185.27 105.733 188.911 109.859 194.009 108.16C197.65 106.947 198.135 107.675 197.164 111.801C195.222 118.598 200.077 117.869 206.145 110.102C209.543 105.49 210.757 101.607 209.786 97.2374C208.815 93.111 209.058 92.3828 210.514 94.5674C213.427 98.6938 216.097 94.5674 218.282 82.6736C219.253 77.5763 220.952 74.4208 222.893 74.9062C225.078 75.3917 225.563 74.1781 224.35 71.2653C223.379 68.838 221.68 63.0125 220.466 58.4006C218.767 50.6332 200.077 29.5157 197.407 32.1858C196.921 32.914 201.533 38.0113 207.601 43.5941C213.912 49.1769 218.282 54.2742 217.553 55.0024C216.825 55.7306 207.844 48.2059 197.407 38.0113C186.969 28.0594 177.746 20.7775 177.017 21.9911C176.047 23.4475 173.377 22.4766 170.707 19.8065C163.667 13.4955 157.356 10.3401 145.22 7.67003C133.569 5 118.762 6.69911 124.102 10.0973C126.53 11.7964 126.287 12.2819 122.889 12.2819C120.461 12.2819 119.248 13.2528 119.976 14.7092C120.704 15.9229 119.733 20.5347 117.549 24.6611C114.636 30.0012 114.15 32.914 116.092 34.8558C119.976 38.7395 119.49 41.4095 114.879 41.4095C112.451 41.4095 111.48 40.1959 112.451 37.5258C113.422 35.0985 112.937 34.3703 110.995 35.584C109.053 36.7976 108.81 36.0694 109.781 33.1567C110.752 30.7294 111.48 27.3312 111.48 25.3893C111.48 23.2048 112.694 22.4766 114.15 23.4475C116.092 24.6611 116.335 23.9329 114.393 20.5347C112.937 17.8647 112.694 13.981 114.15 10.5828C115.364 7.18457 115.364 5 113.908 5C112.451 5 111.48 5.97092 111.48 7.18457ZM152.987 15.1947C154.686 18.3502 155.9 21.0202 155.657 21.2629C155.415 21.7484 155.657 21.9911 156.385 21.9911C157.114 21.9911 158.813 21.9911 160.512 21.9911C161.968 21.9911 161.24 19.5638 158.57 16.8938C153.958 11.5537 153.958 11.5537 158.813 14.2237C166.58 18.3502 186.969 38.9822 185.513 41.4095C184.785 42.6232 185.27 44.0795 186.727 45.0505C187.94 45.7786 189.154 47.7205 189.154 49.1769C189.154 50.6332 186.727 49.9051 183.814 47.235L178.231 42.6232L182.843 47.9632C185.27 50.876 188.426 53.0605 189.639 52.8178C191.096 52.5751 192.552 53.546 193.28 55.2451C195.465 61.0706 185.513 56.4588 178.959 48.4487C172.891 41.4095 172.648 39.9531 175.804 37.5258C178.959 35.0985 178.717 34.3703 174.105 30.2439C169.25 25.8748 169.007 25.8748 170.464 30.0012C171.92 34.1276 171.435 33.8849 165.124 29.5157C161.483 26.8457 157.599 25.1466 156.628 26.1175C155.9 26.8457 157.356 29.273 160.026 30.9721C165.124 34.6131 174.59 50.3905 169.978 47.7205C165.124 44.565 167.308 49.1769 174.59 57.6724C182.358 66.4107 183.571 66.4107 179.202 57.6724C176.532 52.5751 176.775 52.5751 180.658 56.4588C183.328 58.8861 184.299 62.0416 183.328 64.7116C181.872 68.5953 181.387 68.5953 177.26 64.7116C172.163 60.0997 169.007 62.7697 170.949 69.8089C171.677 72.2362 170.464 70.2944 168.036 65.6825C165.609 61.0706 162.939 56.7015 161.968 56.4588C160.755 55.9733 160.026 53.7887 160.026 51.6042C160.026 48.4487 160.755 48.6914 163.667 52.5751C166.823 56.9442 167.066 56.7015 166.095 49.4196C165.124 40.1959 160.755 31.7003 157.114 31.7003C155.657 31.7003 156.385 34.1276 159.055 36.7976C162.454 40.6813 162.696 42.3804 160.755 43.1086C156.871 44.565 156.628 52.0896 160.026 58.4006C161.483 61.0706 161.483 65.197 160.512 68.3525C158.57 73.2071 158.085 72.7217 153.715 62.527C151.288 56.4588 148.133 52.0896 146.919 52.8178C145.705 53.546 145.22 52.8178 145.948 51.1187C147.647 46.0214 152.744 45.2932 152.744 50.1478C152.744 52.3324 153.23 53.7887 153.958 53.0605C154.686 52.5751 154.444 46.9923 153.715 40.924C152.502 32.1858 150.803 29.273 145.948 26.8457C140.851 24.6611 140.365 23.6902 143.278 21.7484C146.919 19.5638 146.919 19.5638 138.909 18.5929C132.355 17.8647 132.355 17.8647 136.967 26.8457C140.608 33.8849 139.637 41.4095 135.268 41.4095C134.054 41.4095 133.812 40.1959 134.54 38.9822C135.511 37.5258 134.782 34.8558 133.326 32.6712C131.384 30.7294 130.899 25.8748 131.627 20.7775C132.355 15.6801 132.112 12.7674 130.656 13.4955C129.442 14.4665 128.471 16.651 128.471 18.5929C128.471 20.5347 127.501 21.9911 126.044 21.9911C122.889 21.9911 122.889 20.5347 126.53 14.7092C131.142 7.4273 149.104 7.91276 152.987 15.1947ZM109.539 26.1175C108.325 32.6712 108.325 32.6712 106.14 27.0884C104.198 21.2629 105.655 16.1656 108.81 18.3502C110.024 18.8356 110.267 22.4766 109.539 26.1175ZM124.831 26.8457C125.559 28.0594 125.073 29.273 123.86 29.273C122.403 29.273 121.19 28.0594 121.19 26.8457C121.19 25.3893 121.675 24.4184 122.16 24.4184C122.889 24.4184 124.102 25.3893 124.831 26.8457ZM150.317 34.6131C150.317 35.8267 149.346 36.0694 147.89 35.3413C146.676 34.6131 144.977 37.0404 144.006 40.6813C141.093 54.7597 138.181 60.0997 139.637 48.6914C140.608 42.6232 141.336 36.0694 141.336 33.8849C141.579 29.7585 150.317 30.4867 150.317 34.6131ZM128.471 36.3122C128.471 38.9822 127.501 41.6522 126.287 42.3804C123.617 44.0795 121.432 38.9822 123.131 34.6131C124.831 30.0012 128.471 31.2148 128.471 36.3122ZM199.106 45.0505C201.533 47.7205 202.261 50.6332 201.048 51.3614C199.834 52.0896 201.048 54.7597 203.961 57.4297C208.815 61.5561 209.301 61.5561 207.844 57.6724C205.902 52.3324 206.873 52.3324 212.213 58.4006C216.34 62.7697 216.34 63.2552 212.699 61.7988C209.786 60.8279 208.572 61.5561 208.572 64.2261C208.572 66.4107 207.359 68.1098 205.902 68.1098C204.689 68.1098 203.961 67.1389 204.689 65.9252C205.417 64.9543 203.961 61.3134 201.29 58.4006C198.62 55.4878 197.164 52.0896 197.65 51.1187C198.378 50.1478 197.164 47.9632 194.98 46.0214C193.038 44.3223 190.125 40.6813 188.669 38.0113C185.998 33.1567 186.241 33.1567 190.61 36.5549C193.038 38.4967 196.921 42.3804 199.106 45.0505ZM101.528 42.8659C105.169 38.7395 110.267 37.5258 107.839 41.4095C107.111 42.6232 107.597 43.8368 108.81 43.8368C111.723 43.8368 119.49 60.8279 117.549 63.0125C116.82 63.7407 115.607 61.7988 114.636 58.8861C113.908 55.9733 112.451 54.0315 111.48 54.7597C110.267 55.4878 108.568 53.7887 107.839 51.1187C106.626 47.235 105.412 46.7496 103.228 48.4487C99.1011 52.0896 90.6056 45.7786 93.2756 41.4095C94.9747 38.7395 95.7029 38.9822 96.9166 42.3804C98.1302 46.2641 98.6157 46.2641 101.528 42.8659ZM36.4768 49.4196C33.3213 52.3324 31.6222 53.0605 32.5931 51.1187C35.9913 44.8077 39.3895 41.1668 40.6032 42.6232C41.3314 43.3513 39.3895 46.5068 36.4768 49.4196ZM131.87 47.7205C132.598 49.6623 132.355 50.6332 130.899 49.9051C129.442 49.1769 128.471 47.4778 128.471 46.0214C128.471 42.6232 130.171 43.3513 131.87 47.7205ZM92.7902 54.7597C92.062 56.7015 90.6056 58.4006 89.3919 58.4006C86.9646 58.4006 86.4792 52.5751 88.6637 50.3905C91.3338 47.7205 94.4893 51.1187 92.7902 54.7597ZM57.5943 58.4006C60.7498 63.4979 59.5361 69.3235 55.6525 66.8962C54.4388 66.168 54.1961 63.7407 54.9243 61.3134C56.3807 57.6724 55.8952 57.6724 52.7397 60.3424C49.3415 63.0125 48.856 62.7697 50.0697 58.6433C51.7688 52.3324 53.7106 52.3324 57.5943 58.4006ZM36.2341 56.9442C36.2341 57.6724 35.2631 58.8861 33.8068 59.6143C32.5931 60.3424 31.3795 59.857 31.3795 58.6433C31.3795 57.187 32.5931 55.9733 33.8068 55.9733C35.2631 55.9733 36.2341 56.4588 36.2341 56.9442ZM148.618 63.9834C147.89 65.197 146.191 64.9543 144.977 63.7407C143.521 62.2843 143.278 59.857 144.249 58.4006C145.705 56.216 146.433 56.216 148.133 58.6433C149.104 60.3424 149.346 62.7697 148.618 63.9834ZM89.1492 63.0125C89.8774 64.9543 88.9065 65.9252 86.9646 65.197C85.2655 64.7116 83.3237 62.7697 82.8382 61.0706C82.11 59.1288 83.081 58.1579 85.0228 58.8861C86.7219 59.3715 88.6637 61.3134 89.1492 63.0125ZM98.373 60.5852C97.6448 61.7988 98.6157 63.2552 100.558 64.2261C102.499 64.9543 104.198 67.8671 104.198 71.0226C104.198 75.6344 103.713 75.8772 100.8 72.9644C96.1884 67.8671 93.5183 58.4006 96.9166 58.4006C98.373 58.4006 99.1011 59.3715 98.373 60.5852ZM194.009 63.2552C191.096 64.9543 191.096 65.6825 193.766 65.6825C195.465 65.6825 196.436 67.1389 195.465 69.3235C193.766 73.6926 197.892 74.1781 199.834 69.8089C200.562 68.3525 200.562 69.5662 199.834 72.4789C198.62 77.5763 199.106 78.0617 203.232 76.8481C205.902 75.8772 208.815 76.3626 209.786 77.5763C210.757 79.2754 209.543 79.5181 206.873 78.5472C202.99 77.0908 202.99 77.3335 205.902 81.2172C208.572 84.3727 208.572 86.0718 206.631 88.0137C204.446 90.1982 203.718 89.4701 203.718 85.3436C203.718 81.46 202.747 80.2463 200.32 80.9745C198.135 81.9454 195.95 80.489 194.98 77.3335C194.009 73.6926 193.038 73.2071 191.581 75.3917C190.125 77.5763 188.911 76.8481 186.484 72.7217C183.814 67.6243 183.814 67.1389 187.212 70.0516C189.639 71.9935 191.824 72.2362 192.552 70.7798C193.523 69.5662 193.038 67.8671 191.581 66.8962C188.426 64.9543 190.853 60.8279 194.737 60.8279C196.436 60.8279 196.193 61.7988 194.009 63.2552ZM33.0786 72.2362C30.4085 74.6635 26.7676 70.2944 28.224 66.6534C29.4376 63.0125 29.9231 63.2552 31.8649 66.8962C33.3213 69.0807 33.564 71.508 33.0786 72.2362ZM217.796 70.0516C219.253 74.4208 214.155 73.4499 212.456 69.0807C211.485 66.6534 212.213 65.6825 213.912 66.168C215.369 66.6534 217.311 68.5953 217.796 70.0516ZM215.854 87.5282C215.854 88.7419 214.641 89.9555 213.184 89.9555C211.971 89.9555 211.485 88.7419 212.213 87.5282C212.942 86.0718 214.155 85.1009 214.883 85.1009C215.369 85.1009 215.854 86.0718 215.854 87.5282Z" fill="black"/>
<path d="M136.967 14.7092C137.938 16.1656 139.394 16.651 140.608 15.9228C142.793 14.4664 146.676 19.0783 146.676 23.2047C146.676 24.4184 148.618 25.8748 151.288 26.3602C153.958 27.0884 155.172 26.3602 153.958 24.6611C153.23 23.2047 151.045 22.7193 149.589 23.6902C147.647 24.9038 147.647 24.1756 149.589 21.5056C152.259 18.5929 151.774 17.3792 146.433 15.1946C138.909 11.5537 135.025 11.5537 136.967 14.7092Z" fill="black"/>
<path d="M163.668 24.4184C164.396 25.632 165.609 26.8457 166.338 26.8457C166.823 26.8457 167.309 25.632 167.309 24.4184C167.309 22.962 166.095 21.9911 164.638 21.9911C163.425 21.9911 162.939 22.962 163.668 24.4184Z" fill="black"/>
<path d="M177.26 38.7394C175.561 39.9531 175.076 41.4095 176.289 42.1377C177.503 42.8659 179.93 42.6231 181.629 41.6522C183.329 40.4386 183.814 38.9822 182.6 38.254C181.387 37.5258 178.959 37.7685 177.26 38.7394Z" fill="black"/>
<path d="M167.308 58.4006C167.308 59.6142 168.522 60.8279 169.978 60.8279C171.192 60.8279 171.677 59.6142 170.949 58.4006C170.221 56.9442 169.007 55.9733 168.279 55.9733C167.794 55.9733 167.308 56.9442 167.308 58.4006Z" fill="black"/>
<path d="M75.7991 36.5548C74.1 38.9821 73.3718 43.1085 74.3427 45.2931C75.3136 48.2059 75.0709 48.9341 73.1291 47.7204C71.43 46.7495 70.2163 46.9922 70.2163 48.2059C70.2163 49.6623 71.9154 51.1186 73.8573 52.0896C76.2846 53.0605 78.9546 50.3905 82.3528 44.0795C84.7801 38.9821 86.2365 34.1275 85.5083 33.1566C82.5955 30.4866 78.7119 31.7002 75.7991 36.5548ZM83.3237 37.7685C82.3528 39.7103 80.8964 41.4094 79.44 41.4094C78.2264 41.4094 77.9837 42.3804 78.7119 43.8367C79.44 45.0504 79.6828 46.264 78.9546 46.264C75.5564 46.264 75.5564 41.4094 78.9546 38.0112C83.5665 33.1566 85.0228 33.1566 83.3237 37.7685Z" fill="black"/>

        
<g id="Frame 8">
<path id="Vector" d="M147.165 114.282C139.203 115.135 137.781 116.272 137.781 122.244C137.781 140.442 167.07 150.395 179.865 136.746C183.278 133.049 186.121 128.784 186.121 127.078C186.121 118.832 166.217 112.576 147.165 114.282ZM175.031 120.538C177.875 122.244 180.434 125.087 180.434 126.793C180.434 132.765 171.05 140.442 163.942 140.442C154.843 140.442 140.625 129.921 140.625 123.097C140.625 118.547 142.615 117.694 155.127 117.694C163.089 117.694 171.904 119.116 175.031 120.538Z" fill="black"/>
<path id="Vector_2" d="M154.842 126.225C154.842 127.647 156.833 129.068 159.392 129.068C161.667 129.068 162.804 127.647 161.951 126.225C161.098 124.519 159.108 123.381 157.402 123.381C155.98 123.381 154.842 124.519 154.842 126.225Z" fill="black"/>
<path id="Vector_3" d="M83.7548 119.969C74.6556 123.382 70.6747 126.794 70.106 131.059C68.6842 140.158 81.7644 146.13 97.4036 143.286C110.768 141.011 116.739 136.746 119.299 128.784C123.848 115.135 107.072 111.154 83.7548 119.969ZM110.484 119.401C117.024 121.96 116.171 130.775 108.778 135.893C98.2567 143.286 72.3808 140.443 72.3808 131.628C72.3808 128.784 82.3331 124.235 96.5506 120.538C101.385 119.401 105.365 118.263 105.65 117.979C105.934 117.695 107.925 118.548 110.484 119.401Z" fill="black"/>
<path id="Vector_4" d="M92.2853 129.068C92.2853 130.49 93.7071 131.912 95.1288 131.912C96.8349 131.912 97.9724 130.49 97.9724 129.068C97.9724 127.362 96.8349 126.225 95.1288 126.225C93.7071 126.225 92.2853 127.362 92.2853 129.068Z" fill="black"/>
</g>

        
<g id="Frame 25">
<path id="Vector" d="M119.775 151.295C113.846 162.66 111.622 168.59 113.846 168.59C115.575 168.59 122.987 169.331 130.152 170.072C138.8 171.06 143 170.813 143 168.837C143 166.119 135.094 164.884 122.493 165.872L115.575 166.366L124.223 150.307C129.164 141.412 132.129 134 130.894 134C129.658 134 124.717 141.659 119.775 151.295Z" fill="black"/>
</g>

        
<g id="Frame 31">
<g id="Group 39">
<path id="Vector" d="M124.847 193.374C117.555 195.201 108.319 202.053 110.263 204.032C111.478 205.25 113.666 204.184 116.583 201.139C121.93 195.506 130.194 193.983 141.618 196.419C150.368 198.094 158.632 203.423 156.201 205.707C155.715 206.316 156.201 207.229 157.66 207.838C160.819 209.056 160.819 203.119 157.417 199.16C154.743 195.963 141.132 191.852 134.083 192.004C131.652 192.004 127.52 192.613 124.847 193.374Z" fill="black"/>
</g>
</g>

        
<g id="Frame 33">
<g id="Group 43">
<path id="Vector" d="M42.6958 145.951C40.7973 149.587 43.1177 179.282 45.6491 181.1C46.7038 181.858 47.5476 184.282 47.5476 186.554C47.5476 188.827 48.3914 191.099 49.4461 191.554C50.2899 192.008 52.3994 195.493 53.876 199.28C57.0402 207.613 60.2044 209.431 60.2044 203.068C60.2044 200.493 59.3607 198.674 58.3059 199.129C54.2979 200.947 49.0242 180.191 52.3994 176.252C53.2432 175.343 52.6103 170.04 50.9228 164.283C49.4461 158.526 48.3914 152.617 48.8133 151.102C49.0242 149.739 48.3914 148.527 47.5476 148.527C46.4929 148.527 45.4381 147.315 45.0163 145.8C44.3834 143.376 44.1725 143.376 42.6958 145.951ZM46.9148 165.495C46.4929 167.465 46.071 166.253 46.071 162.92C45.86 159.586 46.2819 158.071 46.9148 159.435C47.3367 160.95 47.3367 163.677 46.9148 165.495Z" fill="black"/>
<path id="Vector_2" d="M206.391 147.769C210.188 154.738 212.508 164.131 211.243 168.222C210.399 171.404 210.821 172.616 212.719 172.313C214.196 172.161 215.04 173.373 214.618 175.797C214.196 177.918 213.774 183.675 213.985 188.675C213.985 198.826 210.61 196.402 209.766 185.645L209.344 179.585L208.079 184.584C207.446 187.311 205.969 189.281 204.703 189.13C203.649 188.827 202.383 190.19 201.961 192.16C201.539 193.978 200.274 195.19 199.219 194.735C198.164 194.129 197.32 198.068 197.531 204.128C197.742 215.037 200.695 233.672 201.328 227.309C201.328 225.187 203.438 222.309 205.758 220.794C208.5 219.127 209.977 216.249 210.188 212.613C210.399 209.431 211.243 204.734 212.297 202.31C213.774 198.674 213.774 199.28 213.141 205.34C212.087 214.431 215.04 210.34 217.36 199.28C218.204 195.038 219.47 192.614 219.892 193.675C220.524 194.584 221.579 195.19 222.423 194.887C224.321 193.978 221.157 173.222 218.415 168.525C217.149 166.555 216.305 162.768 216.305 159.889C216.305 152.92 214.196 149.133 211.876 151.86C210.61 153.223 209.977 152.92 209.977 150.496C209.977 148.678 208.922 146.708 207.446 146.102C205.758 145.345 205.547 145.799 206.391 147.769ZM218.204 185.19C217.993 190.493 217.782 190.948 216.516 187.918C215.04 184.433 215.673 178.827 217.571 178.827C217.993 178.827 218.415 181.706 218.204 185.19ZM209.344 197.917C208.5 202.159 208.5 202.159 208.079 197.311C207.868 193.978 207.024 192.614 205.336 193.372C203.86 194.129 203.649 193.826 204.703 192.614C207.235 189.584 210.399 193.069 209.344 197.917ZM205.125 200.341C204.492 201.401 204.071 200.644 204.071 198.523C204.071 196.402 204.492 195.644 205.125 196.553C205.547 197.614 205.547 199.432 205.125 200.341ZM205.125 205.795C208.289 208.219 208.711 211.552 205.758 212.916C204.703 213.37 203.649 215.34 203.649 217.158C203.649 219.733 203.227 220.036 201.75 218.37C200.695 217.309 200.695 214.431 201.539 212.158C202.383 209.886 202.383 207.007 201.328 205.946C200.274 204.734 199.641 202.765 199.641 201.553C199.852 199.583 199.852 199.583 200.906 201.553C201.75 202.765 203.438 204.734 205.125 205.795Z" fill="black"/>
<path id="Vector_3" d="M55.5637 175.343C54.9309 185.645 56.1966 191.251 60.4155 196.705C62.525 199.735 64.4235 203.977 64.6345 206.098C64.6345 208.219 65.4783 211.249 66.533 212.916C68.0097 215.491 68.4315 215.34 68.4315 211.401C68.8534 205.189 72.2286 209.28 74.1271 217.764C74.76 221.4 76.2366 224.279 77.2914 224.279C79.6118 224.279 79.6118 224.582 77.2914 218.521C76.0257 215.491 76.0257 213.976 77.2914 214.431C78.3461 215.037 79.1899 213.825 79.1899 212.158C79.1899 209.886 78.1351 209.128 76.0257 209.583C73.9162 210.34 72.6505 208.977 71.8067 204.886C71.1739 201.856 70.1191 197.765 69.4863 195.796C69.0644 193.978 69.4863 192.463 70.752 192.463C71.8067 192.463 72.8614 190.039 72.8614 187.009C72.8614 184.13 72.0177 182.009 70.9629 182.615C69.6972 183.069 67.7987 182.16 66.533 180.797C64.6345 178.676 64.4235 179.888 65.2673 186.403C65.6892 190.948 66.9549 196.099 67.7987 197.614C68.8534 199.432 68.6425 200.189 67.1659 199.583C65.9002 198.977 64.4235 196.553 63.5797 193.978C62.9469 191.251 61.4703 189.584 60.2046 190.19C59.1498 190.645 58.0951 189.736 58.0951 187.918C58.0951 185.797 58.9389 185.039 60.8374 185.797C62.525 186.706 62.525 186.251 60.4155 184.433C58.7279 182.918 57.8842 179.433 58.517 175.797C58.9389 172.464 58.517 169.737 57.6732 169.737C56.6185 169.737 55.7747 172.313 55.5637 175.343ZM70.1191 189.736C69.4863 190.796 69.0644 190.039 69.0644 187.918C69.0644 185.797 69.4863 185.039 70.1191 185.948C70.541 187.009 70.541 188.827 70.1191 189.736Z" fill="black"/>
<path id="Vector_4" d="M60.4154 179.736C60.4154 181.403 61.0482 181.857 61.6811 180.645C62.3139 179.585 62.103 178.221 61.4701 177.767C60.8373 177.161 60.2045 178.07 60.4154 179.736Z" fill="black"/>
<path id="Vector_5" d="M73.9161 196.25C73.2832 200.19 73.0723 203.674 73.4942 203.977C74.127 204.432 75.1817 201.553 76.0255 197.765C76.6584 193.826 76.8693 190.342 76.4474 190.039C75.8146 189.584 74.7598 192.463 73.9161 196.25Z" fill="black"/>
<path id="Vector_6" d="M79.8225 197.614C80.6662 202.159 80.4553 204.432 79.1896 203.826C77.9239 203.371 77.0801 203.826 77.0801 205.189C77.0801 206.401 77.9239 207.613 78.9787 207.916C80.0334 208.068 81.51 210.795 82.1429 213.673C83.4086 217.764 83.1976 218.37 81.2991 216.703C79.6115 214.885 79.4006 215.491 80.4553 218.976C81.2991 221.4 82.7757 224.885 83.8304 226.551C85.518 229.278 85.518 229.278 84.6742 226.097C84.0414 223.976 84.8852 222.764 86.5728 222.764C88.8932 222.764 88.8932 223.824 87.4166 227.612C84.6742 234.732 85.3071 238.065 88.4713 232.005L91.0027 226.854L95.6435 232.46C98.1749 235.49 100.284 238.671 100.284 239.58C100.284 240.338 101.339 240.944 102.394 240.944C103.659 240.944 104.503 240.338 104.503 239.58C104.503 238.671 103.659 237.611 102.394 237.156C101.339 236.702 100.284 235.49 100.284 234.732C100.284 233.823 101.339 233.672 102.605 234.278C104.081 234.884 104.503 234.278 103.659 232.157C101.55 227.46 99.6515 217.915 99.6515 212.31C99.6515 207.916 99.2296 207.613 96.9092 209.886C94.5888 212.158 94.1669 211.704 93.3231 206.704L92.4793 200.795L92.2683 206.553C92.0574 209.734 93.1121 213.825 94.7997 215.643C98.5968 220.036 101.339 230.945 98.3858 229.581C97.1201 229.127 96.0654 226.4 95.8544 223.824C95.8544 220.036 95.4325 219.582 94.1669 221.854C92.9012 224.127 92.2683 224.279 91.4245 222.612C90.7917 221.4 90.1589 219.885 90.1589 219.279C89.9479 218.673 88.2603 217.006 86.3618 215.643C83.8304 213.673 83.1976 211.249 83.8304 205.038C84.4633 199.886 84.0414 197.614 82.9867 198.826C81.51 200.189 81.2991 199.432 81.9319 196.553C82.3538 194.281 81.9319 192.008 80.6662 191.402C79.1896 190.796 78.9787 192.917 79.8225 197.614Z" fill="black"/>
<path id="Vector_7" d="M190.57 197.008C188.039 201.402 186.562 215.491 188.882 214.431C190.148 213.825 190.992 215.037 190.992 217.309C190.992 219.43 190.148 221.249 188.882 221.249C187.828 221.249 186.773 223.067 186.984 225.339L187.195 229.581L188.882 225.794C190.359 222.764 190.57 223.37 190.781 229.127C190.992 233.217 190.148 236.399 188.882 236.399C187.828 236.399 186.773 237.156 186.773 238.065C186.773 238.823 187.828 239.126 189.093 238.52C190.992 237.762 191.203 238.671 190.148 241.55C189.304 243.823 189.726 245.489 190.992 245.489C192.047 245.489 193.101 242.762 193.101 239.58C193.101 236.247 194.156 233.066 195.211 232.611C196.476 232.157 197.109 228.521 197.109 224.582C196.898 219.43 196.476 218.521 195.422 221.249C194.789 223.37 193.734 218.37 193.101 209.886C192.469 201.553 191.414 195.796 190.57 197.008Z" fill="black"/>
<path id="Vector_8" d="M87.8385 200.795C87.8385 202.462 86.9947 205.492 86.3619 207.613C85.3072 210.492 85.5181 210.946 87.4166 209.734C88.8933 208.825 89.7371 205.795 89.1042 202.916C88.6823 200.038 88.0495 199.129 87.8385 200.795Z" fill="black"/>
<path id="Vector_9" d="M178.546 211.552C178.335 217.158 177.702 222.309 177.069 223.066C176.437 223.672 177.069 224.278 178.124 224.278C179.601 224.278 180.445 228.066 180.445 233.52C180.445 240.792 179.812 242.61 177.491 242.004C175.593 241.398 174.327 242.61 173.694 245.489C173.061 248.671 173.694 250.034 176.437 250.489C181.288 251.398 182.554 250.337 182.554 245.186C182.554 242.762 183.609 239.429 184.664 237.914C186.984 234.884 183.398 204.886 180.445 202.613C179.601 202.007 178.757 205.946 178.546 211.552ZM177.702 247.307C177.069 248.519 176.437 248.065 176.437 246.398C176.226 244.731 176.859 243.822 177.491 244.428C178.124 244.883 178.335 246.247 177.702 247.307Z" fill="black"/>
<path id="Vector_10" d="M167.999 212.31C166.311 215.188 165.889 217.461 167.155 218.067C170.53 219.582 167.788 239.429 164.412 239.429C162.725 239.429 161.459 240.186 161.459 241.095C161.459 241.853 162.514 242.156 163.78 241.55C165.467 240.944 165.678 241.55 164.623 243.823C163.991 245.489 164.202 248.065 165.256 249.428C166.733 251.398 167.999 250.186 170.53 244.277C174.327 236.399 174.749 227.309 172.429 214.734L170.952 207.462L167.999 212.31Z" fill="black"/>
<path id="Vector_11" d="M145.638 215.946C146.06 219.279 147.115 225.945 147.959 230.642C149.013 236.853 148.592 239.429 146.904 239.429C145.638 239.429 144.373 237.156 144.373 234.429C143.951 225.49 142.685 220.794 140.576 219.279C138.888 218.067 138.466 221.4 139.099 229.733L139.943 241.701L146.482 241.55C151.545 241.55 152.811 242.004 152.178 243.822C151.545 245.186 152.811 248.519 154.92 251.398C158.717 256.397 158.928 256.549 161.248 253.519C162.936 251.246 162.936 249.125 161.459 246.701C159.35 243.519 159.35 243.671 160.405 247.761L161.459 252.307L157.662 247.155C155.553 244.125 154.92 241.701 156.186 241.398C157.451 241.095 158.084 235.793 157.662 228.066C157.24 219.127 157.662 215.188 159.35 215.188C160.616 215.188 161.248 215.643 160.616 216.4C160.194 217.006 160.405 219.885 161.459 222.763C163.147 227.763 163.147 227.611 163.358 220.188C163.569 212.613 163.358 212.31 158.928 213.522C154.287 214.734 154.076 215.643 154.709 227.157C155.131 233.823 154.498 239.429 153.443 239.429C152.389 239.429 151.545 236.247 151.334 232.157C151.123 228.217 149.646 221.551 147.748 217.461C144.794 210.189 144.794 210.037 145.638 215.946Z" fill="black"/>
<path id="Vector_12" d="M106.613 215.34C106.613 216.097 105.769 216.552 104.714 216.097C102.605 215.188 103.027 223.824 105.347 225.339C105.98 225.794 106.613 227.612 106.613 229.127C106.613 230.642 107.878 231.854 109.355 231.854C110.832 231.854 113.152 233.672 114.629 235.944C119.691 244.58 124.754 249.883 128.129 250.489C133.614 251.549 134.247 247.61 129.606 240.035C126.02 233.823 126.02 233.217 128.973 235.035C132.348 237.005 132.559 236.702 131.083 231.854C130.239 228.975 128.973 224.279 128.34 221.552C126.442 214.128 123.91 215.794 124.754 223.824C125.598 231.248 124.754 231.248 122.645 223.824C120.957 218.824 117.16 218.37 117.16 223.067C117.16 225.339 117.793 225.945 118.848 224.582C119.902 223.521 120.746 225.945 120.746 230.339C120.746 234.429 120.113 237.914 119.059 237.914C116.316 237.914 114.418 227.763 115.894 220.794C117.793 212.764 113.996 214.885 111.043 223.521C109.566 228.218 109.144 228.672 108.722 225.794C108.511 223.673 108.511 220.188 108.722 217.764C108.933 215.491 108.511 213.673 107.878 213.673C107.246 213.673 106.613 214.431 106.613 215.34ZM129.184 247.459C128.973 248.216 126.864 247.156 124.965 244.883C122.856 242.611 121.801 240.187 122.645 239.278C124.121 237.459 130.239 245.186 129.184 247.459Z" fill="black"/>
<path id="Vector_13" d="M131.294 214.885C130.239 215.946 130.661 220.491 131.926 225.188C133.192 229.733 133.825 234.581 133.192 235.793C132.559 237.156 133.403 240.035 135.091 242.459C138.677 247.459 139.31 250.64 136.145 249.277C133.403 248.065 133.403 250.034 136.145 253.064C138.044 255.034 138.255 255.034 138.255 253.064C138.255 251.095 138.466 251.095 140.364 253.064C142.052 254.731 142.263 254.125 141.208 250.943C140.153 247.762 140.364 246.853 142.263 247.61C143.529 248.216 144.583 250.489 144.794 252.761C144.794 256.397 145.005 256.549 146.693 253.822C148.591 250.792 148.591 250.792 148.802 253.822C149.013 256.7 149.013 256.7 151.123 253.973C152.599 252.307 152.81 250.792 151.545 250.186C150.49 249.731 147.958 247.61 146.06 245.489C143.95 243.368 142.474 242.762 142.474 243.974C142.474 248.519 137.622 242.61 136.778 236.853C134.247 218.37 132.77 213.067 131.294 214.885Z" fill="black"/>
<path id="Vector_14" d="M176.647 233.369C176.647 236.247 177.069 237.459 177.702 235.944C178.124 234.581 178.124 232.157 177.702 230.642C177.069 229.278 176.647 230.49 176.647 233.369Z" fill="black"/>
<path id="Vector_15" d="M163.991 234.126C163.991 236.55 164.413 237.459 165.045 235.944C165.467 234.581 165.467 232.46 165.045 231.399C164.413 230.49 163.991 231.551 163.991 234.126Z" fill="black"/>
<path id="Vector_16" d="M104.504 236.247C104.504 237.005 105.98 238.368 107.668 239.429C109.355 240.489 110.832 242.307 110.832 243.519C110.832 244.731 111.676 245.337 112.731 244.731C113.996 244.277 115.684 245.186 116.949 246.549C118.215 248.064 119.27 248.519 119.27 247.761C119.27 245.489 108.933 234.884 106.613 234.884C105.347 234.884 104.504 235.49 104.504 236.247Z" fill="black"/>
</g>
</g>

    </svg>
