
    <svg width="256" height="256" viewBox="0 0 256 256" fill="none" xmlns="http://www.w3.org/2000/svg">
        
<g id="Frame 45">
<rect width="256" height="256" fill="#4DDFFF"/>
<rect width="256" height="256" fill="#4DDFFF"/>
<rect width="256" height="256" fill="#4DDFFF"/>
</g>

        
<style type="text/css">
	.st0{fill:none;stroke:#000000;stroke-width:4;stroke-miterlimit:10;}
</style>
<g id="head">
	<path d="M38,51.8c0.5,0,0.7,0.2,0.5,0.6c-0.2,0.3-0.1,0.6,0.4,0.6c0.4,0,0.5,0.6,0.4,1.5c-0.2,0.8-0.1,1.5,0.1,1.5
		c0.4,0,0.9,9.1,0.7,13c-0.4,8.8-0.4,9.5,0.5,10c0.7,0.4,0.7,0.5,0.1,0.6c-0.5,0-0.7,0.4-0.5,0.7c0.1,0.4-0.2,1.7-0.6,2.8l-0.9,2.1
		l1.6-1c1.5-1,1.6-1,1.6,0.2c0,0.8-0.3,1.1-0.8,0.9c-0.5-0.2-1-0.1-1.3,0.3c-0.2,0.4,0.1,0.7,0.7,0.7c0.8,0,0.9,0.1,0.3,0.5
		c-1.1,0.7-1,1.4,0.3,1.9c1,0.4,1,0.5-0.2,0.5c-1.3,0.1-1.5,0.7-1.4,4c0,1,0.1,2.8,0.1,4.1c0.1,1.4,0.4,2.2,0.8,2
		c0.4-0.2,0.9,0.1,1.1,0.6c0.2,0.7,0.1,0.8-0.8,0.5c-0.7-0.2-1.2-0.1-1.2,0.2s0.3,0.7,0.6,0.7c0.4,0,0.4,0.4,0,1.2
		c-0.8,1.5-0.2,1.6,1.4,0.1c1-0.8,1.1-0.8,0.5,0c-0.4,0.5-0.5,1.1-0.2,1.2c0.2,0.1,0.1,0.8-0.4,1.7c-0.8,1.4-0.8,1.4-0.5,0.1
		c0.2-0.7,0.1-1.3-0.2-1.3c-0.8,0-0.6,2.2,0.4,3c0.7,0.5,0.9,3.1,1,12.7c0.1,6.6,0,11.8-0.2,11.7c-0.6-0.4-0.5,4,0.1,5.7
		c0.4,0.8,0.6,3,0.6,4.7c0,0.1,0,0.2,0,0.4c1-0.7,2.1-1.2,3.2-1.7c-0.2-1.6-0.5-3.4-0.8-4.7c-0.3-1.9-0.6-12.4-0.6-23.2
		c0-21.5-0.5-34.6-1.3-40.3c-0.6-3.7-0.3-27,0.3-28c0.2-0.3,0.1-0.7-0.2-0.9c-0.3-0.2-0.4-1.9-0.2-3.7c0.4-3.3,0.3-3.3-1.2-3.3
		c-0.8,0-1.7,0.2-1.9,0.6c-0.2,0.3,0.1,1.5,0.5,2.7c0.5,1.1,0.7,2.7,0.5,3.3c-0.2,0.7-0.1,2.1,0.3,3c0.8,2.3-0.2,3.3-3.6,3.6
		C36.6,50,37.1,51.8,38,51.8z M42.4,92.9c0.1,1-0.2,1.8-0.5,1.8c-0.4,0-0.5-0.3-0.3-0.6c0.2-0.4-0.1-0.6-0.5-0.6c-0.5,0-1-0.1-1-0.2
		c0-0.7,1.2-3.4,1.4-3.4c0.2,0,0.1,0.4-0.1,1c-0.2,0.5-0.1,0.8,0.2,0.6C42,91.3,42.3,91.9,42.4,92.9z"/>
	<path d="M210.3,59.3c0,1.5,0.2,2.8,0.5,2.8c0.5,0,0.8,4.6,1,22.3c0.3,20.3,1.5,34.1,3,33.6c0.7-0.2,0.6-1.9-0.7-10.3
		c-1.1-8.2-1.1-18.9,0-18.9c1,0,1.3,1.8,1.9,11.9c0.2,3.1,0.5,6.5,0.6,7.5c0.3,2.3,1,13,1,14.2c-0.2,4.3-0.1,6.1,0.8,7.5
		c0.6,0.8,0.8,1.6,0.4,1.6c-0.3,0-0.5,0.7-0.5,1.5c0,0.8,0.1,1.4,0.4,1.3c0.3-0.2,0.3,5.3,0.1,12.3c0,0.1,0,0.2,0,0.4
		c0.6-0.7,1.4-1.2,2.2-1.5c0.1-0.7,0.3-1,0.6-0.9c0.2,0.1,0.4,0.3,0.5,0.6c0.6-0.1,1.2,0,1.8,0.1c0-0.3,0.1-0.5,0.1-0.6
		c0.3-1.4,0.1-1.8-1.1-2.2c-1.4-0.5-1.4-0.8-1-2.8c0.3-1.3,0.4-2.5,0.3-2.7c-0.1-0.2-0.3-3-0.4-6.1c-0.1-3.1-0.3-6.2-0.6-6.7
		c-0.3-0.5-0.7-2.3-0.8-3.9c-0.4-4-2.1-19.3-2.8-25.5c-0.3-2.8-0.6-8.1-0.7-11.9c-0.1-5.4-0.3-7.2-1.2-8.9c-0.8-1.5-1.1-3.4-1.1-6
		c0-4.5-1-10.4-2.1-12.5c-1.5-2.9-2.2-6.7-1.8-10c0.4-3,0.3-3.3-0.8-3.3c-0.7,0-1.4,0.2-1.6,0.6c-0.2,0.3-0.2,1.6,0.1,2.7
		c0.2,1.4,0.1,2.5-0.4,3c-0.6,0.7-0.6,1.3-0.2,2.3C209.8,55.1,210.3,56.8,210.3,59.3z M213.3,82.3c0.4-0.5,1-0.9,1.3-0.9
		c0.4,0,0.3,0.4-0.1,0.9c-0.4,0.5-1,0.9-1.3,0.9C212.8,83.2,212.9,82.8,213.3,82.3z M214.7,83.8c0.7,0,0.9,0.2,0.5,0.4
		c-0.4,0.1-0.8,0.8-0.8,1.4c0,1.4-1,2.1-1.4,0.9C212.5,85,213.3,83.8,214.7,83.8z"/>
</g>
<path class="st0" d="M42.9,141.1c0.2-3.4,0.2-5.4,0.2-8.4c2-9,3-18,1-27c-4-24,0-47-3-70.7"/>
<path class="st0" d="M208.3,43.8c0.3-0.7,0.6-1.3,0.9-2c-1.3,7,0.5,14.1,1.7,21c3.1,20.9,3.1,42.9,4.1,64.9c1,4,3,8,4,13
	c0,2,0,5,0.2,7.1"/>
<path class="st0" d="M219.5,142.2c-0.6,3.6-1.2,7.3-0.7,11c0.2,1.7,0.7,3.5,1,5.2c0.9,5.4-0.2,11,0.5,16.4c0,0.3,1.8-2.8,1.9-3.1
	c-14.3,12.2-28.3,24.8-42.2,37.5c-15,13.7-30.1,27.4-45.1,41c-2.5-2.8-5.8-4.7-8.9-6.7c-20.2-12.6-38.6-28.1-54.5-45.8
	c-4-4.5-7.9-9.1-11.6-13.8c-1.8-2.3-3.5-4.6-5.2-7c-0.4-0.6-0.9-1.2-1.5-1.7c-1.2-1-2.8-1.3-3.8-2.7c-0.9-1.4-1.1-3.2-1.6-4.7
	c-0.5-1.6-1.2-3.2-2.1-4.7c-1.1-1.9-2.6-3.6-3.1-5.8c-0.3-1.2-0.2-2.4-0.2-3.5c0.3-6.5,0.5-13,0.8-19.6"/>

        
<g id="hair">
<path id="Vector" d="M103.61 8.43327C92.2007 9.92611 80.791 14.1061 69.0811 21.2717C46.8622 34.7072 32.7502 48.7399 38.1548 52.0241C40.2566 53.2184 42.3584 52.9198 43.2591 50.8298C45.6612 43.0671 57.0709 32.0201 67.2795 27.5416C73.2846 24.5559 80.4908 20.6745 82.8928 18.5846C88.8979 13.8075 139.341 7.239 143.845 10.8218C148.649 14.7032 173.87 23.6602 176.572 22.7645C180.776 20.9731 199.692 42.4699 201.494 50.8298C203.595 60.384 209 62.1754 209 53.2184C209 49.9341 207.799 47.247 205.997 47.247C204.496 47.247 202.995 45.4556 202.995 43.0671C202.995 37.6929 180.476 17.3903 174.471 17.3903C171.768 17.3903 164.562 14.7032 157.957 11.4189C145.646 5.14903 133.636 4.5519 103.61 8.43327Z" fill="black"/>
<path id="Vector_2" d="M130.934 17.3903C130.934 18.8831 132.435 20.376 133.936 20.376C135.738 20.376 136.939 18.8831 136.939 17.3903C136.939 15.5989 135.738 14.4046 133.936 14.4046C132.435 14.4046 130.934 15.5989 130.934 17.3903Z" fill="black"/>
<path id="Vector_3" d="M145.946 23.3617C145.946 24.8545 147.448 26.3474 149.249 26.3474C150.751 26.3474 151.351 24.8545 150.45 23.3617C149.549 21.5703 148.048 20.376 147.147 20.376C146.547 20.376 145.946 21.5703 145.946 23.3617Z" fill="black"/>
<path id="Vector_4" d="M81.3915 26.3473C80.4907 27.8402 81.0912 29.333 82.5925 29.333C84.394 29.333 85.8953 27.8402 85.8953 26.3473C85.8953 24.5559 85.2948 23.3617 84.6943 23.3617C83.7935 23.3617 82.2923 24.5559 81.3915 26.3473Z" fill="black"/>
<path id="Vector_5" d="M124.929 26.6459C124.929 28.1387 126.43 28.7358 127.931 27.8401C129.733 26.9444 130.934 25.4516 130.934 24.5559C130.934 23.9588 129.733 23.3616 127.931 23.3616C126.43 23.3616 124.929 24.8545 124.929 26.6459Z" fill="black"/>
<path id="Vector_6" d="M97.9056 32.3187C97.9056 33.8116 99.4069 35.3044 100.908 35.3044C102.71 35.3044 103.911 33.8116 103.911 32.3187C103.911 30.5273 102.71 29.3331 100.908 29.3331C99.4069 29.3331 97.9056 30.5273 97.9056 32.3187Z" fill="black"/>
<path id="Vector_7" d="M169.967 35.6029C169.967 37.0957 171.468 37.6929 172.969 36.7972C174.771 35.9015 175.972 34.4086 175.972 33.5129C175.972 32.9158 174.771 32.3186 172.969 32.3186C171.468 32.3186 169.967 33.8115 169.967 35.6029Z" fill="black"/>
<path id="Vector_8" d="M132.435 38.29C131.534 39.7828 132.135 41.2757 133.636 41.2757C135.437 41.2757 136.939 39.7828 136.939 38.29C136.939 36.4986 136.338 35.3043 135.738 35.3043C134.837 35.3043 133.336 36.4986 132.435 38.29Z" fill="black"/>
<path id="Vector_9" d="M85.8954 41.2756C85.8954 42.7685 87.3967 44.2613 88.8979 44.2613C90.6995 44.2613 91.9005 42.7685 91.9005 41.2756C91.9005 39.4842 90.6995 38.29 88.8979 38.29C87.3967 38.29 85.8954 39.4842 85.8954 41.2756Z" fill="black"/>
<path id="Vector_10" d="M105.412 41.2756C104.511 42.7685 104.811 44.2613 106.613 44.2613C108.114 44.2613 110.516 42.7685 111.417 41.2756C112.318 39.4842 112.018 38.29 110.216 38.29C108.715 38.29 106.313 39.4842 105.412 41.2756Z" fill="black"/>
<path id="Vector_11" d="M181.977 41.2756C181.977 42.7685 183.478 44.2613 184.98 44.2613C186.781 44.2613 187.982 42.7685 187.982 41.2756C187.982 39.4842 186.781 38.29 184.98 38.29C183.478 38.29 181.977 39.4842 181.977 41.2756Z" fill="black"/>
<path id="Vector_12" d="M60.3736 47.247C59.4728 48.7399 60.0733 50.2327 61.5746 50.2327C63.3762 50.2327 64.8774 48.7399 64.8774 47.247C64.8774 45.4556 64.2769 44.2613 63.6764 44.2613C62.7756 44.2613 61.2744 45.4556 60.3736 47.247Z" fill="black"/>
<path id="Vector_13" d="M75.3864 50.2328C74.4856 51.7256 75.0861 53.2185 76.5874 53.2185C78.3889 53.2185 79.8902 51.7256 79.8902 50.2328C79.8902 48.4414 79.2897 47.2471 78.6892 47.2471C77.7884 47.2471 76.2871 48.4414 75.3864 50.2328Z" fill="black"/>
<path id="Vector_14" d="M168.466 53.2184C169.366 54.7113 170.868 56.2041 171.768 56.2041C172.369 56.2041 172.969 54.7113 172.969 53.2184C172.969 51.427 171.468 50.2328 169.667 50.2328C168.165 50.2328 167.565 51.427 168.466 53.2184Z" fill="black"/>
</g>

        
<g id="head">
<g id="Group 56">
<path id="Vector" d="M147.498 104.609C135.416 110.804 135.726 122.576 148.117 129.081C159.889 135.276 164.535 134.967 170.731 128.152C177.546 120.717 177.236 111.114 170.421 104.918C163.296 98.4131 158.34 98.4131 147.498 104.609ZM169.492 112.663C174.448 125.364 162.057 131.869 147.807 124.434C140.683 120.407 140.373 117 146.878 110.804C154.003 103.37 166.394 104.609 169.492 112.663Z" fill="black"/>
<path id="Vector_2" d="M154.932 114.212C156.171 120.717 165.155 121.956 165.155 115.141C165.155 112.663 162.677 110.185 159.579 109.565C155.242 108.636 154.003 109.875 154.932 114.212Z" fill="black"/>
<path id="Vector_3" d="M86.4719 114.831C79.6568 121.646 80.5862 130.63 89.5696 138.684C99.1727 147.358 120.237 137.755 120.237 124.434C120.237 109.875 97.6238 103.679 86.4719 114.831ZM114.661 119.168C117.759 124.434 110.015 134.967 101.961 136.206C88.3305 138.374 80.2764 121.956 91.7381 115.451C97.9336 111.733 111.254 113.902 114.661 119.168Z" fill="black"/>
<path id="Vector_4" d="M89.2595 123.195C89.2595 125.983 91.4279 127.532 94.5257 126.912C102.27 125.364 103.199 118.239 95.7648 118.239C92.0475 118.239 89.2595 120.097 89.2595 123.195Z" fill="black"/>
</g>
</g>

        
<g id="Frame 23">
<path id="Vector" d="M124.61 149.378C114.126 150.426 110.719 158.289 117.534 165.889C123.562 172.703 141.907 172.703 150.294 165.889C156.322 161.172 156.322 160.648 151.867 155.668C146.887 150.164 138.238 148.068 124.61 149.378ZM148.46 158.289C152.129 164.055 150.032 165.889 137.19 167.462C128.803 168.51 125.134 167.724 120.941 164.055C115.961 159.337 115.699 159.075 120.417 155.668C126.969 150.951 144.79 152.785 148.46 158.289Z" fill="black"/>
<path id="Vector_2" d="M126.445 158.813C126.445 160.91 127.755 163.531 129.065 164.317C130.638 165.103 131.686 164.055 131.686 161.958C131.686 159.862 130.638 157.241 129.065 156.454C127.755 155.668 126.445 156.717 126.445 158.813Z" fill="black"/>
<path id="Vector_3" d="M135.879 157.503C134.831 159.337 134.569 161.434 135.355 162.22C137.714 164.579 140.335 161.172 139.024 157.503C137.976 154.62 137.452 154.62 135.879 157.503Z" fill="black"/>
</g>

        
<g id="Frame 30">
<g id="Group 39">
<path id="Vector" d="M148.249 185.971C147.677 186.544 137.194 187.116 124.995 187.116C112.796 187.307 102.503 187.879 102.122 188.642C100.978 190.549 108.221 206 110.127 206C111.271 206 113.749 202.376 115.655 198.179L119.467 190.168L123.661 197.226C126.139 201.041 128.235 204.093 128.807 204.093C129.76 204.093 135.288 193.22 135.288 191.312C135.288 190.549 133.572 191.885 131.476 194.555C127.854 199.324 127.854 199.324 124.995 195.509C121.564 190.74 123.661 188.26 130.713 189.214C134.907 189.596 137.003 191.503 139.672 196.844C141.387 200.85 143.484 204.093 144.437 204.093C145.199 204.093 147.296 201.231 149.393 197.798L153.014 191.694L154.73 196.844C155.683 199.896 157.208 202.185 157.97 202.185C159.114 202.185 162.545 196.272 167.31 186.353C168.073 184.827 149.774 184.445 148.249 185.971ZM161.973 188.26C161.973 192.075 159.495 198.37 158.161 198.37C157.398 198.37 156.064 196.081 155.302 193.029L153.968 187.879L148.821 194.174L143.484 200.278L141.387 195.509C138.338 188.833 138.147 189.214 146.343 188.26C159.686 186.925 161.973 186.925 161.973 188.26ZM113.749 196.463C112.605 199.515 111.08 202.185 110.509 202.185C109.937 202.185 108.412 199.515 107.268 196.463C105.171 190.931 105.362 190.74 110.509 190.74C115.655 190.74 115.846 190.931 113.749 196.463Z" fill="black"/>
</g>
</g>

        
    </svg>
