
    <svg width="256" height="256" viewBox="0 0 256 256" fill="none" xmlns="http://www.w3.org/2000/svg">
        
<g id="Frame 43">
<rect width="256" height="256" fill="#BB4DFF"/>
</g>

        
<style type="text/css">
	.st0{fill:none;stroke:#000000;stroke-width:4;stroke-miterlimit:10;}
</style>
<g id="head">
	<path d="M38,51.8c0.5,0,0.7,0.2,0.5,0.6c-0.2,0.3-0.1,0.6,0.4,0.6c0.4,0,0.5,0.6,0.4,1.5c-0.2,0.8-0.1,1.5,0.1,1.5
		c0.4,0,0.9,9.1,0.7,13c-0.4,8.8-0.4,9.5,0.5,10c0.7,0.4,0.7,0.5,0.1,0.6c-0.5,0-0.7,0.4-0.5,0.7c0.1,0.4-0.2,1.7-0.6,2.8l-0.9,2.1
		l1.6-1c1.5-1,1.6-1,1.6,0.2c0,0.8-0.3,1.1-0.8,0.9c-0.5-0.2-1-0.1-1.3,0.3c-0.2,0.4,0.1,0.7,0.7,0.7c0.8,0,0.9,0.1,0.3,0.5
		c-1.1,0.7-1,1.4,0.3,1.9c1,0.4,1,0.5-0.2,0.5c-1.3,0.1-1.5,0.7-1.4,4c0,1,0.1,2.8,0.1,4.1c0.1,1.4,0.4,2.2,0.8,2
		c0.4-0.2,0.9,0.1,1.1,0.6c0.2,0.7,0.1,0.8-0.8,0.5c-0.7-0.2-1.2-0.1-1.2,0.2s0.3,0.7,0.6,0.7c0.4,0,0.4,0.4,0,1.2
		c-0.8,1.5-0.2,1.6,1.4,0.1c1-0.8,1.1-0.8,0.5,0c-0.4,0.5-0.5,1.1-0.2,1.2c0.2,0.1,0.1,0.8-0.4,1.7c-0.8,1.4-0.8,1.4-0.5,0.1
		c0.2-0.7,0.1-1.3-0.2-1.3c-0.8,0-0.6,2.2,0.4,3c0.7,0.5,0.9,3.1,1,12.7c0.1,6.6,0,11.8-0.2,11.7c-0.6-0.4-0.5,4,0.1,5.7
		c0.4,0.8,0.6,3,0.6,4.7c0,0.1,0,0.2,0,0.4c1-0.7,2.1-1.2,3.2-1.7c-0.2-1.6-0.5-3.4-0.8-4.7c-0.3-1.9-0.6-12.4-0.6-23.2
		c0-21.5-0.5-34.6-1.3-40.3c-0.6-3.7-0.3-27,0.3-28c0.2-0.3,0.1-0.7-0.2-0.9c-0.3-0.2-0.4-1.9-0.2-3.7c0.4-3.3,0.3-3.3-1.2-3.3
		c-0.8,0-1.7,0.2-1.9,0.6c-0.2,0.3,0.1,1.5,0.5,2.7c0.5,1.1,0.7,2.7,0.5,3.3c-0.2,0.7-0.1,2.1,0.3,3c0.8,2.3-0.2,3.3-3.6,3.6
		C36.6,50,37.1,51.8,38,51.8z M42.4,92.9c0.1,1-0.2,1.8-0.5,1.8c-0.4,0-0.5-0.3-0.3-0.6c0.2-0.4-0.1-0.6-0.5-0.6c-0.5,0-1-0.1-1-0.2
		c0-0.7,1.2-3.4,1.4-3.4c0.2,0,0.1,0.4-0.1,1c-0.2,0.5-0.1,0.8,0.2,0.6C42,91.3,42.3,91.9,42.4,92.9z"/>
	<path d="M210.3,59.3c0,1.5,0.2,2.8,0.5,2.8c0.5,0,0.8,4.6,1,22.3c0.3,20.3,1.5,34.1,3,33.6c0.7-0.2,0.6-1.9-0.7-10.3
		c-1.1-8.2-1.1-18.9,0-18.9c1,0,1.3,1.8,1.9,11.9c0.2,3.1,0.5,6.5,0.6,7.5c0.3,2.3,1,13,1,14.2c-0.2,4.3-0.1,6.1,0.8,7.5
		c0.6,0.8,0.8,1.6,0.4,1.6c-0.3,0-0.5,0.7-0.5,1.5c0,0.8,0.1,1.4,0.4,1.3c0.3-0.2,0.3,5.3,0.1,12.3c0,0.1,0,0.2,0,0.4
		c0.6-0.7,1.4-1.2,2.2-1.5c0.1-0.7,0.3-1,0.6-0.9c0.2,0.1,0.4,0.3,0.5,0.6c0.6-0.1,1.2,0,1.8,0.1c0-0.3,0.1-0.5,0.1-0.6
		c0.3-1.4,0.1-1.8-1.1-2.2c-1.4-0.5-1.4-0.8-1-2.8c0.3-1.3,0.4-2.5,0.3-2.7c-0.1-0.2-0.3-3-0.4-6.1c-0.1-3.1-0.3-6.2-0.6-6.7
		c-0.3-0.5-0.7-2.3-0.8-3.9c-0.4-4-2.1-19.3-2.8-25.5c-0.3-2.8-0.6-8.1-0.7-11.9c-0.1-5.4-0.3-7.2-1.2-8.9c-0.8-1.5-1.1-3.4-1.1-6
		c0-4.5-1-10.4-2.1-12.5c-1.5-2.9-2.2-6.7-1.8-10c0.4-3,0.3-3.3-0.8-3.3c-0.7,0-1.4,0.2-1.6,0.6c-0.2,0.3-0.2,1.6,0.1,2.7
		c0.2,1.4,0.1,2.5-0.4,3c-0.6,0.7-0.6,1.3-0.2,2.3C209.8,55.1,210.3,56.8,210.3,59.3z M213.3,82.3c0.4-0.5,1-0.9,1.3-0.9
		c0.4,0,0.3,0.4-0.1,0.9c-0.4,0.5-1,0.9-1.3,0.9C212.8,83.2,212.9,82.8,213.3,82.3z M214.7,83.8c0.7,0,0.9,0.2,0.5,0.4
		c-0.4,0.1-0.8,0.8-0.8,1.4c0,1.4-1,2.1-1.4,0.9C212.5,85,213.3,83.8,214.7,83.8z"/>
</g>
<path class="st0" d="M42.9,141.1c0.2-3.4,0.2-5.4,0.2-8.4c2-9,3-18,1-27c-4-24,0-47-3-70.7"/>
<path class="st0" d="M208.3,43.8c0.3-0.7,0.6-1.3,0.9-2c-1.3,7,0.5,14.1,1.7,21c3.1,20.9,3.1,42.9,4.1,64.9c1,4,3,8,4,13
	c0,2,0,5,0.2,7.1"/>
<path class="st0" d="M219.5,142.2c-0.6,3.6-1.2,7.3-0.7,11c0.2,1.7,0.7,3.5,1,5.2c0.9,5.4-0.2,11,0.5,16.4c0,0.3,1.8-2.8,1.9-3.1
	c-14.3,12.2-28.3,24.8-42.2,37.5c-15,13.7-30.1,27.4-45.1,41c-2.5-2.8-5.8-4.7-8.9-6.7c-20.2-12.6-38.6-28.1-54.5-45.8
	c-4-4.5-7.9-9.1-11.6-13.8c-1.8-2.3-3.5-4.6-5.2-7c-0.4-0.6-0.9-1.2-1.5-1.7c-1.2-1-2.8-1.3-3.8-2.7c-0.9-1.4-1.1-3.2-1.6-4.7
	c-0.5-1.6-1.2-3.2-2.1-4.7c-1.1-1.9-2.6-3.6-3.1-5.8c-0.3-1.2-0.2-2.4-0.2-3.5c0.3-6.5,0.5-13,0.8-19.6"/>

        
<g id="hair">
<path id="Vector" d="M144.668 18.5545C144.668 35.4742 137.327 37.0704 135.731 20.4699C133.816 0.67709 129.986 10.5735 131.262 31.9625C132.22 49.2014 131.581 54.6285 127.432 57.8209C124.56 60.3748 121.687 61.6518 121.049 61.0133C120.091 60.3748 119.134 48.563 118.495 35.1549C118.176 21.4276 116.58 10.2543 115.623 10.2543C114.027 10.2543 106.366 24.62 106.366 28.1317C106.366 29.0894 107.643 29.0894 109.239 27.8124C114.346 24.9393 116.261 31.6433 112.75 40.2628C110.835 45.6898 110.835 48.563 112.75 48.563C114.665 48.563 115.942 52.3938 115.942 57.1824C115.942 71.229 109.558 61.0133 108.281 45.3706C107.005 28.1317 103.175 26.2162 96.7911 39.6243C92.3226 49.8399 92.0034 49.8399 91.0459 42.4974C90.0884 37.3896 92.0034 32.9202 96.1527 29.7279C99.6637 26.8547 103.175 20.7892 103.813 15.6813C106.047 3.86948 100.94 4.50796 98.387 16.639C96.4719 25.5777 90.4075 30.3663 90.4075 22.7046C90.4075 21.1084 89.1308 20.4699 87.2158 21.4276C85.6199 22.3854 84.024 21.4276 84.024 19.193C84.024 16.3198 83.0665 16.3198 80.8322 19.8314C79.2363 22.3854 77.6404 25.897 77.6404 27.8124C77.6404 29.4086 79.2363 28.7701 80.8322 26.2162C84.3432 20.7892 84.6623 21.7469 85.6199 44.0936C85.6199 51.1169 89.1308 63.5672 92.961 71.8674C100.302 87.5102 105.409 92.2987 101.26 79.5292C99.9829 75.6983 99.0253 68.0366 99.3445 62.9287C99.9829 53.6708 99.6637 53.6708 95.1952 59.4171C91.0459 65.1634 90.4075 65.1634 90.4075 60.0556C90.4075 53.3516 101.898 40.2628 102.536 46.0091C102.855 48.2437 104.451 60.0556 106.047 71.8674C107.643 83.9985 110.516 95.4911 112.75 97.4066C115.942 100.599 116.261 99.9605 114.346 94.8527C113.069 91.341 111.473 85.5947 110.516 82.0831C109.239 76.9753 110.516 77.6137 115.942 84.637C119.772 89.4256 124.24 92.618 125.836 91.341C127.432 90.3833 128.709 92.618 128.709 96.1296C128.709 99.9605 129.986 102.834 131.262 102.834C132.858 102.834 133.816 99.6412 133.496 95.4911C133.177 91.6603 135.092 85.5947 137.965 82.4023C141.476 77.933 141.795 76.9753 138.603 78.8907C135.092 80.8061 134.454 80.1677 136.369 75.3791C137.646 72.1867 139.561 65.4826 140.518 60.6941C141.476 55.9055 143.391 52.7131 144.987 53.6708C146.583 54.6285 147.859 54.3093 147.54 52.7131C146.264 45.3706 148.179 35.4742 150.732 37.0704C155.52 40.2628 157.116 51.7554 153.285 55.9055C147.221 62.2903 140.518 75.0598 144.349 72.5059C146.583 71.229 147.859 73.4636 148.179 77.933C148.179 82.4023 150.094 79.5292 152.966 69.952C158.073 53.3516 165.095 48.563 160.307 65.1634C156.477 78.5715 156.796 83.6793 160.627 83.6793C162.542 83.6793 163.818 80.4869 163.818 76.656C163.818 72.8251 166.053 67.3981 168.925 64.2057C174.351 58.1401 172.755 46.6475 167.329 50.1592C162.222 53.0323 154.881 37.7088 153.285 20.7892C152.966 17.2775 151.37 14.7236 149.775 15.6813C148.498 16.639 148.179 14.4044 149.455 10.5735C150.732 6.74263 150.094 3.86948 148.179 3.86948C146.264 3.86948 144.668 10.2543 144.668 18.5545ZM141.795 37.0704C145.625 34.8357 145.306 40.2628 140.838 50.1592C136.05 60.3748 131.262 60.6941 135.092 50.1592C136.688 45.6898 137.646 40.582 137.007 38.3473C136.688 36.1126 136.688 35.1549 137.327 36.7511C138.284 38.0281 140.199 38.3473 141.795 37.0704ZM130.624 73.4636C130.943 79.8484 130.305 82.0831 129.666 77.933C128.07 69.3135 122.325 71.8674 122.325 81.4446C122.325 87.8294 121.687 87.5102 116.261 78.8907C110.516 69.3135 112.75 63.5672 121.368 66.7596C123.602 67.7173 125.517 66.7596 125.517 64.8442C125.517 62.9287 126.475 61.3325 128.07 61.3325C129.347 61.3325 130.624 66.7596 130.624 73.4636Z" fill="black"/>
<path id="Vector_2" d="M168.606 10.2541C169.564 11.8503 168.925 13.4465 167.329 13.4465C165.095 13.4465 163.818 20.789 164.138 31.6431C164.138 43.7742 165.095 47.9243 166.691 44.0934C170.84 33.5585 178.82 53.6706 176.266 68.3556C175.309 75.0596 175.628 80.4867 177.224 80.4867C178.501 80.4867 179.777 77.6135 179.777 74.1019C179.777 65.4824 183.927 66.1209 187.757 74.7404C189.672 78.8905 193.183 82.0829 195.736 82.4021C210.418 83.3598 210.737 83.6791 209.142 91.9793L207.546 100.599L203.396 92.937C201.162 88.7869 199.247 87.1907 198.928 89.7446C198.928 92.2985 201.481 97.0871 204.673 100.599C207.546 103.791 212.333 118.795 215.206 134.119C220.313 160.935 220.632 161.254 220.951 145.292C221.27 136.354 219.994 125.18 218.079 120.392C215.844 114.326 215.844 112.73 218.717 114.326C221.27 115.922 221.589 114.326 219.994 108.899C215.525 95.1717 214.568 74.1019 218.079 67.7171C220.313 63.2478 220.313 61.3323 218.079 61.3323C216.483 61.3323 214.887 62.9285 214.887 64.844C214.887 66.7594 212.652 70.271 210.099 72.8249C205.95 77.2943 205.311 76.9751 205.95 70.271C206.588 66.1209 209.461 60.0554 212.333 56.863C215.525 53.3514 217.44 49.8397 216.483 48.882C215.525 48.2435 212.652 50.159 209.78 53.6706C205.311 59.4169 204.992 59.0977 206.269 49.5205C207.226 41.2203 206.588 39.9433 203.077 42.4972C199.885 45.3704 198.928 43.4549 198.609 32.2816C198.609 19.8312 198.29 19.1928 195.417 25.8968C193.821 30.3661 193.183 38.3471 194.459 43.4549C198.29 59.7361 198.609 61.3323 195.417 61.3323C194.14 61.3323 193.502 63.567 194.459 66.1209C197.332 73.1442 191.587 71.8672 187.118 64.5247C184.246 60.0554 183.927 57.8207 186.799 56.2245C189.033 54.9476 189.353 55.2668 188.076 57.5015C186.799 59.7361 187.118 61.3323 188.714 61.3323C193.502 61.3323 196.055 52.3936 191.906 49.8397C189.991 48.5628 189.353 42.178 190.629 33.8778C191.587 26.216 190.948 19.1928 189.353 18.235C187.437 17.2773 187.118 18.5543 188.076 21.1082C189.033 23.9814 188.714 26.216 186.799 26.216C184.884 26.216 182.969 24.3006 182.011 22.0659C181.373 20.1505 179.458 19.1928 178.181 20.4697C176.585 22.0659 177.224 26.5353 179.139 30.6854C182.011 36.7509 181.692 38.6664 177.862 40.2625C174.67 41.5395 173.394 39.6241 173.394 33.2393C173.394 26.5353 172.755 25.5775 170.202 29.4084C167.648 33.2393 167.01 32.92 167.01 27.1737C167.01 23.3429 168.606 19.1928 170.202 18.235C174.351 15.6811 174.351 7.06167 169.883 7.06167C168.287 7.06167 167.648 8.33863 168.606 10.2541ZM183.927 46.6473C185.203 49.8397 184.246 50.7974 181.054 49.5205C178.82 48.5628 176.585 46.6473 176.585 45.0511C176.585 40.5818 182.011 41.8587 183.927 46.6473Z" fill="black"/>
<path id="Vector_3" d="M71.2568 19.512C71.2568 22.7044 69.0226 27.1737 66.4692 29.4084C63.9157 31.6431 61.6815 32.2815 61.6815 31.3238C61.6815 30.0469 59.4473 31.0046 56.8938 33.8777C54.0212 36.4317 49.8719 38.0279 47.3185 37.0701C43.8076 35.4739 42.5309 37.3894 42.85 42.4972C42.85 49.8397 43.1692 49.8397 45.7226 43.7742C47.6377 39.6241 48.5952 38.9856 48.5952 42.178C48.9144 46.3281 49.2336 46.3281 52.1062 42.178C54.6596 38.6663 55.2979 39.9433 54.6596 47.605C54.3404 53.3513 52.7445 58.1399 51.787 58.1399C50.5103 58.1399 48.9144 62.6093 48.276 68.3556C46.6802 83.3598 40.6158 82.7213 37.1048 67.0786C34.8706 56.863 34.5514 64.2055 35.509 96.4486C36.1473 120.072 38.0624 140.823 39.6583 142.738C41.2541 144.335 42.5309 149.123 42.5309 153.592C42.5309 157.743 43.4884 160.296 44.4459 159.339C46.361 157.423 46.361 120.711 44.4459 93.8947C43.8076 88.4676 44.7651 83.6791 46.361 83.6791C47.6377 83.6791 49.2336 91.9793 49.5528 101.876C50.1911 120.392 50.1911 120.072 52.1062 96.4486C53.3829 83.3598 54.3404 76.6558 54.6596 82.0829C54.9788 87.1907 56.8938 93.8947 58.4897 96.4486C60.724 99.9603 61.0431 97.0871 60.0856 86.8714C59.1281 77.9327 59.4473 74.1019 61.3623 76.975C63.2774 79.8482 64.8733 80.1674 66.15 77.6135C68.7034 73.7826 65.5116 66.7594 62.3199 68.9941C61.0431 69.6325 59.7664 66.7594 59.7664 62.6093C59.4473 58.4592 60.4048 54.9475 62.0007 54.9475C63.5966 54.9475 64.2349 51.7551 63.2774 47.605C62.0007 43.1357 63.5966 38.3471 67.4267 34.197C74.1294 26.8545 78.5979 13.4464 74.1294 13.4464C72.5335 13.4464 71.2568 16.0004 71.2568 19.512Z" fill="black"/>
<path id="Vector_4" d="M70.2994 41.5395C69.6611 46.3281 68.0652 53.0322 66.4693 56.5438C64.5542 61.6516 64.8734 61.9708 68.0652 58.14C70.9378 54.3091 71.2569 56.2245 70.6186 67.0787C69.6611 78.8905 70.2994 80.806 75.0871 79.529C78.2788 78.5713 80.8323 79.2098 80.8323 80.806C80.8323 82.4022 83.0665 83.6791 85.6199 83.6791C88.1733 83.6791 90.4076 81.1252 90.4076 77.9328C90.4076 73.4635 89.7692 73.1442 87.2158 77.2943C84.6624 81.4444 84.024 81.1252 84.024 76.3366C84.024 73.4635 82.7473 70.9095 81.1514 70.9095C77.6405 70.9095 77.3213 49.8398 80.8323 40.5818C82.7473 35.474 82.109 33.8778 77.6405 33.5586C73.8104 33.2393 71.5761 35.7932 70.2994 41.5395ZM76.683 42.8165C75.7254 45.3704 74.7679 44.4127 74.7679 40.9011C74.4487 37.3894 75.4062 35.474 76.3638 36.751C77.3213 37.7087 77.6405 40.5818 76.683 42.8165Z" fill="black"/>
<path id="Vector_5" d="M41.5734 57.1823C40.935 58.7785 41.5734 63.8863 42.8501 69.3134C45.0843 78.5713 45.0843 78.5713 45.4035 66.7595C45.7227 55.5861 44.446 52.0744 41.5734 57.1823Z" fill="black"/>
<path id="Vector_6" d="M168.606 71.2289C167.329 73.1443 167.01 75.0597 167.968 76.0175C168.606 76.9752 170.202 75.379 171.16 72.5058C173.394 67.0788 171.479 66.121 168.606 71.2289Z" fill="black"/>
</g>

        
<g id="Frame 11">
<path id="Vector" d="M115.074 90.7387C114.767 98.7026 102.515 100.847 102.515 93.1891C102.515 90.7387 101.29 88.5946 99.7585 88.5946C98.227 88.5946 97.6144 91.3513 98.5333 94.7207C100.371 101.153 93.9387 103.297 88.4253 97.7837C86.5874 95.9459 85.3622 99.9278 85.0559 108.198C84.7496 120.45 85.3622 121.675 95.7766 126.576C101.903 129.639 116.605 132.702 128.551 133.621C146.623 134.847 151.524 133.928 160.101 128.72C170.515 121.982 172.659 113.099 165.614 107.279C163.164 105.135 161.938 100.847 162.857 96.8648C164.389 90.4324 164.389 90.4324 160.101 95.9459C155.506 101.459 146.623 100.234 149.993 94.4144C151.218 92.8828 150.299 91.6576 148.767 91.6576C146.929 91.6576 145.398 92.8828 145.398 94.7207C145.398 99.9278 136.821 98.09 135.29 92.2702C134.065 87.3693 133.758 87.3693 133.452 92.2702C132.839 100.847 118.443 99.6215 116.912 90.7387L115.686 84L115.074 90.7387ZM108.948 108.198C105.885 111.567 105.885 114.324 108.641 119.225C113.542 128.414 111.092 129.639 98.227 123.513C82.6055 115.856 84.4433 106.054 102.515 103.297C112.317 101.766 113.542 102.685 108.948 108.198ZM138.353 114.63C137.74 122.594 135.903 129.639 134.984 130.558C131.002 134.847 116.299 126.576 113.542 118.612C109.56 107.585 115.686 100.847 129.47 100.847H140.191L138.353 114.63ZM157.038 106.973C162.245 110.342 166.839 114.324 166.839 116.162C166.839 119.531 155.812 126.883 146.011 129.946C139.884 131.784 139.578 131.171 142.029 124.739C143.254 120.757 143.866 114.018 143.254 109.117C142.029 99.3152 143.866 99.0089 157.038 106.973Z" fill="black"/>
<path id="Vector_2" d="M122.119 111.261C120.281 119.225 122.425 125.351 127.326 125.351C131.002 125.351 131.002 107.892 127.02 105.441C125.488 104.522 123.344 106.973 122.119 111.261Z" fill="black"/>
</g>

        
<style type="text/css">
	.st0{fill:none;stroke:#000000;stroke-width:3;stroke-miterlimit:10;}
</style>
<g id="Frame_25">
	<path d="M115.2,165.7c0.3-0.2,0.7-0.4,1.1-0.6l8-14.8c4.9-8.9,7.9-16.3,6.7-16.3c-1.2,0-6.2,7.7-11.1,17.3
		c-4.8,9.2-7.2,14.9-6.7,16.7C113.4,167.1,114.1,166.3,115.2,165.7z"/>
</g>
<path class="st0" d="M117.4,162.3c-2.4,1.7-3.9,4.6-3.7,7.6c4.1,2.5,7.9,5.5,11.3,8.9c2.2,2.2,4.7,4.7,7.7,4.3
	c1.9-0.3,3.4-1.7,4.9-2.8c2.5-1.9,5.3-3.2,8.3-4c1.6-0.4,3.2-0.6,4.6-1.5s2.5-2.4,2.2-4"/>
<path class="st0" d="M117.2,170.4c1.2-0.4,2.4,0.6,3.2,1.6c1.4,1.4,2.7,2.9,3.4,4.8"/>
<path class="st0" d="M140.7,177.2c1.2-1.1,2.6-2.1,4.2-2.7c1.5-0.6,3.4-0.9,4.6,0.3c0.1,0.1,0.3,0.3,0.5,0.2s-0.2-0.4-0.1-0.2"/>
<path class="st0" d="M129.7,135.7c-6.2,10.3-12.6,20.9-15.3,32.6"/>

        
<g id="Frame 26">
<g id="Group 39">
<path id="Vector" d="M170.785 182.425C170.785 183.515 172.311 185.26 174.274 185.914C176.455 186.786 177.327 186.132 176.891 184.605C175.801 181.334 170.785 179.59 170.785 182.425Z" fill="black"/>
<path id="Vector_2" d="M90.0972 187.004C88.7887 189.621 88.5706 191.584 89.8791 191.584C92.0598 191.584 95.1129 185.042 93.5864 183.515C93.1502 182.861 91.6237 184.605 90.0972 187.004Z" fill="black"/>
<path id="Vector_3" d="M163.589 189.621C164.461 192.456 165.551 193.328 166.86 192.02C169.259 189.621 167.514 185.042 164.243 185.042C163.371 185.042 162.934 187.004 163.589 189.621Z" fill="black"/>
<path id="Vector_4" d="M97.2936 190.493C95.3309 195.727 97.5117 196.382 100.565 191.584C102.309 188.749 102.309 187.222 101.001 187.222C99.6924 187.222 98.1659 188.749 97.2936 190.493Z" fill="black"/>
<path id="Vector_5" d="M105.362 191.148C101.219 192.674 107.325 199.871 114.958 202.488C126.952 206.413 152.903 201.179 159.227 193.328C161.19 190.93 156.61 190.493 134.584 190.493C119.755 190.493 106.671 190.711 105.362 191.148ZM142.435 194.637C156.61 192.238 157.264 195.073 143.307 198.344C131.749 200.961 116.92 200.743 111.687 198.126C104.054 193.983 107.325 192.238 118.447 194.637C125.643 196.163 133.494 196.163 142.435 194.637Z" fill="black"/>
</g>
</g>

        
    </svg>
