
    <svg width="256" height="256" viewBox="0 0 256 256" fill="none" xmlns="http://www.w3.org/2000/svg">
        
<g id="Frame 44">
<rect width="256" height="256" fill="#FFED4D"/>
</g>

        
<style type="text/css">
	.st0{fill:none;stroke:#000000;stroke-width:4;stroke-miterlimit:10;}
</style>
<g id="head">
	<path d="M38,51.8c0.5,0,0.7,0.2,0.5,0.6c-0.2,0.3-0.1,0.6,0.4,0.6c0.4,0,0.5,0.6,0.4,1.5c-0.2,0.8-0.1,1.5,0.1,1.5
		c0.4,0,0.9,9.1,0.7,13c-0.4,8.8-0.4,9.5,0.5,10c0.7,0.4,0.7,0.5,0.1,0.6c-0.5,0-0.7,0.4-0.5,0.7c0.1,0.4-0.2,1.7-0.6,2.8l-0.9,2.1
		l1.6-1c1.5-1,1.6-1,1.6,0.2c0,0.8-0.3,1.1-0.8,0.9c-0.5-0.2-1-0.1-1.3,0.3c-0.2,0.4,0.1,0.7,0.7,0.7c0.8,0,0.9,0.1,0.3,0.5
		c-1.1,0.7-1,1.4,0.3,1.9c1,0.4,1,0.5-0.2,0.5c-1.3,0.1-1.5,0.7-1.4,4c0,1,0.1,2.8,0.1,4.1c0.1,1.4,0.4,2.2,0.8,2
		c0.4-0.2,0.9,0.1,1.1,0.6c0.2,0.7,0.1,0.8-0.8,0.5c-0.7-0.2-1.2-0.1-1.2,0.2s0.3,0.7,0.6,0.7c0.4,0,0.4,0.4,0,1.2
		c-0.8,1.5-0.2,1.6,1.4,0.1c1-0.8,1.1-0.8,0.5,0c-0.4,0.5-0.5,1.1-0.2,1.2c0.2,0.1,0.1,0.8-0.4,1.7c-0.8,1.4-0.8,1.4-0.5,0.1
		c0.2-0.7,0.1-1.3-0.2-1.3c-0.8,0-0.6,2.2,0.4,3c0.7,0.5,0.9,3.1,1,12.7c0.1,6.6,0,11.8-0.2,11.7c-0.6-0.4-0.5,4,0.1,5.7
		c0.4,0.8,0.6,3,0.6,4.7c0,0.1,0,0.2,0,0.4c1-0.7,2.1-1.2,3.2-1.7c-0.2-1.6-0.5-3.4-0.8-4.7c-0.3-1.9-0.6-12.4-0.6-23.2
		c0-21.5-0.5-34.6-1.3-40.3c-0.6-3.7-0.3-27,0.3-28c0.2-0.3,0.1-0.7-0.2-0.9c-0.3-0.2-0.4-1.9-0.2-3.7c0.4-3.3,0.3-3.3-1.2-3.3
		c-0.8,0-1.7,0.2-1.9,0.6c-0.2,0.3,0.1,1.5,0.5,2.7c0.5,1.1,0.7,2.7,0.5,3.3c-0.2,0.7-0.1,2.1,0.3,3c0.8,2.3-0.2,3.3-3.6,3.6
		C36.6,50,37.1,51.8,38,51.8z M42.4,92.9c0.1,1-0.2,1.8-0.5,1.8c-0.4,0-0.5-0.3-0.3-0.6c0.2-0.4-0.1-0.6-0.5-0.6c-0.5,0-1-0.1-1-0.2
		c0-0.7,1.2-3.4,1.4-3.4c0.2,0,0.1,0.4-0.1,1c-0.2,0.5-0.1,0.8,0.2,0.6C42,91.3,42.3,91.9,42.4,92.9z"/>
	<path d="M210.3,59.3c0,1.5,0.2,2.8,0.5,2.8c0.5,0,0.8,4.6,1,22.3c0.3,20.3,1.5,34.1,3,33.6c0.7-0.2,0.6-1.9-0.7-10.3
		c-1.1-8.2-1.1-18.9,0-18.9c1,0,1.3,1.8,1.9,11.9c0.2,3.1,0.5,6.5,0.6,7.5c0.3,2.3,1,13,1,14.2c-0.2,4.3-0.1,6.1,0.8,7.5
		c0.6,0.8,0.8,1.6,0.4,1.6c-0.3,0-0.5,0.7-0.5,1.5c0,0.8,0.1,1.4,0.4,1.3c0.3-0.2,0.3,5.3,0.1,12.3c0,0.1,0,0.2,0,0.4
		c0.6-0.7,1.4-1.2,2.2-1.5c0.1-0.7,0.3-1,0.6-0.9c0.2,0.1,0.4,0.3,0.5,0.6c0.6-0.1,1.2,0,1.8,0.1c0-0.3,0.1-0.5,0.1-0.6
		c0.3-1.4,0.1-1.8-1.1-2.2c-1.4-0.5-1.4-0.8-1-2.8c0.3-1.3,0.4-2.5,0.3-2.7c-0.1-0.2-0.3-3-0.4-6.1c-0.1-3.1-0.3-6.2-0.6-6.7
		c-0.3-0.5-0.7-2.3-0.8-3.9c-0.4-4-2.1-19.3-2.8-25.5c-0.3-2.8-0.6-8.1-0.7-11.9c-0.1-5.4-0.3-7.2-1.2-8.9c-0.8-1.5-1.1-3.4-1.1-6
		c0-4.5-1-10.4-2.1-12.5c-1.5-2.9-2.2-6.7-1.8-10c0.4-3,0.3-3.3-0.8-3.3c-0.7,0-1.4,0.2-1.6,0.6c-0.2,0.3-0.2,1.6,0.1,2.7
		c0.2,1.4,0.1,2.5-0.4,3c-0.6,0.7-0.6,1.3-0.2,2.3C209.8,55.1,210.3,56.8,210.3,59.3z M213.3,82.3c0.4-0.5,1-0.9,1.3-0.9
		c0.4,0,0.3,0.4-0.1,0.9c-0.4,0.5-1,0.9-1.3,0.9C212.8,83.2,212.9,82.8,213.3,82.3z M214.7,83.8c0.7,0,0.9,0.2,0.5,0.4
		c-0.4,0.1-0.8,0.8-0.8,1.4c0,1.4-1,2.1-1.4,0.9C212.5,85,213.3,83.8,214.7,83.8z"/>
</g>
<path class="st0" d="M42.9,141.1c0.2-3.4,0.2-5.4,0.2-8.4c2-9,3-18,1-27c-4-24,0-47-3-70.7"/>
<path class="st0" d="M208.3,43.8c0.3-0.7,0.6-1.3,0.9-2c-1.3,7,0.5,14.1,1.7,21c3.1,20.9,3.1,42.9,4.1,64.9c1,4,3,8,4,13
	c0,2,0,5,0.2,7.1"/>
<path class="st0" d="M219.5,142.2c-0.6,3.6-1.2,7.3-0.7,11c0.2,1.7,0.7,3.5,1,5.2c0.9,5.4-0.2,11,0.5,16.4c0,0.3,1.8-2.8,1.9-3.1
	c-14.3,12.2-28.3,24.8-42.2,37.5c-15,13.7-30.1,27.4-45.1,41c-2.5-2.8-5.8-4.7-8.9-6.7c-20.2-12.6-38.6-28.1-54.5-45.8
	c-4-4.5-7.9-9.1-11.6-13.8c-1.8-2.3-3.5-4.6-5.2-7c-0.4-0.6-0.9-1.2-1.5-1.7c-1.2-1-2.8-1.3-3.8-2.7c-0.9-1.4-1.1-3.2-1.6-4.7
	c-0.5-1.6-1.2-3.2-2.1-4.7c-1.1-1.9-2.6-3.6-3.1-5.8c-0.3-1.2-0.2-2.4-0.2-3.5c0.3-6.5,0.5-13,0.8-19.6"/>

        
<g id="hair">
<path id="Vector" d="M96.8453 10.0231C93.1307 15.0654 89.9467 20.6385 89.9467 22.2308C89.9467 23.8231 88.62 24.3538 86.7627 23.2923C80.66 19.3115 61.556 19.3115 58.372 23.2923C56.5147 25.4154 52.8 26.4769 49.616 25.4154C46.1667 24.6192 44.5747 25.15 45.636 26.7423C46.6973 28.3346 45.1053 30.1923 42.1867 30.9885C39.268 31.7846 36.88 33.9077 36.88 35.7654C36.88 38.4192 37.676 38.4192 40.064 36.0308C44.84 31.2538 54.1267 32.3154 59.6987 38.4192L64.74 43.9923L52.2693 42.1346C40.3293 40.2769 40.064 40.5423 40.3293 46.9115C40.86 53.0154 41.3907 53.2808 45.1053 49.8308C47.228 47.7077 50.9427 46.1154 52.8 46.1154C55.188 46.1154 54.6573 47.4423 51.208 50.0961C46.9627 53.5461 46.9627 53.8115 50.9427 52.4846C53.596 51.4231 55.4533 52.2192 55.4533 54.0769C55.4533 55.6692 53.3307 56.7308 50.9427 56.2C48.2893 55.9346 44.84 56.2 43.5133 57.2615C41.9213 58.3231 39.0027 58.0577 36.88 56.7308C33.9613 54.8731 33.9613 53.8115 36.6147 50.3615C39.0027 47.4423 39.268 46.1154 37.1453 46.1154C35.5533 46.1154 34.2267 47.4423 34.2267 49.0346C34.2267 50.6269 32.3693 51.1577 29.9813 50.3615C25.736 48.7692 13.2653 60.7115 13 66.8154C13 68.6731 16.4493 66.2846 20.6947 61.5077C24.94 56.7308 29.4507 53.5462 30.512 54.8731C31.5733 55.9346 29.9813 58.5885 26.7973 60.9769C23.6133 63.1 20.96 66.2846 20.96 67.8769C20.96 69.4692 23.8787 68.1423 27.328 64.9577C30.7773 61.7731 34.2267 60.1808 35.288 61.5077C36.084 62.8346 33.1653 67.3462 28.92 71.3269C24.4093 75.5731 20.96 80.35 20.96 81.6769C20.96 83.2692 23.348 81.6769 26.2667 77.9615C32.3693 70.2654 33.1653 73.7154 27.5933 83.2692C25.4707 86.9846 23.8787 94.4154 23.6133 99.7231C23.6133 105.031 22.552 112.462 20.96 116.177C17.776 124.669 20.164 125.465 23.8787 116.973C25.736 112.727 26.0013 115.115 25.2053 127.323C24.4093 136.081 21.2253 149.085 18.3067 155.985C12.204 170.315 11.408 176.154 15.9187 171.642C17.5107 170.05 20.96 161.823 23.8787 153.331C28.92 137.938 29.1853 137.673 27.5933 149.615C26.7973 156.25 22.8173 168.458 19.1027 176.95C13.796 188.627 13 193.138 15.1227 195.262C17.5107 197.65 18.3067 197.385 18.3067 194.465C18.3067 192.077 20.6947 188.096 23.6133 185.442C29.716 180.135 31.0427 173.765 25.2053 178.542C22.2867 181.196 22.552 178.808 26.0013 168.988C29.4507 159.965 30.7773 148.554 31.0427 128.385C31.0427 111.135 30.2467 102.642 28.92 105.827C27.0627 110.073 26.532 108.746 26.532 100.519C26.2667 94.4154 28.3893 86.1885 31.5733 81.1461C34.492 76.6346 36.084 72.6538 35.5533 72.6538C34.7573 72.6538 35.288 70.2654 36.88 67.3461C38.472 64.4269 40.5947 62.3038 41.656 62.5692C42.7173 62.8346 47.4933 62.0385 52.2693 60.9769C58.1067 59.65 60.76 57.5269 60.76 54.0769C60.76 51.1577 62.8827 47.9731 65.2707 46.3808C69.2507 44.2577 69.2507 43.4615 66.0667 39.4808C62.6173 35.5 62.8827 34.1731 68.4547 29.6615C73.496 25.6808 75.3533 25.4154 76.9453 28.0692C78.5373 30.4577 79.3333 30.4577 79.3333 28.3346C79.3333 24.8846 89.1507 26.7423 91.5387 30.7231C92.6 32.3154 91.5387 34.4385 89.6813 35.7654C84.64 38.95 81.1907 38.6846 83.3133 35.5C84.3747 33.9077 82.5173 33.3769 78.8027 33.9077C75.3533 34.7038 71.108 35.2346 69.2507 35.2346C67.3933 35.5 66.5973 36.8269 67.3933 38.1538C68.4547 39.7461 71.3733 40.2769 74.292 39.4808C79.864 37.6231 81.456 42.9308 75.884 45.0538C74.0267 45.5846 72.1693 50.8923 71.904 56.7308C71.3733 64.9577 72.1693 67.3462 76.68 68.6731C79.5987 69.4692 81.9867 71.5923 81.9867 73.1846C81.9867 74.5115 80.1293 75.0423 77.7413 74.2461C75.3533 73.45 72.4347 72.6538 71.108 72.6538C69.7813 72.6538 68.72 68.1423 68.4547 62.5692C68.4547 54.8731 67.924 54.0769 66.332 58.0577C65.0053 60.9769 65.2707 66.0192 66.332 69.4692C70.0467 79.0231 69.2507 90.4346 65.0053 92.0269C59.6987 94.15 49.8813 77.4308 53.0653 72.3885C54.9227 69.4692 56.5147 70 60.76 75.3077C65.0053 80.6154 65.8013 80.8808 64.2093 76.6346C63.4133 73.7154 61.0253 69.2038 59.4333 66.55C56.5147 62.3038 55.984 62.3038 52.2693 66.55C45.1053 75.0423 33.4307 109.277 35.288 116.973C37.4107 124.935 40.3293 123.077 41.656 112.992C42.9827 102.908 44.84 102.112 44.84 111.4C44.84 115.912 43.7787 120.423 42.452 122.015C40.86 123.342 39.5333 134.488 39.268 146.962C39.0027 159.435 37.1453 174.296 35.288 180.135C31.5733 191.281 32.104 195.527 36.3493 187.565C40.86 179.338 44.5747 163.15 42.1867 162.354C40.86 161.823 42.7173 153.331 46.1667 143.512C49.616 133.692 51.4733 126.262 50.1467 127.058C48.82 127.854 46.432 132.365 44.84 137.142C42.452 144.573 42.452 144.042 44.044 133.692C45.1053 127.058 45.9013 113.258 45.9013 102.642C46.1667 81.6769 48.5547 76.1038 52.8 86.9846C56.2493 96.2731 62.352 98.3961 68.72 92.5577C72.9653 88.8423 74.0267 88.5769 74.5573 91.4961C74.5573 93.6192 75.088 96.2731 75.3533 97.8654C75.884 99.1923 76.1493 102.112 76.4147 103.969C76.68 106.623 77.7413 106.623 80.66 103.438C84.3747 99.7231 84.3747 98.6615 80.66 93.0885C76.9453 87.25 77.2107 86.4538 82.252 80.8808C86.7627 76.1038 88.3547 75.5731 90.212 78.4923C91.5387 80.6154 92.6 80.6154 92.6 79.0231C92.6 77.4308 90.7427 74.5115 88.3547 72.3885C85.7013 70.2654 84.64 66.0192 85.1707 60.1808C85.7013 54.8731 85.1707 51.4231 83.3133 51.4231C81.456 51.4231 80.66 54.8731 81.1907 59.9154C81.9867 66.55 81.7213 67.8769 79.5987 64.6923C76.4147 60.1808 75.6187 47.9731 78.5373 45.3192C81.456 42.1346 92.0693 54.0769 90.7427 59.1192C90.212 61.7731 91.5387 65.2231 93.6613 67.0808C98.968 71.5923 98.968 79.0231 93.6613 87.25C91.2733 90.7 90.212 94.9462 91.2733 96.5385C93.9267 100.785 97.1107 97.6 99.2333 88.0462C101.091 79.5538 101.091 79.5538 102.948 85.9231C104.54 91.4961 105.336 90.1692 106.928 78.4923C108.52 68.6731 107.989 63.3654 105.867 60.7115C103.479 57.7923 103.213 56.7308 105.601 56.7308C107.459 56.7308 107.989 55.4038 106.928 53.8115C105.867 51.6885 104.54 51.6885 102.417 53.8115C100.56 55.6692 100.56 58.5885 102.683 63.3654C106.132 70.7962 106.928 80.0846 104.009 76.9C100.56 73.45 95.5187 55.4038 96.8453 50.8923C98.7027 44.7885 107.193 42.4 113.827 46.1154C117.011 47.7077 120.725 48.5038 122.583 47.7077C124.44 47.1769 123.909 46.3808 121.256 46.3808C118.337 46.1154 117.276 44.5231 118.337 40.5423C119.133 37.6231 121.256 35.7654 123.379 36.5615C125.236 37.3577 127.624 36.8269 128.42 35.5C129.481 33.9077 131.339 32.8461 132.931 32.8461C134.523 32.8461 133.992 34.9692 131.604 37.6231C128.951 40.2769 127.093 47.1769 126.828 53.0154C126.828 58.5885 126.032 61.7731 125.236 59.9154C124.705 58.3231 122.583 56.7308 120.991 56.7308C119.133 56.7308 116.215 54.3423 114.357 51.4231C112.5 48.5038 109.847 46.1154 107.989 46.1154C106.397 46.1154 106.928 47.9731 109.316 50.8923C111.969 53.5461 113.827 57.2615 113.827 59.1192C113.827 60.9769 114.888 61.7731 115.949 60.9769C117.276 60.1808 121.521 62.8346 125.767 66.8154C130.012 70.7962 134.788 73.7154 136.115 73.1846C137.441 72.6538 137.707 76.6346 136.911 81.9423C135.849 88.3115 136.38 90.7 138.237 89.6385C141.952 87.25 139.033 67.8769 133.992 62.3038C127.093 54.8731 128.685 50.6269 137.707 51.9538C142.217 52.75 146.463 52.2192 147.259 50.8923C148.055 49.8308 146.728 48.7692 144.605 48.7692C142.483 48.7692 140.095 46.6462 139.564 43.9923C138.503 39.7462 138.237 39.7462 137.972 43.9923C137.707 48.7692 134.788 50.0962 131.604 47.1769C128.951 44.5231 134.788 35.5 139.033 35.5C141.156 35.5 144.605 38.1538 146.728 41.3385C149.116 44.5231 150.973 45.85 150.973 43.9923C150.973 42.4 152.035 40.8077 153.627 40.8077C155.219 40.8077 155.219 43.1962 153.627 47.1769C152.3 50.6269 152.035 54.3423 153.096 55.6692C154.157 56.7308 153.361 56.7308 151.769 55.6692C149.647 54.3423 148.32 55.4038 148.32 58.3231C148.32 61.5077 147.259 62.0385 145.136 60.1808C141.156 57.2615 132.4 53.8115 132.4 55.1385C132.4 55.6692 136.645 58.5885 141.687 61.7731C150.177 66.55 150.973 66.8154 150.973 62.5692C150.973 58.5885 151.504 58.5885 153.627 62.0385C157.341 67.8769 156.811 80.8808 152.565 89.3731L148.585 96.5385L154.953 92.0269C163.975 85.3923 165.036 80.0846 160.26 68.4077C155.484 56.9961 157.076 37.6231 163.179 32.5808C165.301 30.9885 166.363 28.6 165.567 27.5385C164.24 25.4154 174.853 15.5961 180.956 13.4731C182.813 12.9423 183.344 11.6154 182.548 10.5538C180.691 8.69616 160.525 21.1692 159.995 24.3538C158.403 32.3154 155.219 38.1538 152.565 38.1538C146.463 38.1538 145.932 34.7038 150.973 28.3346C153.627 24.8846 155.219 20.1077 154.423 17.9846C152.035 11.6154 148.851 13.7385 150.443 20.9038C151.769 28.3346 149.381 29.1308 142.483 23.8231C138.768 21.1692 138.503 19.5769 141.156 16.3923C142.748 14.0038 146.197 11.6154 148.32 10.8192C151.239 9.75769 151.239 9.22691 147.524 9.22691C140.36 8.96153 127.624 21.9654 128.951 27.8038C130.543 33.6423 125.501 34.4385 115.153 29.6615L108.52 26.7423L114.357 20.3731C121.787 12.4115 124.971 12.6769 121.787 21.1692C118.337 29.9269 118.337 30.1923 123.113 30.1923C125.501 30.1923 127.093 28.6 126.828 26.7423C125.767 17.7192 127.624 12.1462 133.196 9.49231C136.38 7.9 137.441 6.57307 135.319 6.57307C129.216 6.30769 105.867 20.1077 105.867 24.0885C105.867 26.2115 104.009 27.5385 101.356 27.0077C94.988 25.6808 96.58 15.0654 104.009 6.83846C106.928 3.65384 108.255 1 106.663 1C105.071 1 100.825 4.98076 96.8453 10.0231ZM66.5973 27.8038C63.4133 30.7231 59.4333 32.3154 57.576 31.2538C54.1267 29.1308 62.0867 22.2308 68.4547 22.2308C71.3733 22.2308 70.8427 23.5577 66.5973 27.8038ZM145.667 30.9885C145.667 32.3154 143.809 32.5808 141.421 31.7846C139.033 30.9885 136.115 30.1923 134.788 30.1923C133.461 30.1923 132.4 28.3346 132.4 26.2115C132.4 23.0269 133.461 22.7615 139.033 25.4154C142.748 27.0077 145.667 29.3962 145.667 30.9885ZM104.275 34.1731C105.071 36.2962 104.805 38.1538 103.479 38.1538C102.152 38.1538 99.764 36.2962 97.9067 34.1731C95.2533 30.9885 95.2533 30.1923 98.7027 30.1923C100.825 30.1923 103.213 32.05 104.275 34.1731ZM114.888 34.4385C117.807 41.8692 116.48 44.7885 112.5 39.7462C110.377 36.8269 108.52 33.6423 108.52 32.3154C108.52 28.6 113.296 29.9269 114.888 34.4385ZM97.9067 42.1346C97.9067 47.1769 90.7427 49.0346 87.2933 44.7885C85.1707 42.1346 85.436 40.5423 89.1507 38.6846C94.4573 35.5 97.9067 36.8269 97.9067 42.1346ZM79.3333 80.8808C79.3333 82.2077 78.272 83.2692 76.68 83.2692C75.3533 83.2692 74.0267 81.4115 74.0267 79.0231C74.0267 76.9 75.3533 75.8385 76.68 76.6346C78.272 77.4308 79.3333 79.2885 79.3333 80.8808Z" fill="black"/>
<path id="Vector_2" d="M35.8187 83.5346C27.8587 98.9269 27.328 101.05 32.6347 96.8039C36.084 93.8846 45.9013 70 43.7787 70C43.248 70 39.7987 76.1039 35.8187 83.5346Z" fill="black"/>
<path id="Vector_3" d="M167.689 33.3769C160.26 37.0923 158.668 54.8731 164.505 68.4077C166.097 72.3885 166.363 70.7962 165.301 63.3654C163.975 54.8731 164.24 53.2808 166.893 55.9346C170.608 59.3846 171.404 75.5731 168.485 85.9231C166.893 90.9654 167.159 91.4962 169.281 88.5769C170.873 86.4539 172.2 81.6769 172.2 77.9616C172.2 73.1846 172.996 72.3885 175.119 74.5116C177.507 76.9 177.241 79.8192 175.119 86.4539C173.261 91.7616 172.996 94.15 174.853 92.2923C176.445 90.7 178.568 85.9231 179.895 81.4116C181.752 75.0423 181.221 72.3885 177.241 68.9385C174.588 66.55 172.2 63.3654 172.2 61.5077C172.465 59.65 174.588 60.7116 177.507 64.1616C180.425 67.6116 183.875 69.7346 185.467 68.6731C186.793 67.8769 188.12 68.1423 188.12 69.7346C188.12 71.0616 187.059 72.9192 185.732 73.7154C182.813 75.5731 189.977 91.2308 193.692 91.2308C195.284 91.2308 195.284 89.3731 193.427 86.1885C192.1 83.2692 190.773 77.6962 190.773 73.7154C190.773 62.8346 197.672 70.2654 200.06 84.0654C201.652 94.15 202.183 94.6808 204.305 89.1077C205.632 85.6577 205.897 81.6769 205.101 80.35C202.979 76.9 206.693 67.0808 209.612 68.6731C210.939 69.7346 212 71.5923 212 72.9192C212 74.5116 210.939 75.0423 209.612 73.9808C208.02 73.1846 208.02 75.8385 209.612 81.1462C210.939 85.9231 212 92.2923 211.735 95.2116C211.469 99.4577 211.204 99.1923 209.612 93.8846C207.755 87.5154 207.489 87.5154 205.897 92.8231C204.836 96.0077 205.101 101.581 206.428 105.562C208.02 109.277 208.285 112.462 207.224 112.462C206.163 112.462 206.693 113.523 208.285 114.585C209.877 115.646 212 121.219 213.061 127.058C214.388 134.223 214.123 136.346 212.265 133.958C209.612 129.977 209.877 134.754 213.592 164.742C214.388 171.112 215.98 176.154 217.307 176.154C218.633 176.154 220.225 178.277 220.756 180.665C221.817 184.646 222.083 184.381 222.348 179.869C222.348 176.95 221.552 173.5 220.225 171.908C218.899 170.581 217.041 162.354 215.98 153.596C213.592 132.631 218.103 136.877 224.205 161.558C226.593 171.642 229.512 182.523 230.839 185.442C232.961 189.954 232.961 189.954 231.635 184.646C230.839 181.196 231.369 177.215 232.696 175.358C234.819 172.969 233.492 168.192 228.981 159.169C225.267 152.004 223.144 145.635 223.675 144.838C224.471 144.042 226.328 146.431 227.92 149.881C230.043 154.923 230.308 153.596 228.981 143.246C228.185 136.081 226.328 127.854 225.001 124.669C223.409 120.688 223.144 122.546 224.205 130.773C225.267 139 225.001 141.919 222.879 140.592C221.287 139.531 219.96 134.754 219.96 129.712C219.96 124.669 218.899 120.158 217.572 119.362C214.123 117.238 209.081 101.846 211.735 101.846C213.061 101.846 214.653 105.296 215.715 109.808C216.511 114.054 218.368 117.769 219.695 117.769C221.287 117.769 220.491 113.523 218.368 108.215C216.245 102.908 214.919 96.0077 215.449 92.8231C216.245 88.0462 216.776 88.3116 218.633 95.2116C219.695 99.4577 222.879 106.092 225.267 109.808C227.655 113.523 229.247 117.769 228.716 119.096C228.185 120.688 231.369 125.465 235.88 129.712C245.167 138.469 246.228 136.612 238.268 125.2C235.084 120.954 233.227 116.708 234.023 115.912C234.819 115.115 232.961 110.073 229.512 104.765C226.328 99.4577 221.287 89.6385 218.633 82.7385C216.245 75.8385 211.735 68.4077 209.347 66.0192C206.693 63.6308 205.101 59.9154 205.632 58.0577C206.428 56.2 204.04 52.2192 200.325 49.3C194.488 44.7885 194.223 43.7269 197.672 42.4C200.06 41.3385 203.775 42.1346 205.632 43.7269C208.285 45.85 209.347 45.85 209.347 43.9923C209.347 35.5 186.793 34.1731 181.221 42.1346C179.099 44.7885 176.711 46.1154 175.649 45.0539C172.731 42.4 184.936 32.8462 189.181 34.4385C191.039 35.2346 195.284 34.4385 198.999 32.8462C204.571 30.4577 204.04 30.1923 194.753 30.9885C188.916 31.5192 181.752 33.1116 179.099 34.1731C175.384 35.7654 174.588 35.5 175.915 33.3769C178.303 29.6616 175.649 29.6616 167.689 33.3769ZM174.853 37.0923C174.853 37.8885 173.527 40.8077 172.2 43.7269C170.077 47.7077 170.343 48.7692 173.527 48.7692C175.649 48.7692 177.507 49.8308 177.507 51.4231C177.507 52.75 179.099 53.2808 180.956 52.75C182.813 51.9539 184.405 53.8116 184.405 58.0577C184.936 65.7539 184.671 66.0192 179.629 61.2423C177.507 59.65 173.527 56.7308 170.873 55.1385C166.097 52.4846 163.444 42.6654 166.097 37.3577C167.424 35.2346 174.853 34.7039 174.853 37.0923ZM189.447 46.3808C188.651 50.0962 189.447 51.4231 191.835 50.6269C196.08 49.0346 206.163 55.4039 203.509 58.0577C202.713 59.1192 199.264 58.5885 196.345 56.7308C193.161 55.1385 190.773 54.8731 190.773 56.4654C190.773 57.7923 192.631 59.3846 194.753 60.4462C196.876 61.2423 198.733 63.1 198.733 64.6923C198.733 71.3269 187.324 64.4269 186.793 57.5269C186.793 54.8731 185.732 51.1577 184.405 49.3C182.283 45.85 184.405 40.8077 188.12 40.8077C189.447 40.8077 189.977 43.1962 189.447 46.3808Z" fill="black"/>
<path id="Vector_4" d="M198.999 99.1923C198.999 101.315 200.591 109.808 202.713 117.769C204.571 125.731 206.428 129.977 206.428 127.058C206.428 124.138 204.836 115.646 202.979 108.481C200.856 101.05 199.264 97.0692 198.999 99.1923Z" fill="black"/>
<path id="Vector_5" d="M34.7573 140.327C34.7573 144.573 35.288 146.165 36.084 143.512C36.6147 141.123 36.6147 137.408 36.084 135.55C35.288 133.958 34.7573 135.815 34.7573 140.327Z" fill="black"/>
<path id="Vector_6" d="M233.492 178.808C233.492 180.931 234.553 185.177 235.88 188.096C238.268 193.404 238.268 193.404 238.268 188.096C238.268 185.177 237.207 180.931 235.88 178.808C233.492 175.358 233.227 175.358 233.492 178.808Z" fill="black"/>
</g>

        
<g id="head">
<g id="Group 54">
<path id="Vector" d="M147.763 96.5219C141.907 98.5714 137.223 102.377 136.637 105.598C135.466 110.868 136.051 110.868 143.371 105.013C153.326 97.1075 172.649 96.5219 180.554 103.549C183.482 106.184 185.824 106.769 185.824 105.013C185.824 100.035 173.527 92.7157 165.33 93.0085C161.231 93.0085 153.326 94.4724 147.763 96.5219Z" fill="black"/>
<path id="Vector_2" d="M70.4691 108.526C71.6402 111.746 78.0814 112.625 96.5265 112.039C109.702 112.039 120.242 110.575 119.363 109.404C118.485 107.94 108.823 107.355 97.6977 107.648C86.572 107.94 76.6175 107.355 75.4463 106.476C72.2258 102.963 68.7124 104.427 70.4691 108.526Z" fill="black"/>
<path id="Vector_3" d="M148.934 111.454C136.93 116.724 134.295 121.408 139.858 126.971C146.006 133.119 170.307 137.218 177.334 133.705C185.824 129.02 190.216 119.066 185.239 114.381C179.383 108.526 159.181 106.769 148.934 111.454ZM168.843 113.796C169.429 115.845 169.136 121.408 167.965 126.385C166.794 132.241 165.915 133.119 165.622 129.313C165.33 126.093 164.451 120.53 163.573 116.724C161.523 109.99 166.794 107.355 168.843 113.796ZM157.132 122.579C158.596 130.777 158.303 131.07 154.497 126.385C150.105 120.237 149.519 113.21 153.326 113.21C154.79 113.21 156.546 117.309 157.132 122.579ZM182.018 117.895C183.482 122.287 175.87 133.412 172.942 130.484C170.892 128.435 174.699 113.21 177.334 113.21C179.09 113.21 180.847 115.26 182.018 117.895ZM150.691 127.849C150.691 131.363 149.812 131.363 146.006 127.264C143.371 124.629 142.2 121.115 143.371 119.066C146.006 114.967 150.691 120.53 150.691 127.849Z" fill="black"/>
<path id="Vector_4" d="M84.2296 121.115C67.5412 124.336 83.9369 130.777 108.53 130.777C122.877 130.777 125.512 126.385 113.8 121.994C106.481 119.066 96.2336 118.773 84.2296 121.115Z" fill="black"/>
</g>
</g>

        
<g id="Frame 24">
<path id="Vector" d="M127.512 137.586C126.876 138.434 125.394 143.305 124.123 148.388C122.217 154.741 120.099 158.13 116.499 159.4C110.992 161.518 105.91 169.143 108.875 170.837C109.933 171.472 111.204 170.202 111.84 167.872C112.475 165.542 115.44 162.789 118.405 161.73C122.429 160.036 124.547 156.859 126.876 148.599C129.842 138.434 130.265 133.139 127.512 137.586Z" fill="black"/>
<path id="Vector_2" d="M132.383 159.612C129.841 161.307 130.477 161.518 135.136 160.46C138.948 159.824 142.549 160.248 144.667 161.942C147.42 164.272 147.632 164.272 146.784 161.518C145.514 157.706 136.619 156.436 132.383 159.612Z" fill="black"/>
<path id="Vector_3" d="M118.617 167.872C117.981 168.931 118.829 169.99 120.523 169.99C122.217 169.99 124.335 168.931 124.97 167.872C125.606 166.601 124.759 165.754 123.064 165.754C121.37 165.754 119.252 166.601 118.617 167.872Z" fill="black"/>
<path id="Vector_4" d="M132.806 168.084C133.23 169.355 134.501 170.202 135.56 170.202C136.619 170.202 137.889 169.355 138.313 168.084C138.736 166.813 137.466 165.754 135.56 165.754C133.654 165.754 132.383 166.813 132.806 168.084Z" fill="black"/>
</g>

        
<g id="Frame 30">
<g id="Group 39">
<path id="Vector" d="M148.249 185.971C147.677 186.544 137.194 187.116 124.995 187.116C112.796 187.307 102.503 187.879 102.122 188.642C100.978 190.549 108.221 206 110.127 206C111.271 206 113.749 202.376 115.655 198.179L119.467 190.168L123.661 197.226C126.139 201.041 128.235 204.093 128.807 204.093C129.76 204.093 135.288 193.22 135.288 191.312C135.288 190.549 133.572 191.885 131.476 194.555C127.854 199.324 127.854 199.324 124.995 195.509C121.564 190.74 123.661 188.26 130.713 189.214C134.907 189.596 137.003 191.503 139.672 196.844C141.387 200.85 143.484 204.093 144.437 204.093C145.199 204.093 147.296 201.231 149.393 197.798L153.014 191.694L154.73 196.844C155.683 199.896 157.208 202.185 157.97 202.185C159.114 202.185 162.545 196.272 167.31 186.353C168.073 184.827 149.774 184.445 148.249 185.971ZM161.973 188.26C161.973 192.075 159.495 198.37 158.161 198.37C157.398 198.37 156.064 196.081 155.302 193.029L153.968 187.879L148.821 194.174L143.484 200.278L141.387 195.509C138.338 188.833 138.147 189.214 146.343 188.26C159.686 186.925 161.973 186.925 161.973 188.26ZM113.749 196.463C112.605 199.515 111.08 202.185 110.509 202.185C109.937 202.185 108.412 199.515 107.268 196.463C105.171 190.931 105.362 190.74 110.509 190.74C115.655 190.74 115.846 190.931 113.749 196.463Z" fill="black"/>
</g>
</g>

        
<g id="Frame 37">
<g id="Group 40">
<path id="Vector" d="M40.8998 116.821C40.2662 119.147 39.6326 125.945 39.6326 132.206C39.6326 138.467 38.7879 143.119 37.9432 142.582C36.8872 142.045 36.2537 149.917 36.2537 159.935C36.4648 169.953 35.8313 182.654 34.9865 188.021C33.5082 197.681 33.5082 197.681 36.2537 191.599L39.2103 185.337L40.6886 193.03C41.5333 197.144 43.2228 201.08 44.2788 201.617C45.3347 202.153 45.5459 200.543 44.7011 197.502L43.2228 192.493L48.9249 198.397C52.3039 201.617 56.7388 205.016 59.0619 206.089C61.5961 207.162 59.0619 204.121 53.571 199.47C48.2913 194.64 43.2228 189.273 42.5893 187.663C41.9557 185.874 40.4774 184.443 39.4215 184.443C38.3655 184.443 37.5208 183.191 37.5208 181.76C37.5208 180.328 38.5767 179.076 39.6326 179.076C40.8998 179.076 41.7445 179.613 41.7445 180.507C41.7445 183.012 59.0619 201.438 62.4408 202.511C67.9317 204.121 71.5219 200.186 67.7205 196.608C66.031 194.998 64.5527 192.672 64.1303 191.241C63.708 187.842 55.0493 176.393 50.8256 173.53C47.6578 171.205 47.6578 171.384 50.192 175.498C52.7262 179.613 52.7262 179.792 49.3473 177.466C47.4466 176.035 46.3906 173.709 47.0242 171.742C47.6578 170.131 47.2354 168.164 45.9683 167.448C44.7011 166.733 43.8564 168.343 43.8564 171.563C43.8564 175.498 46.1794 178.539 52.3039 183.37C56.95 186.947 60.7514 190.525 60.7514 191.42C60.7514 192.314 62.2297 193.924 63.9192 195.177C65.6087 196.429 67.087 198.218 67.087 199.112C67.087 200.364 66.031 200.186 64.3415 198.933C62.652 197.86 60.5402 197.681 59.6954 198.397C58.6395 199.112 58.6395 198.754 59.4842 197.502C60.1178 196.429 56.3164 191.062 50.4032 185.516C40.8998 176.214 37.3096 167.985 41.7445 165.659C42.5893 165.122 42.5893 161.366 41.7445 157.251C40.8998 152.958 40.8998 145.981 41.7445 141.509C43.2228 134.353 43.434 134.89 43.6452 147.591C43.8564 164.228 45.7571 164.586 47.4466 148.307C48.2913 139.183 47.8689 135.605 45.1235 132.027C42.3781 128.449 42.1669 127.376 44.2788 126.482C46.1794 125.766 46.1794 125.05 44.7011 124.514C43.434 123.977 43.0116 121.115 43.434 118.252C44.49 111.991 42.8005 111.097 40.8998 116.821Z" fill="black"/>
<path id="Vector_2" d="M205.837 115.39C203.936 119.505 206.259 139.362 208.793 140.793C209.849 141.33 210.483 144.371 210.483 147.412L210.06 153.136L208.582 146.875C207.104 141.151 207.104 141.33 206.681 150.095C206.47 156.535 205.626 159.219 204.147 158.324C202.669 157.609 202.247 158.324 203.091 160.829C204.57 164.586 200.346 173.709 194.221 179.434C192.532 181.223 192.11 182.654 193.166 182.654C194.433 182.654 198.023 179.255 201.191 174.961C204.147 170.847 206.048 169.058 205.203 171.026C204.358 172.994 203.514 176.393 203.514 178.539C203.303 180.507 202.458 181.938 201.402 181.223C200.346 180.686 199.924 181.58 200.768 183.012C201.402 184.622 200.557 187.305 199.079 189.273C197.389 191.062 195.911 191.598 195.911 190.525C195.911 189.631 196.967 187.842 198.445 186.589C200.346 184.979 200.346 184.443 198.445 184.443C197.178 184.443 195.489 186.411 194.644 188.915C194.01 191.42 192.532 192.851 191.476 192.493C190.631 191.956 191.054 193.745 192.743 196.429C194.855 199.828 195.066 201.617 193.588 202.511C191.898 203.227 191.898 204.121 193.377 204.837C194.644 205.373 196.122 204.3 196.967 202.332C197.812 200.364 199.079 199.112 200.135 199.649C200.979 200.185 202.88 199.291 204.358 197.86C206.47 195.713 206.47 194.64 204.57 192.672C203.091 191.062 202.88 189.631 204.147 189.094C205.203 188.557 206.681 189.094 207.104 190.167C207.737 191.42 208.371 190.346 208.371 187.842C208.582 185.158 210.06 180.686 211.75 178.003C215.34 172.099 215.763 174.961 213.017 184.443C209.427 196.25 208.582 202.511 210.694 201.438C211.961 200.901 212.806 197.681 212.806 194.282C212.806 185.695 217.03 184.443 217.241 192.851C217.452 196.607 217.241 201.617 217.03 203.942C216.818 206.447 217.452 207.699 218.93 206.983C221.887 205.373 221.676 196.965 218.297 183.548C216.818 177.645 216.185 172.457 217.03 171.92C221.253 169.416 218.93 117 214.707 119.326C213.651 119.862 213.439 118.968 214.073 117.537C214.918 115.927 214.284 114.674 212.806 114.674C210.905 114.674 210.694 116.642 211.539 120.936C212.384 124.692 212.172 127.197 210.905 127.197C209.849 127.197 208.582 123.798 208.16 119.505C207.737 113.959 207.104 112.886 205.837 115.39ZM215.974 145.623C216.818 152.958 217.03 160.292 216.607 162.26C216.185 164.049 214.918 158.145 213.862 149.022C212.595 140.077 212.384 132.564 213.228 132.564C213.862 132.564 215.129 138.467 215.974 145.623ZM215.129 167.448C216.185 166.732 216.396 167.627 215.763 169.058C213.017 174.961 208.371 170.31 208.793 162.439C208.793 159.04 209.216 159.219 211.116 163.512C212.172 166.196 214.073 167.985 215.129 167.448ZM209.216 176.393C208.582 178.003 207.526 178.897 207.104 178.36C206.47 177.824 206.681 176.75 207.526 175.677C209.427 172.815 210.694 173.351 209.216 176.393ZM204.358 195.892C204.358 196.429 203.514 197.323 202.247 197.86C201.191 198.396 200.135 198.039 200.135 197.144C200.135 196.071 201.191 195.176 202.247 195.176C203.514 195.176 204.358 195.534 204.358 195.892Z" fill="black"/>
<path id="Vector_3" d="M49.136 142.403C49.3472 156.714 50.192 168.879 51.0367 169.595C51.8815 170.489 52.3038 158.682 51.8815 143.655C51.6703 128.807 50.6143 116.463 49.9808 116.463C49.3472 116.463 48.9248 128.091 49.136 142.403Z" fill="black"/>
<path id="Vector_4" d="M219.564 127.197C219.564 130.596 219.986 132.027 220.62 130.238C221.042 128.628 221.042 125.766 220.62 123.977C219.986 122.367 219.564 123.798 219.564 127.197Z" fill="black"/>
<path id="Vector_5" d="M37.5207 197.86C37.5207 201.259 38.3655 204.121 39.2102 204.121C40.055 204.121 40.4773 201.259 40.055 197.86C39.6326 194.461 38.7878 191.598 38.3655 191.598C37.9431 191.598 37.5207 194.461 37.5207 197.86Z" fill="black"/>
<path id="Vector_6" d="M127.845 223.603C126.577 226.644 125.944 227.002 124.254 225.034C122.776 223.245 122.565 223.603 123.832 226.108C124.677 228.076 125.31 231.475 125.31 233.621C125.099 235.947 125.944 237.378 127 236.841C127.845 236.305 129.323 238.63 130.168 242.208C130.801 245.607 132.279 248.112 133.124 247.575C134.18 247.038 135.447 248.29 136.292 250.258C136.926 252.226 138.615 253.836 139.671 253.836C140.938 253.836 141.149 252.942 140.516 252.047C139.882 250.974 140.727 249.722 142.416 249.185C144.317 248.648 145.373 247.575 144.74 246.68C144.317 245.965 145.584 240.24 147.696 233.8L151.709 222.172L145.795 221.993C140.938 221.993 140.305 222.53 141.149 226.287C141.572 228.612 141.149 230.58 140.093 230.58C138.826 230.58 137.982 232.369 138.193 234.516C138.404 239.167 135.236 243.281 132.279 241.85C131.435 241.314 131.857 240.24 133.335 239.346C135.87 237.915 135.87 237.557 133.335 236.126C131.012 234.874 131.224 234.337 134.18 233.979C137.77 233.263 137.982 233.085 134.603 230.222C132.702 228.612 131.012 226.287 131.012 225.034C131.012 223.782 132.279 224.319 134.18 226.287C137.77 230.222 138.404 228.433 135.236 223.245C132.279 218.773 129.534 218.952 127.845 223.603ZM145.795 231.475C144.528 234.158 143.05 235.947 142.416 235.589C141.994 235.052 142.628 232.548 143.895 229.864C147.274 223.782 148.752 225.034 145.795 231.475ZM140.305 245.786C139.46 247.217 138.615 248.469 138.193 248.469C137.77 248.469 137.348 247.217 137.348 245.786C137.348 244.355 138.193 243.103 139.46 243.103C140.516 243.103 140.938 244.355 140.305 245.786Z" fill="black"/>
</g>
</g>

    </svg>
