<?xml version="1.0" encoding="utf-8"?>
<!-- Generator: Adobe Illustrator 25.2.0, SVG Export Plug-In . SVG Version: 6.00 Build 0)  -->
<svg version="1.0" id="Layer_1" xmlns="http://www.w3.org/2000/svg" xmlns:xlink="http://www.w3.org/1999/xlink" x="0px" y="0px"
	 viewBox="0 0 256 256" style="enable-background:new 0 0 256 256;" xml:space="preserve">
<style type="text/css">
	.st0{fill:none;stroke:#000000;stroke-width:4;stroke-miterlimit:10;}
</style>
<g id="head">
	<path d="M38,51.8c0.5,0,0.7,0.2,0.5,0.6c-0.2,0.3-0.1,0.6,0.4,0.6c0.4,0,0.5,0.6,0.4,1.5c-0.2,0.8-0.1,1.5,0.1,1.5
		c0.4,0,0.9,9.1,0.7,13c-0.4,8.8-0.4,9.5,0.5,10c0.7,0.4,0.7,0.5,0.1,0.6c-0.5,0-0.7,0.4-0.5,0.7c0.1,0.4-0.2,1.7-0.6,2.8l-0.9,2.1
		l1.6-1c1.5-1,1.6-1,1.6,0.2c0,0.8-0.3,1.1-0.8,0.9c-0.5-0.2-1-0.1-1.3,0.3c-0.2,0.4,0.1,0.7,0.7,0.7c0.8,0,0.9,0.1,0.3,0.5
		c-1.1,0.7-1,1.4,0.3,1.9c1,0.4,1,0.5-0.2,0.5c-1.3,0.1-1.5,0.7-1.4,4c0,1,0.1,2.8,0.1,4.1c0.1,1.4,0.4,2.2,0.8,2
		c0.4-0.2,0.9,0.1,1.1,0.6c0.2,0.7,0.1,0.8-0.8,0.5c-0.7-0.2-1.2-0.1-1.2,0.2s0.3,0.7,0.6,0.7c0.4,0,0.4,0.4,0,1.2
		c-0.8,1.5-0.2,1.6,1.4,0.1c1-0.8,1.1-0.8,0.5,0c-0.4,0.5-0.5,1.1-0.2,1.2c0.2,0.1,0.1,0.8-0.4,1.7c-0.8,1.4-0.8,1.4-0.5,0.1
		c0.2-0.7,0.1-1.3-0.2-1.3c-0.8,0-0.6,2.2,0.4,3c0.7,0.5,0.9,3.1,1,12.7c0.1,6.6,0,11.8-0.2,11.7c-0.6-0.4-0.5,4,0.1,5.7
		c0.4,0.8,0.6,3,0.6,4.7c0,0.1,0,0.2,0,0.4c1-0.7,2.1-1.2,3.2-1.7c-0.2-1.6-0.5-3.4-0.8-4.7c-0.3-1.9-0.6-12.4-0.6-23.2
		c0-21.5-0.5-34.6-1.3-40.3c-0.6-3.7-0.3-27,0.3-28c0.2-0.3,0.1-0.7-0.2-0.9c-0.3-0.2-0.4-1.9-0.2-3.7c0.4-3.3,0.3-3.3-1.2-3.3
		c-0.8,0-1.7,0.2-1.9,0.6c-0.2,0.3,0.1,1.5,0.5,2.7c0.5,1.1,0.7,2.7,0.5,3.3c-0.2,0.7-0.1,2.1,0.3,3c0.8,2.3-0.2,3.3-3.6,3.6
		C36.6,50,37.1,51.8,38,51.8z M42.4,92.9c0.1,1-0.2,1.8-0.5,1.8c-0.4,0-0.5-0.3-0.3-0.6c0.2-0.4-0.1-0.6-0.5-0.6c-0.5,0-1-0.1-1-0.2
		c0-0.7,1.2-3.4,1.4-3.4c0.2,0,0.1,0.4-0.1,1c-0.2,0.5-0.1,0.8,0.2,0.6C42,91.3,42.3,91.9,42.4,92.9z"/>
	<path d="M210.3,59.3c0,1.5,0.2,2.8,0.5,2.8c0.5,0,0.8,4.6,1,22.3c0.3,20.3,1.5,34.1,3,33.6c0.7-0.2,0.6-1.9-0.7-10.3
		c-1.1-8.2-1.1-18.9,0-18.9c1,0,1.3,1.8,1.9,11.9c0.2,3.1,0.5,6.5,0.6,7.5c0.3,2.3,1,13,1,14.2c-0.2,4.3-0.1,6.1,0.8,7.5
		c0.6,0.8,0.8,1.6,0.4,1.6c-0.3,0-0.5,0.7-0.5,1.5c0,0.8,0.1,1.4,0.4,1.3c0.3-0.2,0.3,5.3,0.1,12.3c0,0.1,0,0.2,0,0.4
		c0.6-0.7,1.4-1.2,2.2-1.5c0.1-0.7,0.3-1,0.6-0.9c0.2,0.1,0.4,0.3,0.5,0.6c0.6-0.1,1.2,0,1.8,0.1c0-0.3,0.1-0.5,0.1-0.6
		c0.3-1.4,0.1-1.8-1.1-2.2c-1.4-0.5-1.4-0.8-1-2.8c0.3-1.3,0.4-2.5,0.3-2.7c-0.1-0.2-0.3-3-0.4-6.1c-0.1-3.1-0.3-6.2-0.6-6.7
		c-0.3-0.5-0.7-2.3-0.8-3.9c-0.4-4-2.1-19.3-2.8-25.5c-0.3-2.8-0.6-8.1-0.7-11.9c-0.1-5.4-0.3-7.2-1.2-8.9c-0.8-1.5-1.1-3.4-1.1-6
		c0-4.5-1-10.4-2.1-12.5c-1.5-2.9-2.2-6.7-1.8-10c0.4-3,0.3-3.3-0.8-3.3c-0.7,0-1.4,0.2-1.6,0.6c-0.2,0.3-0.2,1.6,0.1,2.7
		c0.2,1.4,0.1,2.5-0.4,3c-0.6,0.7-0.6,1.3-0.2,2.3C209.8,55.1,210.3,56.8,210.3,59.3z M213.3,82.3c0.4-0.5,1-0.9,1.3-0.9
		c0.4,0,0.3,0.4-0.1,0.9c-0.4,0.5-1,0.9-1.3,0.9C212.8,83.2,212.9,82.8,213.3,82.3z M214.7,83.8c0.7,0,0.9,0.2,0.5,0.4
		c-0.4,0.1-0.8,0.8-0.8,1.4c0,1.4-1,2.1-1.4,0.9C212.5,85,213.3,83.8,214.7,83.8z"/>
</g>
<path class="st0" d="M42.9,141.1c0.2-3.4,0.2-5.4,0.2-8.4c2-9,3-18,1-27c-4-24,0-47-3-70.7"/>
<path class="st0" d="M208.3,43.8c0.3-0.7,0.6-1.3,0.9-2c-1.3,7,0.5,14.1,1.7,21c3.1,20.9,3.1,42.9,4.1,64.9c1,4,3,8,4,13
	c0,2,0,5,0.2,7.1"/>
<path class="st0" d="M219.5,142.2c-0.6,3.6-1.2,7.3-0.7,11c0.2,1.7,0.7,3.5,1,5.2c0.9,5.4-0.2,11,0.5,16.4c0,0.3,1.8-2.8,1.9-3.1
	c-14.3,12.2-28.3,24.8-42.2,37.5c-15,13.7-30.1,27.4-45.1,41c-2.5-2.8-5.8-4.7-8.9-6.7c-20.2-12.6-38.6-28.1-54.5-45.8
	c-4-4.5-7.9-9.1-11.6-13.8c-1.8-2.3-3.5-4.6-5.2-7c-0.4-0.6-0.9-1.2-1.5-1.7c-1.2-1-2.8-1.3-3.8-2.7c-0.9-1.4-1.1-3.2-1.6-4.7
	c-0.5-1.6-1.2-3.2-2.1-4.7c-1.1-1.9-2.6-3.6-3.1-5.8c-0.3-1.2-0.2-2.4-0.2-3.5c0.3-6.5,0.5-13,0.8-19.6"/>
</svg>
