<?xml version="1.0" encoding="utf-8"?>
<!-- Generator: Adobe Illustrator 25.2.0, SVG Export Plug-In . SVG Version: 6.00 Build 0)  -->
<svg version="1.1" id="Layer_1" xmlns="http://www.w3.org/2000/svg" xmlns:xlink="http://www.w3.org/1999/xlink" x="0px" y="0px"
	 viewBox="0 0 256 256" style="enable-background:new 0 0 256 256;" xml:space="preserve">
<style type="text/css">
	.st0{fill:none;stroke:#000000;stroke-width:3;stroke-miterlimit:10;}
</style>
<g id="Frame_25">
	<path d="M115.2,165.7c0.3-0.2,0.7-0.4,1.1-0.6l8-14.8c4.9-8.9,7.9-16.3,6.7-16.3c-1.2,0-6.2,7.7-11.1,17.3
		c-4.8,9.2-7.2,14.9-6.7,16.7C113.4,167.1,114.1,166.3,115.2,165.7z"/>
</g>
<path class="st0" d="M117.4,162.3c-2.4,1.7-3.9,4.6-3.7,7.6c4.1,2.5,7.9,5.5,11.3,8.9c2.2,2.2,4.7,4.7,7.7,4.3
	c1.9-0.3,3.4-1.7,4.9-2.8c2.5-1.9,5.3-3.2,8.3-4c1.6-0.4,3.2-0.6,4.6-1.5s2.5-2.4,2.2-4"/>
<path class="st0" d="M117.2,170.4c1.2-0.4,2.4,0.6,3.2,1.6c1.4,1.4,2.7,2.9,3.4,4.8"/>
<path class="st0" d="M140.7,177.2c1.2-1.1,2.6-2.1,4.2-2.7c1.5-0.6,3.4-0.9,4.6,0.3c0.1,0.1,0.3,0.3,0.5,0.2s-0.2-0.4-0.1-0.2"/>
<path class="st0" d="M129.7,135.7c-6.2,10.3-12.6,20.9-15.3,32.6"/>
</svg>
